<svg width="166" height="40" viewBox="0 0 166 40" fill="none" xmlns="http://www.w3.org/2000/svg">
<g filter="url(#filter0_d_1391_852)">
<rect x="14.8164" y="12.4761" width="138.282" height="12.6596" fill="#F7EF22"/>
<mask id="path-2-outside-1_1391_852" maskUnits="userSpaceOnUse" x="4" y="0.685547" width="158" height="31" fill="black">
<rect fill="white" x="4" y="0.685547" width="158" height="31"/>
<path fill-rule="evenodd" clip-rule="evenodd" d="M19.4116 27.5773C25.3048 27.5773 30.1904 23.1002 30.8434 17.4255H26.1755C25.5427 20.7572 22.7533 23.1605 19.4116 23.1605C15.6951 23.1605 12.7485 20.0459 12.7485 16.1636C12.7485 12.2572 15.6951 9.10234 19.4116 9.10234C21.7052 9.10234 23.9787 10.2678 25.583 12.635L29.1625 10.0508C27.1631 6.81558 23.503 4.68555 19.3713 4.68555C13.0629 4.68555 8 9.81369 8 16.1435C8 22.4733 13.0629 27.5773 19.4116 27.5773ZM40.3522 27.5172C44.6653 27.5172 48.265 23.9886 48.265 19.7125C48.265 15.3921 44.6653 11.8836 40.3522 11.8836C36.0431 11.8836 32.5604 15.3721 32.5604 19.7125C32.5604 23.9886 36.0431 27.5172 40.3522 27.5172ZM40.3522 16.0834C42.408 16.0834 43.9519 17.6026 43.9519 19.7125C43.9519 21.8586 42.3919 23.3376 40.3522 23.3376C38.4133 23.3376 36.8332 21.8425 36.8332 19.7125C36.8332 17.6026 38.4133 16.0834 40.3522 16.0834ZM50.2607 7.17356C50.2607 5.98798 51.3894 4.8667 52.6914 4.8667C54.1184 4.8667 55.2228 5.96788 55.2228 7.17356C55.2228 8.47167 54.1184 9.57688 52.6914 9.57688C51.3894 9.57688 50.2607 8.47167 50.2607 7.17356ZM54.848 27.2039H50.6155V12.2173H54.848V27.2039ZM68.7917 27.2034H72.9637V19.7322C72.9637 15.4118 70.1179 11.9033 66.0023 11.9033C64.6398 11.9033 62.8783 12.3173 62.0479 13.2617V12.2168H57.8154V27.2034H62.0681V19.7322C62.0681 17.3248 63.7893 16.1031 65.6677 16.1031C67.3889 16.1031 68.7917 17.3248 68.7917 19.7322V27.2034ZM76.3651 27.1831V5.08306H84.0763C89.2763 5.08306 93.2709 8.96534 93.2709 13.776C93.2709 19.4547 89.4939 23.3571 83.6208 23.3571H80.9725V27.1831H76.3651ZM83.5039 19.2176C86.7851 19.2176 88.6232 17.2282 88.6232 14.1498C88.6232 11.449 86.9826 9.26274 83.778 9.26274H80.9725V19.2377H83.5039V19.2176ZM102.844 27.5174C105.512 27.5174 108.161 26.2956 109.447 24.4027L106.065 21.8226C105.375 22.8876 104.11 23.3377 102.824 23.3377C102.388 23.3377 101.973 23.3176 101.578 23.1609L109.983 17.1687C109.072 14.3675 106.206 11.8838 102.485 11.8838C98.1761 11.8838 94.6934 15.3722 94.6934 19.7127C94.6934 23.9888 98.3131 27.5174 102.844 27.5174ZM104.561 16.815L99.0871 20.6973C98.9863 20.3999 98.9662 20.0663 98.9662 19.7327C98.9662 17.6228 100.55 16.1037 102.485 16.1037C103.279 16.1037 103.969 16.3609 104.561 16.815ZM126.732 5.09908V27.2032H122.499V26.1381C121.846 27.0062 120.206 27.5367 118.839 27.5367C114.728 27.5367 111.467 24.0081 111.467 19.732C111.467 15.3915 114.829 11.9031 118.839 11.9031C120.186 11.9031 121.846 12.5542 122.499 13.2615V5.09908H126.732ZM122.697 19.7119C122.697 17.602 121.234 16.0828 119.275 16.0828C117.34 16.0828 115.756 17.602 115.756 19.7119C115.756 21.8419 117.34 23.337 119.275 23.337C121.234 23.337 122.697 21.858 122.697 19.7119ZM131.795 4.86671C130.489 4.86671 129.36 5.98799 129.36 7.17357C129.36 8.47169 130.489 9.57689 131.795 9.57689C133.218 9.57689 134.326 8.47169 134.326 7.17357C134.326 5.9679 133.218 4.86671 131.795 4.86671ZM129.719 27.2039H133.952V12.2173H129.719V27.2039ZM151.57 12.2166V27.2032H147.337V26.1381C146.684 27.0062 145.044 27.5367 143.677 27.5367C139.566 27.5367 136.301 24.0081 136.301 19.732C136.301 15.3915 139.662 11.9031 143.677 11.9031C145.024 11.9031 146.684 12.5542 147.337 13.2615V12.2166H151.57ZM147.515 19.7119C147.515 17.602 146.051 16.0828 144.092 16.0828C142.154 16.0828 140.573 17.602 140.573 19.7119C140.573 21.8419 142.154 23.337 144.092 23.337C146.051 23.337 147.515 21.858 147.515 19.7119ZM157.879 22.9834H153.646V27.2033H157.879V22.9834Z"/>
</mask>
<path fill-rule="evenodd" clip-rule="evenodd" d="M19.4116 27.5773C25.3048 27.5773 30.1904 23.1002 30.8434 17.4255H26.1755C25.5427 20.7572 22.7533 23.1605 19.4116 23.1605C15.6951 23.1605 12.7485 20.0459 12.7485 16.1636C12.7485 12.2572 15.6951 9.10234 19.4116 9.10234C21.7052 9.10234 23.9787 10.2678 25.583 12.635L29.1625 10.0508C27.1631 6.81558 23.503 4.68555 19.3713 4.68555C13.0629 4.68555 8 9.81369 8 16.1435C8 22.4733 13.0629 27.5773 19.4116 27.5773ZM40.3522 27.5172C44.6653 27.5172 48.265 23.9886 48.265 19.7125C48.265 15.3921 44.6653 11.8836 40.3522 11.8836C36.0431 11.8836 32.5604 15.3721 32.5604 19.7125C32.5604 23.9886 36.0431 27.5172 40.3522 27.5172ZM40.3522 16.0834C42.408 16.0834 43.9519 17.6026 43.9519 19.7125C43.9519 21.8586 42.3919 23.3376 40.3522 23.3376C38.4133 23.3376 36.8332 21.8425 36.8332 19.7125C36.8332 17.6026 38.4133 16.0834 40.3522 16.0834ZM50.2607 7.17356C50.2607 5.98798 51.3894 4.8667 52.6914 4.8667C54.1184 4.8667 55.2228 5.96788 55.2228 7.17356C55.2228 8.47167 54.1184 9.57688 52.6914 9.57688C51.3894 9.57688 50.2607 8.47167 50.2607 7.17356ZM54.848 27.2039H50.6155V12.2173H54.848V27.2039ZM68.7917 27.2034H72.9637V19.7322C72.9637 15.4118 70.1179 11.9033 66.0023 11.9033C64.6398 11.9033 62.8783 12.3173 62.0479 13.2617V12.2168H57.8154V27.2034H62.0681V19.7322C62.0681 17.3248 63.7893 16.1031 65.6677 16.1031C67.3889 16.1031 68.7917 17.3248 68.7917 19.7322V27.2034ZM76.3651 27.1831V5.08306H84.0763C89.2763 5.08306 93.2709 8.96534 93.2709 13.776C93.2709 19.4547 89.4939 23.3571 83.6208 23.3571H80.9725V27.1831H76.3651ZM83.5039 19.2176C86.7851 19.2176 88.6232 17.2282 88.6232 14.1498C88.6232 11.449 86.9826 9.26274 83.778 9.26274H80.9725V19.2377H83.5039V19.2176ZM102.844 27.5174C105.512 27.5174 108.161 26.2956 109.447 24.4027L106.065 21.8226C105.375 22.8876 104.11 23.3377 102.824 23.3377C102.388 23.3377 101.973 23.3176 101.578 23.1609L109.983 17.1687C109.072 14.3675 106.206 11.8838 102.485 11.8838C98.1761 11.8838 94.6934 15.3722 94.6934 19.7127C94.6934 23.9888 98.3131 27.5174 102.844 27.5174ZM104.561 16.815L99.0871 20.6973C98.9863 20.3999 98.9662 20.0663 98.9662 19.7327C98.9662 17.6228 100.55 16.1037 102.485 16.1037C103.279 16.1037 103.969 16.3609 104.561 16.815ZM126.732 5.09908V27.2032H122.499V26.1381C121.846 27.0062 120.206 27.5367 118.839 27.5367C114.728 27.5367 111.467 24.0081 111.467 19.732C111.467 15.3915 114.829 11.9031 118.839 11.9031C120.186 11.9031 121.846 12.5542 122.499 13.2615V5.09908H126.732ZM122.697 19.7119C122.697 17.602 121.234 16.0828 119.275 16.0828C117.34 16.0828 115.756 17.602 115.756 19.7119C115.756 21.8419 117.34 23.337 119.275 23.337C121.234 23.337 122.697 21.858 122.697 19.7119ZM131.795 4.86671C130.489 4.86671 129.36 5.98799 129.36 7.17357C129.36 8.47169 130.489 9.57689 131.795 9.57689C133.218 9.57689 134.326 8.47169 134.326 7.17357C134.326 5.9679 133.218 4.86671 131.795 4.86671ZM129.719 27.2039H133.952V12.2173H129.719V27.2039ZM151.57 12.2166V27.2032H147.337V26.1381C146.684 27.0062 145.044 27.5367 143.677 27.5367C139.566 27.5367 136.301 24.0081 136.301 19.732C136.301 15.3915 139.662 11.9031 143.677 11.9031C145.024 11.9031 146.684 12.5542 147.337 13.2615V12.2166H151.57ZM147.515 19.7119C147.515 17.602 146.051 16.0828 144.092 16.0828C142.154 16.0828 140.573 17.602 140.573 19.7119C140.573 21.8419 142.154 23.337 144.092 23.337C146.051 23.337 147.515 21.858 147.515 19.7119ZM157.879 22.9834H153.646V27.2033H157.879V22.9834Z" fill="black"/>
<path d="M30.8434 17.4255L34.7131 17.8708C34.8401 16.7675 34.49 15.6624 33.7509 14.8334C33.0118 14.0044 31.954 13.5303 30.8434 13.5303V17.4255ZM26.1755 17.4255V13.5303C24.3045 13.5303 22.6978 14.8605 22.3487 16.6986L26.1755 17.4255ZM25.583 12.635L22.3585 14.8203C22.9493 15.6921 23.868 16.2875 24.905 16.4708C25.9421 16.6541 27.0092 16.4097 27.863 15.7932L25.583 12.635ZM29.1625 10.0508L31.4425 13.2091C33.0989 12.0132 33.55 9.7409 32.476 8.00304L29.1625 10.0508ZM50.6155 27.2039H46.7202C46.7202 29.3552 48.4642 31.0991 50.6155 31.0991V27.2039ZM54.848 27.2039V31.0991C56.9993 31.0991 58.7432 29.3552 58.7432 27.2039H54.848ZM50.6155 12.2173V8.32203C48.4642 8.32203 46.7202 10.066 46.7202 12.2173H50.6155ZM54.848 12.2173H58.7432C58.7432 10.066 56.9993 8.32203 54.848 8.32203V12.2173ZM72.9637 27.2034V31.0986C75.115 31.0986 76.859 29.3547 76.859 27.2034H72.9637ZM68.7917 27.2034H64.8964C64.8964 29.3547 66.6404 31.0986 68.7917 31.0986V27.2034ZM62.0479 13.2617H58.1526C58.1526 14.8828 59.1567 16.3345 60.6735 16.9065C62.1904 17.4785 63.9029 17.0512 64.9733 15.8337L62.0479 13.2617ZM62.0479 12.2168H65.9432C65.9432 10.0655 64.1992 8.32152 62.0479 8.32152V12.2168ZM57.8154 12.2168V8.32152C55.6641 8.32152 53.9202 10.0655 53.9202 12.2168H57.8154ZM57.8154 27.2034H53.9202C53.9202 29.3547 55.6641 31.0986 57.8154 31.0986V27.2034ZM62.0681 27.2034V31.0986C64.2194 31.0986 65.9634 29.3547 65.9634 27.2034H62.0681ZM76.3651 5.08306V1.18779C74.2138 1.18779 72.4699 2.93176 72.4699 5.08306H76.3651ZM76.3651 27.1831H72.4699C72.4699 29.3344 74.2138 31.0784 76.3651 31.0784V27.1831ZM80.9725 23.3571V19.4618C78.8212 19.4618 77.0772 21.2058 77.0772 23.3571H80.9725ZM80.9725 27.1831V31.0784C83.1238 31.0784 84.8678 29.3344 84.8678 27.1831H80.9725ZM83.5039 19.2176V15.3223C81.3526 15.3223 79.6087 17.0663 79.6087 19.2176H83.5039ZM80.9725 9.26274V5.36747C78.8212 5.36747 77.0772 7.11144 77.0772 9.26274H80.9725ZM80.9725 19.2377H77.0772C77.0772 21.389 78.8212 23.133 80.9725 23.133V19.2377ZM83.5039 19.2377V23.133C85.6552 23.133 87.3992 21.389 87.3992 19.2377H83.5039ZM109.447 24.4027L112.669 26.5916C113.831 24.8809 113.454 22.5602 111.809 21.3058L109.447 24.4027ZM106.065 21.8226L108.427 18.7257C107.564 18.0673 106.466 17.7989 105.397 17.985C104.327 18.1711 103.384 18.7949 102.795 19.7061L106.065 21.8226ZM101.578 23.1609L99.3169 19.9892C98.1553 20.8174 97.5394 22.2142 97.7113 23.6304C97.8833 25.0466 98.8156 26.2554 100.142 26.7816L101.578 23.1609ZM109.983 17.1687L112.244 20.3404C113.629 19.353 114.213 17.5813 113.687 15.964L109.983 17.1687ZM99.0871 20.6973L95.3979 21.9474C95.7928 23.1128 96.715 24.023 97.8855 24.4026C99.0559 24.7822 100.337 24.5864 101.34 23.8746L99.0871 20.6973ZM104.561 16.815L106.815 19.9923C107.824 19.2766 108.433 18.1241 108.456 16.8871C108.479 15.6502 107.913 14.4759 106.931 13.7233L104.561 16.815ZM126.732 27.2032V31.0984C128.883 31.0984 130.627 29.3545 130.627 27.2032H126.732ZM126.732 5.09908H130.627C130.627 2.94778 128.883 1.20381 126.732 1.20381V5.09908ZM122.499 27.2032H118.604C118.604 29.3545 120.348 31.0984 122.499 31.0984V27.2032ZM122.499 26.1381H126.395C126.395 24.4625 125.323 22.9747 123.734 22.4436C122.145 21.9126 120.394 22.4575 119.387 23.7965L122.499 26.1381ZM122.499 13.2615L119.637 15.9038C120.725 17.0822 122.424 17.4734 123.918 16.8893C125.412 16.3052 126.395 14.8653 126.395 13.2615H122.499ZM122.499 5.09908V1.20381C120.348 1.20381 118.604 2.94778 118.604 5.09908H122.499ZM133.952 27.2039V31.0992C136.103 31.0992 137.847 29.3552 137.847 27.2039H133.952ZM129.719 27.2039H125.824C125.824 29.3552 127.568 31.0992 129.719 31.0992V27.2039ZM133.952 12.2173H137.847C137.847 10.066 136.103 8.32204 133.952 8.32204V12.2173ZM129.719 12.2173V8.32204C127.568 8.32204 125.824 10.066 125.824 12.2173H129.719ZM151.57 27.2032V31.0984C153.721 31.0984 155.465 29.3545 155.465 27.2032H151.57ZM151.57 12.2166H155.465C155.465 10.0653 153.721 8.32132 151.57 8.32132V12.2166ZM147.337 27.2032H143.442C143.442 29.3545 145.186 31.0984 147.337 31.0984V27.2032ZM147.337 26.1381H151.233C151.233 24.4625 150.161 22.9747 148.572 22.4437C146.983 21.9126 145.232 22.4575 144.225 23.7965L147.337 26.1381ZM147.337 13.2615L144.475 15.9038C145.563 17.0822 147.262 17.4734 148.756 16.8893C150.25 16.3052 151.233 14.8653 151.233 13.2615H147.337ZM147.337 12.2166V8.32132C145.186 8.32132 143.442 10.0653 143.442 12.2166H147.337ZM153.646 22.9834V19.0881C151.495 19.0881 149.751 20.8321 149.751 22.9834H153.646ZM157.879 22.9834H161.774C161.774 20.8321 160.03 19.0881 157.879 19.0881V22.9834ZM153.646 27.2033H149.751C149.751 29.3546 151.495 31.0985 153.646 31.0985V27.2033ZM157.879 27.2033V31.0985C160.03 31.0985 161.774 29.3546 161.774 27.2033H157.879ZM26.9736 16.9802C26.5446 20.7081 23.3065 23.682 19.4116 23.682V31.4726C27.3032 31.4726 33.8361 25.4923 34.7131 17.8708L26.9736 16.9802ZM26.1755 21.3208H30.8434V13.5303H26.1755V21.3208ZM19.4116 27.0558C24.7181 27.0558 29.0382 23.2284 30.0024 18.1524L22.3487 16.6986C22.0472 18.286 20.7884 19.2653 19.4116 19.2653V27.0558ZM8.85318 16.1636C8.85318 22.0079 13.3593 27.0558 19.4116 27.0558V19.2653C18.0308 19.2653 16.6437 18.0838 16.6437 16.1636H8.85318ZM19.4116 5.20707C13.3227 5.20707 8.85318 10.3338 8.85318 16.1636H16.6437C16.6437 14.1805 18.0675 12.9976 19.4116 12.9976V5.20707ZM28.8075 10.4496C26.5459 7.11275 23.1131 5.20707 19.4116 5.20707V12.9976C20.2974 12.9976 21.4114 13.4229 22.3585 14.8203L28.8075 10.4496ZM26.8824 6.89256L23.3029 9.47673L27.863 15.7932L31.4425 13.2091L26.8824 6.89256ZM19.3713 8.58082C22.1545 8.58082 24.5601 10.0131 25.8489 12.0986L32.476 8.00304C29.7662 3.61806 24.8515 0.790271 19.3713 0.790271V8.58082ZM11.8953 16.1435C11.8953 11.9311 15.2479 8.58082 19.3713 8.58082V0.790271C10.8778 0.790271 4.10472 7.69626 4.10472 16.1435H11.8953ZM19.4116 23.682C15.2283 23.682 11.8953 20.3361 11.8953 16.1435H4.10472C4.10472 24.6105 10.8975 31.4726 19.4116 31.4726V23.682ZM44.3697 19.7125C44.3697 21.78 42.5718 23.622 40.3522 23.622V31.4125C46.7589 31.4125 52.1602 26.1973 52.1602 19.7125H44.3697ZM40.3522 15.7789C42.5705 15.7789 44.3697 17.5995 44.3697 19.7125H52.1602C52.1602 13.1848 46.7602 7.98835 40.3522 7.98835V15.7789ZM36.4557 19.7125C36.4557 17.5094 38.2083 15.7789 40.3522 15.7789V7.98835C33.878 7.98835 28.6651 13.2347 28.6651 19.7125H36.4557ZM40.3522 23.622C38.2135 23.622 36.4557 21.8565 36.4557 19.7125H28.6651C28.6651 26.1208 33.8728 31.4125 40.3522 31.4125V23.622ZM47.8471 19.7125C47.8471 15.4547 44.5627 12.1881 40.3522 12.1881V19.9787C40.3833 19.9787 40.368 19.9837 40.322 19.9651C40.2761 19.9465 40.2199 19.9124 40.1673 19.8598C40.1146 19.807 40.082 19.752 40.0653 19.7105C40.0484 19.6687 40.0566 19.6634 40.0566 19.7125H47.8471ZM40.3522 27.2328C44.5033 27.2328 47.8471 24.0496 47.8471 19.7125H40.0566C40.0566 19.7734 40.0464 19.7701 40.0651 19.7239C40.0837 19.6778 40.12 19.6174 40.1775 19.5606C40.2343 19.5044 40.2927 19.4705 40.336 19.4533C40.379 19.4362 40.3892 19.4423 40.3522 19.4423V27.2328ZM32.9379 19.7125C32.9379 23.9787 36.247 27.2328 40.3522 27.2328V19.4423C40.403 19.4423 40.5211 19.4701 40.6256 19.5751C40.6738 19.6234 40.7039 19.6737 40.7198 19.7128C40.7362 19.7531 40.7285 19.7591 40.7285 19.7125H32.9379ZM40.3522 12.1881C36.2269 12.1881 32.9379 15.4865 32.9379 19.7125H40.7285C40.7285 19.6754 40.7345 19.6839 40.7191 19.7217C40.7044 19.7579 40.6769 19.8037 40.6332 19.8479C40.5383 19.9437 40.4213 19.9787 40.3522 19.9787V12.1881ZM52.6914 0.971423C49.3773 0.971423 46.3655 3.7001 46.3655 7.17356H54.156C54.156 7.81516 53.8707 8.20711 53.69 8.38113C53.4963 8.56771 53.1631 8.76198 52.6914 8.76198V0.971423ZM59.1181 7.17356C59.1181 3.58295 56.0283 0.971423 52.6914 0.971423V8.76198C52.3872 8.76198 52.075 8.64115 51.8283 8.40999C51.5963 8.19245 51.3276 7.77618 51.3276 7.17356H59.1181ZM52.6914 13.4722C56.1375 13.4722 59.1181 10.7528 59.1181 7.17356H51.3276C51.3276 6.19059 52.0992 5.6816 52.6914 5.6816V13.4722ZM46.3655 7.17356C46.3655 10.6756 49.2911 13.4722 52.6914 13.4722V5.6816C53.152 5.6816 53.5037 5.8724 53.7223 6.08791C53.9424 6.30487 54.156 6.67564 54.156 7.17356H46.3655ZM50.6155 31.0991H54.848V23.3086H50.6155V31.0991ZM46.7202 12.2173V27.2039H54.5107V12.2173H46.7202ZM54.848 8.32203H50.6155V16.1126H54.848V8.32203ZM58.7432 27.2039V12.2173H50.9527V27.2039H58.7432ZM72.9637 23.3081H68.7917V31.0986H72.9637V23.3081ZM69.0684 19.7322V27.2034H76.859V19.7322H69.0684ZM66.0023 15.7986C67.4556 15.7986 69.0684 17.0139 69.0684 19.7322H76.859C76.859 13.8098 72.7801 8.00804 66.0023 8.00804V15.7986ZM64.9733 15.8337C64.8294 15.9974 64.7242 16.0517 64.7433 16.0409C64.7583 16.0325 64.8327 15.9943 64.9792 15.9489C65.2884 15.853 65.6776 15.7986 66.0023 15.7986V8.00804C64.9646 8.00804 63.7917 8.16061 62.6719 8.50783C61.6148 8.83563 60.2024 9.46153 59.1225 10.6897L64.9733 15.8337ZM58.1526 12.2168V13.2617H65.9432V12.2168H58.1526ZM57.8154 16.1121H62.0479V8.32152H57.8154V16.1121ZM61.7107 27.2034V12.2168H53.9202V27.2034H61.7107ZM62.0681 23.3081H57.8154V31.0986H62.0681V23.3081ZM58.1728 19.7322V27.2034H65.9634V19.7322H58.1728ZM65.6677 12.2078C63.9085 12.2078 62.026 12.7808 60.5392 14.1363C58.9931 15.5459 58.1728 17.5335 58.1728 19.7322H65.9634C65.9634 19.5995 65.9857 19.5915 65.9565 19.6608C65.9262 19.7328 65.8687 19.8197 65.7878 19.8935C65.6312 20.0362 65.5485 19.9984 65.6677 19.9984V12.2078ZM72.687 19.7322C72.687 17.7709 72.1034 15.8365 70.723 14.3573C69.3333 12.8681 67.4734 12.2078 65.6677 12.2078V19.9984C65.6369 19.9984 65.5436 19.9925 65.4126 19.9391C65.2764 19.8836 65.1392 19.7924 65.0273 19.6725C64.9161 19.5533 64.8756 19.4553 64.8686 19.4351C64.8635 19.4205 64.8964 19.5065 64.8964 19.7322H72.687ZM72.687 27.2034V19.7322H64.8964V27.2034H72.687ZM72.4699 5.08306V27.1831H80.2604V5.08306H72.4699ZM84.0763 1.18779H76.3651V8.97834H84.0763V1.18779ZM97.1662 13.776C97.1662 6.64112 91.2505 1.18779 84.0763 1.18779V8.97834C87.302 8.97834 89.3756 11.2896 89.3756 13.776H97.1662ZM83.6208 27.2524C87.4423 27.2524 90.899 25.9646 93.4084 23.4447C95.9135 20.9291 97.1662 17.4951 97.1662 13.776H89.3756C89.3756 15.7356 88.7398 17.0922 87.8881 17.9475C87.0408 18.7984 85.6724 19.4618 83.6208 19.4618V27.2524ZM80.9725 27.2524H83.6208V19.4618H80.9725V27.2524ZM84.8678 27.1831V23.3571H77.0772V27.1831H84.8678ZM76.3651 31.0784H80.9725V23.2878H76.3651V31.0784ZM84.728 14.1498C84.728 14.5353 84.6702 14.7811 84.6209 14.9178C84.5745 15.0463 84.5319 15.0915 84.5201 15.1034C84.5093 15.1143 84.466 15.1575 84.3358 15.2057C84.1966 15.2572 83.9334 15.3223 83.5039 15.3223V23.1129C85.9408 23.1129 88.3096 22.3564 90.068 20.5728C91.8157 18.8 92.5185 16.4602 92.5185 14.1498H84.728ZM83.778 13.158C84.134 13.158 84.3291 13.2178 84.4127 13.252C84.4906 13.2839 84.5178 13.3113 84.5313 13.326C84.5555 13.3523 84.728 13.5669 84.728 14.1498H92.5185C92.5185 12.0319 91.8707 9.80294 90.2734 8.06092C88.6275 6.26588 86.319 5.36747 83.778 5.36747V13.158ZM80.9725 13.158H83.778V5.36747H80.9725V13.158ZM84.8678 19.2377V9.26274H77.0772V19.2377H84.8678ZM83.5039 15.3424H80.9725V23.133H83.5039V15.3424ZM79.6087 19.2176V19.2377H87.3992V19.2176H79.6087ZM106.224 22.2139C105.817 22.8136 104.521 23.6221 102.844 23.6221V31.4127C106.503 31.4127 110.504 29.7777 112.669 26.5916L106.224 22.2139ZM103.702 24.9195L107.084 27.4997L111.809 21.3058L108.427 18.7257L103.702 24.9195ZM102.824 27.233C104.876 27.233 107.671 26.5099 109.335 23.939L102.795 19.7061C102.853 19.6162 102.922 19.5424 102.988 19.4884C103.052 19.4365 103.099 19.4143 103.111 19.409C103.122 19.4042 103.104 19.4135 103.05 19.4237C102.996 19.4338 102.92 19.4424 102.824 19.4424V27.233ZM100.142 26.7816C101.277 27.2322 102.34 27.233 102.824 27.233V19.4424C102.742 19.4424 102.693 19.4414 102.66 19.4401C102.628 19.4388 102.626 19.4377 102.645 19.4399C102.685 19.4446 102.826 19.4652 103.015 19.5402L100.142 26.7816ZM107.721 13.997L99.3169 19.9892L103.84 26.3326L112.244 20.3404L107.721 13.997ZM102.485 15.7791C104.423 15.7791 105.859 17.0837 106.278 18.3734L113.687 15.964C112.284 11.6513 107.989 7.98851 102.485 7.98851V15.7791ZM98.5886 19.7127C98.5886 17.5096 100.341 15.7791 102.485 15.7791V7.98851C96.0109 7.98851 90.7981 13.2348 90.7981 19.7127H98.5886ZM102.844 23.6221C100.324 23.6221 98.5886 21.6999 98.5886 19.7127H90.7981C90.7981 26.2777 96.3021 31.4127 102.844 31.4127V23.6221ZM101.34 23.8746L106.815 19.9923L102.308 13.6377L96.8337 17.52L101.34 23.8746ZM95.0709 19.7327C95.0709 20.1531 95.0832 21.0187 95.3979 21.9474L102.776 19.4472C102.841 19.6373 102.857 19.7721 102.861 19.8077C102.865 19.8417 102.861 19.8304 102.861 19.7327H95.0709ZM102.485 12.2084C98.3668 12.2084 95.0709 15.5039 95.0709 19.7327H102.861C102.861 19.697 102.867 19.7062 102.852 19.7441C102.837 19.7805 102.81 19.8257 102.767 19.8692C102.674 19.9629 102.558 19.9989 102.485 19.9989V12.2084ZM106.931 13.7233C105.702 12.7817 104.19 12.2084 102.485 12.2084V19.9989C102.453 19.9989 102.388 19.9923 102.311 19.9653C102.236 19.9392 102.196 19.9097 102.192 19.9067L106.931 13.7233ZM130.627 27.2032V5.09908H122.837V27.2032H130.627ZM122.499 31.0984H126.732V23.3079H122.499V31.0984ZM118.604 26.1381V27.2032H126.395V26.1381H118.604ZM118.839 31.432C119.984 31.432 121.186 31.2174 122.269 30.8234C123.27 30.4593 124.642 29.7691 125.612 28.4798L119.387 23.7965C119.569 23.5534 119.726 23.4541 119.736 23.4472C119.756 23.4347 119.717 23.4618 119.605 23.5026C119.498 23.5416 119.363 23.5787 119.214 23.6051C119.065 23.6315 118.935 23.6415 118.839 23.6415V31.432ZM107.572 19.732C107.572 25.9218 112.346 31.432 118.839 31.432V23.6415C117.109 23.6415 115.362 22.0944 115.362 19.732H107.572ZM118.839 8.00784C112.486 8.00784 107.572 13.4369 107.572 19.732H115.362C115.362 17.3462 117.171 15.7984 118.839 15.7984V8.00784ZM125.362 10.6192C124.45 9.63168 123.234 9.02351 122.306 8.673C121.303 8.29438 120.081 8.00784 118.839 8.00784V15.7984C118.872 15.7984 118.966 15.8035 119.113 15.8334C119.256 15.8624 119.409 15.9067 119.553 15.9611C119.7 16.0167 119.799 16.068 119.843 16.0945C119.863 16.1066 119.856 16.1037 119.827 16.0812C119.8 16.0605 119.73 16.0036 119.637 15.9038L125.362 10.6192ZM118.604 5.09908V13.2615H126.395V5.09908H118.604ZM126.732 1.20381H122.499V8.99436H126.732V1.20381ZM119.275 19.9781C119.256 19.9781 119.195 19.9734 119.112 19.9381C119.03 19.9031 118.954 19.85 118.895 19.7874C118.764 19.6489 118.802 19.5714 118.802 19.7119H126.592C126.592 15.6454 123.575 12.1875 119.275 12.1875V19.9781ZM119.651 19.7119C119.651 19.6762 119.657 19.6853 119.641 19.7233C119.627 19.7596 119.599 19.8049 119.556 19.8484C119.463 19.9421 119.347 19.9781 119.275 19.9781V12.1875C115.156 12.1875 111.86 15.483 111.86 19.7119H119.651ZM119.275 19.4417C119.329 19.4417 119.446 19.4705 119.549 19.5734C119.596 19.621 119.626 19.6708 119.642 19.71C119.658 19.7505 119.651 19.7572 119.651 19.7119H111.86C111.86 23.981 115.176 27.2322 119.275 27.2322V19.4417ZM118.802 19.7119C118.802 19.8041 118.787 19.8263 118.798 19.797C118.809 19.7671 118.84 19.7049 118.907 19.6357C118.973 19.5661 119.054 19.5115 119.136 19.4774C119.217 19.4434 119.271 19.4417 119.275 19.4417V27.2322C123.544 27.2322 126.592 23.8469 126.592 19.7119H118.802ZM133.256 7.17357C133.256 7.81548 132.97 8.20809 132.788 8.38267C132.594 8.5701 132.262 8.76199 131.795 8.76199V0.971436C128.481 0.971436 125.465 3.69604 125.465 7.17357H133.256ZM131.795 5.68161C132.25 5.68161 132.601 5.87002 132.821 6.08637C133.042 6.3039 133.256 6.67541 133.256 7.17357H125.465C125.465 10.6797 128.395 13.4722 131.795 13.4722V5.68161ZM130.431 7.17357C130.431 6.18661 131.203 5.68161 131.795 5.68161V13.4722C135.233 13.4722 138.222 10.7568 138.222 7.17357H130.431ZM131.795 8.76199C131.487 8.76199 131.176 8.63984 130.932 8.41148C130.702 8.19657 130.431 7.78058 130.431 7.17357H138.222C138.222 3.57903 135.124 0.971436 131.795 0.971436V8.76199ZM133.952 23.3086H129.719V31.0992H133.952V23.3086ZM130.056 12.2173V27.2039H137.847V12.2173H130.056ZM129.719 16.1126H133.952V8.32204H129.719V16.1126ZM133.614 27.2039V12.2173H125.824V27.2039H133.614ZM155.465 27.2032V12.2166H147.675V27.2032H155.465ZM147.337 31.0984H151.57V23.3079H147.337V31.0984ZM143.442 26.1381V27.2032H151.233V26.1381H143.442ZM143.677 31.432C144.822 31.432 146.024 31.2174 147.107 30.8234C148.107 30.4593 149.48 29.7691 150.45 28.4798L144.225 23.7965C144.407 23.5534 144.564 23.4541 144.574 23.4473C144.594 23.4347 144.555 23.4619 144.443 23.5026C144.336 23.5416 144.201 23.5787 144.052 23.6051C143.903 23.6316 143.773 23.6415 143.677 23.6415V31.432ZM132.405 19.732C132.405 25.9247 137.187 31.432 143.677 31.432V23.6415C141.944 23.6415 140.196 22.0915 140.196 19.732H132.405ZM143.677 8.00785C137.321 8.00785 132.405 13.4355 132.405 19.732H140.196C140.196 17.3476 142.004 15.7984 143.677 15.7984V8.00785ZM150.199 10.6192C149.288 9.63169 148.072 9.02351 147.144 8.67301C146.141 8.29439 144.919 8.00785 143.677 8.00785V15.7984C143.71 15.7984 143.804 15.8035 143.951 15.8334C144.094 15.8624 144.247 15.9067 144.391 15.9611C144.538 16.0167 144.637 16.068 144.681 16.0945C144.701 16.1066 144.694 16.1037 144.665 16.0812C144.638 16.0605 144.567 16.0036 144.475 15.9038L150.199 10.6192ZM143.442 12.2166V13.2615H151.233V12.2166H143.442ZM151.57 8.32132H147.337V16.1119H151.57V8.32132ZM144.092 19.9781C144.074 19.9781 144.013 19.9734 143.93 19.9381C143.848 19.9031 143.772 19.85 143.713 19.7875C143.581 19.6489 143.619 19.5714 143.619 19.7119H151.41C151.41 15.6454 148.393 12.1875 144.092 12.1875V19.9781ZM144.469 19.7119C144.469 19.6748 144.475 19.6833 144.459 19.7211C144.445 19.7573 144.417 19.8031 144.373 19.8473C144.279 19.9431 144.162 19.9781 144.092 19.9781V12.1875C139.967 12.1875 136.678 15.4859 136.678 19.7119H144.469ZM144.092 19.4417C144.143 19.4417 144.261 19.4695 144.366 19.5745C144.414 19.6228 144.444 19.6731 144.46 19.7122C144.476 19.7525 144.469 19.7585 144.469 19.7119H136.678C136.678 23.9781 139.987 27.2322 144.092 27.2322V19.4417ZM143.619 19.7119C143.619 19.8041 143.604 19.8263 143.615 19.797C143.627 19.7671 143.658 19.705 143.724 19.6357C143.791 19.5661 143.872 19.5115 143.954 19.4774C144.035 19.4434 144.088 19.4417 144.092 19.4417V27.2322C148.362 27.2322 151.41 23.8469 151.41 19.7119H143.619ZM153.646 26.8787H157.879V19.0881H153.646V26.8787ZM157.542 27.2033V22.9834H149.751V27.2033H157.542ZM157.879 23.308H153.646V31.0985H157.879V23.308ZM153.984 22.9834V27.2033H161.774V22.9834H153.984Z" fill="#FFF965" mask="url(#path-2-outside-1_1391_852)"/>
</g>
<defs>
<filter id="filter0_d_1391_852" x="0.209216" y="0.790039" width="165.46" height="38.4732" filterUnits="userSpaceOnUse" color-interpolation-filters="sRGB">
<feFlood flood-opacity="0" result="BackgroundImageFix"/>
<feColorMatrix in="SourceAlpha" type="matrix" values="0 0 0 0 0 0 0 0 0 0 0 0 0 0 0 0 0 0 127 0" result="hardAlpha"/>
<feOffset dy="3.89528"/>
<feGaussianBlur stdDeviation="1.94764"/>
<feComposite in2="hardAlpha" operator="out"/>
<feColorMatrix type="matrix" values="0 0 0 0 0 0 0 0 0 0 0 0 0 0 0 0 0 0 0.25 0"/>
<feBlend mode="normal" in2="BackgroundImageFix" result="effect1_dropShadow_1391_852"/>
<feBlend mode="normal" in="SourceGraphic" in2="effect1_dropShadow_1391_852" result="shape"/>
</filter>
</defs>
</svg>
