<svg width="190" height="56" viewBox="0 0 190 56" fill="none" xmlns="http://www.w3.org/2000/svg">
<g filter="url(#filter0_d_1391_836)">
<rect x="15.791" y="16.6602" width="19.4764" height="14.6073" fill="#F7EF22"/>
<rect x="58.6387" y="20.5552" width="113.937" height="10.712" fill="#F7EF22"/>
<mask id="path-3-outside-1_1391_836" maskUnits="userSpaceOnUse" x="4" y="0" width="183" height="48" fill="black">
<rect fill="white" x="4" width="183" height="48"/>
<path fill-rule="evenodd" clip-rule="evenodd" d="M38.0309 4L38.0308 4.00019H18.0137L28.0222 13.9789L28.0212 13.9798L18.0115 4L8.00003 13.9816L8 13.9816V13.9817V13.9821V33.945H28.0194H28.0231H48.0425L38.0312 23.9635L48.0425 13.9821H28.0231H28.0194H8.00051L8.00006 13.9817H28.0194H28.0231H28.025L28.0252 13.9819L28.0254 13.9817H48.0425L38.0339 4.00299L38.0367 4.00019H38.0311L38.0309 4ZM28.0212 33.9431L18.0118 23.9635L28.0212 13.984L38.0307 23.9635L28.0212 33.9431ZM48.0425 33.9454L38.0338 43.9242L38.0367 43.9272H18.0137L28.0224 33.9483L28.0212 33.9472L18.0115 43.9271L8 33.9454H28.0194H28.0231H48.0425ZM60.8827 27.1677C60.6124 27.4671 60.2019 27.6168 59.6513 27.6168C58.8504 27.6168 58.2897 27.2974 57.9894 26.6786C57.669 26.0597 57.5188 25.2013 57.5188 24.1033V23.8238C57.4829 22.9477 57.6437 22.0747 57.9894 21.2685C58.2997 20.6397 58.8404 20.3202 59.6213 20.3202C60.1719 20.3202 60.5924 20.5099 60.8627 20.8992C61.159 21.3521 61.306 21.8861 61.2832 22.4264H65.0275L65.0575 22.3565C65.1088 21.6569 65.0054 20.9545 64.7546 20.2991C64.5037 19.6437 64.1116 19.0512 63.6059 18.5635C62.6147 17.6352 61.2832 17.176 59.6213 17.176C57.649 17.176 56.1172 17.7949 55.046 19.0326C53.9647 20.2703 53.4241 21.8674 53.4241 23.8238V24.1033C53.3509 25.8502 53.9327 27.5618 55.056 28.9045C56.1272 30.1422 57.659 30.7611 59.6613 30.7611C61.0859 30.8139 62.4788 30.3332 63.5658 29.4135C64.0666 28.9843 64.4615 28.446 64.7202 27.8402C64.9789 27.2344 65.0943 26.5774 65.0575 25.92L65.0275 25.8501H61.2832C61.2832 26.429 61.143 26.8682 60.8827 27.1677ZM72.6563 21.009L74.158 21.019L74.5585 17.3158C74.1888 17.2216 73.8087 17.1746 73.4272 17.176C72.8496 17.1667 72.2881 17.3652 71.8454 17.735C71.3523 18.1691 70.974 18.7176 70.7441 19.3321L70.6039 17.4156H66.7395V30.5015H70.8442V21.9173C70.9844 21.6179 71.2046 21.3983 71.505 21.2386C71.8053 21.0888 72.1958 21.009 72.6563 21.009ZM81.947 24.832V24.7321L79.9847 17.4156H75.6297L80.1749 30.6513L79.8446 31.4997C79.6944 31.879 79.4741 32.1685 79.1738 32.3581C78.8735 32.5478 78.4029 32.6476 77.7522 32.6476L77.5419 32.6276L77.2916 32.5678L76.791 35.4824C77.2716 35.6022 77.632 35.682 77.8523 35.722C78.0825 35.7719 78.3729 35.7918 78.7233 35.7918C80.1149 35.7918 81.1361 35.4724 81.7768 34.8436C82.4075 34.2147 82.9381 33.4162 83.3386 32.448L88.5646 17.4156H84.1996L82.0271 24.832H81.947ZM97.2146 21.3184C97.545 21.9872 97.7152 22.8855 97.7152 23.9835H97.7052V24.2331C97.7522 25.0873 97.5907 25.9401 97.2346 26.7185C96.9243 27.3074 96.4137 27.6069 95.6928 27.6069C95.2896 27.6201 94.8878 27.5522 94.5115 27.4072C94.1911 27.2775 93.9408 27.0579 93.7406 26.7784V21.3084C93.9208 20.989 94.1811 20.7395 94.5015 20.5698C94.8118 20.4001 95.2023 20.3202 95.6728 20.3202C96.3836 20.3202 96.8942 20.6496 97.2146 21.3184ZM100.458 28.9744C101.349 27.7865 101.8 26.2094 101.8 24.2331V23.9835C101.882 22.2372 101.412 20.5093 100.458 19.0426C99.5573 17.7949 98.3058 17.176 96.674 17.176C96.0614 17.1594 95.4554 17.306 94.9187 17.6008C94.3819 17.8956 93.9338 18.3278 93.6204 18.8529L93.4703 17.4156H89.6359V35.5323H93.7406V29.3437C94.0859 29.7979 94.5349 30.1634 95.0503 30.4099C95.5657 30.6564 96.1326 30.7768 96.704 30.7611C97.4289 30.7938 98.1506 30.6478 98.8055 30.3362C99.4603 30.0246 100.028 29.5568 100.458 28.9744ZM108.458 17.4156V14.1615H104.363V17.4156H102.521V20.2404H104.363V26.2793C104.363 27.8265 104.713 28.9644 105.414 29.6731C106.105 30.4017 107.126 30.7611 108.478 30.7711C109.324 30.7694 110.167 30.6689 110.99 30.4716L110.71 27.4472C110.315 27.527 109.912 27.5671 109.509 27.5669C109.365 27.5721 109.221 27.5463 109.088 27.4912C108.955 27.436 108.836 27.3529 108.738 27.2475C108.558 27.0479 108.458 26.7085 108.458 26.2494V20.2404H110.68V17.4156H108.458ZM116.317 26.6786C115.966 26.0497 115.796 25.1913 115.796 24.0933V23.8338C115.796 22.7857 115.966 21.9273 116.317 21.2885C116.657 20.6397 117.238 20.3202 118.039 20.3202C118.86 20.3202 119.44 20.6397 119.791 21.2785C120.171 22.0749 120.35 22.9524 120.311 23.8338V24.0933C120.311 25.1713 120.141 26.0397 119.791 26.6686C119.44 27.2974 118.87 27.6069 118.069 27.6069C117.238 27.6069 116.657 27.2974 116.317 26.6786ZM113.373 19.0326C112.219 20.3605 111.617 22.0781 111.691 23.8338H111.701V24.0933C111.621 25.8495 112.215 27.57 113.363 28.9045C114.484 30.1422 116.056 30.7611 118.069 30.7611C120.061 30.7611 121.613 30.1422 122.724 28.9045C123.845 27.6767 124.406 26.0697 124.406 24.0933V23.8338C124.477 22.0785 123.876 20.362 122.724 19.0326C121.613 17.7949 120.051 17.166 118.049 17.166C116.046 17.166 114.484 17.7949 113.373 19.0326ZM130.143 19.2522L129.982 17.4156H126.148V30.5015H130.223V21.0988C130.441 20.8453 130.713 20.6437 131.02 20.509C131.327 20.3743 131.66 20.3098 131.995 20.3202C132.605 20.3202 133.066 20.4799 133.376 20.7794C133.687 21.0888 133.837 21.6278 133.837 22.3765V30.5015H137.942V22.3864C137.942 20.5698 137.581 19.2522 136.86 18.4137C136.139 17.5853 135.128 17.176 133.837 17.176C133.099 17.1674 132.373 17.357 131.734 17.725C131.104 18.0843 130.573 18.6034 130.143 19.2522ZM144.549 20.9491C144.849 20.5199 145.29 20.3202 145.881 20.3202C146.471 20.3202 146.892 20.4899 147.172 20.8493C147.442 21.2086 147.583 21.7077 147.583 22.3765V22.6859H144.049L144.009 22.626C144.079 21.9273 144.249 21.3683 144.549 20.9491ZM141.546 28.9444C142.696 30.1612 144.236 30.7601 146.176 30.7611C146.175 30.7611 146.173 30.7611 146.171 30.7611H146.181C146.179 30.7611 146.178 30.7611 146.176 30.7611C147.216 30.7606 148.195 30.6209 149.104 30.3418C149.899 30.1183 150.65 29.7641 151.327 29.2938L150.356 26.7983C149.234 27.3641 147.989 27.6452 146.732 27.6168C145.961 27.6168 145.35 27.3972 144.89 26.968C144.419 26.5388 144.159 25.9799 144.059 25.3111L144.079 25.2412H151.587V23.0951C151.668 21.5113 151.121 19.9592 150.065 18.7731C149.054 17.705 147.663 17.176 145.881 17.176C143.928 17.1561 142.437 17.7949 141.385 19.0526C140.334 20.3103 139.814 21.9373 139.814 23.9336V24.3928C139.787 25.2278 139.927 26.0598 140.224 26.841C140.521 27.6221 140.97 28.337 141.546 28.9444ZM164.662 25.0016H164.592L162.43 17.4156H159.847L157.714 25.0615H157.634L156.193 17.4156H152.408L155.502 30.5015H158.966L161.108 23.5643H161.178L163.321 30.5015H166.785L169.868 17.4156H166.084L164.662 25.0016ZM177.627 25.9599C177.998 26.2194 178.178 26.5089 178.178 26.8283C178.178 27.2176 178.038 27.527 177.757 27.7366C177.477 27.9562 177.057 28.056 176.506 28.056C175.845 28.056 175.335 27.9263 174.974 27.6468C174.604 27.3773 174.424 26.9281 174.404 26.3092H170.699L170.669 26.3791C170.619 27.4871 171.12 28.5052 172.161 29.4036C173.192 30.3019 174.614 30.7611 176.396 30.7611C177.868 30.8316 179.325 30.4292 180.551 29.6132C181.602 28.8546 182.122 27.8864 182.122 26.7085C182.151 26.2071 182.062 25.706 181.862 25.245C181.662 24.784 181.357 24.376 180.971 24.0534C179.912 23.3068 178.691 22.8211 177.407 22.636C176.695 22.5491 176.005 22.3289 175.375 21.9872C175.228 21.8924 175.106 21.7639 175.02 21.6124C174.933 21.461 174.885 21.2911 174.878 21.1169C174.871 20.9428 174.906 20.7696 174.98 20.6118C175.055 20.4541 175.166 20.3164 175.305 20.2104C175.595 19.9709 175.955 19.8611 176.386 19.8611C176.966 19.8611 177.387 19.9908 177.647 20.2604C177.918 20.5299 178.048 20.9191 178.048 21.4282H182.032L182.052 21.3583C182.085 20.7714 181.966 20.1861 181.706 19.6583C181.447 19.1305 181.056 18.6779 180.571 18.3439C179.539 17.5653 178.148 17.176 176.396 17.176C174.744 17.176 173.422 17.5753 172.451 18.3738C171.999 18.7189 171.633 19.1631 171.382 19.6721C171.13 20.181 170.999 20.741 171 21.3084C170.978 21.7982 171.072 22.2862 171.274 22.7333C171.476 23.1805 171.779 23.5744 172.161 23.8837C173.187 24.6197 174.375 25.099 175.625 25.2811C176.328 25.3863 177.006 25.6162 177.627 25.9599Z"/>
</mask>
<path fill-rule="evenodd" clip-rule="evenodd" d="M38.0309 4L38.0308 4.00019H18.0137L28.0222 13.9789L28.0212 13.9798L18.0115 4L8.00003 13.9816L8 13.9816V13.9817V13.9821V33.945H28.0194H28.0231H48.0425L38.0312 23.9635L48.0425 13.9821H28.0231H28.0194H8.00051L8.00006 13.9817H28.0194H28.0231H28.025L28.0252 13.9819L28.0254 13.9817H48.0425L38.0339 4.00299L38.0367 4.00019H38.0311L38.0309 4ZM28.0212 33.9431L18.0118 23.9635L28.0212 13.984L38.0307 23.9635L28.0212 33.9431ZM48.0425 33.9454L38.0338 43.9242L38.0367 43.9272H18.0137L28.0224 33.9483L28.0212 33.9472L18.0115 43.9271L8 33.9454H28.0194H28.0231H48.0425ZM60.8827 27.1677C60.6124 27.4671 60.2019 27.6168 59.6513 27.6168C58.8504 27.6168 58.2897 27.2974 57.9894 26.6786C57.669 26.0597 57.5188 25.2013 57.5188 24.1033V23.8238C57.4829 22.9477 57.6437 22.0747 57.9894 21.2685C58.2997 20.6397 58.8404 20.3202 59.6213 20.3202C60.1719 20.3202 60.5924 20.5099 60.8627 20.8992C61.159 21.3521 61.306 21.8861 61.2832 22.4264H65.0275L65.0575 22.3565C65.1088 21.6569 65.0054 20.9545 64.7546 20.2991C64.5037 19.6437 64.1116 19.0512 63.6059 18.5635C62.6147 17.6352 61.2832 17.176 59.6213 17.176C57.649 17.176 56.1172 17.7949 55.046 19.0326C53.9647 20.2703 53.4241 21.8674 53.4241 23.8238V24.1033C53.3509 25.8502 53.9327 27.5618 55.056 28.9045C56.1272 30.1422 57.659 30.7611 59.6613 30.7611C61.0859 30.8139 62.4788 30.3332 63.5658 29.4135C64.0666 28.9843 64.4615 28.446 64.7202 27.8402C64.9789 27.2344 65.0943 26.5774 65.0575 25.92L65.0275 25.8501H61.2832C61.2832 26.429 61.143 26.8682 60.8827 27.1677ZM72.6563 21.009L74.158 21.019L74.5585 17.3158C74.1888 17.2216 73.8087 17.1746 73.4272 17.176C72.8496 17.1667 72.2881 17.3652 71.8454 17.735C71.3523 18.1691 70.974 18.7176 70.7441 19.3321L70.6039 17.4156H66.7395V30.5015H70.8442V21.9173C70.9844 21.6179 71.2046 21.3983 71.505 21.2386C71.8053 21.0888 72.1958 21.009 72.6563 21.009ZM81.947 24.832V24.7321L79.9847 17.4156H75.6297L80.1749 30.6513L79.8446 31.4997C79.6944 31.879 79.4741 32.1685 79.1738 32.3581C78.8735 32.5478 78.4029 32.6476 77.7522 32.6476L77.5419 32.6276L77.2916 32.5678L76.791 35.4824C77.2716 35.6022 77.632 35.682 77.8523 35.722C78.0825 35.7719 78.3729 35.7918 78.7233 35.7918C80.1149 35.7918 81.1361 35.4724 81.7768 34.8436C82.4075 34.2147 82.9381 33.4162 83.3386 32.448L88.5646 17.4156H84.1996L82.0271 24.832H81.947ZM97.2146 21.3184C97.545 21.9872 97.7152 22.8855 97.7152 23.9835H97.7052V24.2331C97.7522 25.0873 97.5907 25.9401 97.2346 26.7185C96.9243 27.3074 96.4137 27.6069 95.6928 27.6069C95.2896 27.6201 94.8878 27.5522 94.5115 27.4072C94.1911 27.2775 93.9408 27.0579 93.7406 26.7784V21.3084C93.9208 20.989 94.1811 20.7395 94.5015 20.5698C94.8118 20.4001 95.2023 20.3202 95.6728 20.3202C96.3836 20.3202 96.8942 20.6496 97.2146 21.3184ZM100.458 28.9744C101.349 27.7865 101.8 26.2094 101.8 24.2331V23.9835C101.882 22.2372 101.412 20.5093 100.458 19.0426C99.5573 17.7949 98.3058 17.176 96.674 17.176C96.0614 17.1594 95.4554 17.306 94.9187 17.6008C94.3819 17.8956 93.9338 18.3278 93.6204 18.8529L93.4703 17.4156H89.6359V35.5323H93.7406V29.3437C94.0859 29.7979 94.5349 30.1634 95.0503 30.4099C95.5657 30.6564 96.1326 30.7768 96.704 30.7611C97.4289 30.7938 98.1506 30.6478 98.8055 30.3362C99.4603 30.0246 100.028 29.5568 100.458 28.9744ZM108.458 17.4156V14.1615H104.363V17.4156H102.521V20.2404H104.363V26.2793C104.363 27.8265 104.713 28.9644 105.414 29.6731C106.105 30.4017 107.126 30.7611 108.478 30.7711C109.324 30.7694 110.167 30.6689 110.99 30.4716L110.71 27.4472C110.315 27.527 109.912 27.5671 109.509 27.5669C109.365 27.5721 109.221 27.5463 109.088 27.4912C108.955 27.436 108.836 27.3529 108.738 27.2475C108.558 27.0479 108.458 26.7085 108.458 26.2494V20.2404H110.68V17.4156H108.458ZM116.317 26.6786C115.966 26.0497 115.796 25.1913 115.796 24.0933V23.8338C115.796 22.7857 115.966 21.9273 116.317 21.2885C116.657 20.6397 117.238 20.3202 118.039 20.3202C118.86 20.3202 119.44 20.6397 119.791 21.2785C120.171 22.0749 120.35 22.9524 120.311 23.8338V24.0933C120.311 25.1713 120.141 26.0397 119.791 26.6686C119.44 27.2974 118.87 27.6069 118.069 27.6069C117.238 27.6069 116.657 27.2974 116.317 26.6786ZM113.373 19.0326C112.219 20.3605 111.617 22.0781 111.691 23.8338H111.701V24.0933C111.621 25.8495 112.215 27.57 113.363 28.9045C114.484 30.1422 116.056 30.7611 118.069 30.7611C120.061 30.7611 121.613 30.1422 122.724 28.9045C123.845 27.6767 124.406 26.0697 124.406 24.0933V23.8338C124.477 22.0785 123.876 20.362 122.724 19.0326C121.613 17.7949 120.051 17.166 118.049 17.166C116.046 17.166 114.484 17.7949 113.373 19.0326ZM130.143 19.2522L129.982 17.4156H126.148V30.5015H130.223V21.0988C130.441 20.8453 130.713 20.6437 131.02 20.509C131.327 20.3743 131.66 20.3098 131.995 20.3202C132.605 20.3202 133.066 20.4799 133.376 20.7794C133.687 21.0888 133.837 21.6278 133.837 22.3765V30.5015H137.942V22.3864C137.942 20.5698 137.581 19.2522 136.86 18.4137C136.139 17.5853 135.128 17.176 133.837 17.176C133.099 17.1674 132.373 17.357 131.734 17.725C131.104 18.0843 130.573 18.6034 130.143 19.2522ZM144.549 20.9491C144.849 20.5199 145.29 20.3202 145.881 20.3202C146.471 20.3202 146.892 20.4899 147.172 20.8493C147.442 21.2086 147.583 21.7077 147.583 22.3765V22.6859H144.049L144.009 22.626C144.079 21.9273 144.249 21.3683 144.549 20.9491ZM141.546 28.9444C142.696 30.1612 144.236 30.7601 146.176 30.7611C146.175 30.7611 146.173 30.7611 146.171 30.7611H146.181C146.179 30.7611 146.178 30.7611 146.176 30.7611C147.216 30.7606 148.195 30.6209 149.104 30.3418C149.899 30.1183 150.65 29.7641 151.327 29.2938L150.356 26.7983C149.234 27.3641 147.989 27.6452 146.732 27.6168C145.961 27.6168 145.35 27.3972 144.89 26.968C144.419 26.5388 144.159 25.9799 144.059 25.3111L144.079 25.2412H151.587V23.0951C151.668 21.5113 151.121 19.9592 150.065 18.7731C149.054 17.705 147.663 17.176 145.881 17.176C143.928 17.1561 142.437 17.7949 141.385 19.0526C140.334 20.3103 139.814 21.9373 139.814 23.9336V24.3928C139.787 25.2278 139.927 26.0598 140.224 26.841C140.521 27.6221 140.97 28.337 141.546 28.9444ZM164.662 25.0016H164.592L162.43 17.4156H159.847L157.714 25.0615H157.634L156.193 17.4156H152.408L155.502 30.5015H158.966L161.108 23.5643H161.178L163.321 30.5015H166.785L169.868 17.4156H166.084L164.662 25.0016ZM177.627 25.9599C177.998 26.2194 178.178 26.5089 178.178 26.8283C178.178 27.2176 178.038 27.527 177.757 27.7366C177.477 27.9562 177.057 28.056 176.506 28.056C175.845 28.056 175.335 27.9263 174.974 27.6468C174.604 27.3773 174.424 26.9281 174.404 26.3092H170.699L170.669 26.3791C170.619 27.4871 171.12 28.5052 172.161 29.4036C173.192 30.3019 174.614 30.7611 176.396 30.7611C177.868 30.8316 179.325 30.4292 180.551 29.6132C181.602 28.8546 182.122 27.8864 182.122 26.7085C182.151 26.2071 182.062 25.706 181.862 25.245C181.662 24.784 181.357 24.376 180.971 24.0534C179.912 23.3068 178.691 22.8211 177.407 22.636C176.695 22.5491 176.005 22.3289 175.375 21.9872C175.228 21.8924 175.106 21.7639 175.02 21.6124C174.933 21.461 174.885 21.2911 174.878 21.1169C174.871 20.9428 174.906 20.7696 174.98 20.6118C175.055 20.4541 175.166 20.3164 175.305 20.2104C175.595 19.9709 175.955 19.8611 176.386 19.8611C176.966 19.8611 177.387 19.9908 177.647 20.2604C177.918 20.5299 178.048 20.9191 178.048 21.4282H182.032L182.052 21.3583C182.085 20.7714 181.966 20.1861 181.706 19.6583C181.447 19.1305 181.056 18.6779 180.571 18.3439C179.539 17.5653 178.148 17.176 176.396 17.176C174.744 17.176 173.422 17.5753 172.451 18.3738C171.999 18.7189 171.633 19.1631 171.382 19.6721C171.13 20.181 170.999 20.741 171 21.3084C170.978 21.7982 171.072 22.2862 171.274 22.7333C171.476 23.1805 171.779 23.5744 172.161 23.8837C173.187 24.6197 174.375 25.099 175.625 25.2811C176.328 25.3863 177.006 25.6162 177.627 25.9599Z" fill="black"/>
<path d="M38.0308 4.00019V7.89546C39.0638 7.89546 40.0546 7.48507 40.7851 6.75456L38.0308 4.00019ZM38.0309 4L40.7853 1.24562C39.2641 -0.275576 36.7978 -0.275576 35.2766 1.24562L38.0309 4ZM18.0137 4.00019V0.104909C16.4371 0.104909 15.016 1.05522 14.4138 2.51222C13.8116 3.96921 14.147 5.64555 15.2634 6.75867L18.0137 4.00019ZM28.0222 13.9789L30.7725 16.7373C31.5055 16.0064 31.9175 15.0139 31.9175 13.9788C31.9175 12.9437 31.5055 11.9512 30.7725 11.2204L28.0222 13.9789ZM28.0212 13.9798L25.271 16.7383C26.7913 18.2541 29.2513 18.254 30.7716 16.7383L28.0212 13.9798ZM18.0115 4L20.7618 1.24151C19.2415 -0.274206 16.7815 -0.274206 15.2613 1.24151L18.0115 4ZM8.00003 13.9816L5.24977 16.7401C6.77003 18.2558 9.23004 18.2558 10.7503 16.7401L8.00003 13.9816ZM8 13.9816L10.7503 11.2231C9.6353 10.1115 7.96079 9.78036 6.50666 10.384C5.05252 10.9876 4.10472 12.4072 4.10472 13.9816H8ZM8 33.945H4.10472C4.10472 36.0963 5.8487 37.8402 8 37.8402V33.945ZM48.0425 33.945V37.8402C49.619 37.8402 51.0401 36.8899 51.6423 35.4329C52.2446 33.9759 51.9092 32.2996 50.7927 31.1865L48.0425 33.945ZM38.0312 23.9635L35.2809 21.2051C34.5479 21.9359 34.1359 22.9284 34.1359 23.9635C34.1359 24.9986 34.5479 25.9912 35.2809 26.722L38.0312 23.9635ZM48.0425 13.9821L50.7927 16.7406C51.9092 15.6275 52.2446 13.9511 51.6423 12.4941C51.0401 11.0372 49.619 10.0868 48.0425 10.0868V13.9821ZM8.00051 13.9821L5.25025 16.7406C5.98042 17.4686 6.96943 17.8774 8.00051 17.8774V13.9821ZM8.00006 13.9817V10.0864C6.42351 10.0864 5.00242 11.0367 4.40019 12.4937C3.79795 13.9507 4.13335 15.627 5.2498 16.7402L8.00006 13.9817ZM28.025 13.9817L30.7794 11.2273C30.0489 10.4968 29.0581 10.0864 28.025 10.0864V13.9817ZM28.0252 13.9819L25.2708 16.7362C26.792 18.2574 29.2584 18.2574 30.7796 16.7362L28.0252 13.9819ZM28.0254 13.9817V10.0864C26.9923 10.0864 26.0015 10.4968 25.271 11.2273L28.0254 13.9817ZM48.0425 13.9817V17.877C49.619 17.877 51.0401 16.9266 51.6423 15.4696C52.2446 14.0127 51.9092 12.3363 50.7927 11.2232L48.0425 13.9817ZM38.0339 4.00299L35.2838 1.24437C34.5507 1.97519 34.1387 2.96775 34.1387 4.00289C34.1386 5.03803 34.5506 6.03062 35.2837 6.76148L38.0339 4.00299ZM38.0367 4.00019L40.7869 6.75881C41.9034 5.64571 42.2389 3.96934 41.6367 2.5123C41.0345 1.05526 39.6133 0.104909 38.0367 0.104909V4.00019ZM38.0311 4.00019L35.2767 6.75456C36.0072 7.48507 36.998 7.89546 38.0311 7.89546V4.00019ZM18.0118 23.9635L15.2615 21.2051C14.5285 21.9359 14.1165 22.9284 14.1165 23.9635C14.1165 24.9986 14.5285 25.9912 15.2615 26.722L18.0118 23.9635ZM28.0212 33.9431L25.271 36.7016C26.7912 38.2173 29.2512 38.2173 30.7715 36.7016L28.0212 33.9431ZM28.0212 13.984L30.7715 11.2255C29.2512 9.70975 26.7912 9.70975 25.271 11.2255L28.0212 13.984ZM38.0307 23.9635L40.7809 26.722C41.514 25.9912 41.926 24.9986 41.926 23.9635C41.926 22.9284 41.514 21.9359 40.7809 21.2051L38.0307 23.9635ZM38.0338 43.9242L35.2835 41.1657C34.5503 41.8968 34.1383 42.8897 34.1385 43.9251C34.1388 44.9605 34.5512 45.9532 35.2848 46.684L38.0338 43.9242ZM48.0425 33.9454L50.7927 36.7039C51.9092 35.5908 52.2446 33.9144 51.6423 32.4574C51.0401 31.0004 49.619 30.0501 48.0425 30.0501V33.9454ZM38.0367 43.9272V47.8224C39.6136 47.8224 41.0349 46.8718 41.637 45.4143C42.239 43.9569 41.9029 42.2803 40.7858 41.1675L38.0367 43.9272ZM18.0137 43.9272L15.2634 41.1687C14.147 42.2818 13.8116 43.9581 14.4138 45.4151C15.016 46.8721 16.4371 47.8224 18.0137 47.8224V43.9272ZM28.0224 33.9483L30.7726 36.7068C31.5057 35.9759 31.9177 34.9832 31.9176 33.9479C31.9175 32.9127 31.5053 31.92 30.772 31.1893L28.0224 33.9483ZM28.0212 33.9472L30.7709 31.1881C29.2505 29.673 26.791 29.6733 25.271 31.1888L28.0212 33.9472ZM18.0115 43.9271L15.2613 46.6856C16.7815 48.2013 19.2415 48.2013 20.7618 46.6856L18.0115 43.9271ZM8 33.9454V30.0501C6.42345 30.0501 5.00235 31.0004 4.40012 32.4574C3.79789 33.9144 4.13329 35.5908 5.24974 36.7039L8 33.9454ZM60.8827 27.1677L63.7742 29.7778C63.7905 29.7597 63.8066 29.7415 63.8226 29.7232L60.8827 27.1677ZM57.9894 26.6786L61.4938 24.9778C61.4791 24.9476 61.4641 24.9176 61.4486 24.8878L57.9894 26.6786ZM57.5188 23.8238H61.4141C61.4141 23.7706 61.413 23.7175 61.4109 23.6643L57.5188 23.8238ZM57.9894 21.2685L54.4964 19.5446C54.4657 19.6067 54.4366 19.6697 54.4093 19.7335L57.9894 21.2685ZM60.8627 20.8992L64.1224 18.7666C64.1027 18.7366 64.0827 18.7069 64.0623 18.6775L60.8627 20.8992ZM61.2832 22.4264L57.3914 22.2617C57.3465 23.3224 57.7365 24.3555 58.4712 25.1219C59.2059 25.8883 60.2215 26.3216 61.2832 26.3216V22.4264ZM65.0275 22.4264V26.3216C66.584 26.3216 67.9911 25.395 68.606 23.9651L65.0275 22.4264ZM65.0575 22.3565L68.636 23.8952C68.8072 23.4972 68.9107 23.0734 68.9424 22.6413L65.0575 22.3565ZM63.6059 18.5635L66.3099 15.7597C66.2962 15.7465 66.2825 15.7334 66.2686 15.7204L63.6059 18.5635ZM55.046 19.0326L57.9796 21.5953C57.9835 21.5908 57.9874 21.5863 57.9913 21.5818L55.046 19.0326ZM53.4241 24.1033L57.316 24.2663C57.3183 24.212 57.3194 24.1577 57.3194 24.1033L53.4241 24.1033ZM55.056 28.9045L52.0684 31.404C52.0824 31.4206 52.0964 31.4372 52.1107 31.4536L55.056 28.9045ZM59.6613 30.7611L59.8057 26.8685C59.7576 26.8667 59.7095 26.8658 59.6613 26.8658V30.7611ZM63.5658 29.4135L66.0818 32.3873C66.0882 32.3819 66.0946 32.3764 66.1009 32.371L63.5658 29.4135ZM64.7202 27.8402L68.3026 29.3698L68.3026 29.3698L64.7202 27.8402ZM65.0575 25.92L68.9467 25.7024C68.9213 25.2472 68.8161 24.8001 68.636 24.3812L65.0575 25.92ZM65.0275 25.8501L68.606 24.3114C67.9911 22.8814 66.584 21.9548 65.0275 21.9548V25.8501ZM61.2832 25.8501V21.9548C59.1319 21.9548 57.3879 23.6988 57.3879 25.8501H61.2832ZM74.158 21.019L74.1321 24.9141C76.1312 24.9274 77.8158 23.4253 78.0307 21.4378L74.158 21.019ZM72.6563 21.009L72.6822 17.1138C72.6735 17.1137 72.6649 17.1137 72.6563 17.1137V21.009ZM74.5585 17.3158L78.4312 17.7346C78.6396 15.807 77.3988 14.0196 75.5199 13.541L74.5585 17.3158ZM73.4272 17.176L73.3645 21.0708C73.3901 21.0712 73.4156 21.0714 73.4411 21.0713L73.4272 17.176ZM71.8454 17.735L69.3482 14.7454C69.3223 14.7671 69.2967 14.789 69.2714 14.8113L71.8454 17.735ZM70.7441 19.3321L66.8592 19.6162C66.9927 21.4416 68.379 22.9278 70.1907 23.1878C72.0024 23.4478 73.7507 22.4115 74.3923 20.6974L70.7441 19.3321ZM70.6039 17.4156L74.4888 17.1314C74.3399 15.0958 72.645 13.5203 70.6039 13.5203V17.4156ZM66.7395 17.4156V13.5203C64.5882 13.5203 62.8442 15.2643 62.8442 17.4156H66.7395ZM66.7395 30.5015H62.8442C62.8442 32.6529 64.5882 34.3968 66.7395 34.3968V30.5015ZM70.8442 30.5015V34.3968C72.9955 34.3968 74.7395 32.6529 74.7395 30.5015H70.8442ZM70.8442 21.9173L67.3162 20.266C67.0743 20.7829 66.9489 21.3466 66.9489 21.9173H70.8442ZM71.505 21.2386L69.7671 17.7524C69.7366 17.7677 69.7063 17.7833 69.6762 17.7993L71.505 21.2386ZM81.947 24.7321H85.8423C85.8423 24.3914 85.7976 24.0522 85.7093 23.7231L81.947 24.7321ZM81.947 24.832H78.0517C78.0517 26.9833 79.7957 28.7272 81.947 28.7272V24.832ZM79.9847 17.4156L83.747 16.4065C83.2904 14.704 81.7474 13.5203 79.9847 13.5203V17.4156ZM75.6297 17.4156V13.5203C74.3714 13.5203 73.1906 14.1282 72.4594 15.1523C71.7283 16.1764 71.5369 17.4906 71.9456 18.6807L75.6297 17.4156ZM80.1749 30.6513L83.8047 32.0647C84.139 31.2063 84.1582 30.2573 83.859 29.3861L80.1749 30.6513ZM79.8446 31.4997L83.4663 32.9337C83.469 32.9268 83.4717 32.92 83.4744 32.9131L79.8446 31.4997ZM77.7522 32.6476L77.384 36.5254C77.5064 36.5371 77.6292 36.5429 77.7522 36.5429V32.6476ZM77.5419 32.6276L76.6354 36.416C76.8125 36.4584 76.9924 36.4883 77.1737 36.5055L77.5419 32.6276ZM77.2916 32.5678L78.1981 28.7794C77.1508 28.5288 76.0465 28.723 75.1474 29.3157C74.2484 29.9085 73.6348 30.8471 73.4526 31.9084L77.2916 32.5678ZM76.791 35.4824L72.952 34.8231C72.6068 36.8329 73.8702 38.7688 75.849 39.262L76.791 35.4824ZM77.8523 35.722L78.6774 31.9151C78.6341 31.9057 78.5907 31.8971 78.5471 31.8892L77.8523 35.722ZM81.7768 34.8436L84.5053 37.6236C84.5126 37.6165 84.5198 37.6093 84.527 37.6021L81.7768 34.8436ZM83.3386 32.448L86.9381 33.9368C86.9667 33.8676 86.9933 33.7977 87.0179 33.7271L83.3386 32.448ZM88.5646 17.4156L92.2439 18.6947C92.658 17.5037 92.4699 16.1859 91.7392 15.1583C91.0085 14.1307 89.8255 13.5203 88.5646 13.5203V17.4156ZM84.1996 17.4156V13.5203C82.47 13.5203 80.9476 14.6607 80.4614 16.3205L84.1996 17.4156ZM82.0271 24.832V28.7272C83.7566 28.7272 85.2791 27.5868 85.7653 25.927L82.0271 24.832ZM97.7152 23.9835V27.8788C99.8665 27.8788 101.61 26.1348 101.61 23.9835H97.7152ZM97.2146 21.3184L93.7016 23.0013C93.7084 23.0154 93.7153 23.0296 93.7222 23.0437L97.2146 21.3184ZM97.7052 23.9835V20.0882C95.5539 20.0882 93.8099 21.8322 93.8099 23.9835H97.7052ZM97.7052 24.2331H93.8099C93.8099 24.3045 93.8118 24.3759 93.8158 24.4471L97.7052 24.2331ZM97.2346 26.7185L100.681 28.5345C100.715 28.4703 100.747 28.4051 100.777 28.3391L97.2346 26.7185ZM95.6928 27.6069V23.7116C95.6502 23.7116 95.6076 23.7123 95.565 23.7137L95.6928 27.6069ZM94.5115 27.4072L93.0491 31.0176C93.0698 31.0259 93.0904 31.0341 93.1112 31.0421L94.5115 27.4072ZM93.7406 26.7784H89.8453C89.8453 27.5921 90.1002 28.3854 90.5741 29.0469L93.7406 26.7784ZM93.7406 21.3084L90.348 19.3944C90.0185 19.9785 89.8453 20.6378 89.8453 21.3084H93.7406ZM94.5015 20.5698L96.3247 24.012C96.3399 24.004 96.355 23.9958 96.3701 23.9876L94.5015 20.5698ZM100.458 28.9744L97.3423 26.6369C97.3366 26.6445 97.331 26.6521 97.3254 26.6597L100.458 28.9744ZM101.8 23.9835L97.9089 23.8016C97.906 23.8622 97.9046 23.9228 97.9046 23.9835L101.8 23.9835ZM100.458 19.0426L103.724 16.9186C103.689 16.8656 103.653 16.8134 103.616 16.7621L100.458 19.0426ZM96.674 17.176L96.5683 21.0699C96.6035 21.0708 96.6387 21.0713 96.674 21.0713V17.176ZM94.9187 17.6008L96.7937 21.0151L96.7937 21.0151L94.9187 17.6008ZM93.6204 18.8529L89.7463 19.2577C89.9206 20.9263 91.1437 22.2958 92.782 22.6569C94.4204 23.018 96.1059 22.2895 96.9655 20.8488L93.6204 18.8529ZM93.4703 17.4156L97.3445 17.0108C97.1372 15.027 95.4649 13.5203 93.4703 13.5203V17.4156ZM89.6359 17.4156V13.5203C87.4846 13.5203 85.7406 15.2643 85.7406 17.4156H89.6359ZM89.6359 35.5323H85.7406C85.7406 37.6836 87.4846 39.4276 89.6359 39.4276V35.5323ZM93.7406 35.5323V39.4276C95.8919 39.4276 97.6359 37.6836 97.6359 35.5323H93.7406ZM93.7406 29.3437L96.8414 26.9862C95.8295 25.6552 94.0811 25.1184 92.4967 25.6523C90.9123 26.1862 89.8453 27.6717 89.8453 29.3437H93.7406ZM95.0503 30.4099L93.3695 33.9239L93.3695 33.9239L95.0503 30.4099ZM96.704 30.7611L96.8795 26.8698C96.7854 26.8655 96.6911 26.8647 96.5969 26.8673L96.704 30.7611ZM98.8055 30.3362L100.479 33.8535L100.479 33.8535L98.8055 30.3362ZM108.458 14.1615H112.353C112.353 12.0102 110.609 10.2663 108.458 10.2663V14.1615ZM108.458 17.4156H104.562C104.562 19.5669 106.306 21.3109 108.458 21.3109V17.4156ZM104.363 14.1615V10.2663C102.212 10.2663 100.468 12.0102 100.468 14.1615H104.363ZM104.363 17.4156V21.3109C106.514 21.3109 108.258 19.5669 108.258 17.4156H104.363ZM102.521 17.4156V13.5203C100.369 13.5203 98.6254 15.2643 98.6254 17.4156H102.521ZM102.521 20.2404H98.6254C98.6254 22.3917 100.369 24.1357 102.521 24.1357V20.2404ZM104.363 20.2404H108.258C108.258 18.0891 106.514 16.3451 104.363 16.3451V20.2404ZM105.414 29.6731L108.241 26.9931C108.222 26.9733 108.203 26.9536 108.184 26.9342L105.414 29.6731ZM108.478 30.7711L108.449 34.6662C108.461 34.6663 108.473 34.6663 108.485 34.6663L108.478 30.7711ZM110.99 30.4716L111.898 34.2596C113.782 33.8081 115.048 32.041 114.869 30.1121L110.99 30.4716ZM110.71 27.4472L114.589 27.0877C114.487 25.987 113.922 24.9815 113.035 24.3218C112.148 23.662 111.023 23.4102 109.939 23.629L110.71 27.4472ZM109.509 27.5669L109.511 23.6717C109.463 23.6716 109.416 23.6725 109.368 23.6742L109.509 27.5669ZM109.088 27.4912L110.579 23.8926L110.579 23.8926L109.088 27.4912ZM108.738 27.2475L105.846 29.8576C105.859 29.8712 105.871 29.8847 105.883 29.8981L108.738 27.2475ZM108.458 20.2404V16.3451C106.306 16.3451 104.562 18.0891 104.562 20.2404H108.458ZM110.68 20.2404V24.1357C112.831 24.1357 114.575 22.3917 114.575 20.2404H110.68ZM110.68 17.4156H114.575C114.575 15.2643 112.831 13.5203 110.68 13.5203V17.4156ZM116.317 26.6786L119.73 24.8013C119.726 24.795 119.723 24.7888 119.719 24.7825L116.317 26.6786ZM116.317 21.2885L119.732 23.1618C119.743 23.1407 119.755 23.1195 119.766 23.0982L116.317 21.2885ZM119.791 21.2785L123.305 19.5987C123.274 19.5333 123.241 19.4688 123.206 19.4052L119.791 21.2785ZM120.311 23.8338L116.42 23.6623C116.417 23.7195 116.416 23.7766 116.416 23.8338L120.311 23.8338ZM111.691 23.8338L107.799 23.9983C107.888 26.0838 109.604 27.7291 111.691 27.7291V23.8338ZM113.373 19.0326L110.475 16.4303C110.461 16.4457 110.447 16.4612 110.434 16.4769L113.373 19.0326ZM111.701 23.8338H115.597C115.597 21.6825 113.853 19.9385 111.701 19.9385V23.8338ZM111.701 24.0933L115.592 24.2712C115.595 24.2119 115.597 24.1526 115.597 24.0933H111.701ZM113.363 28.9045L110.41 31.4447C110.432 31.47 110.454 31.495 110.476 31.5197L113.363 28.9045ZM122.724 28.9045L119.848 26.2776C119.84 26.2858 119.833 26.2939 119.826 26.3022L122.724 28.9045ZM124.406 23.8338L120.514 23.676C120.512 23.7286 120.511 23.7812 120.511 23.8338H124.406ZM122.724 19.0326L125.668 16.4819C125.653 16.4646 125.638 16.4474 125.622 16.4303L122.724 19.0326ZM129.982 17.4156L133.863 17.0771C133.687 15.0646 132.002 13.5203 129.982 13.5203V17.4156ZM130.143 19.2522L126.262 19.5907C126.406 21.24 127.577 22.6183 129.181 23.027C130.785 23.4356 132.473 22.7854 133.388 21.4058L130.143 19.2522ZM126.148 17.4156V13.5203C123.997 13.5203 122.253 15.2643 122.253 17.4156H126.148ZM126.148 30.5015H122.253C122.253 32.6529 123.997 34.3968 126.148 34.3968V30.5015ZM130.223 30.5015V34.3968C132.374 34.3968 134.118 32.6529 134.118 30.5015H130.223ZM130.223 21.0988L127.271 18.5575C126.662 19.2643 126.327 20.1661 126.327 21.0988H130.223ZM131.02 20.509L132.587 24.0753L132.587 24.0752L131.02 20.509ZM131.995 20.3202L131.873 24.2136C131.913 24.2149 131.954 24.2155 131.995 24.2155V20.3202ZM133.376 20.7794L136.127 18.0209C136.111 18.0059 136.096 17.991 136.081 17.9762L133.376 20.7794ZM133.837 30.5015H129.942C129.942 32.6529 131.685 34.3968 133.837 34.3968V30.5015ZM137.942 30.5015V34.3968C140.093 34.3968 141.837 32.6529 141.837 30.5015H137.942ZM136.86 18.4137L139.814 15.8744C139.809 15.8685 139.804 15.8627 139.799 15.8569L136.86 18.4137ZM133.837 17.176L133.791 21.071C133.806 21.0712 133.822 21.0713 133.837 21.0713V17.176ZM131.734 17.725L133.663 21.1095C133.668 21.1064 133.674 21.1032 133.679 21.1L131.734 17.725ZM144.549 20.9491L147.716 23.2177C147.724 23.2059 147.732 23.1942 147.741 23.1823L144.549 20.9491ZM147.172 20.8493L150.285 18.5076C150.271 18.4894 150.257 18.4713 150.243 18.4534L147.172 20.8493ZM147.583 22.6859V26.5812C149.734 26.5812 151.478 24.8372 151.478 22.6859H147.583ZM144.049 22.6859L140.811 24.8514C141.534 25.9323 142.748 26.5812 144.049 26.5812V22.6859ZM144.009 22.626L140.133 22.2372C140.042 23.1369 140.268 24.0399 140.771 24.7915L144.009 22.626ZM141.546 28.9444L144.376 26.2683L144.374 26.2658L141.546 28.9444ZM146.171 26.8658C144.02 26.8658 142.276 28.6098 142.276 30.7611C142.276 32.9124 144.02 34.6564 146.171 34.6564V26.8658ZM146.181 34.6564C148.332 34.6564 150.076 32.9124 150.076 30.7611C150.076 28.6098 148.332 26.8658 146.181 26.8658V34.6564ZM149.104 30.3418L148.049 26.5922C148.02 26.6004 147.991 26.609 147.962 26.6179L149.104 30.3418ZM151.327 29.2938L153.549 32.493C155.028 31.4658 155.61 29.559 154.957 27.8811L151.327 29.2938ZM150.356 26.7983L153.986 25.3856C153.588 24.3625 152.776 23.5549 151.751 23.1616C150.726 22.7683 149.583 22.8258 148.602 23.32L150.356 26.7983ZM146.732 27.6168L146.819 23.7226C146.79 23.7219 146.761 23.7216 146.732 23.7216V27.6168ZM144.89 26.968L147.545 24.1184C147.535 24.109 147.525 24.0996 147.515 24.0902L144.89 26.968ZM144.059 25.3111L140.314 24.2382C140.16 24.774 140.124 25.3365 140.206 25.8878L144.059 25.3111ZM144.079 25.2412V21.3459C142.34 21.3459 140.813 22.4974 140.334 24.1683L144.079 25.2412ZM151.587 25.2412V29.1365C153.739 29.1365 155.483 27.3925 155.483 25.2412H151.587ZM151.587 23.0951L147.697 22.8971C147.694 22.963 147.692 23.0291 147.692 23.0951L151.587 23.0951ZM150.065 18.7731L152.975 16.183C152.948 16.1533 152.922 16.124 152.894 16.0951L150.065 18.7731ZM145.881 17.176L145.841 21.0711C145.854 21.0712 145.867 21.0713 145.881 21.0713V17.176ZM141.385 19.0526L144.374 21.5507L144.374 21.5507L141.385 19.0526ZM139.814 24.3928L143.707 24.516C143.708 24.4749 143.709 24.4338 143.709 24.3928H139.814ZM164.592 25.0016L160.846 26.0695C161.323 27.7429 162.852 28.8969 164.592 28.8969V25.0016ZM164.662 25.0016V28.8969C166.537 28.8969 168.146 27.5617 168.491 25.7191L164.662 25.0016ZM162.43 17.4156L166.176 16.3477C165.699 14.6744 164.17 13.5203 162.43 13.5203V17.4156ZM159.847 17.4156V13.5203C158.098 13.5203 156.564 14.6851 156.095 16.3691L159.847 17.4156ZM157.714 25.0615V28.9568C159.463 28.9568 160.997 27.792 161.466 26.108L157.714 25.0615ZM157.634 25.0615L153.806 25.7833C154.153 27.6238 155.761 28.9568 157.634 28.9568V25.0615ZM156.193 17.4156L160.02 16.6938C159.673 14.8533 158.066 13.5203 156.193 13.5203V17.4156ZM152.408 17.4156V13.5203C151.217 13.5203 150.092 14.0649 149.353 14.9987C148.615 15.9325 148.343 17.153 148.617 18.3117L152.408 17.4156ZM155.502 30.5015L151.711 31.3977C152.126 33.1553 153.696 34.3968 155.502 34.3968V30.5015ZM158.966 30.5015V34.3968C160.674 34.3968 162.183 33.2834 162.688 31.651L158.966 30.5015ZM161.108 23.5643V19.669C159.4 19.669 157.891 20.7824 157.386 22.4149L161.108 23.5643ZM161.178 23.5643L164.9 22.4149C164.396 20.7824 162.887 19.669 161.178 19.669V23.5643ZM163.321 30.5015L159.599 31.651C160.103 33.2834 161.612 34.3968 163.321 34.3968V30.5015ZM166.785 30.5015V34.3968C168.592 34.3968 170.162 33.1539 170.576 31.395L166.785 30.5015ZM169.868 17.4156L173.66 18.309C173.933 17.1505 173.661 15.9308 172.922 14.9976C172.183 14.0645 171.059 13.5203 169.868 13.5203V17.4156ZM166.084 17.4156V13.5203C164.209 13.5203 162.601 14.8556 162.255 16.6981L166.084 17.4156ZM177.627 25.9599L179.862 22.7697C179.75 22.6908 179.633 22.6179 179.513 22.5513L177.627 25.9599ZM177.757 27.7366L175.425 24.6171C175.401 24.6345 175.378 24.6522 175.355 24.6702L177.757 27.7366ZM174.974 27.6468L177.361 24.5686C177.33 24.5442 177.298 24.5203 177.266 24.4969L174.974 27.6468ZM174.404 26.3092L178.297 26.1833C178.229 24.0821 176.506 22.414 174.404 22.414V26.3092ZM170.699 26.3092V22.414C169.143 22.414 167.736 23.3406 167.121 24.7705L170.699 26.3092ZM170.669 26.3791L167.091 24.8404C166.905 25.2721 166.799 25.7339 166.778 26.2033L170.669 26.3791ZM172.161 29.4036L174.72 26.4665C174.715 26.4624 174.71 26.4584 174.706 26.4543L172.161 29.4036ZM176.396 30.7611L176.582 26.8703C176.52 26.8673 176.458 26.8658 176.396 26.8658V30.7611ZM180.551 29.6132L182.709 32.8559C182.75 32.8286 182.79 32.8006 182.83 32.7719L180.551 29.6132ZM182.122 26.7085L178.234 26.4854C178.229 26.5597 178.227 26.6341 178.227 26.7085L182.122 26.7085ZM181.862 25.245L185.436 23.6953V23.6953L181.862 25.245ZM180.971 24.0534L183.469 21.0643C183.387 20.996 183.303 20.931 183.215 20.8696L180.971 24.0534ZM177.407 22.636L177.963 18.7806C177.935 18.7766 177.907 18.7728 177.879 18.7694L177.407 22.636ZM175.375 21.9872L173.261 25.2589C173.345 25.3131 173.431 25.3641 173.518 25.4117L175.375 21.9872ZM174.98 20.6118L178.504 22.2712L178.504 22.2712L174.98 20.6118ZM175.305 20.2104L177.669 23.3062C177.708 23.2765 177.746 23.2461 177.784 23.215L175.305 20.2104ZM177.647 20.2604L174.845 22.9665C174.863 22.9841 174.88 23.0015 174.897 23.0188L177.647 20.2604ZM178.048 21.4282H174.152C174.152 23.5795 175.896 25.3235 178.048 25.3235V21.4282ZM182.032 21.4282V25.3235C183.77 25.3235 185.298 24.172 185.777 22.5011L182.032 21.4282ZM182.052 21.3583L185.797 22.4312C185.877 22.1516 185.926 21.8639 185.942 21.5734L182.052 21.3583ZM181.706 19.6583L185.202 17.94L185.202 17.9399L181.706 19.6583ZM180.571 18.3439L178.224 21.4526C178.269 21.4868 178.315 21.52 178.362 21.5522L180.571 18.3439ZM172.451 18.3738L174.816 21.4695C174.853 21.4412 174.889 21.4122 174.925 21.3825L172.451 18.3738ZM171.382 19.6721L167.89 17.945V17.945L171.382 19.6721ZM171 21.3084L174.891 21.4768C174.894 21.4198 174.895 21.3627 174.895 21.3056L171 21.3084ZM172.161 23.8837L169.708 26.9097C169.767 26.9577 169.828 27.0039 169.89 27.0484L172.161 23.8837ZM175.625 25.2811L176.201 21.4288C176.196 21.428 176.191 21.4273 176.186 21.4265L175.625 25.2811ZM40.7851 6.75456L40.7853 6.75438L35.2766 1.24562L35.2764 1.24581L40.7851 6.75456ZM18.0137 7.89546H38.0308V0.104909H18.0137V7.89546ZM30.7725 11.2204L20.7639 1.2417L15.2634 6.75867L25.272 16.7374L30.7725 11.2204ZM30.7716 16.7383L30.7725 16.7373L25.2719 11.2204L25.2709 11.2214L30.7716 16.7383ZM15.2613 6.75849L25.271 16.7383L30.7715 11.2214L20.7618 1.24151L15.2613 6.75849ZM10.7503 16.7401L20.7618 6.75849L15.2613 1.24151L5.24977 11.2232L10.7503 16.7401ZM5.24974 16.7401L5.24977 16.7401L10.7503 11.2232L10.7503 11.2231L5.24974 16.7401ZM11.8953 13.9817V13.9816H4.10472V13.9817H11.8953ZM11.8953 13.9821V13.9817H4.10472V13.9821H11.8953ZM11.8953 33.945V13.9821H4.10472V33.945H11.8953ZM28.0194 30.0497H8V37.8402H28.0194V30.0497ZM28.0231 30.0497H28.0194V37.8402H28.0231V30.0497ZM48.0425 30.0497H28.0231V37.8402H48.0425V30.0497ZM35.2809 26.722L45.2922 36.7034L50.7927 31.1865L40.7814 21.2051L35.2809 26.722ZM45.2922 11.2236L35.2809 21.2051L40.7814 26.722L50.7927 16.7406L45.2922 11.2236ZM28.0231 17.8774H48.0425V10.0868H28.0231V17.8774ZM28.0194 17.8774H28.0231V10.0868H28.0194V17.8774ZM8.00051 17.8774H28.0194V10.0868H8.00051V17.8774ZM5.2498 16.7402L5.25025 16.7406L10.7508 11.2236L10.7503 11.2232L5.2498 16.7402ZM28.0194 10.0864H8.00006V17.877H28.0194V10.0864ZM28.0231 10.0864H28.0194V17.877H28.0231V10.0864ZM28.025 10.0864H28.0231V17.877H28.025V10.0864ZM30.7796 11.2275L30.7794 11.2273L25.2706 16.7361L25.2708 16.7362L30.7796 11.2275ZM25.271 11.2273L25.2708 11.2275L30.7796 16.7362L30.7798 16.7361L25.271 11.2273ZM48.0425 10.0864H28.0254V17.877H48.0425V10.0864ZM35.2837 6.76148L45.2922 16.7402L50.7927 11.2232L40.7842 1.2445L35.2837 6.76148ZM35.2866 1.24156L35.2838 1.24437L40.7841 6.76161L40.7869 6.75881L35.2866 1.24156ZM38.0311 7.89546H38.0367V0.104909H38.0311V7.89546ZM35.2766 6.75438L35.2767 6.75456L40.7855 1.24581L40.7853 1.24562L35.2766 6.75438ZM15.2615 26.722L25.271 36.7016L30.7715 31.1846L20.7621 21.2051L15.2615 26.722ZM25.271 11.2255L15.2615 21.2051L20.7621 26.722L30.7715 16.7424L25.271 11.2255ZM40.7809 21.2051L30.7715 11.2255L25.271 16.7424L35.2804 26.722L40.7809 21.2051ZM30.7715 36.7016L40.7809 26.722L35.2804 21.2051L25.271 31.1846L30.7715 36.7016ZM40.7841 46.6827L50.7927 36.7039L45.2922 31.1869L35.2835 41.1657L40.7841 46.6827ZM40.7858 41.1675L40.7828 41.1645L35.2848 46.684L35.2877 46.6869L40.7858 41.1675ZM18.0137 47.8224H38.0367V40.0319H18.0137V47.8224ZM25.2721 31.1899L15.2634 41.1687L20.7639 46.6857L30.7726 36.7068L25.2721 31.1899ZM25.2716 36.7063L25.2727 36.7074L30.772 31.1893L30.7709 31.1881L25.2716 36.7063ZM20.7618 46.6856L30.7715 36.7057L25.271 31.1888L15.2613 41.1686L20.7618 46.6856ZM5.24974 36.7039L15.2613 46.6856L20.7618 41.1686L10.7503 31.1869L5.24974 36.7039ZM28.0194 30.0501H8V37.8407H28.0194V30.0501ZM28.0231 30.0501H28.0194V37.8407H28.0231V30.0501ZM48.0425 30.0501H28.0231V37.8407H48.0425V30.0501ZM59.6513 31.5121C60.8853 31.5121 62.5248 31.1619 63.7742 29.7778L57.9912 24.5576C58.7 23.7724 59.5186 23.7216 59.6513 23.7216V31.5121ZM54.485 28.3793C54.9524 29.3424 55.6952 30.1933 56.7142 30.7699C57.7027 31.3293 58.7391 31.5121 59.6513 31.5121V23.7216C59.7626 23.7216 60.1182 23.7447 60.551 23.9897C61.0144 24.2519 61.3267 24.6336 61.4938 24.9778L54.485 28.3793ZM53.6236 24.1033C53.6236 25.4644 53.7941 27.0474 54.5301 28.4693L61.4486 24.8878C61.5088 25.0041 61.4938 25.0251 61.4671 24.8777C61.4409 24.7325 61.4141 24.484 61.4141 24.1033H53.6236ZM53.6236 23.8238V24.1033H61.4141V23.8238H53.6236ZM54.4093 19.7335C53.8346 21.0739 53.5671 22.5259 53.6268 23.9833L61.4109 23.6643C61.3988 23.3696 61.4528 23.0755 61.5694 22.8035L54.4093 19.7335ZM59.6213 16.425C58.6997 16.425 57.6567 16.6159 56.6657 17.1941C55.6537 17.7847 54.9457 18.634 54.4964 19.5446L61.4824 22.9924C61.3434 23.2741 61.061 23.6493 60.592 23.923C60.1442 24.1843 59.7619 24.2155 59.6213 24.2155V16.425ZM64.0623 18.6775C62.9087 17.0162 61.1493 16.425 59.6213 16.425V24.2155C59.4547 24.2155 59.1177 24.1868 58.712 23.9992C58.2816 23.8002 57.9176 23.4873 57.6631 23.1209L64.0623 18.6775ZM65.175 22.591C65.2323 21.237 64.8637 19.8998 64.1224 18.7666L57.603 23.0317C57.4543 22.8044 57.3798 22.5352 57.3914 22.2617L65.175 22.591ZM65.0275 18.5311H61.2832V26.3216H65.0275V18.5311ZM61.4791 20.8178L61.449 20.8876L68.606 23.9651L68.636 23.8952L61.4791 20.8178ZM61.1166 21.6914C61.1631 21.8129 61.1821 21.9427 61.1727 22.0717L68.9424 22.6413C69.0355 21.371 68.8477 20.0961 68.3925 18.9068L61.1166 21.6914ZM60.9018 21.3673C60.9971 21.4591 61.0701 21.5699 61.1166 21.6914L68.3925 18.9068C67.9373 17.7175 67.2261 16.6433 66.3099 15.7597L60.9018 21.3673ZM59.6213 21.0713C60.5412 21.0713 60.8359 21.3061 60.9431 21.4065L66.2686 15.7204C64.3936 13.9643 62.0251 13.2807 59.6213 13.2807V21.0713ZM57.9913 21.5818C58.1676 21.3781 58.5189 21.0713 59.6213 21.0713V13.2807C56.7791 13.2807 54.0668 14.2117 52.1007 16.4835L57.9913 21.5818ZM57.3194 23.8238C57.3194 22.6211 57.6322 21.993 57.9796 21.5953L52.1124 16.4699C50.2973 18.5477 49.5288 21.1137 49.5288 23.8238H57.3194ZM57.3194 24.1033V23.8238H49.5288V24.1033H57.3194ZM58.0436 26.405C57.5419 25.8053 57.2835 25.0428 57.316 24.2663L49.5323 23.9403C49.4184 26.6577 50.3235 29.3183 52.0684 31.404L58.0436 26.405ZM59.6613 26.8658C58.5183 26.8658 58.1719 26.5524 58.0013 26.3553L52.1107 31.4536C54.0826 33.732 56.7997 34.6564 59.6613 34.6564V26.8658ZM61.0498 26.4398C60.7051 26.7315 60.2614 26.8854 59.8057 26.8685L59.5169 34.6537C61.9105 34.7425 64.2525 33.935 66.0818 32.3873L61.0498 26.4398ZM61.1378 26.3105C61.1143 26.3656 61.078 26.4156 61.0307 26.4561L66.1009 32.371C67.0551 31.553 67.8088 30.5263 68.3026 29.3698L61.1378 26.3105ZM61.1683 26.1375C61.1716 26.1963 61.1613 26.2555 61.1378 26.3105L68.3026 29.3698C68.7964 28.2132 69.017 26.9584 68.9467 25.7024L61.1683 26.1375ZM61.449 27.3888L61.4791 27.4587L68.636 24.3812L68.606 24.3114L61.449 27.3888ZM61.2832 29.7454H65.0275V21.9548H61.2832V29.7454ZM63.8226 29.7232C64.8973 28.4868 65.1785 27.0138 65.1785 25.8501H57.3879C57.3879 25.8442 57.3887 25.2497 57.9429 24.6122L63.8226 29.7232ZM74.1839 17.1238L72.6822 17.1138L72.6304 24.9042L74.1321 24.9141L74.1839 17.1238ZM70.6858 16.897L70.2853 20.6002L78.0307 21.4378L78.4312 17.7346L70.6858 16.897ZM73.4411 21.0713C73.4938 21.0711 73.5462 21.0776 73.597 21.0905L75.5199 13.541C74.8315 13.3656 74.1236 13.2782 73.4132 13.2808L73.4411 21.0713ZM74.3425 20.7245C74.0672 20.9545 73.72 21.0765 73.3645 21.0708L73.4898 13.2812C71.9793 13.2569 70.509 13.7758 69.3482 14.7454L74.3425 20.7245ZM74.3923 20.6974C74.3974 20.6836 74.4063 20.6701 74.4193 20.6587L69.2714 14.8113C68.2982 15.6681 67.5507 16.7516 67.0959 17.9667L74.3923 20.6974ZM66.719 17.6997L66.8592 19.6162L74.629 19.0479L74.4888 17.1314L66.719 17.6997ZM66.7395 21.3109H70.6039V13.5203H66.7395V21.3109ZM70.6347 30.5015V17.4156H62.8442V30.5015H70.6347ZM70.8442 26.6063H66.7395V34.3968H70.8442V26.6063ZM66.9489 21.9173V30.5015H74.7395V21.9173H66.9489ZM69.6762 17.7993C68.7085 18.3138 67.8498 19.1261 67.3162 20.266L74.3722 23.5686C74.2603 23.8075 74.1008 24.0437 73.8956 24.2529C73.6939 24.4586 73.4919 24.5938 73.3338 24.6778L69.6762 17.7993ZM72.6563 17.1137C71.782 17.1137 70.7544 17.2603 69.7671 17.7524L73.2428 24.7247C73.0404 24.8256 72.8784 24.8684 72.787 24.8867C72.6945 24.9053 72.6475 24.9043 72.6563 24.9043V17.1137ZM78.0517 24.7321V24.832H85.8423V24.7321H78.0517ZM76.2224 18.4246L78.1847 25.7412L85.7093 23.7231L83.747 16.4065L76.2224 18.4246ZM75.6297 21.3109H79.9847V13.5203H75.6297V21.3109ZM83.859 29.3861L79.3138 16.1504L71.9456 18.6807L76.4909 31.9164L83.859 29.3861ZM83.4744 32.9131L83.8047 32.0647L76.5452 29.2379L76.2148 30.0863L83.4744 32.9131ZM81.2535 35.6518C82.3934 34.932 83.0802 33.909 83.4663 32.9337L76.2228 30.0658C76.3086 29.8491 76.5549 29.405 77.0941 29.0645L81.2535 35.6518ZM77.7522 36.5429C78.6561 36.5429 80.0202 36.4305 81.2535 35.6518L77.0941 29.0645C77.4475 28.8413 77.7293 28.7751 77.8094 28.7586C77.8973 28.7406 77.8912 28.7523 77.7522 28.7523V36.5429ZM77.1737 36.5055L77.384 36.5254L78.1204 28.7698L77.9101 28.7498L77.1737 36.5055ZM76.3851 36.3561L76.6354 36.416L78.4484 28.8393L78.1981 28.7794L76.3851 36.3561ZM80.6301 36.1418L81.1307 33.2271L73.4526 31.9084L72.952 34.8231L80.6301 36.1418ZM78.5471 31.8892C78.4502 31.8716 78.1848 31.8154 77.7331 31.7028L75.849 39.262C76.3584 39.389 76.8139 39.4925 77.1575 39.5548L78.5471 31.8892ZM78.7233 31.8966C78.6722 31.8966 78.6318 31.8958 78.6006 31.8948C78.5693 31.8938 78.5508 31.8925 78.5431 31.8919C78.5353 31.8913 78.5429 31.8917 78.5635 31.8945C78.5838 31.8973 78.623 31.9033 78.6774 31.9151L77.0271 39.5288C77.6584 39.6657 78.2709 39.6871 78.7233 39.6871V31.8966ZM79.0483 32.0635C79.2447 31.8708 79.4022 31.8255 79.3745 31.8341C79.3319 31.8473 79.1365 31.8966 78.7233 31.8966V39.6871C80.5999 39.6871 82.8272 39.2705 84.5053 37.6236L79.0483 32.0635ZM79.7391 30.9592C79.5152 31.5004 79.258 31.8543 79.0265 32.0851L84.527 37.6021C85.557 36.5752 86.3611 35.332 86.9381 33.9368L79.7391 30.9592ZM84.8853 16.1365L79.6593 31.1689L87.0179 33.7271L92.2439 18.6947L84.8853 16.1365ZM84.1996 21.3109H88.5646V13.5203H84.1996V21.3109ZM85.7653 25.927L87.9378 18.5106L80.4614 16.3205L78.2889 23.7369L85.7653 25.927ZM81.947 28.7272H82.0271V20.9367H81.947V28.7272ZM101.61 23.9835C101.61 22.5398 101.395 20.9865 100.707 19.5931L93.7222 23.0437C93.7009 23.0005 93.729 23.0419 93.7607 23.2106C93.7921 23.3771 93.8199 23.6302 93.8199 23.9835H101.61ZM97.7052 27.8788H97.7152V20.0882H97.7052V27.8788ZM101.6 24.2331V23.9835H93.8099V24.2331H101.6ZM100.777 28.3391C101.396 26.9866 101.676 25.5042 101.595 24.019L93.8158 24.4471C93.8281 24.6704 93.7859 24.8936 93.6925 25.0979L100.777 28.3391ZM95.6928 31.5021C96.5979 31.5021 97.6085 31.3107 98.5689 30.7549C99.5424 30.1914 100.231 29.3883 100.681 28.5345L93.7886 24.9025C93.9282 24.6376 94.206 24.2786 94.6665 24.0122C95.1137 23.7533 95.5086 23.7116 95.6928 23.7116V31.5021ZM93.1112 31.0421C93.9747 31.3748 94.8961 31.5304 95.8207 31.5L95.565 23.7137C95.6831 23.7098 95.801 23.7297 95.9118 23.7723L93.1112 31.0421ZM90.5741 29.0469C91.1174 29.8053 91.9194 30.56 93.0491 31.0176L95.9738 23.7969C96.4628 23.9949 96.7643 24.3104 96.9071 24.5099L90.5741 29.0469ZM89.8453 21.3084V26.7784H97.6359V21.3084H89.8453ZM92.6782 17.1275C91.7144 17.6381 90.9027 18.4113 90.348 19.3944L97.1332 23.2225C96.9389 23.5668 96.6478 23.8409 96.3247 24.012L92.6782 17.1275ZM95.6728 16.425C94.7947 16.425 93.6986 16.5693 92.6328 17.152L96.3701 23.9876C95.925 24.2309 95.6098 24.2155 95.6728 24.2155V16.425ZM100.728 19.6356C100.324 18.7926 99.6834 17.9303 98.7057 17.2979C97.7186 16.6593 96.6497 16.425 95.6728 16.425V24.2155C95.4067 24.2155 94.9486 24.1459 94.4745 23.8392C94.0099 23.5387 93.785 23.1755 93.7016 23.0013L100.728 19.6356ZM97.9046 24.2331C97.9046 25.632 97.5885 26.3087 97.3423 26.6369L103.574 31.3118C105.11 29.2643 105.695 26.7868 105.695 24.2331H97.9046ZM97.9046 23.9835V24.2331H105.695V23.9835H97.9046ZM97.193 21.1665C97.7025 21.9498 97.9524 22.8712 97.9089 23.8016L105.691 24.1655C105.811 21.6032 105.122 19.0688 103.724 16.9186L97.193 21.1665ZM96.674 21.0713C96.9898 21.0713 97.1042 21.1285 97.1162 21.1344C97.1201 21.1363 97.1835 21.1613 97.3004 21.3231L103.616 16.7621C101.935 14.4341 99.4727 13.2807 96.674 13.2807V21.0713ZM96.7937 21.0151C96.7241 21.0534 96.6463 21.072 96.5683 21.0699L96.7796 13.2822C95.4764 13.2468 94.1868 13.5587 93.0436 14.1865L96.7937 21.0151ZM96.9655 20.8488C96.9232 20.9198 96.8635 20.9768 96.7937 21.0151L93.0436 14.1865C91.9003 14.8144 90.9443 15.7359 90.2754 16.857L96.9655 20.8488ZM89.5961 17.8203L89.7463 19.2577L97.4946 18.4482L97.3445 17.0108L89.5961 17.8203ZM89.6359 21.3109H93.4703V13.5203H89.6359V21.3109ZM93.5311 35.5323V17.4156H85.7406V35.5323H93.5311ZM93.7406 31.637H89.6359V39.4276H93.7406V31.637ZM89.8453 29.3437V35.5323H97.6359V29.3437H89.8453ZM96.731 26.8959C96.7734 26.9162 96.8115 26.9468 96.8414 26.9862L90.6397 31.7012C91.3603 32.6489 92.2963 33.4106 93.3695 33.9239L96.731 26.8959ZM96.5969 26.8673C96.6427 26.866 96.6887 26.8756 96.731 26.8959L93.3695 33.9239C94.4426 34.4372 95.6224 34.6876 96.8111 34.6549L96.5969 26.8673ZM97.1316 26.8189C97.0536 26.8561 96.9669 26.8737 96.8795 26.8698L96.5285 34.6524C97.8908 34.7139 99.2477 34.4396 100.479 33.8535L97.1316 26.8189ZM97.3254 26.6597C97.2758 26.7268 97.2095 26.7818 97.1316 26.8189L100.479 33.8535C101.711 33.2673 102.78 32.3869 103.591 31.289L97.3254 26.6597ZM104.562 14.1615V17.4156H112.353V14.1615H104.562ZM104.363 18.0568H108.458V10.2663H104.363V18.0568ZM108.258 17.4156V14.1615H100.468V17.4156H108.258ZM102.521 21.3109H104.363V13.5203H102.521V21.3109ZM106.416 20.2404V17.4156H98.6254V20.2404H106.416ZM104.363 16.3451H102.521V24.1357H104.363V16.3451ZM108.258 26.2793V20.2404H100.468V26.2793H108.258ZM108.184 26.9342C108.352 27.1041 108.373 27.2242 108.347 27.1396C108.316 27.0401 108.258 26.7752 108.258 26.2793H100.468C100.468 28.2924 100.907 30.6547 102.644 32.412L108.184 26.9342ZM108.506 26.8759C108.158 26.8733 108.015 26.8256 108.007 26.8228C108.006 26.8226 108.037 26.8338 108.087 26.8653C108.137 26.8975 108.191 26.9408 108.241 26.9931L102.587 32.353C104.246 34.1031 106.446 34.6514 108.449 34.6662L108.506 26.8759ZM110.083 26.6836C109.554 26.8102 109.013 26.8747 108.47 26.8758L108.485 34.6663C109.635 34.664 110.78 34.5276 111.898 34.2596L110.083 26.6836ZM106.831 27.8067L107.112 30.8311L114.869 30.1121L114.589 27.0877L106.831 27.8067ZM109.507 31.4622C110.17 31.4625 110.831 31.3966 111.481 31.2654L109.939 23.629C109.798 23.6574 109.655 23.6717 109.511 23.6717L109.507 31.4622ZM107.597 31.0897C108.247 31.359 108.947 31.485 109.649 31.4597L109.368 23.6742C109.783 23.6592 110.196 23.7336 110.579 23.8926L107.597 31.0897ZM105.883 29.8981C106.363 30.4143 106.947 30.8205 107.597 31.0898L110.579 23.8926C110.963 24.0515 111.309 24.2916 111.592 24.597L105.883 29.8981ZM104.562 26.2494C104.562 27.1138 104.724 28.6143 105.846 29.8576L111.629 24.6374C112.032 25.084 112.204 25.5255 112.277 25.7801C112.35 26.038 112.353 26.2104 112.353 26.2494H104.562ZM104.562 20.2404V26.2494H112.353V20.2404H104.562ZM110.68 16.3451H108.458V24.1357H110.68V16.3451ZM106.785 17.4156V20.2404H114.575V17.4156H106.785ZM108.458 21.3109H110.68V13.5203H108.458V21.3109ZM111.901 24.0933C111.901 25.5208 112.11 27.1312 112.914 28.5746L119.719 24.7825C119.779 24.8905 119.768 24.9168 119.744 24.7957C119.72 24.6735 119.691 24.4493 119.691 24.0933H111.901ZM111.901 23.8338V24.0933H119.691V23.8338H111.901ZM112.901 19.4152C112.118 20.8425 111.901 22.4289 111.901 23.8338H119.691C119.691 23.5137 119.718 23.3031 119.742 23.1824C119.767 23.0613 119.781 23.0724 119.732 23.1618L112.901 19.4152ZM118.039 16.425C117.122 16.425 116.09 16.6096 115.104 17.1612C114.094 17.726 113.353 18.5522 112.867 19.4788L119.766 23.0982C119.62 23.3759 119.34 23.718 118.906 23.9609C118.495 24.1906 118.154 24.2155 118.039 24.2155V16.425ZM123.206 19.4052C122.711 18.5028 121.97 17.6954 120.962 17.1434C119.978 16.6044 118.953 16.425 118.039 16.425V24.2155C117.945 24.2155 117.621 24.1958 117.22 23.9762C116.795 23.7437 116.52 23.4153 116.375 23.1518L123.206 19.4052ZM124.203 24.0052C124.27 22.4848 123.961 20.9716 123.305 19.5987L116.276 22.9583C116.381 23.1782 116.43 23.4199 116.42 23.6623L124.203 24.0052ZM124.206 24.0933V23.8338H116.416V24.0933H124.206ZM123.193 28.5646C123.998 27.1212 124.206 25.5009 124.206 24.0933H116.416C116.416 24.4354 116.388 24.658 116.363 24.7833C116.338 24.9103 116.325 24.8848 116.388 24.7726L123.193 28.5646ZM118.069 31.5021C118.969 31.5021 119.984 31.3265 120.961 30.795C121.961 30.2507 122.698 29.4542 123.193 28.5646L116.388 24.7726C116.533 24.5118 116.81 24.1845 117.237 23.9521C117.64 23.7325 117.969 23.7116 118.069 23.7116V31.5021ZM112.904 28.5559C114.057 30.6537 116.106 31.5021 118.069 31.5021V23.7116C118.13 23.7116 118.437 23.7233 118.834 23.9339C119.263 24.1615 119.563 24.4981 119.73 24.8013L112.904 28.5559ZM115.583 23.6693C115.551 22.9101 115.811 22.1656 116.313 21.5883L110.434 16.4769C108.627 18.5553 107.683 21.246 107.799 23.9983L115.583 23.6693ZM111.701 19.9385H111.691V27.7291H111.701V19.9385ZM115.597 24.0933V23.8338H107.806V24.0933H115.597ZM116.316 26.3643C115.815 25.782 115.558 25.0334 115.592 24.2712L107.81 23.9154C107.684 26.6655 108.615 29.3581 110.41 31.4447L116.316 26.3643ZM118.069 26.8658C116.908 26.8658 116.481 26.5445 116.25 26.2892L110.476 31.5197C112.488 33.7399 115.205 34.6564 118.069 34.6564V26.8658ZM119.826 26.3022C119.599 26.5549 119.193 26.8658 118.069 26.8658V34.6564C120.928 34.6564 123.627 33.7295 125.622 31.5068L119.826 26.3022ZM120.511 24.0933C120.511 25.2947 120.192 25.901 119.848 26.2776L125.6 31.5313C127.499 29.4524 128.301 26.8447 128.301 24.0933H120.511ZM120.511 23.8338V24.0933H128.301V23.8338H120.511ZM119.78 21.5833C120.283 22.1645 120.545 22.9127 120.514 23.676L128.298 23.9916C128.409 21.2444 127.468 18.5596 125.668 16.4819L119.78 21.5833ZM118.049 21.0613C119.177 21.0613 119.595 21.3779 119.826 21.6349L125.622 16.4303C123.631 14.2119 120.925 13.2708 118.049 13.2708V21.0613ZM116.272 21.6349C116.502 21.3779 116.921 21.0613 118.049 21.0613V13.2708C115.172 13.2708 112.467 14.2119 110.475 16.4303L116.272 21.6349ZM126.102 17.754L126.262 19.5907L134.023 18.9138L133.863 17.0771L126.102 17.754ZM126.148 21.3109H129.982V13.5203H126.148V21.3109ZM130.043 30.5015V17.4156H122.253V30.5015H130.043ZM130.223 26.6063H126.148V34.3968H130.223V26.6063ZM126.327 21.0988V30.5015H134.118V21.0988H126.327ZM129.453 16.9427C128.615 17.3111 127.869 17.8627 127.271 18.5575L133.175 23.6402C133.013 23.8279 132.812 23.9763 132.587 24.0753L129.453 16.9427ZM132.116 16.4269C131.202 16.3983 130.292 16.5744 129.453 16.9428L132.587 24.0752C132.362 24.1741 132.118 24.2213 131.873 24.2136L132.116 16.4269ZM136.081 17.9762C134.822 16.7615 133.256 16.425 131.995 16.425V24.2155C131.955 24.2155 131.31 24.1984 130.672 23.5826L136.081 17.9762ZM137.732 22.3765C137.732 21.3274 137.563 19.4536 136.127 18.0209L130.626 23.5379C130.194 23.1068 130.032 22.674 129.978 22.4839C129.925 22.3008 129.942 22.2402 129.942 22.3765H137.732ZM137.732 30.5015V22.3765H129.942V30.5015H137.732ZM137.942 26.6063H133.837V34.3968H137.942V26.6063ZM134.046 22.3864V30.5015H141.837V22.3864H134.046ZM133.907 20.9531C133.812 20.8427 133.85 20.8266 133.913 21.0574C133.978 21.2973 134.046 21.7197 134.046 22.3864H141.837C141.837 20.1894 141.425 17.7479 139.814 15.8744L133.907 20.9531ZM133.837 21.0713C134.073 21.0713 134.134 21.1085 134.09 21.0906C134.069 21.0818 134.035 21.0649 133.998 21.0382C133.961 21.0115 133.935 20.9859 133.922 20.9706L139.799 15.8569C138.196 14.0142 136.018 13.2807 133.837 13.2807V21.0713ZM133.679 21.1C133.712 21.0809 133.751 21.0706 133.791 21.071L133.883 13.281C132.447 13.2642 131.034 13.6331 129.789 14.35L133.679 21.1ZM133.388 21.4058C133.53 21.1926 133.632 21.1271 133.663 21.1095L129.806 14.3405C128.576 15.0416 127.616 16.0142 126.897 17.0986L133.388 21.4058ZM145.881 16.425C144.279 16.425 142.525 17.0482 141.358 18.7158L147.741 23.1823C147.522 23.4954 147.187 23.8007 146.756 24.0024C146.351 24.1918 146.02 24.2155 145.881 24.2155V16.425ZM150.243 18.4534C149.004 16.865 147.26 16.425 145.881 16.425V24.2155C145.816 24.2155 145.542 24.2079 145.171 24.0565C144.763 23.8901 144.384 23.6084 144.101 23.2452L150.243 18.4534ZM151.478 22.3765C151.478 21.2023 151.235 19.7705 150.285 18.5076L144.059 23.1909C143.65 22.6467 143.687 22.2131 143.687 22.3765H151.478ZM151.478 22.6859V22.3765H143.687V22.6859H151.478ZM144.049 26.5812H147.583V18.7906H144.049V26.5812ZM140.771 24.7915L140.811 24.8514L147.286 20.5204L147.246 20.4605L140.771 24.7915ZM141.383 18.6805C140.536 19.8621 140.24 21.1722 140.133 22.2372L147.884 23.0148C147.899 22.8669 147.916 22.8277 147.905 22.8629C147.892 22.9033 147.842 23.041 147.716 23.2177L141.383 18.6805ZM146.178 26.8658C145.11 26.8653 144.665 26.5738 144.376 26.2683L138.715 31.6205C140.727 33.7486 143.363 34.6549 146.174 34.6563L146.178 26.8658ZM146.176 26.8658C146.174 26.8658 146.172 26.8658 146.172 26.8658C146.17 26.8658 146.171 26.8658 146.171 26.8658V34.6564C146.173 34.6564 146.175 34.6563 146.176 34.6563C146.177 34.6563 146.177 34.6563 146.176 34.6563V26.8658ZM146.171 34.6564H146.181V26.8658H146.171V34.6564ZM146.181 26.8658C146.182 26.8658 146.182 26.8658 146.181 26.8658C146.18 26.8658 146.178 26.8658 146.176 26.8658V34.6563C146.176 34.6563 146.175 34.6563 146.176 34.6563C146.177 34.6563 146.179 34.6564 146.181 34.6564V26.8658ZM147.962 26.6179C147.456 26.773 146.865 26.8655 146.175 26.8658L146.178 34.6563C147.566 34.6557 148.934 34.4687 150.247 34.0658L147.962 26.6179ZM149.105 26.0945C148.784 26.3176 148.427 26.4859 148.049 26.5922L150.16 34.0915C151.37 33.7508 152.516 33.2106 153.549 32.493L149.105 26.0945ZM146.726 28.211L147.697 30.7065L154.957 27.8811L153.986 25.3856L146.726 28.211ZM146.644 31.5111C148.539 31.5539 150.416 31.1301 152.109 30.2767L148.602 23.32C148.051 23.598 147.438 23.7365 146.819 23.7226L146.644 31.5111ZM142.234 29.8176C143.551 31.0455 145.178 31.5121 146.732 31.5121V23.7216C146.715 23.7216 146.819 23.7193 146.994 23.7815C147.181 23.8476 147.377 23.9616 147.545 24.1184L142.234 29.8176ZM140.206 25.8878C140.411 27.2575 141.007 28.6987 142.264 29.8459L147.515 24.0902C147.648 24.2119 147.757 24.3602 147.83 24.5085C147.898 24.6479 147.911 24.7377 147.911 24.7344L140.206 25.8878ZM140.334 24.1683L140.314 24.2382L147.803 26.384L147.823 26.3141L140.334 24.1683ZM151.587 21.3459H144.079V29.1365H151.587V21.3459ZM147.692 23.0951V25.2412H155.483V23.0951H147.692ZM147.156 21.3632C147.532 21.786 147.726 22.3369 147.697 22.8971L155.477 23.2932C155.61 20.6857 154.71 18.1324 152.975 16.183L147.156 21.3632ZM145.881 21.0713C146.842 21.0713 147.117 21.3246 147.237 21.4511L152.894 16.0951C150.992 14.0855 148.483 13.2807 145.881 13.2807V21.0713ZM144.374 21.5507C144.554 21.3354 144.852 21.061 145.841 21.0711L145.921 13.2809C143.005 13.2511 140.319 14.2544 138.397 16.5545L144.374 21.5507ZM143.709 23.9336C143.709 22.6355 144.033 21.9587 144.374 21.5507L138.397 16.5545C136.635 18.6618 135.918 21.239 135.918 23.9336H143.709ZM143.709 24.3928V23.9336H135.918V24.3928H143.709ZM143.865 25.4557C143.75 25.1555 143.697 24.8362 143.707 24.516L135.92 24.2695C135.878 25.6194 136.103 26.9642 136.583 28.2263L143.865 25.4557ZM144.374 26.2658C144.152 26.0312 143.979 25.7558 143.865 25.4557L136.583 28.2263C137.064 29.4885 137.789 30.6427 138.718 31.623L144.374 26.2658ZM164.592 28.8969H164.662V21.1064H164.592V28.8969ZM158.684 18.4834L160.846 26.0695L168.338 23.9338L166.176 16.3477L158.684 18.4834ZM159.847 21.3109H162.43V13.5203H159.847V21.3109ZM161.466 26.108L163.599 18.462L156.095 16.3691L153.962 24.0151L161.466 26.108ZM157.634 28.9568H157.714V21.1663H157.634V28.9568ZM152.365 18.1373L153.806 25.7833L161.462 24.3398L160.02 16.6938L152.365 18.1373ZM152.408 21.3109H156.193V13.5203H152.408V21.3109ZM159.293 29.6054L156.199 16.5194L148.617 18.3117L151.711 31.3977L159.293 29.6054ZM158.966 26.6063H155.502V34.3968H158.966V26.6063ZM157.386 22.4149L155.244 29.3521L162.688 31.651L164.83 24.7137L157.386 22.4149ZM161.178 19.669H161.108V27.4596H161.178V19.669ZM167.043 29.3521L164.9 22.4149L157.456 24.7137L159.599 31.651L167.043 29.3521ZM166.785 26.6063H163.321V34.3968H166.785V26.6063ZM166.077 16.5222L162.993 29.6081L170.576 31.395L173.66 18.309L166.077 16.5222ZM166.084 21.3109H169.868V13.5203H166.084V21.3109ZM168.491 25.7191L169.913 18.1331L162.255 16.6981L160.834 24.2842L168.491 25.7191ZM182.073 26.8283C182.073 24.7906 180.843 23.4566 179.862 22.7697L175.392 29.1501C175.278 29.0699 175.002 28.8545 174.748 28.4508C174.47 28.0109 174.283 27.4479 174.283 26.8283H182.073ZM180.09 30.8562C181.502 29.8005 182.073 28.2483 182.073 26.8283H174.283C174.283 26.5548 174.333 26.1587 174.534 25.7208C174.743 25.2683 175.059 24.8908 175.425 24.6171L180.09 30.8562ZM176.506 31.9513C177.393 31.9513 178.867 31.8159 180.16 30.803L175.355 24.6702C175.739 24.3698 176.095 24.2482 176.286 24.2004C176.47 24.1541 176.561 24.1608 176.506 24.1608V31.9513ZM172.587 30.725C173.909 31.75 175.416 31.9513 176.506 31.9513V24.1608C176.419 24.1608 176.474 24.1509 176.621 24.1899C176.78 24.2317 177.059 24.3342 177.361 24.5686L172.587 30.725ZM170.51 26.4352C170.551 27.6931 170.962 29.5447 172.683 30.7966L177.266 24.4969C177.706 24.8173 177.992 25.2286 178.149 25.5999C178.289 25.9336 178.296 26.1649 178.297 26.1833L170.51 26.4352ZM170.699 30.2045H174.404V22.414H170.699V30.2045ZM174.248 27.9178L174.278 27.848L167.121 24.7705L167.091 24.8404L174.248 27.9178ZM174.706 26.4543C174.498 26.2752 174.474 26.1959 174.5 26.248C174.513 26.2748 174.532 26.3222 174.546 26.3861C174.559 26.4502 174.563 26.5092 174.561 26.5549L166.778 26.2033C166.661 28.783 167.906 30.8767 169.616 32.3528L174.706 26.4543ZM176.396 26.8658C175.274 26.8658 174.855 26.5848 174.72 26.4665L169.602 32.3406C171.529 34.0191 173.954 34.6564 176.396 34.6564V26.8658ZM178.392 26.3705C177.859 26.7253 177.225 26.901 176.582 26.8703L176.21 34.6519C178.512 34.7621 180.79 34.1331 182.709 32.8559L178.392 26.3705ZM178.227 26.7085C178.227 26.7141 178.227 26.6852 178.24 26.6322C178.253 26.5778 178.275 26.5198 178.304 26.4665C178.332 26.414 178.356 26.386 178.36 26.3817C178.363 26.3788 178.339 26.4055 178.271 26.4545L182.83 32.7719C184.787 31.3595 186.018 29.2661 186.018 26.7085H178.227ZM178.288 26.7947C178.246 26.6978 178.227 26.5918 178.234 26.4854L186.011 26.9316C186.075 25.8224 185.878 24.7142 185.436 23.6953L178.288 26.7947ZM178.473 27.0425C178.394 26.9762 178.33 26.8916 178.288 26.7947L185.436 23.6953C184.994 22.6764 184.32 21.7757 183.469 21.0643L178.473 27.0425ZM176.851 26.4914C177.527 26.5889 178.17 26.8448 178.727 27.2372L183.215 20.8696C181.654 19.7689 179.854 19.0533 177.963 18.7806L176.851 26.4914ZM173.518 25.4117C174.579 25.9865 175.738 26.3565 176.935 26.5026L177.879 18.7694C177.651 18.7416 177.431 18.6714 177.231 18.5626L173.518 25.4117ZM171.637 23.5439C172.033 24.238 172.59 24.8259 173.261 25.2589L177.489 18.7155C177.865 18.9589 178.179 19.2898 178.403 19.681L171.637 23.5439ZM170.985 21.2704C171.017 22.0702 171.241 22.8499 171.637 23.5439L178.403 19.681C178.626 20.0721 178.752 20.5119 178.77 20.9634L170.985 21.2704ZM171.456 18.9524C171.116 19.6758 170.954 20.4708 170.985 21.2704L178.77 20.9634C178.788 21.4147 178.697 21.8633 178.504 22.2712L171.456 18.9524ZM172.94 17.1147C172.306 17.599 171.797 18.229 171.456 18.9524L178.504 22.2712C178.312 22.6792 178.025 23.0339 177.669 23.3062L172.94 17.1147ZM176.386 15.9658C175.263 15.9658 173.961 16.2686 172.825 17.2059L177.784 23.215C177.532 23.4229 177.251 23.5696 176.975 23.6575C176.71 23.7419 176.5 23.7564 176.386 23.7564V15.9658ZM180.449 17.5542C179.12 16.1778 177.417 15.9658 176.386 15.9658V23.7564C176.405 23.7564 176.239 23.7608 175.968 23.6755C175.675 23.5834 175.245 23.3803 174.845 22.9665L180.449 17.5542ZM181.943 21.4282C181.943 20.2781 181.639 18.74 180.398 17.5019L174.897 23.0188C174.196 22.3197 174.152 21.5602 174.152 21.4282H181.943ZM182.032 17.5329H178.048V25.3235H182.032V17.5329ZM178.308 20.2854L178.288 20.3553L185.777 22.5011L185.797 22.4312L178.308 20.2854ZM178.21 21.3765C178.175 21.3047 178.159 21.2243 178.163 21.1433L185.942 21.5734C186.011 20.3185 185.756 19.0674 185.202 17.94L178.21 21.3765ZM178.362 21.5522C178.298 21.5085 178.246 21.4483 178.21 21.3766L185.202 17.9399C184.648 16.8126 183.813 15.8473 182.78 15.1355L178.362 21.5522ZM176.396 21.0713C177.599 21.0713 178.073 21.3387 178.224 21.4526L182.918 15.2352C181.006 13.7919 178.697 13.2807 176.396 13.2807V21.0713ZM174.925 21.3825C175.003 21.319 175.354 21.0713 176.396 21.0713V13.2807C174.134 13.2807 171.842 13.8316 169.977 15.3651L174.925 21.3825ZM174.873 21.3992C174.859 21.4278 174.839 21.4516 174.816 21.4695L170.087 15.2781C169.16 15.9862 168.408 16.8985 167.89 17.945L174.873 21.3992ZM174.895 21.3056C174.895 21.3385 174.887 21.3706 174.873 21.3992L167.89 17.945C167.373 18.9915 167.104 20.1434 167.104 21.3113L174.895 21.3056ZM174.825 21.132C174.874 21.2398 174.896 21.358 174.891 21.4768L167.108 21.14C167.06 22.2385 167.271 23.3326 167.723 24.3347L174.825 21.132ZM174.614 20.8577C174.704 20.9306 174.776 21.0243 174.825 21.132L167.723 24.3347C168.175 25.3367 168.855 26.2183 169.708 26.9097L174.614 20.8577ZM176.186 21.4265C175.552 21.3342 174.951 21.0912 174.432 20.719L169.89 27.0484C171.422 28.1482 173.197 28.8638 175.063 29.1357L176.186 21.4265ZM179.513 22.5513C178.485 21.9827 177.363 21.6026 176.201 21.4288L175.048 29.1335C175.292 29.17 175.527 29.2497 175.742 29.3685L179.513 22.5513Z" fill="#FFF965" mask="url(#path-3-outside-1_1391_836)"/>
</g>
<defs>
<filter id="filter0_d_1391_836" x="0.209216" y="0.104492" width="189.709" height="55.5083" filterUnits="userSpaceOnUse" color-interpolation-filters="sRGB">
<feFlood flood-opacity="0" result="BackgroundImageFix"/>
<feColorMatrix in="SourceAlpha" type="matrix" values="0 0 0 0 0 0 0 0 0 0 0 0 0 0 0 0 0 0 127 0" result="hardAlpha"/>
<feOffset dy="3.89528"/>
<feGaussianBlur stdDeviation="1.94764"/>
<feComposite in2="hardAlpha" operator="out"/>
<feColorMatrix type="matrix" values="0 0 0 0 0 0 0 0 0 0 0 0 0 0 0 0 0 0 0.25 0"/>
<feBlend mode="normal" in2="BackgroundImageFix" result="effect1_dropShadow_1391_836"/>
<feBlend mode="normal" in="SourceGraphic" in2="effect1_dropShadow_1391_836" result="shape"/>
</filter>
</defs>
</svg>
