<svg width="190" height="57" viewBox="0 0 190 57" fill="none" xmlns="http://www.w3.org/2000/svg">
<g filter="url(#filter0_d_1391_825)">
<rect x="65.7529" y="18.6079" width="112.963" height="10.712" fill="#F7EF22"/>
<mask id="path-2-outside-1_1391_825" maskUnits="userSpaceOnUse" x="4.64062" y="0.000488281" width="181" height="49" fill="black">
<rect fill="white" x="4.64062" y="0.000488281" width="181" height="49"/>
<path fill-rule="evenodd" clip-rule="evenodd" d="M8.71828 33.1412C8.75711 33.6751 8.79593 34.2089 8.79593 34.7047V34.7809H9.41717C9.61131 34.514 9.76661 34.2661 9.92192 34.0183C10.0772 33.7704 10.2325 33.5226 10.4267 33.2556C13.1606 29.4124 15.9685 25.5328 18.7483 21.6921C19.9953 19.9692 21.2367 18.2541 22.4631 16.5536C22.6961 16.3248 23.2397 15.9435 23.2397 15.9435H30.3839C25.0257 23.3412 19.7452 30.6626 14.5424 37.9078C14.5424 37.9841 14.6977 38.1366 14.6977 38.1366C16.1242 38.9058 17.5608 39.6947 19.0075 40.4892C21.5771 41.9005 24.1785 43.3291 26.8118 44.6954C27.2 44.9242 27.9766 44.9242 28.3648 44.6954C31.6871 42.7843 35.0383 40.9018 38.4008 39.0129L38.4009 39.0128L38.4011 39.0127L38.4014 39.0125L38.4017 39.0123L38.402 39.0122L38.4086 39.0084L38.4112 39.007C40.5469 37.8072 42.6873 36.6049 44.8276 35.391C45.4488 35.0097 45.8371 34.3996 45.8371 33.6369C45.8612 33.021 45.8928 32.3903 45.9249 31.7495L45.925 31.7491C45.9963 30.3271 46.0701 28.8552 46.0701 27.3832C46.0441 26.1575 46.0268 24.9232 46.0094 23.686C45.975 21.2285 45.9404 18.7598 45.8371 16.3248C45.8371 15.5621 45.7594 14.952 45.6041 14.0368C45.2935 14.4182 45.2159 14.4944 45.0605 14.6469C42.0321 18.9368 38.8725 23.3554 35.713 27.774C34.6598 29.2469 33.6065 30.7198 32.5582 32.1879C32.1699 32.7218 31.7816 32.9506 31.1604 32.9506H25.414C25.2975 32.9506 25.1616 32.9124 25.0257 32.8743L25.0257 32.8743L25.0257 32.8743C24.8898 32.8362 24.7539 32.798 24.6374 32.798C29.0747 26.4888 33.5685 20.2351 38.0224 14.0368L38.0226 14.0366C38.7909 12.9673 39.5581 11.8997 40.3236 10.8337C40.2288 10.7406 40.1726 10.6601 40.1288 10.5974C40.0649 10.506 40.0275 10.4524 39.9354 10.4524C38.6152 9.74056 37.2951 9.01181 35.975 8.28306L35.975 8.28304C33.3347 6.82553 30.6945 5.36803 28.0542 4.0461C27.5106 3.96984 26.8118 3.96984 26.2682 4.19863C23.9718 5.44066 21.6755 6.72472 19.3791 8.00877C16.3173 9.72084 13.2555 11.4329 10.1937 13.0454C9.0289 13.7318 8.64062 14.5707 8.64062 15.7147V31.5778C8.64062 32.0735 8.67945 32.6074 8.71828 33.1412ZM150.359 28.6794C150.437 26.3915 149.583 24.7899 147.408 23.8747C147.45 23.8543 147.486 23.8393 147.519 23.8255C147.611 23.7875 147.683 23.7576 147.797 23.6459C149.505 22.7308 150.126 21.1292 149.738 19.3751C149.35 17.6973 148.03 16.7058 146.399 16.477C145.211 16.234 143.929 16.2078 142.633 16.1813C141.895 16.1662 141.152 16.151 140.419 16.0957H136.459C136.304 16.4008 136.304 16.6296 136.304 16.6296V31.8063C136.304 32.569 136.692 32.569 137.236 32.569H143.992C145.001 32.569 145.855 32.569 146.787 32.3402C148.728 31.8063 150.204 30.281 150.359 28.6794ZM141.889 29.324L141.889 29.324C141.354 29.3069 140.813 29.2896 140.264 29.2896C140.264 28.171 140.268 27.0508 140.419 25.8576C141.972 25.8576 143.603 25.9339 145.156 26.0864C146.011 26.1627 146.554 26.7728 146.554 27.688C146.399 28.5269 145.778 29.137 145.001 29.2896C143.971 29.3907 142.941 29.3577 141.889 29.324ZM141.662 22.6884L141.662 22.6884C141.196 22.6714 140.73 22.6545 140.264 22.6545H140.186V19.3751C140.655 19.3751 141.133 19.3579 141.607 19.3409C142.548 19.3071 143.476 19.2737 144.302 19.3751C145.079 19.5276 145.855 19.909 145.855 20.9004C145.855 21.8918 145.467 22.502 144.457 22.6545C143.526 22.7562 142.594 22.7223 141.662 22.6884ZM106.524 22.845L106.524 22.8452C107.203 25.038 107.883 27.2307 108.582 29.4426H108.815C109.514 27.2307 110.193 25.038 110.873 22.8452C111.552 20.6527 112.232 18.4603 112.931 16.2487H115.338C114.799 17.7644 114.294 19.2801 113.792 20.7883C113.207 22.5432 112.625 24.288 111.999 26.0107C111.771 26.7101 111.522 27.3993 111.271 28.0933C110.839 29.291 110.401 30.5031 110.057 31.8068C109.857 32.7884 109.143 32.7593 108.454 32.7312L108.454 32.7312C108.34 32.7266 108.226 32.722 108.116 32.722C107.495 32.722 107.106 32.4932 106.951 31.8068C105.786 27.7648 104.544 23.8752 103.146 19.5281C102.603 20.9009 102.214 22.1974 101.904 23.2651C101.438 24.7143 100.991 26.1254 100.544 27.5365C100.098 28.9472 99.6516 30.358 99.1857 31.8068C99.0304 32.4169 98.6421 32.722 98.0209 32.722C97.828 32.6746 97.6052 32.6934 97.3827 32.7122C96.8884 32.7539 96.3955 32.7955 96.2348 32.1119C95.3418 29.4807 94.4876 26.8686 93.6334 24.2566L93.6334 24.2565L93.6333 24.2563L93.6333 24.2561L93.6332 24.2558L93.633 24.2554C92.779 21.6437 91.9249 19.032 91.032 16.4013C91.123 16.4013 91.1607 16.3489 91.1919 16.3056C91.214 16.2749 91.2328 16.2487 91.265 16.2487C93.4393 16.0962 93.5946 16.0962 94.2158 18.1554C94.3547 18.5919 94.4936 19.0273 94.6323 19.4619C95.6562 22.672 96.6658 25.8371 97.555 29.0613C97.555 29.134 97.5903 29.1894 97.6357 29.2606C97.6855 29.3386 97.7473 29.4356 97.7879 29.5951C98.4321 27.4441 99.1 25.3398 99.7654 23.2434L99.7656 23.2427L99.7658 23.2423C100.303 21.5483 100.839 19.8594 101.36 18.1554C101.5 17.7773 101.603 17.4698 101.687 17.2202C101.874 16.6636 101.964 16.3948 102.15 16.2735C102.324 16.1602 102.582 16.1754 103.08 16.2048C103.401 16.2238 103.824 16.2487 104.389 16.2487H104.466C105.165 18.4594 105.844 20.651 106.523 22.8426L106.523 22.8435L106.524 22.8442L106.524 22.8448L106.524 22.845ZM180.491 28.527C180.141 28.1457 179.792 27.7643 179.403 27.383C175.676 29.8997 173.346 29.8997 171.327 27.5355C169.774 25.7051 169.93 22.6545 171.56 20.9004C172.337 19.9853 173.346 19.5277 174.511 19.3751C176.453 19.0701 178.006 19.9853 179.403 21.358C179.582 21.1479 179.76 20.9417 179.937 20.7377C180.528 20.0535 181.099 19.3938 181.578 18.6888C178.316 15.028 172.182 14.9518 168.765 18.3074C165.426 21.7394 165.426 27.5355 169.541 30.8912C173.113 33.7892 178.549 33.3317 181.578 29.6709C181.189 29.2896 180.84 28.9083 180.491 28.527ZM61.2906 20.3669V32.5694H58.9609V16.3249C60.514 15.9436 61.5235 16.3249 62.3777 17.5451C64.0015 19.9114 65.7665 22.2777 67.6014 24.7377L67.6017 24.7381L67.6029 24.7397C68.4879 25.9261 69.3891 27.1343 70.2985 28.3748V16.1724H72.6281V32.3406C70.9974 32.8744 70.6091 32.5694 69.6772 31.3491C69.2482 30.7712 68.8211 30.1971 68.3959 29.6256L68.3957 29.6254C66.1276 26.5768 63.9145 23.6022 61.7565 20.5195C61.6824 20.5195 61.626 20.4848 61.5535 20.4402C61.4741 20.3913 61.3754 20.3306 61.2129 20.2907L61.2906 20.3669ZM79.5386 25.4H87.4594L87.3817 25.3238C87.3817 24.5611 87.3817 23.8747 87.537 22.9596H79.6163V18.0786H88.5465V16.0957H77.209V32.4164H88.7018V30.281H79.5386V25.4ZM165.58 16.0958L165.736 16.3246C165.891 18.4092 164.907 19.4515 162.785 19.4515H160.843V32.4165H157.038V19.4515H153.078C152.146 19.4515 151.913 19.2227 151.913 18.3075C151.913 16.7822 152.69 16.0195 154.243 16.0195H165.58V16.0958ZM116.902 29.3024C116.773 29.5383 116.638 29.7862 116.502 30.0529H116.347C118.676 32.1883 121.394 33.0272 124.423 32.7984C126.286 32.5696 127.995 31.6544 128.616 29.9003C129.548 27.3836 129.004 25.2482 125.82 24.0279C125.044 23.7229 124.287 23.4369 123.53 23.1509C122.772 22.8649 122.015 22.5789 121.239 22.2738C120.307 21.8925 119.841 21.2061 120.074 20.2909C120.307 19.6808 120.928 19.147 121.472 18.7656C121.86 18.5369 122.481 18.3843 123.025 18.5369C124.014 18.6826 125.004 18.9523 126.014 19.2274C126.589 19.3841 127.17 19.5425 127.762 19.6808C127.939 19.3763 128.091 19.0469 128.261 18.6786C128.389 18.4012 128.527 18.1018 128.694 17.7742C126.286 16.4014 123.724 15.7913 120.928 16.554C118.909 17.0115 117.667 18.3843 117.511 19.9096C117.278 22.5789 118.288 23.7991 120.462 24.7143C120.988 24.8964 121.525 25.0664 122.07 25.2388C122.895 25.4996 123.736 25.7657 124.578 26.0871C125.432 26.4684 126.209 26.926 126.364 28.07C126.519 29.2902 125.432 30.2817 123.801 30.4342C121.316 30.5867 119.297 29.6716 117.511 28.07C117.36 28.4668 117.143 28.8636 116.902 29.3024Z"/>
</mask>
<path fill-rule="evenodd" clip-rule="evenodd" d="M8.71828 33.1412C8.75711 33.6751 8.79593 34.2089 8.79593 34.7047V34.7809H9.41717C9.61131 34.514 9.76661 34.2661 9.92192 34.0183C10.0772 33.7704 10.2325 33.5226 10.4267 33.2556C13.1606 29.4124 15.9685 25.5328 18.7483 21.6921C19.9953 19.9692 21.2367 18.2541 22.4631 16.5536C22.6961 16.3248 23.2397 15.9435 23.2397 15.9435H30.3839C25.0257 23.3412 19.7452 30.6626 14.5424 37.9078C14.5424 37.9841 14.6977 38.1366 14.6977 38.1366C16.1242 38.9058 17.5608 39.6947 19.0075 40.4892C21.5771 41.9005 24.1785 43.3291 26.8118 44.6954C27.2 44.9242 27.9766 44.9242 28.3648 44.6954C31.6871 42.7843 35.0383 40.9018 38.4008 39.0129L38.4009 39.0128L38.4011 39.0127L38.4014 39.0125L38.4017 39.0123L38.402 39.0122L38.4086 39.0084L38.4112 39.007C40.5469 37.8072 42.6873 36.6049 44.8276 35.391C45.4488 35.0097 45.8371 34.3996 45.8371 33.6369C45.8612 33.021 45.8928 32.3903 45.9249 31.7495L45.925 31.7491C45.9963 30.3271 46.0701 28.8552 46.0701 27.3832C46.0441 26.1575 46.0268 24.9232 46.0094 23.686C45.975 21.2285 45.9404 18.7598 45.8371 16.3248C45.8371 15.5621 45.7594 14.952 45.6041 14.0368C45.2935 14.4182 45.2159 14.4944 45.0605 14.6469C42.0321 18.9368 38.8725 23.3554 35.713 27.774C34.6598 29.2469 33.6065 30.7198 32.5582 32.1879C32.1699 32.7218 31.7816 32.9506 31.1604 32.9506H25.414C25.2975 32.9506 25.1616 32.9124 25.0257 32.8743L25.0257 32.8743L25.0257 32.8743C24.8898 32.8362 24.7539 32.798 24.6374 32.798C29.0747 26.4888 33.5685 20.2351 38.0224 14.0368L38.0226 14.0366C38.7909 12.9673 39.5581 11.8997 40.3236 10.8337C40.2288 10.7406 40.1726 10.6601 40.1288 10.5974C40.0649 10.506 40.0275 10.4524 39.9354 10.4524C38.6152 9.74056 37.2951 9.01181 35.975 8.28306L35.975 8.28304C33.3347 6.82553 30.6945 5.36803 28.0542 4.0461C27.5106 3.96984 26.8118 3.96984 26.2682 4.19863C23.9718 5.44066 21.6755 6.72472 19.3791 8.00877C16.3173 9.72084 13.2555 11.4329 10.1937 13.0454C9.0289 13.7318 8.64062 14.5707 8.64062 15.7147V31.5778C8.64062 32.0735 8.67945 32.6074 8.71828 33.1412ZM150.359 28.6794C150.437 26.3915 149.583 24.7899 147.408 23.8747C147.45 23.8543 147.486 23.8393 147.519 23.8255C147.611 23.7875 147.683 23.7576 147.797 23.6459C149.505 22.7308 150.126 21.1292 149.738 19.3751C149.35 17.6973 148.03 16.7058 146.399 16.477C145.211 16.234 143.929 16.2078 142.633 16.1813C141.895 16.1662 141.152 16.151 140.419 16.0957H136.459C136.304 16.4008 136.304 16.6296 136.304 16.6296V31.8063C136.304 32.569 136.692 32.569 137.236 32.569H143.992C145.001 32.569 145.855 32.569 146.787 32.3402C148.728 31.8063 150.204 30.281 150.359 28.6794ZM141.889 29.324L141.889 29.324C141.354 29.3069 140.813 29.2896 140.264 29.2896C140.264 28.171 140.268 27.0508 140.419 25.8576C141.972 25.8576 143.603 25.9339 145.156 26.0864C146.011 26.1627 146.554 26.7728 146.554 27.688C146.399 28.5269 145.778 29.137 145.001 29.2896C143.971 29.3907 142.941 29.3577 141.889 29.324ZM141.662 22.6884L141.662 22.6884C141.196 22.6714 140.73 22.6545 140.264 22.6545H140.186V19.3751C140.655 19.3751 141.133 19.3579 141.607 19.3409C142.548 19.3071 143.476 19.2737 144.302 19.3751C145.079 19.5276 145.855 19.909 145.855 20.9004C145.855 21.8918 145.467 22.502 144.457 22.6545C143.526 22.7562 142.594 22.7223 141.662 22.6884ZM106.524 22.845L106.524 22.8452C107.203 25.038 107.883 27.2307 108.582 29.4426H108.815C109.514 27.2307 110.193 25.038 110.873 22.8452C111.552 20.6527 112.232 18.4603 112.931 16.2487H115.338C114.799 17.7644 114.294 19.2801 113.792 20.7883C113.207 22.5432 112.625 24.288 111.999 26.0107C111.771 26.7101 111.522 27.3993 111.271 28.0933C110.839 29.291 110.401 30.5031 110.057 31.8068C109.857 32.7884 109.143 32.7593 108.454 32.7312L108.454 32.7312C108.34 32.7266 108.226 32.722 108.116 32.722C107.495 32.722 107.106 32.4932 106.951 31.8068C105.786 27.7648 104.544 23.8752 103.146 19.5281C102.603 20.9009 102.214 22.1974 101.904 23.2651C101.438 24.7143 100.991 26.1254 100.544 27.5365C100.098 28.9472 99.6516 30.358 99.1857 31.8068C99.0304 32.4169 98.6421 32.722 98.0209 32.722C97.828 32.6746 97.6052 32.6934 97.3827 32.7122C96.8884 32.7539 96.3955 32.7955 96.2348 32.1119C95.3418 29.4807 94.4876 26.8686 93.6334 24.2566L93.6334 24.2565L93.6333 24.2563L93.6333 24.2561L93.6332 24.2558L93.633 24.2554C92.779 21.6437 91.9249 19.032 91.032 16.4013C91.123 16.4013 91.1607 16.3489 91.1919 16.3056C91.214 16.2749 91.2328 16.2487 91.265 16.2487C93.4393 16.0962 93.5946 16.0962 94.2158 18.1554C94.3547 18.5919 94.4936 19.0273 94.6323 19.4619C95.6562 22.672 96.6658 25.8371 97.555 29.0613C97.555 29.134 97.5903 29.1894 97.6357 29.2606C97.6855 29.3386 97.7473 29.4356 97.7879 29.5951C98.4321 27.4441 99.1 25.3398 99.7654 23.2434L99.7656 23.2427L99.7658 23.2423C100.303 21.5483 100.839 19.8594 101.36 18.1554C101.5 17.7773 101.603 17.4698 101.687 17.2202C101.874 16.6636 101.964 16.3948 102.15 16.2735C102.324 16.1602 102.582 16.1754 103.08 16.2048C103.401 16.2238 103.824 16.2487 104.389 16.2487H104.466C105.165 18.4594 105.844 20.651 106.523 22.8426L106.523 22.8435L106.524 22.8442L106.524 22.8448L106.524 22.845ZM180.491 28.527C180.141 28.1457 179.792 27.7643 179.403 27.383C175.676 29.8997 173.346 29.8997 171.327 27.5355C169.774 25.7051 169.93 22.6545 171.56 20.9004C172.337 19.9853 173.346 19.5277 174.511 19.3751C176.453 19.0701 178.006 19.9853 179.403 21.358C179.582 21.1479 179.76 20.9417 179.937 20.7377C180.528 20.0535 181.099 19.3938 181.578 18.6888C178.316 15.028 172.182 14.9518 168.765 18.3074C165.426 21.7394 165.426 27.5355 169.541 30.8912C173.113 33.7892 178.549 33.3317 181.578 29.6709C181.189 29.2896 180.84 28.9083 180.491 28.527ZM61.2906 20.3669V32.5694H58.9609V16.3249C60.514 15.9436 61.5235 16.3249 62.3777 17.5451C64.0015 19.9114 65.7665 22.2777 67.6014 24.7377L67.6017 24.7381L67.6029 24.7397C68.4879 25.9261 69.3891 27.1343 70.2985 28.3748V16.1724H72.6281V32.3406C70.9974 32.8744 70.6091 32.5694 69.6772 31.3491C69.2482 30.7712 68.8211 30.1971 68.3959 29.6256L68.3957 29.6254C66.1276 26.5768 63.9145 23.6022 61.7565 20.5195C61.6824 20.5195 61.626 20.4848 61.5535 20.4402C61.4741 20.3913 61.3754 20.3306 61.2129 20.2907L61.2906 20.3669ZM79.5386 25.4H87.4594L87.3817 25.3238C87.3817 24.5611 87.3817 23.8747 87.537 22.9596H79.6163V18.0786H88.5465V16.0957H77.209V32.4164H88.7018V30.281H79.5386V25.4ZM165.58 16.0958L165.736 16.3246C165.891 18.4092 164.907 19.4515 162.785 19.4515H160.843V32.4165H157.038V19.4515H153.078C152.146 19.4515 151.913 19.2227 151.913 18.3075C151.913 16.7822 152.69 16.0195 154.243 16.0195H165.58V16.0958ZM116.902 29.3024C116.773 29.5383 116.638 29.7862 116.502 30.0529H116.347C118.676 32.1883 121.394 33.0272 124.423 32.7984C126.286 32.5696 127.995 31.6544 128.616 29.9003C129.548 27.3836 129.004 25.2482 125.82 24.0279C125.044 23.7229 124.287 23.4369 123.53 23.1509C122.772 22.8649 122.015 22.5789 121.239 22.2738C120.307 21.8925 119.841 21.2061 120.074 20.2909C120.307 19.6808 120.928 19.147 121.472 18.7656C121.86 18.5369 122.481 18.3843 123.025 18.5369C124.014 18.6826 125.004 18.9523 126.014 19.2274C126.589 19.3841 127.17 19.5425 127.762 19.6808C127.939 19.3763 128.091 19.0469 128.261 18.6786C128.389 18.4012 128.527 18.1018 128.694 17.7742C126.286 16.4014 123.724 15.7913 120.928 16.554C118.909 17.0115 117.667 18.3843 117.511 19.9096C117.278 22.5789 118.288 23.7991 120.462 24.7143C120.988 24.8964 121.525 25.0664 122.07 25.2388C122.895 25.4996 123.736 25.7657 124.578 26.0871C125.432 26.4684 126.209 26.926 126.364 28.07C126.519 29.2902 125.432 30.2817 123.801 30.4342C121.316 30.5867 119.297 29.6716 117.511 28.07C117.36 28.4668 117.143 28.8636 116.902 29.3024Z" fill="black"/>
<path d="M8.71828 33.1412L12.6033 32.8587L8.71828 33.1412ZM8.79593 34.7809H4.90066C4.90066 36.9322 6.64463 38.6762 8.79593 38.6762V34.7809ZM9.41717 34.7809V38.6762C10.6634 38.6762 11.8344 38.0799 12.5674 37.0721L9.41717 34.7809ZM10.4267 33.2556L13.5769 35.5468C13.5849 35.5357 13.5929 35.5247 13.6008 35.5135L10.4267 33.2556ZM18.7483 21.6921L15.5928 19.4083L15.5928 19.4083L18.7483 21.6921ZM22.4631 16.5536L19.7337 13.7745C19.5765 13.9288 19.4327 14.0963 19.3038 14.275L22.4631 16.5536ZM23.2397 15.9435V12.0482C22.4391 12.0482 21.658 12.2948 21.0026 12.7546L23.2397 15.9435ZM30.3839 15.9435L33.5386 18.2284C34.3972 17.0429 34.5188 15.4762 33.8533 14.1725C33.1878 12.8688 31.8476 12.0482 30.3839 12.0482V15.9435ZM14.5424 37.9078L11.3784 35.6357C10.9029 36.2979 10.6471 37.0926 10.6471 37.9078H14.5424ZM14.6977 38.1366L11.9682 40.9157C12.2298 41.1726 12.5263 41.3912 12.849 41.5652L14.6977 38.1366ZM19.0075 40.4892L17.1324 43.9035L17.1324 43.9035L19.0075 40.4892ZM26.8118 44.6954L28.7893 41.3394C28.729 41.3039 28.6678 41.27 28.6057 41.2378L26.8118 44.6954ZM28.3648 44.6954L26.4226 41.3189C26.4108 41.3257 26.399 41.3325 26.3873 41.3394L28.3648 44.6954ZM38.4008 39.0129L36.554 35.5832C36.5336 35.5942 36.5133 35.6054 36.493 35.6167L38.4008 39.0129ZM38.4011 39.0127L40.2478 42.4424C40.2814 42.4243 40.3146 42.4058 40.3476 42.3867L38.4011 39.0127ZM38.4017 39.0123L36.5549 35.5827C36.5214 35.6007 36.4881 35.6193 36.4551 35.6383L38.4017 39.0123ZM38.402 39.0122L40.2487 42.4419C40.2686 42.4312 40.2883 42.4203 40.3079 42.4093L38.402 39.0122ZM38.4086 39.0084L40.3146 42.4056L40.3161 42.4047L38.4086 39.0084ZM38.4112 39.007L40.3186 42.4033L40.3189 42.4031L38.4112 39.007ZM44.8276 35.391L46.7492 38.7793C46.7883 38.7572 46.827 38.7343 46.8653 38.7108L44.8276 35.391ZM45.8371 33.6369L41.9448 33.4845C41.9428 33.5353 41.9418 33.5861 41.9418 33.6369H45.8371ZM45.9249 31.7495L42.036 31.5273C42.0355 31.5363 42.035 31.5454 42.0346 31.5545L45.9249 31.7495ZM45.925 31.7491L49.8139 31.9713C49.8144 31.9622 49.8149 31.9532 49.8154 31.9441L45.925 31.7491ZM46.0701 27.3832H49.9653C49.9653 27.3557 49.965 27.3281 49.9645 27.3006L46.0701 27.3832ZM46.0094 23.686L49.9043 23.6315V23.6315L46.0094 23.686ZM45.8371 16.3248H41.9418C41.9418 16.3798 41.943 16.4349 41.9453 16.4899L45.8371 16.3248ZM45.6041 14.0368L49.4445 13.3851C49.1887 11.878 48.0751 10.6598 46.597 10.2702C45.1189 9.88058 43.5494 10.3915 42.584 11.5767L45.6041 14.0368ZM45.0605 14.6469L42.3311 11.8678C42.1646 12.0314 42.013 12.2097 41.8784 12.4004L45.0605 14.6469ZM35.713 27.774L38.8815 30.0397L35.713 27.774ZM32.5582 32.1879L35.7084 34.4791C35.715 34.4699 35.7217 34.4607 35.7282 34.4516L32.5582 32.1879ZM25.0257 32.8743L26.0781 29.1239C26.0424 29.1138 26.0065 29.1043 25.9705 29.0953L25.0257 32.8743ZM25.0257 32.8743L23.7939 36.5697C23.8885 36.6012 23.9842 36.6291 24.081 36.6533L25.0257 32.8743ZM25.0257 32.8743L26.2575 29.1789C26.1981 29.1591 26.1383 29.1408 26.078 29.1239L25.0257 32.8743ZM24.6374 32.798L21.4513 30.5572C20.6148 31.7465 20.5104 33.3027 21.1804 34.5931C21.8505 35.8835 23.1834 36.6933 24.6374 36.6933V32.798ZM38.0224 14.0368L41.1857 16.3099L41.1866 16.3086L38.0224 14.0368ZM38.0226 14.0366L34.8593 11.7636L34.8583 11.7649L38.0226 14.0366ZM40.3236 10.8337L43.4876 13.1058C44.6082 11.5453 44.4237 9.40074 43.053 8.05456L40.3236 10.8337ZM40.1288 10.5974L36.9356 12.8282L36.9356 12.8283L40.1288 10.5974ZM39.9354 10.4524L38.0867 13.881C38.6547 14.1873 39.29 14.3476 39.9354 14.3476V10.4524ZM35.975 8.28306L34.0424 11.6651C34.059 11.6746 34.0757 11.684 34.0925 11.6932L35.975 8.28306ZM35.975 8.28304L37.9076 4.90099C37.8909 4.89149 37.8743 4.88212 37.8575 4.87287L35.975 8.28304ZM28.0542 4.0461L29.7982 0.563012C29.4202 0.373786 29.014 0.247331 28.5954 0.188606L28.0542 4.0461ZM26.2682 4.19863L24.757 0.608415C24.6404 0.657493 24.5263 0.712221 24.415 0.772406L26.2682 4.19863ZM19.3791 8.00877L21.2802 11.4086H21.2802L19.3791 8.00877ZM10.1937 13.0454L8.37863 9.59884C8.32376 9.62773 8.26959 9.65794 8.21616 9.68942L10.1937 13.0454ZM147.408 23.8747L145.691 20.3783C144.321 21.0512 143.47 22.4622 143.515 23.9879C143.559 25.5136 144.49 26.8728 145.897 27.465L147.408 23.8747ZM150.359 28.6794L154.236 29.0554C154.244 28.9743 154.249 28.893 154.252 28.8116L150.359 28.6794ZM147.519 23.8255L146.026 20.2278L146.026 20.2279L147.519 23.8255ZM147.797 23.6459L145.957 20.2123C145.631 20.3871 145.331 20.6075 145.067 20.8668L147.797 23.6459ZM149.738 19.3751L153.541 18.5332C153.538 18.5211 153.536 18.509 153.533 18.4969L149.738 19.3751ZM146.399 16.477L145.618 20.2932C145.697 20.3095 145.777 20.3233 145.858 20.3345L146.399 16.477ZM142.633 16.1813L142.553 20.0758L142.633 16.1813ZM140.419 16.0957L140.713 12.2115C140.615 12.2041 140.517 12.2004 140.419 12.2004V16.0957ZM136.459 16.0957V12.2004C134.994 12.2004 133.652 13.0227 132.988 14.3285L136.459 16.0957ZM136.304 16.6296H140.199V16.6294L136.304 16.6296ZM146.787 32.3402L147.716 36.1231C147.751 36.1145 147.785 36.1055 147.82 36.096L146.787 32.3402ZM141.889 29.324L141.764 33.2173L141.767 33.2174L141.889 29.324ZM141.889 29.324L142.014 25.4307L142.011 25.4306L141.889 29.324ZM140.264 29.2896L136.369 29.2893C136.369 30.3224 136.779 31.3133 137.51 32.0438C138.24 32.7744 139.231 33.1848 140.264 33.1848V29.2896ZM140.419 25.8576V21.9624C138.458 21.9624 136.803 23.4204 136.555 25.3658L140.419 25.8576ZM145.156 26.0864L144.776 29.9631C144.787 29.9642 144.798 29.9652 144.81 29.9663L145.156 26.0864ZM146.554 27.688L150.384 28.3971C150.428 28.1632 150.449 27.9258 150.449 27.688H146.554ZM145.001 29.2896L145.382 33.1662C145.506 33.154 145.629 33.1358 145.752 33.1118L145.001 29.2896ZM141.662 22.6884L141.824 18.7965C141.817 18.7962 141.81 18.7959 141.803 18.7957L141.662 22.6884ZM141.662 22.6884L141.5 26.5803C141.507 26.5806 141.513 26.5808 141.52 26.5811L141.662 22.6884ZM140.186 22.6545H136.291C136.291 24.8058 138.035 26.5498 140.186 26.5498V22.6545ZM140.186 19.3751V15.4798C138.035 15.4798 136.291 17.2238 136.291 19.3751H140.186ZM141.607 19.3409L141.747 23.2337L141.607 19.3409ZM144.302 19.3751L145.053 15.5529C144.961 15.5349 144.869 15.5202 144.777 15.5089L144.302 19.3751ZM144.457 22.6545L144.88 26.5268C144.933 26.521 144.986 26.5141 145.039 26.5061L144.457 22.6545ZM106.524 22.8452L110.245 21.6922C110.241 21.6808 110.237 21.6694 110.234 21.658L106.524 22.8452ZM108.582 29.4426L104.868 30.6163C105.38 32.2365 106.883 33.3379 108.582 33.3379V29.4426ZM108.815 29.4426V33.3379C110.514 33.3379 112.017 32.2365 112.529 30.6163L108.815 29.4426ZM110.873 22.8452L114.594 23.9982L114.594 23.9982L110.873 22.8452ZM112.931 16.2487V12.3535C111.231 12.3535 109.728 13.4549 109.216 15.075L112.931 16.2487ZM115.338 16.2487L119.008 17.5525C119.432 16.36 119.25 15.036 118.52 14.0021C117.79 12.9683 116.603 12.3535 115.338 12.3535V16.2487ZM113.792 20.7883L110.096 19.5566V19.5566L113.792 20.7883ZM111.999 26.0107L108.338 24.6794C108.323 24.7207 108.309 24.7622 108.295 24.8039L111.999 26.0107ZM111.271 28.0933L114.935 29.416V29.416L111.271 28.0933ZM110.057 31.8068L106.291 30.8126C106.272 30.8844 106.255 30.9567 106.24 31.0295L110.057 31.8068ZM108.454 32.7312L108.211 36.6189C108.239 36.6207 108.267 36.6222 108.295 36.6233L108.454 32.7312ZM108.454 32.7312L108.697 28.8436C108.668 28.8418 108.64 28.8403 108.612 28.8392L108.454 32.7312ZM106.951 31.8068L110.75 30.9471C110.734 30.8736 110.715 30.8006 110.694 30.7282L106.951 31.8068ZM103.146 19.5281L106.854 18.3358C106.351 16.77 104.918 15.6892 103.274 15.635C101.631 15.5808 100.13 16.5649 99.5244 18.0941L103.146 19.5281ZM101.904 23.2651L105.612 24.4575C105.623 24.4229 105.634 24.3881 105.644 24.3532L101.904 23.2651ZM100.544 27.5365L96.8307 26.3612L96.8307 26.3612L100.544 27.5365ZM99.1857 31.8068L95.4774 30.6144C95.4528 30.6909 95.4306 30.7681 95.4108 30.8459L99.1857 31.8068ZM98.0209 32.722L97.0921 36.5049C97.396 36.5795 97.7079 36.6173 98.0209 36.6173V32.722ZM97.3827 32.7122L97.0552 28.8307L97.3827 32.7122ZM96.2348 32.1119L100.027 31.2209C99.9982 31.099 99.9637 30.9785 99.9234 30.8599L96.2348 32.1119ZM93.6334 24.2566L89.9104 25.4021C89.9171 25.4239 89.924 25.4456 89.9311 25.4673L93.6334 24.2566ZM93.6332 24.2558L89.9061 25.3881L89.9101 25.4014L93.6332 24.2558ZM93.633 24.2554L97.3601 23.1231C97.3521 23.0968 97.3439 23.0707 97.3354 23.0446L93.633 24.2554ZM91.032 16.4013V12.506C89.7761 12.506 88.5973 13.1115 87.8658 14.1323C87.1342 15.1531 86.9398 16.464 87.3434 17.6532L91.032 16.4013ZM91.1919 16.3056L88.0309 14.0293L88.0307 14.0295L91.1919 16.3056ZM91.265 16.2487V20.144C91.3559 20.144 91.4468 20.1408 91.5375 20.1345L91.265 16.2487ZM94.2158 18.1554L90.4866 19.2805C90.4922 19.2992 90.498 19.3179 90.5039 19.3365L94.2158 18.1554ZM94.6323 19.4619L90.9212 20.6457L90.9212 20.6457L94.6323 19.4619ZM97.555 29.0613H101.45C101.45 28.7114 101.403 28.363 101.31 28.0257L97.555 29.0613ZM97.6357 29.2606L94.3516 31.3554L94.3516 31.3554L97.6357 29.2606ZM97.7879 29.5951L94.013 30.5561C94.445 32.2529 95.9561 33.453 97.7067 33.4896C99.4573 33.5261 101.017 32.39 101.519 30.7126L97.7879 29.5951ZM99.7654 23.2434L96.0634 22.0318C96.0597 22.0428 96.0562 22.0539 96.0527 22.0649L99.7654 23.2434ZM99.7656 23.2427L103.468 24.4543C103.47 24.4462 103.473 24.4381 103.476 24.4299L99.7656 23.2427ZM99.7658 23.2423L103.476 24.4295L103.479 24.4207L99.7658 23.2423ZM101.36 18.1554L97.7071 16.8029C97.6809 16.8737 97.6567 16.9452 97.6347 17.0174L101.36 18.1554ZM101.687 17.2202L97.994 15.9811V15.9811L101.687 17.2202ZM102.15 16.2735L104.277 19.5372L104.277 19.5372L102.15 16.2735ZM103.08 16.2048L103.309 12.3163H103.309L103.08 16.2048ZM104.466 16.2487L108.18 15.075C107.668 13.4549 106.165 12.3535 104.466 12.3535V16.2487ZM106.523 22.8426L102.802 23.9956C102.805 24.0046 102.808 24.0136 102.811 24.0226L106.523 22.8426ZM106.523 22.8435L110.236 21.6648L110.236 21.6634L106.523 22.8435ZM106.524 22.8442L110.237 21.6677L110.236 21.6656L106.524 22.8442ZM106.524 22.8448L102.81 24.0213L102.814 24.0319L106.524 22.8448ZM179.403 27.383L182.133 24.6039C180.811 23.306 178.759 23.1182 177.224 24.1547L179.403 27.383ZM180.491 28.527L183.362 25.8953L183.362 25.8953L180.491 28.527ZM171.327 27.5355L168.357 30.0557L168.365 30.0651L171.327 27.5355ZM171.56 20.9004L174.413 23.5527C174.453 23.5096 174.492 23.4655 174.53 23.4207L171.56 20.9004ZM174.511 19.3751L175.017 23.2374C175.05 23.2331 175.083 23.2284 175.116 23.2232L174.511 19.3751ZM179.403 21.358L176.674 24.1371C177.446 24.8955 178.499 25.2984 179.58 25.2493C180.661 25.2002 181.673 24.7035 182.373 23.8783L179.403 21.358ZM179.937 20.7377L182.882 23.2862L182.882 23.2862L179.937 20.7377ZM181.578 18.6888L184.801 20.8765C185.803 19.3996 185.674 17.4303 184.486 16.0976L181.578 18.6888ZM168.765 18.3074L166.035 15.5283C166.014 15.549 165.993 15.5699 165.973 15.5911L168.765 18.3074ZM169.541 30.8912L167.08 33.9102L167.087 33.9161L169.541 30.8912ZM181.578 29.6709L184.579 32.1539C185.868 30.5954 185.75 28.3092 184.307 26.8918L181.578 29.6709ZM61.2906 32.5694V36.4646C63.4419 36.4646 65.1858 34.7207 65.1858 32.5694H61.2906ZM61.2906 20.3669H65.1858C65.1858 19.3217 64.7657 18.3202 64.02 17.5878L61.2906 20.3669ZM58.9609 32.5694H55.0657C55.0657 34.7207 56.8096 36.4646 58.9609 36.4646V32.5694ZM58.9609 16.3249L58.0321 12.542C56.2903 12.9696 55.0657 14.5314 55.0657 16.3249H58.9609ZM62.3777 17.5451L65.5896 15.3412C65.5827 15.3312 65.5758 15.3212 65.5688 15.3113L62.3777 17.5451ZM67.6014 24.7377L64.4791 27.0666L64.4802 27.0682L67.6014 24.7377ZM67.6017 24.7381L70.7259 22.4116L70.7229 22.4076L67.6017 24.7381ZM67.6029 24.7397L64.4787 27.0662L64.4806 27.0687L67.6029 24.7397ZM70.2985 28.3748L67.157 30.6779C68.1529 32.0364 69.9092 32.6008 71.5101 32.0768C73.111 31.5529 74.1938 30.0592 74.1938 28.3748H70.2985ZM70.2985 16.1724V12.2771C68.1472 12.2771 66.4032 14.0211 66.4032 16.1724H70.2985ZM72.6281 16.1724H76.5234C76.5234 14.0211 74.7794 12.2771 72.6281 12.2771V16.1724ZM72.6281 32.3406L73.84 36.0425C75.4408 35.5185 76.5234 34.0249 76.5234 32.3406H72.6281ZM69.6772 31.3491L66.5497 33.6711C66.5602 33.6853 66.5708 33.6993 66.5814 33.7133L69.6772 31.3491ZM68.3959 29.6256L65.26 31.9363C65.2635 31.9411 65.2671 31.946 65.2707 31.9508L68.3959 29.6256ZM68.3957 29.6254L71.5316 27.3147C71.5281 27.3099 71.5245 27.3051 71.5209 27.3003L68.3957 29.6254ZM61.7565 20.5195L64.9476 18.2856C64.2187 17.2443 63.0276 16.6242 61.7565 16.6242V20.5195ZM61.5535 20.4402L63.5947 17.1225L63.5946 17.1225L61.5535 20.4402ZM61.2129 20.2907L62.1417 16.5078C60.438 16.0894 58.6648 16.8617 57.8106 18.394C56.9564 19.9263 57.2319 21.8406 58.4835 23.0698L61.2129 20.2907ZM87.4594 25.4V29.2953C89.0412 29.2953 90.466 28.3387 91.0648 26.8745C91.6636 25.4103 91.3174 23.7294 90.1888 22.621L87.4594 25.4ZM79.5386 25.4V21.5048C77.3873 21.5048 75.6433 23.2487 75.6433 25.4H79.5386ZM87.3817 25.3238H83.4864C83.4864 26.369 83.9065 27.3704 84.6523 28.1029L87.3817 25.3238ZM87.537 22.9596L91.3774 23.6113C91.5693 22.4804 91.253 21.3224 90.5129 20.4461C89.7728 19.5698 88.6841 19.0643 87.537 19.0643V22.9596ZM79.6163 22.9596H75.721C75.721 25.1109 77.465 26.8548 79.6163 26.8548V22.9596ZM79.6163 18.0786V14.1833C77.465 14.1833 75.721 15.9273 75.721 18.0786H79.6163ZM88.5465 18.0786V21.9739C90.6978 21.9739 92.4418 20.2299 92.4418 18.0786H88.5465ZM88.5465 16.0957H92.4418C92.4418 13.9444 90.6978 12.2004 88.5465 12.2004V16.0957ZM77.209 16.0957V12.2004C75.0577 12.2004 73.3137 13.9444 73.3137 16.0957H77.209ZM77.209 32.4164H73.3137C73.3137 34.5677 75.0577 36.3117 77.209 36.3117V32.4164ZM88.7018 32.4164V36.3117C90.8531 36.3117 92.5971 34.5677 92.5971 32.4164H88.7018ZM88.7018 30.281H92.5971C92.5971 28.1297 90.8531 26.3857 88.7018 26.3857V30.281ZM79.5386 30.281H75.6433C75.6433 32.4323 77.3873 34.1763 79.5386 34.1763V30.281ZM165.736 16.3246L169.62 16.0352C169.569 15.3554 169.341 14.7008 168.958 14.1368L165.736 16.3246ZM165.58 16.0958H161.685C161.685 16.876 161.919 17.6381 162.357 18.2836L165.58 16.0958ZM160.843 19.4515V15.5562C158.692 15.5562 156.948 17.3002 156.948 19.4515H160.843ZM160.843 32.4165V36.3118C162.995 36.3118 164.739 34.5678 164.739 32.4165H160.843ZM157.038 32.4165H153.143C153.143 34.5678 154.887 36.3118 157.038 36.3118V32.4165ZM157.038 19.4515H160.934C160.934 17.3002 159.19 15.5562 157.038 15.5562V19.4515ZM165.58 16.0195H169.476C169.476 13.8682 167.732 12.1243 165.58 12.1243V16.0195ZM116.502 30.0529V33.9482C117.967 33.9482 119.308 33.1259 119.973 31.8202L116.502 30.0529ZM116.902 29.3024L113.486 27.432L113.486 27.4321L116.902 29.3024ZM116.347 30.0529V26.1576C114.74 26.1576 113.299 27.1437 112.716 28.6408C112.134 30.1379 112.53 31.8389 113.714 32.9243L116.347 30.0529ZM124.423 32.7984L124.716 36.6826C124.777 36.6781 124.837 36.6721 124.897 36.6647L124.423 32.7984ZM128.616 29.9003L124.963 28.5478C124.957 28.5651 124.95 28.5825 124.944 28.5999L128.616 29.9003ZM125.82 24.0279L124.396 27.6535C124.406 27.6574 124.416 27.6614 124.426 27.6652L125.82 24.0279ZM123.53 23.1509L122.153 26.7949L122.153 26.7949L123.53 23.1509ZM121.239 22.2738L119.764 25.879C119.78 25.8859 119.797 25.8927 119.814 25.8994L121.239 22.2738ZM120.074 20.2909L116.435 18.9015C116.381 19.0416 116.336 19.1847 116.299 19.33L120.074 20.2909ZM121.472 18.7656L119.494 15.4097C119.406 15.4619 119.319 15.5177 119.235 15.5768L121.472 18.7656ZM123.025 18.5369L121.972 22.2873C122.132 22.3319 122.294 22.3664 122.457 22.3905L123.025 18.5369ZM126.014 19.2274L124.99 22.9857L126.014 19.2274ZM127.762 19.6808L126.875 23.4738C128.542 23.8636 130.268 23.1194 131.129 21.6398L127.762 19.6808ZM128.261 18.6786L124.724 17.047L124.724 17.0471L128.261 18.6786ZM128.694 17.7742L132.165 19.5415C133.108 17.6882 132.43 15.4206 130.623 14.3904L128.694 17.7742ZM120.928 16.554L121.789 20.3529C121.844 20.3404 121.899 20.3268 121.953 20.3119L120.928 16.554ZM117.511 19.9096L113.636 19.515C113.634 19.5337 113.632 19.5523 113.631 19.5709L117.511 19.9096ZM120.462 24.7143L118.951 28.3045C119.029 28.3371 119.107 28.3672 119.186 28.3948L120.462 24.7143ZM122.07 25.2388L123.245 21.5248L123.245 21.5248L122.07 25.2388ZM124.578 26.0871L126.166 22.5301C126.101 22.501 126.034 22.4737 125.968 22.4482L124.578 26.0871ZM126.364 28.07L130.228 27.5782C130.227 27.5674 130.225 27.5567 130.224 27.546L126.364 28.07ZM123.801 30.4342L124.04 34.3222C124.081 34.3196 124.123 34.3164 124.164 34.3125L123.801 30.4342ZM117.511 28.07L120.112 25.1699C119.157 24.3135 117.841 23.9823 116.595 24.2841C115.348 24.5859 114.33 25.4822 113.872 26.6805L117.511 28.07ZM12.6912 34.7047C12.6912 34.0413 12.6398 33.3609 12.6033 32.8587L4.83327 33.4238C4.87439 33.9893 4.90066 34.3766 4.90066 34.7047H12.6912ZM12.6912 34.7809V34.7047H4.90066V34.7809H12.6912ZM9.41717 30.8856H8.79593V38.6762H9.41717V30.8856ZM6.6211 31.95C6.46041 32.2065 6.37132 32.3463 6.26696 32.4898L12.5674 37.0721C12.8513 36.6817 13.0728 36.3258 13.2227 36.0865L6.6211 31.95ZM7.27646 30.9645C6.99256 31.3548 6.77103 31.7107 6.6211 31.95L13.2227 36.0865C13.3834 35.8301 13.4725 35.6903 13.5769 35.5468L7.27646 30.9645ZM15.5928 19.4083C12.8147 23.2467 9.99731 27.1392 7.25257 30.9977L13.6008 35.5135C16.3239 31.6855 19.1224 27.8189 21.9038 23.976L15.5928 19.4083ZM19.3038 14.275C18.0796 15.9724 16.8401 17.6849 15.5928 19.4083L21.9038 23.976C23.1505 22.2535 24.3937 20.5357 25.6224 18.8322L19.3038 14.275ZM23.2397 15.9435C21.0026 12.7546 21.0025 12.7547 21.0024 12.7548C21.0023 12.7548 21.0022 12.7549 21.0021 12.7549C21.0019 12.7551 21.0017 12.7552 21.0015 12.7554C21.0011 12.7556 21.0007 12.7559 21.0002 12.7563C20.9993 12.7569 20.9982 12.7577 20.997 12.7586C20.9945 12.7603 20.9915 12.7624 20.9881 12.7648C20.9811 12.7698 20.972 12.7762 20.9611 12.7839C20.9394 12.7993 20.9099 12.8203 20.8746 12.8458C20.8049 12.896 20.7079 12.9666 20.5995 13.048C20.4423 13.1661 20.0561 13.4578 19.7337 13.7745L25.1925 19.3327C25.1031 19.4205 25.1051 19.4072 25.278 19.2774C25.3346 19.2349 25.3881 19.1959 25.4275 19.1674C25.4468 19.1535 25.4617 19.143 25.4706 19.1367C25.475 19.1335 25.4778 19.1315 25.4789 19.1307C25.4795 19.1304 25.4796 19.1303 25.4792 19.1305C25.479 19.1307 25.4787 19.1309 25.4783 19.1312C25.4781 19.1313 25.4779 19.1315 25.4776 19.1317C25.4774 19.1318 25.4773 19.1319 25.4771 19.132C25.4771 19.132 25.477 19.1321 25.4769 19.1322C25.4768 19.1322 25.4767 19.1323 23.2397 15.9435ZM30.3839 12.0482H23.2397V19.8387H30.3839V12.0482ZM17.7063 40.1799C22.906 32.9391 28.1834 25.6219 33.5386 18.2284L27.2292 13.6585C21.868 21.0604 16.5844 28.3861 11.3784 35.6357L17.7063 40.1799ZM14.6977 38.1366C17.4271 35.3575 17.4275 35.3578 17.4278 35.3582C17.4279 35.3583 17.4282 35.3586 17.4285 35.3588C17.4289 35.3593 17.4294 35.3597 17.4298 35.3602C17.4307 35.361 17.4316 35.3619 17.4325 35.3628C17.4343 35.3646 17.436 35.3663 17.4378 35.368C17.4413 35.3715 17.4448 35.375 17.4482 35.3784C17.4551 35.3853 17.462 35.3922 17.4688 35.3991C17.4822 35.4128 17.4966 35.4277 17.5118 35.4438C17.5383 35.4721 17.5843 35.5221 17.6401 35.5907C17.6835 35.6439 17.8041 35.7944 17.9335 36.0168C17.9997 36.1306 18.1054 36.3263 18.202 36.587C18.2901 36.8251 18.4376 37.2939 18.4376 37.9078H10.6471C10.6471 39.0219 11.1269 39.8095 11.1998 39.9347C11.3583 40.207 11.5177 40.41 11.5999 40.5109C11.6946 40.6272 11.7794 40.7201 11.835 40.7793C11.8648 40.811 11.8913 40.8384 11.9132 40.8607C11.9243 40.8719 11.9345 40.8822 11.9436 40.8913C11.9482 40.8959 11.9525 40.9002 11.9566 40.9043C11.9587 40.9063 11.9607 40.9082 11.9626 40.9102C11.9636 40.9111 11.9645 40.912 11.9655 40.913C11.9659 40.9134 11.9664 40.9139 11.9669 40.9143C11.9671 40.9146 11.9674 40.9149 11.9675 40.915C11.9679 40.9153 11.9682 40.9157 14.6977 38.1366ZM20.8826 37.075C19.4382 36.2817 17.9884 35.4855 16.5464 34.708L12.849 41.5652C14.26 42.3261 15.6834 43.1077 17.1324 43.9035L20.8826 37.075ZM28.6057 41.2378C26.0201 39.8963 23.4588 38.4898 20.8826 37.075L17.1324 43.9035C19.6954 45.3111 22.337 46.762 25.0178 48.153L28.6057 41.2378ZM26.3873 41.3394C26.7509 41.1251 27.0534 41.046 27.1968 41.0153C27.3593 40.9804 27.4895 40.9717 27.5883 40.9717C27.6871 40.9717 27.8173 40.9804 27.9798 41.0153C28.1232 41.046 28.4257 41.1251 28.7893 41.3394L24.8342 48.0513C25.8574 48.6543 26.9284 48.7623 27.5883 48.7623C28.2482 48.7623 29.3192 48.6543 30.3424 48.0513L26.3873 41.3394ZM36.493 35.6167C33.1334 37.504 29.7649 39.3963 26.4226 41.3189L30.3071 48.0719C33.6093 46.1724 36.9431 44.2995 40.3086 42.409L36.493 35.6167ZM36.5542 35.5831L36.554 35.5832L40.2475 42.4425L40.2477 42.4424L36.5542 35.5831ZM36.5543 35.583L36.5542 35.5831L40.2477 42.4424L40.2478 42.4424L36.5543 35.583ZM36.4548 35.6385L36.4545 35.6387L40.3476 42.3867L40.3479 42.3866L36.4548 35.6385ZM36.4551 35.6383L36.4548 35.6385L40.3479 42.3866L40.3482 42.3864L36.4551 35.6383ZM36.5552 35.5825L36.5549 35.5827L40.2484 42.442L40.2487 42.4419L36.5552 35.5825ZM36.5027 35.6113L36.496 35.6151L40.3079 42.4093L40.3146 42.4056L36.5027 35.6113ZM36.5037 35.6108L36.5012 35.6122L40.3161 42.4047L40.3186 42.4033L36.5037 35.6108ZM42.906 32.0027C40.7737 33.212 38.6403 34.4105 36.5034 35.6109L40.3189 42.4031C42.4536 41.204 44.6008 39.9978 46.7492 38.7793L42.906 32.0027ZM41.9418 33.6369C41.9418 33.3356 42.0246 32.9919 42.2122 32.6746C42.3935 32.368 42.6178 32.1769 42.7899 32.0713L46.8653 38.7108C48.5174 37.6967 49.7324 35.8925 49.7324 33.6369H41.9418ZM42.0346 31.5545C42.0026 32.1913 41.9699 32.8436 41.9448 33.4845L49.7294 33.7894C49.7525 33.1984 49.783 32.5893 49.8153 31.9445L42.0346 31.5545ZM42.036 31.5269L42.036 31.5273L49.8139 31.9717L49.8139 31.9713L42.036 31.5269ZM42.1748 27.3832C42.1748 28.7416 42.1067 30.1165 42.0346 31.554L49.8154 31.9441C49.8859 30.5377 49.9653 28.9688 49.9653 27.3832H42.1748ZM42.1145 23.7406C42.1318 24.9753 42.1493 26.2237 42.1757 27.4658L49.9645 27.3006C49.9388 26.0912 49.9217 24.871 49.9043 23.6315L42.1145 23.7406ZM41.9453 16.4899C42.0459 18.8603 42.08 21.2733 42.1145 23.7406L49.9043 23.6315C49.87 21.1836 49.8349 18.6593 49.7289 16.1597L41.9453 16.4899ZM41.7638 14.6885C41.905 15.5209 41.9418 15.883 41.9418 16.3248H49.7324C49.7324 15.2413 49.6139 14.3831 49.4445 13.3851L41.7638 14.6885ZM47.79 17.4261C48.0601 17.1607 48.2341 16.9759 48.6242 16.4969L42.584 11.5767C42.4419 11.7512 42.3952 11.8037 42.3861 11.8138C42.385 11.8149 42.3857 11.8141 42.3876 11.8121C42.3895 11.8101 42.3905 11.8091 42.3896 11.8101C42.3837 11.816 42.3746 11.8252 42.3311 11.8678L47.79 17.4261ZM38.8815 30.0397C42.0398 25.6229 45.2063 21.1946 48.2427 16.8935L41.8784 12.4004C38.8578 16.679 35.7053 21.0878 32.5444 25.5083L38.8815 30.0397ZM35.7282 34.4516C36.7757 32.9846 37.8282 31.5127 38.8815 30.0397L32.5444 25.5083C31.4913 26.981 30.4374 28.4549 29.3882 29.9243L35.7282 34.4516ZM31.1604 36.8458C31.9753 36.8458 32.9121 36.6887 33.8372 36.1752C34.725 35.6824 35.3163 35.0182 35.7084 34.4791L29.408 29.8968C29.4118 29.8915 29.6149 29.6086 30.0561 29.3637C30.5347 29.098 30.9667 29.0553 31.1604 29.0553V36.8458ZM25.414 36.8458H31.1604V29.0553H25.414V36.8458ZM23.9734 36.6247C24.0187 36.6375 24.1993 36.6894 24.3966 36.7324C24.5909 36.7748 24.96 36.8458 25.414 36.8458V29.0553C25.5934 29.0553 25.7391 29.0697 25.8387 29.083C25.9391 29.0964 26.0152 29.1118 26.0577 29.121C26.1239 29.1355 26.1686 29.1493 26.0781 29.1239L23.9734 36.6247ZM24.081 36.6533L24.081 36.6533L25.9705 29.0953L25.9705 29.0953L24.081 36.6533ZM23.7939 36.5697L23.7939 36.5697L26.2575 29.1789L26.2575 29.1789L23.7939 36.5697ZM24.6374 36.6933C24.458 36.6933 24.3123 36.6789 24.2127 36.6656C24.1124 36.6522 24.0362 36.6368 23.9937 36.6276C23.9275 36.6131 23.8828 36.5993 23.9733 36.6247L26.078 29.1239C26.0327 29.1111 25.8521 29.0592 25.6548 29.0162C25.4605 28.9738 25.0914 28.9028 24.6374 28.9028V36.6933ZM34.8591 11.7638C30.4071 17.9594 25.9018 24.2291 21.4513 30.5572L27.8236 35.0389C32.2477 28.7485 36.7299 22.5108 41.1857 16.3099L34.8591 11.7638ZM34.8583 11.7649L34.8582 11.7651L41.1866 16.3086L41.1868 16.3084L34.8583 11.7649ZM37.1596 8.5616C36.3945 9.62703 35.6277 10.6942 34.8593 11.7636L41.1859 16.3097C41.9542 15.2405 42.7217 14.1723 43.4876 13.1058L37.1596 8.5616ZM36.9356 12.8283C37.005 12.9276 37.23 13.2551 37.5942 13.6128L43.053 8.05456C43.1345 8.13458 43.2037 8.21385 43.2598 8.28464C43.3098 8.34774 43.3454 8.40011 43.322 8.36652L36.9356 12.8283ZM39.9354 14.3476C39.5708 14.3476 39.1235 14.2928 38.6445 14.1157C38.1615 13.9371 37.7823 13.6844 37.5021 13.4433C37.2438 13.2211 37.0782 13.0154 37.0118 12.9302C36.9511 12.8522 36.9041 12.7832 36.9356 12.8282L43.322 8.36656C43.3215 8.36588 43.2459 8.25589 43.1573 8.14216C43.0631 8.0212 42.8704 7.78493 42.5833 7.5379C41.8431 6.90101 40.9077 6.55709 39.9354 6.55709V14.3476ZM34.0925 11.6932C35.4097 12.4204 36.7467 13.1585 38.0867 13.881L41.7841 7.02374C40.4838 6.32262 39.1805 5.60323 37.8575 4.87289L34.0925 11.6932ZM34.0424 11.6651L34.0424 11.6651L37.9076 4.90101L37.9076 4.90099L34.0424 11.6651ZM26.3103 7.52919C28.8685 8.81002 31.4397 10.2288 34.0924 11.6932L37.8575 4.87287C35.2298 3.42228 32.5205 1.92603 29.7982 0.563012L26.3103 7.52919ZM27.7793 7.78885C27.6437 7.84592 27.5405 7.8715 27.4858 7.88277C27.4299 7.89428 27.3999 7.89592 27.3999 7.89593C27.3988 7.89599 27.4118 7.89525 27.4374 7.89647C27.4625 7.89766 27.4891 7.90024 27.513 7.9036L28.5954 0.188606C27.7647 0.0720544 26.2446 -0.0177021 24.757 0.608415L27.7793 7.78885ZM21.2802 11.4086C23.5807 10.1223 25.8531 8.85167 28.1213 7.62486L24.415 0.772406C22.0906 2.02965 19.7703 3.32717 17.478 4.60892L21.2802 11.4086ZM12.0088 16.4919C15.1213 14.8528 18.226 13.1165 21.2802 11.4086L17.478 4.60892C14.4087 6.32522 11.3898 8.01306 8.37863 9.59884L12.0088 16.4919ZM12.5359 15.7147C12.5359 15.5843 12.5566 15.7909 12.3886 16.0945C12.3105 16.2355 12.2247 16.3361 12.1634 16.3952C12.1077 16.4489 12.0957 16.4459 12.1713 16.4013L8.21616 9.68942C7.18978 10.2942 6.22969 11.1341 5.57213 12.3224C4.91883 13.503 4.74535 14.701 4.74535 15.7147H12.5359ZM12.5359 31.5778V15.7147H4.74535V31.5778H12.5359ZM12.6033 32.8587C12.5622 32.2932 12.5359 31.9059 12.5359 31.5778H4.74535C4.74535 32.2411 4.79674 32.9216 4.83327 33.4238L12.6033 32.8587ZM145.897 27.465C146.151 27.5719 146.279 27.6618 146.331 27.705C146.358 27.7266 146.37 27.7401 146.374 27.7445C146.377 27.7486 146.378 27.7502 146.379 27.7515C146.38 27.753 146.385 27.7618 146.393 27.7824C146.401 27.8035 146.414 27.8413 146.426 27.9005C146.452 28.0219 146.477 28.2283 146.466 28.5473L154.252 28.8116C154.308 27.1663 154.041 25.3957 153.077 23.7731C152.093 22.1167 150.611 20.9965 148.919 20.2845L145.897 27.465ZM146.026 20.2279C145.995 20.2409 145.855 20.2977 145.691 20.3783L149.125 27.3711C149.044 27.4109 148.977 27.4378 149.013 27.423L146.026 20.2279ZM145.067 20.8668C145.189 20.7474 145.382 20.5812 145.646 20.4227C145.882 20.2811 146.096 20.1987 146.026 20.2278L149.013 27.4231C149.321 27.2951 149.907 27.0327 150.526 26.4251L145.067 20.8668ZM145.935 20.217C145.958 20.32 145.954 20.368 145.954 20.3671C145.954 20.3667 145.955 20.3561 145.959 20.3371C145.964 20.318 145.972 20.294 145.983 20.2672C145.995 20.2403 146.009 20.2151 146.024 20.1931C146.038 20.1711 146.051 20.1566 146.058 20.1492C146.065 20.1419 146.063 20.1447 146.049 20.1555C146.035 20.1663 146.005 20.1864 145.957 20.2123L149.636 27.0796C151.177 26.2542 152.417 25.0028 153.124 23.3831C153.822 21.782 153.885 20.0868 153.541 18.5332L145.935 20.217ZM145.858 20.3345C146.056 20.3624 146.089 20.4152 146.038 20.373C146.013 20.3518 145.984 20.3201 145.961 20.2827C145.95 20.2655 145.944 20.252 145.941 20.2445C145.938 20.2371 145.94 20.2392 145.943 20.2533L153.533 18.4969C152.718 14.9766 149.872 13.0309 146.94 12.6195L145.858 20.3345ZM142.553 20.0758C143.926 20.1038 144.84 20.1341 145.618 20.2932L147.18 12.6608C145.582 12.3339 143.932 12.3118 142.712 12.2869L142.553 20.0758ZM140.126 19.9799C140.983 20.0447 141.834 20.0611 142.553 20.0758L142.712 12.2869C141.956 12.2714 141.32 12.2574 140.713 12.2115L140.126 19.9799ZM136.459 19.991H140.419V12.2004H136.459V19.991ZM136.304 16.6296C140.199 16.6294 140.199 16.6307 140.199 16.632C140.199 16.6324 140.199 16.6337 140.199 16.6346C140.199 16.6363 140.199 16.638 140.199 16.6397C140.199 16.6432 140.199 16.6466 140.199 16.65C140.199 16.6569 140.199 16.6637 140.199 16.6705C140.199 16.6841 140.198 16.6977 140.198 16.7112C140.198 16.7381 140.197 16.7648 140.195 16.7913C140.193 16.8442 140.19 16.8964 140.185 16.948C140.175 17.0508 140.161 17.1529 140.14 17.2542C140.099 17.4569 140.032 17.6632 139.93 17.8629L132.988 14.3285C132.731 14.8333 132.586 15.3065 132.506 15.6998C132.466 15.8965 132.442 16.0748 132.427 16.2301C132.42 16.3079 132.415 16.3804 132.413 16.447C132.411 16.4803 132.41 16.5122 132.409 16.5427C132.409 16.5579 132.409 16.5728 132.409 16.5873C132.409 16.5945 132.409 16.6017 132.408 16.6088C132.408 16.6123 132.408 16.6158 132.408 16.6193C132.408 16.621 132.408 16.6228 132.408 16.6245C132.408 16.6254 132.408 16.6267 132.408 16.6271C132.408 16.6284 132.408 16.6297 136.304 16.6296ZM140.199 31.8063V16.6296H132.408V31.8063H140.199ZM137.236 28.6737C137.045 28.6737 137.138 28.6694 137.27 28.6833C137.411 28.6982 137.925 28.7604 138.514 29.1008C139.203 29.4986 139.697 30.1006 139.966 30.7431C140.193 31.2865 140.199 31.7107 140.199 31.8063H132.408C132.408 32.7355 132.662 34.717 134.617 35.8465C135.371 36.2822 136.085 36.392 136.452 36.4308C136.809 36.4685 137.154 36.4642 137.236 36.4642V28.6737ZM143.992 28.6737H137.236V36.4642H143.992V28.6737ZM145.858 28.5572C145.454 28.6566 145.062 28.6737 143.992 28.6737V36.4642C144.94 36.4642 146.257 36.4813 147.716 36.1231L145.858 28.5572ZM146.482 28.3034C146.507 28.0457 146.602 28.0385 146.451 28.1933C146.313 28.3356 146.069 28.4976 145.754 28.5843L147.82 36.096C150.856 35.2611 153.883 32.6938 154.236 29.0554L146.482 28.3034ZM141.767 33.2174L141.767 33.2174L142.011 25.4306L142.01 25.4306L141.767 33.2174ZM140.264 33.1848C140.741 33.1848 141.22 33.1998 141.764 33.2173L142.014 25.4307C141.488 25.4139 140.886 25.3943 140.264 25.3943V33.1848ZM136.555 25.3658C136.368 26.836 136.369 28.1879 136.369 29.2893L144.159 29.2898C144.159 28.154 144.167 27.2656 144.283 26.3494L136.555 25.3658ZM145.537 22.2098C143.852 22.0443 142.094 21.9624 140.419 21.9624V29.7529C141.851 29.7529 143.355 29.8235 144.776 29.9631L145.537 22.2098ZM150.449 27.688C150.449 26.4526 150.072 25.1069 149.103 24.003C148.122 22.8857 146.802 22.3226 145.503 22.2066L144.81 29.9663C144.365 29.9265 143.743 29.7066 143.248 29.1423C142.764 28.5913 142.659 28.0082 142.659 27.688H150.449ZM145.752 33.1118C148.115 32.6476 149.942 30.7881 150.384 28.3971L142.724 26.9789C142.856 26.2657 143.44 25.6264 144.25 25.4673L145.752 33.1118ZM141.764 33.2173C142.773 33.2496 144.058 33.2962 145.382 33.1662L144.62 25.4129C143.885 25.4852 143.109 25.4658 142.014 25.4307L141.764 33.2173ZM141.5 26.5803L141.5 26.5803L141.824 18.7965L141.824 18.7965L141.5 26.5803ZM140.264 26.5498C140.647 26.5498 141.042 26.5637 141.52 26.5811L141.803 18.7957C141.349 18.7792 140.813 18.7592 140.264 18.7592V26.5498ZM140.186 26.5498H140.264V18.7592H140.186V26.5498ZM136.291 19.3751V22.6545H144.082V19.3751H136.291ZM141.468 15.4481C140.98 15.4656 140.573 15.4798 140.186 15.4798V23.2704C140.737 23.2704 141.285 23.2503 141.747 23.2337L141.468 15.4481ZM144.777 15.5089C143.586 15.3626 142.329 15.4172 141.468 15.4481L141.747 23.2337C142.766 23.197 143.367 23.1849 143.827 23.2414L144.777 15.5089ZM149.75 20.9004C149.75 19.2152 149.015 17.7733 147.837 16.8087C146.83 15.9849 145.719 15.6837 145.053 15.5529L143.551 23.1973C143.662 23.2191 143.327 23.1847 142.903 22.8376C142.659 22.6379 142.398 22.343 142.208 21.9462C142.017 21.5478 141.96 21.1748 141.96 20.9004H149.75ZM145.039 26.5061C146.248 26.3234 147.644 25.7623 148.643 24.44C149.576 23.2047 149.75 21.8396 149.75 20.9004H141.96C141.96 20.8985 141.96 20.8697 141.966 20.8186C141.971 20.7674 141.984 20.6866 142.011 20.5834C142.066 20.372 142.185 20.0645 142.427 19.744C142.979 19.0129 143.676 18.8331 143.875 18.8029L145.039 26.5061ZM141.52 26.5811C142.405 26.6133 143.62 26.6643 144.88 26.5268L144.035 18.7822C143.431 18.8481 142.782 18.8313 141.803 18.7957L141.52 26.5811ZM110.234 21.658L110.234 21.6579L102.814 24.0322L102.814 24.0324L110.234 21.658ZM112.296 28.2689C111.601 26.0691 110.925 23.8866 110.245 21.6922L102.803 23.9982C103.482 26.1893 104.165 28.3924 104.868 30.6163L112.296 28.2689ZM108.815 25.5473H108.582V33.3379H108.815V25.5473ZM107.152 21.6922C106.472 23.8866 105.796 26.0691 105.101 28.2689L112.529 30.6163C113.232 28.3924 113.915 26.1893 114.594 23.9982L107.152 21.6922ZM109.216 15.075C108.514 17.2986 107.831 19.5013 107.152 21.6922L114.594 23.9982C115.273 21.8041 115.95 19.6219 116.645 17.4224L109.216 15.075ZM115.338 12.3535H112.931V20.144H115.338V12.3535ZM117.487 22.02C117.992 20.506 118.485 19.0264 119.008 17.5525L111.667 14.945C111.114 16.5025 110.597 18.0542 110.096 19.5566L117.487 22.02ZM115.659 27.3419C116.307 25.5614 116.905 23.7664 117.487 22.02L110.096 19.5566C109.508 21.3201 108.943 23.0146 108.338 24.6794L115.659 27.3419ZM114.935 29.416C115.182 28.7315 115.452 27.9848 115.702 27.2174L108.295 24.8039C108.089 25.4354 107.862 26.0671 107.608 26.7706L114.935 29.416ZM113.824 32.801C114.117 31.6894 114.495 30.6348 114.935 29.416L107.608 26.7706C107.183 27.9472 106.686 29.3167 106.291 30.8126L113.824 32.801ZM108.295 36.6233C108.419 36.6284 109.651 36.7413 110.843 36.2812C111.566 36.0017 112.298 35.5209 112.884 34.7743C113.448 34.055 113.734 33.2726 113.874 32.5841L106.24 31.0295C106.281 30.8318 106.402 30.4138 106.755 29.9643C107.13 29.4874 107.602 29.1816 108.036 29.014C108.419 28.8659 108.71 28.8495 108.765 28.8466C108.81 28.8443 108.82 28.8476 108.612 28.8392L108.295 36.6233ZM108.211 36.6189L108.211 36.6189L108.697 28.8436L108.697 28.8436L108.211 36.6189ZM108.116 36.6173C108.133 36.6173 108.166 36.6181 108.295 36.6233L108.612 28.8392C108.513 28.8352 108.319 28.8267 108.116 28.8267V36.6173ZM103.152 32.6665C103.362 33.5934 103.867 34.7878 105.049 35.6581C106.18 36.491 107.382 36.6173 108.116 36.6173V28.8267C108.228 28.8267 108.926 28.8386 109.669 29.3855C110.462 29.9698 110.696 30.7067 110.75 30.9471L103.152 32.6665ZM99.4378 20.7205C100.837 25.0707 102.062 28.9078 103.208 32.8854L110.694 30.7282C109.511 26.6218 108.251 22.6797 106.854 18.3358L99.4378 20.7205ZM105.644 24.3532C105.949 23.3041 106.295 22.155 106.768 20.9622L99.5244 18.0941C98.9096 19.6468 98.4794 21.0908 98.1634 22.177L105.644 24.3532ZM104.258 28.7118C104.705 27.2995 105.149 25.8968 105.612 24.4575L98.1953 22.0728C97.7262 23.5319 97.2769 24.9514 96.8307 26.3612L104.258 28.7118ZM102.894 32.9992C103.363 31.5404 103.812 30.1213 104.258 28.7118L96.8307 26.3612C96.3839 27.7732 95.9401 29.1755 95.4774 30.6144L102.894 32.9992ZM98.0209 36.6173C98.9748 36.6173 100.143 36.3744 101.185 35.5562C102.221 34.7422 102.73 33.6736 102.961 32.7677L95.4108 30.8459C95.4861 30.5501 95.7237 29.9392 96.3715 29.4302C97.0246 28.9171 97.6882 28.8267 98.0209 28.8267V36.6173ZM97.7102 36.5937C97.7719 36.5885 97.7926 36.5869 97.8071 36.5859C97.8184 36.5851 97.7961 36.5869 97.7537 36.5874C97.6847 36.5881 97.4313 36.5882 97.0921 36.5049L98.9497 28.9391C98.0158 28.7098 97.1081 28.8263 97.0552 28.8307L97.7102 36.5937ZM92.4428 33.0029C92.5847 33.6067 92.8655 34.33 93.4233 34.9976C94.0065 35.6956 94.7254 36.1321 95.428 36.3714C96.5579 36.7562 97.6952 36.595 97.7102 36.5937L97.0552 28.8307C96.8954 28.8442 96.9547 28.8363 97.0476 28.837C97.1505 28.8378 97.4968 28.846 97.9393 28.9967C98.4368 29.1661 98.9715 29.4875 99.4016 30.0023C99.8063 30.4867 99.9653 30.9589 100.027 31.2209L92.4428 33.0029ZM89.9311 25.4673C90.7842 28.0761 91.6451 30.7087 92.5462 33.3638L99.9234 30.8599C99.0385 28.2527 98.191 25.6612 97.3357 23.0458L89.9311 25.4673ZM89.9104 25.402L89.9104 25.4021L97.3564 23.111L97.3564 23.1109L89.9104 25.402ZM89.9103 25.4019L89.9104 25.402L97.3564 23.1109L97.3564 23.1108L89.9103 25.4019ZM89.9102 25.4017L89.9103 25.4019L97.3564 23.1108L97.3563 23.1106L89.9102 25.4017ZM89.9101 25.4014L89.9102 25.4017L97.3563 23.1106L97.3562 23.1103L89.9101 25.4014ZM89.906 25.3876L89.9061 25.3881L97.3603 23.1235L97.3601 23.1231L89.906 25.3876ZM87.3434 17.6532C88.2281 20.26 89.0756 22.8512 89.9307 25.4661L97.3354 23.0446C96.4824 20.4362 95.6216 17.804 94.7206 15.1493L87.3434 17.6532ZM88.0307 14.0295C87.9737 14.1087 88.276 13.644 88.7985 13.2524C89.4517 12.763 90.2401 12.506 91.032 12.506V20.2965C91.9149 20.2965 92.7676 20.0134 93.4702 19.4869C93.7789 19.2556 93.9978 19.0225 94.1357 18.8601C94.2047 18.7789 94.2584 18.7093 94.2933 18.6629C94.3255 18.6201 94.3526 18.5823 94.353 18.5816L88.0307 14.0295ZM91.265 12.3535C90.0294 12.3535 89.1265 12.912 88.6143 13.3744C88.3892 13.5776 88.2346 13.7645 88.1581 13.8608C88.1165 13.9131 88.084 13.9567 88.0648 13.9827C88.0469 14.007 88.0313 14.0288 88.0309 14.0293L94.3528 18.5819C94.4322 18.4717 94.1935 18.8332 93.835 19.1569C93.3457 19.5986 92.4684 20.144 91.265 20.144V12.3535ZM97.9451 17.0303C97.7989 16.5456 97.5977 15.8894 97.3194 15.3012C97.0141 14.656 96.4494 13.7213 95.3605 13.0529C94.3204 12.4145 93.2802 12.3189 92.6825 12.2995C92.1076 12.2808 91.4618 12.3301 90.9924 12.363L91.5375 20.1345C91.8179 20.1148 92.0169 20.1012 92.1832 20.0929C92.2624 20.089 92.3211 20.087 92.3647 20.0862C92.386 20.0858 92.4019 20.0857 92.413 20.0857C92.4185 20.0858 92.4226 20.0858 92.4254 20.0859C92.4282 20.0859 92.4295 20.086 92.4295 20.086C92.4294 20.086 92.4278 20.0859 92.4248 20.0858C92.4218 20.0856 92.4172 20.0854 92.4111 20.0849C92.3992 20.0841 92.3803 20.0826 92.3554 20.0798C92.3066 20.0744 92.2271 20.0632 92.1251 20.04C91.9121 19.9915 91.6105 19.8922 91.2851 19.6924C90.5844 19.2624 90.311 18.7042 90.2775 18.6334C90.2614 18.5995 90.2745 18.6216 90.3179 18.7474C90.3603 18.8701 90.413 19.0366 90.4866 19.2805L97.9451 17.0303ZM98.3433 18.2782C98.2046 17.8433 98.0661 17.4092 97.9277 16.9742L90.5039 19.3365C90.6433 19.7746 90.7827 20.2113 90.9212 20.6457L98.3433 18.2782ZM101.31 28.0257C100.397 24.7146 99.3634 21.4761 98.3433 18.2782L90.9212 20.6457C91.9491 23.868 92.9347 26.9595 93.7999 30.0968L101.31 28.0257ZM100.92 27.1659C100.86 27.0723 101.002 27.2812 101.123 27.5463C101.282 27.8947 101.45 28.416 101.45 29.0613H93.6597C93.6597 29.7793 93.8459 30.3647 94.0337 30.7768C94.1194 30.9648 94.203 31.1115 94.2542 31.1977C94.3017 31.2778 94.3476 31.3491 94.3516 31.3554L100.92 27.1659ZM101.563 28.6342C101.363 27.8509 101.022 27.3254 100.92 27.1658L94.3516 31.3554C94.3794 31.3989 94.3026 31.2833 94.2258 31.1285C94.1402 30.9558 94.0656 30.7626 94.013 30.5561L101.563 28.6342ZM96.0527 22.0649C95.3887 24.1567 94.7112 26.2911 94.0564 28.4776L101.519 30.7126C102.153 28.5971 102.811 26.5228 103.478 24.4218L96.0527 22.0649ZM96.0636 22.0312L96.0634 22.0318L103.467 24.455L103.468 24.4543L96.0636 22.0312ZM96.0558 22.0551L96.0557 22.0556L103.476 24.4299L103.476 24.4295L96.0558 22.0551ZM97.6347 17.0174C97.1214 18.6978 96.5917 20.3666 96.053 22.0639L103.479 24.4207C104.015 22.73 104.558 21.021 105.085 19.2933L97.6347 17.0174ZM97.994 15.9811C97.9112 16.2278 97.8245 16.4858 97.7071 16.8029L105.013 19.5079C105.176 19.0688 105.295 18.7119 105.38 18.4594L97.994 15.9811ZM100.024 13.0098C99.0146 13.6673 98.5596 14.561 98.3736 14.9696C98.2007 15.3494 98.0596 15.7856 97.994 15.9811L105.38 18.4594C105.43 18.3096 105.458 18.2273 105.48 18.1646C105.503 18.0998 105.496 18.128 105.464 18.1977C105.416 18.3024 105.099 19.0011 104.277 19.5372L100.024 13.0098ZM103.309 12.3163C103.143 12.3065 102.717 12.2764 102.318 12.2943C101.88 12.3141 100.958 12.4008 100.024 13.0098L104.277 19.5372C103.516 20.0329 102.81 20.0706 102.669 20.077C102.585 20.0808 102.545 20.0775 102.596 20.0795C102.647 20.0815 102.714 20.0853 102.85 20.0933L103.309 12.3163ZM104.389 12.3535C103.944 12.3535 103.617 12.3345 103.309 12.3163L102.85 20.0933C103.186 20.1132 103.703 20.144 104.389 20.144V12.3535ZM104.466 12.3535H104.389V20.144H104.466V12.3535ZM110.244 21.6896C109.565 19.4996 108.883 17.2977 108.18 15.075L100.752 17.4224C101.447 19.6211 102.123 21.8023 102.802 23.9956L110.244 21.6896ZM110.236 21.6634L110.235 21.6625L102.811 24.0226L102.811 24.0235L110.236 21.6634ZM110.236 21.6656L110.236 21.6648L102.811 24.0221L102.811 24.0228L110.236 21.6656ZM110.237 21.6682L110.237 21.6677L102.81 24.0207L102.81 24.0213L110.237 21.6682ZM110.234 21.6579L110.234 21.6576L102.814 24.0319L102.814 24.0322L110.234 21.6579ZM176.674 30.1621C176.978 30.4606 177.26 30.7677 177.619 31.1588L183.362 25.8953C183.022 25.5236 182.605 25.068 182.133 24.6039L176.674 30.1621ZM168.365 30.0651C169.902 31.8645 172.014 33.225 174.782 33.1845C177.232 33.1485 179.524 32.0017 181.583 30.6113L177.224 24.1547C175.556 25.281 174.819 25.3925 174.668 25.3947C174.649 25.395 174.659 25.3932 174.685 25.3994C174.711 25.4056 174.726 25.4132 174.722 25.4112C174.71 25.4048 174.56 25.323 174.289 25.0059L168.365 30.0651ZM168.707 18.2482C165.816 21.3584 165.45 26.6292 168.357 30.0557L174.297 25.0153C174.253 24.9634 174.126 24.747 174.142 24.3454C174.158 23.9415 174.31 23.6636 174.413 23.5527L168.707 18.2482ZM174.005 15.5128C172.08 15.765 170.112 16.5872 168.59 18.3802L174.53 23.4207C174.575 23.3676 174.603 23.3502 174.634 23.3349C174.676 23.314 174.787 23.2675 175.017 23.2374L174.005 15.5128ZM182.133 18.5789C180.372 16.8498 177.637 14.9408 173.906 15.5271L175.116 23.2232C175.278 23.1977 175.389 23.2114 175.564 23.2901C175.798 23.3953 176.16 23.632 176.674 24.1371L182.133 18.5789ZM176.991 18.1892C176.816 18.391 176.626 18.6111 176.433 18.8378L182.373 23.8783C182.538 23.6846 182.704 23.4924 182.882 23.2862L176.991 18.1892ZM178.355 16.501C178.027 16.9845 177.612 17.4715 176.991 18.1893L182.882 23.2862C183.445 22.6355 184.172 21.803 184.801 20.8765L178.355 16.501ZM171.494 21.0866C173.373 19.2417 176.934 19.3323 178.669 21.28L184.486 16.0976C179.698 10.7237 170.99 10.6618 166.035 15.5283L171.494 21.0866ZM172.003 27.8722C169.749 26.0349 169.729 22.9023 171.557 21.0238L165.973 15.5911C161.122 20.5764 161.102 29.0361 167.08 33.9102L172.003 27.8722ZM178.576 27.1879C176.925 29.1838 173.927 29.4332 171.995 27.8662L167.087 33.9161C172.3 38.1453 180.173 37.4795 184.579 32.1539L178.576 27.1879ZM177.619 31.1587C177.959 31.5303 178.376 31.9859 178.848 32.45L184.307 26.8918C184.003 26.5934 183.721 26.2863 183.362 25.8953L177.619 31.1587ZM65.1858 32.5694V20.3669H57.3953V32.5694H65.1858ZM58.9609 36.4646H61.2906V28.6741H58.9609V36.4646ZM55.0657 16.3249V32.5694H62.8562V16.3249H55.0657ZM65.5688 15.3113C64.8377 14.2669 63.785 13.2245 62.2568 12.6716C60.7483 12.1258 59.273 12.2373 58.0321 12.542L59.8897 20.1078C60.2019 20.0312 60.0079 20.1427 59.6061 19.9973C59.4161 19.9286 59.2752 19.835 59.1921 19.765C59.119 19.7034 59.122 19.6867 59.1866 19.779L65.5688 15.3113ZM70.7237 22.4087C68.8798 19.9366 67.1621 17.6329 65.5896 15.3412L59.1659 19.7491C60.8408 22.19 62.6533 24.6189 64.4791 27.0666L70.7237 22.4087ZM70.7229 22.4076L70.7226 22.4072L64.4802 27.0682L64.4805 27.0686L70.7229 22.4076ZM70.7271 22.4132L70.7259 22.4116L64.4775 27.0646L64.4787 27.0662L70.7271 22.4132ZM73.44 26.0717C72.5195 24.8162 71.6088 23.5952 70.7253 22.4107L64.4806 27.0687C65.3669 28.257 66.2586 29.4524 67.157 30.6779L73.44 26.0717ZM66.4032 16.1724V28.3748H74.1938V16.1724H66.4032ZM72.6281 12.2771H70.2985V20.0676H72.6281V12.2771ZM76.5234 32.3406V16.1724H68.7328V32.3406H76.5234ZM66.5814 33.7133C66.9203 34.157 67.8734 35.5097 69.4807 36.1338C71.2646 36.8265 72.933 36.3394 73.84 36.0425L71.4162 28.6386C71.1209 28.7353 71.1003 28.7185 71.231 28.7057C71.4167 28.6875 71.8212 28.6854 72.3005 28.8715C72.7546 29.0478 73.0072 29.2905 73.0488 29.3319C73.062 29.345 73.0029 29.286 72.773 28.985L66.5814 33.7133ZM65.2707 31.9508C65.696 32.5225 66.122 33.0951 66.5497 33.6711L72.8048 29.0271C72.3744 28.4474 71.9461 27.8717 71.5211 27.3005L65.2707 31.9508ZM65.2598 31.9361L65.26 31.9363L71.5318 27.315L71.5316 27.3147L65.2598 31.9361ZM58.5654 22.7533C60.761 25.8898 63.0078 28.9093 65.2705 31.9506L71.5209 27.3003C69.2473 24.2444 67.068 21.3147 64.9476 18.2856L58.5654 22.7533ZM59.5124 23.7578C59.5191 23.762 59.5903 23.8062 59.6702 23.852C59.7564 23.9013 59.9017 23.9811 60.0871 24.0626C60.4935 24.2412 61.0626 24.4147 61.7565 24.4147V16.6242C62.3763 16.6242 62.8801 16.7804 63.2217 16.9305C63.4818 17.0448 63.6875 17.1796 63.5947 17.1225L59.5124 23.7578ZM60.2841 24.0736C60.0874 24.0253 59.9012 23.9563 59.7329 23.8757C59.5818 23.8034 59.4686 23.7309 59.5124 23.7579L63.5946 17.1225C63.4314 17.0221 62.9119 16.6969 62.1417 16.5078L60.2841 24.0736ZM64.02 17.5878L63.9423 17.5115L58.4835 23.0698L58.5612 23.1461L64.02 17.5878ZM87.4594 21.5048H79.5386V29.2953H87.4594V21.5048ZM84.6523 28.1029L84.7299 28.1791L90.1888 22.621L90.1112 22.5447L84.6523 28.1029ZM83.6966 22.3079C83.4816 23.5753 83.4864 24.5497 83.4864 25.3238H91.277C91.277 24.5725 91.2819 24.1742 91.3774 23.6113L83.6966 22.3079ZM79.6163 26.8548H87.537V19.0643H79.6163V26.8548ZM75.721 18.0786V22.9596H83.5116V18.0786H75.721ZM88.5465 14.1833H79.6163V21.9739H88.5465V14.1833ZM84.6512 16.0957V18.0786H92.4418V16.0957H84.6512ZM77.209 19.991H88.5465V12.2004H77.209V19.991ZM81.1043 32.4164V16.0957H73.3137V32.4164H81.1043ZM88.7018 28.5212H77.209V36.3117H88.7018V28.5212ZM84.8066 30.281V32.4164H92.5971V30.281H84.8066ZM79.5386 34.1763H88.7018V26.3857H79.5386V34.1763ZM75.6433 25.4V30.281H83.4339V25.4H75.6433ZM168.958 14.1368L168.803 13.908L162.357 18.2836L162.513 18.5124L168.958 14.1368ZM162.785 23.3467C164.401 23.3467 166.427 22.9538 167.947 21.3432C169.48 19.7191 169.741 17.6616 169.62 16.0352L161.851 16.614C161.885 17.0722 161.732 16.5781 162.281 15.9963C162.818 15.428 163.291 15.5562 162.785 15.5562V23.3467ZM160.843 23.3467H162.785V15.5562H160.843V23.3467ZM164.739 32.4165V19.4515H156.948V32.4165H164.739ZM157.038 36.3118H160.843V28.5212H157.038V36.3118ZM153.143 19.4515V32.4165H160.934V19.4515H153.143ZM153.078 23.3467H157.038V15.5562H153.078V23.3467ZM148.018 18.3075C148.018 18.7464 147.98 20.5907 149.417 22.0018C150.829 23.3887 152.649 23.3467 153.078 23.3467V15.5562C152.961 15.5562 153.116 15.5444 153.39 15.6085C153.704 15.682 154.309 15.8869 154.875 16.4436C155.447 17.005 155.668 17.6166 155.75 17.9546C155.82 18.2453 155.808 18.416 155.808 18.3075H148.018ZM154.243 12.1243C152.883 12.1243 151.145 12.4584 149.766 13.8124C148.374 15.1792 148.018 16.9264 148.018 18.3075H155.808C155.808 18.1632 155.84 18.7665 155.225 19.3706C154.623 19.962 154.049 19.9148 154.243 19.9148V12.1243ZM165.58 12.1243H154.243V19.9148H165.58V12.1243ZM169.476 16.0958V16.0195H161.685V16.0958H169.476ZM119.973 31.8202C120.079 31.6131 120.187 31.4142 120.319 31.1727L113.486 27.4321C113.36 27.6623 113.197 27.9594 113.031 28.2856L119.973 31.8202ZM116.347 33.9482H116.502V26.1576H116.347V33.9482ZM124.129 28.9142C122.101 29.0674 120.463 28.542 118.979 27.1814L113.714 32.9243C116.889 35.8346 120.687 36.987 124.716 36.6826L124.129 28.9142ZM124.944 28.5999C124.944 28.6014 124.948 28.5914 124.953 28.5853C124.956 28.5827 124.936 28.6078 124.871 28.6496C124.727 28.743 124.425 28.8737 123.948 28.9322L124.897 36.6647C127.554 36.3385 130.982 34.888 132.288 31.2008L124.944 28.5999ZM124.426 27.6652C124.912 27.8515 125.135 28.0115 125.21 28.0755C125.268 28.1251 125.215 28.0948 125.166 27.9771C125.062 27.7277 125.242 27.7953 124.963 28.5478L132.269 31.2529C132.922 29.4886 133.296 27.2301 132.357 24.9788C131.395 22.6728 129.422 21.2367 127.214 20.3907L124.426 27.6652ZM122.153 26.7949C122.914 27.0822 123.647 27.3593 124.396 27.6535L127.245 20.4024C126.44 20.0865 125.66 19.7916 124.906 19.5069L122.153 26.7949ZM119.814 25.8994C120.619 26.2153 121.399 26.5102 122.153 26.7949L124.906 19.5069C124.145 19.2196 123.412 18.9425 122.663 18.6483L119.814 25.8994ZM116.299 19.33C115.955 20.6802 116.081 22.1798 116.896 23.5133C117.657 24.7598 118.785 25.4787 119.764 25.879L122.714 18.6687C122.76 18.6876 123.19 18.8727 123.544 19.4518C123.951 20.118 123.96 20.8169 123.849 21.2519L116.299 19.33ZM119.235 15.5768C118.653 15.9851 117.124 17.0965 116.435 18.9015L123.713 21.6804C123.635 21.8855 123.549 22.0207 123.503 22.0861C123.456 22.1525 123.428 22.1794 123.438 22.1696C123.446 22.1612 123.473 22.1352 123.524 22.0935C123.574 22.0525 123.636 22.0058 123.709 21.9545L119.235 15.5768ZM124.077 14.7864C122.285 14.2834 120.571 14.7753 119.494 15.4097L123.449 22.1216C123.221 22.2563 123.028 22.3161 122.863 22.345C122.696 22.3742 122.381 22.402 121.972 22.2873L124.077 14.7864ZM127.038 15.4692C126.071 15.2058 124.854 14.8689 123.593 14.6832L122.457 22.3905C123.175 22.4963 123.937 22.6988 124.99 22.9857L127.038 15.4692ZM128.649 15.8879C128.137 15.7683 127.624 15.6287 127.038 15.4692L124.99 22.9857C125.554 23.1394 126.203 23.3167 126.875 23.4738L128.649 15.8879ZM124.724 17.0471C124.537 17.452 124.462 17.6062 124.395 17.7218L131.129 21.6398C131.416 21.1463 131.645 20.6419 131.798 20.3101L124.724 17.0471ZM125.222 16.0069C125.017 16.4105 124.85 16.7741 124.724 17.047L131.798 20.3101C131.928 20.0283 132.037 19.7931 132.165 19.5415L125.222 16.0069ZM121.953 20.3119C123.501 19.8896 124.997 20.1506 126.764 21.158L130.623 14.3904C127.575 12.6523 123.946 11.693 119.903 12.796L121.953 20.3119ZM121.387 20.3042C121.368 20.487 121.29 20.5714 121.295 20.5654C121.303 20.5575 121.431 20.4341 121.789 20.3529L120.067 12.755C116.761 13.5042 113.994 15.9988 113.636 19.515L121.387 20.3042ZM121.973 21.1241C121.201 20.7988 121.222 20.6523 121.339 20.8301C121.398 20.9203 121.404 20.9775 121.395 20.9301C121.382 20.862 121.356 20.6569 121.392 20.2483L113.631 19.5709C113.469 21.4261 113.689 23.375 114.829 25.1094C115.936 26.7935 117.55 27.7146 118.951 28.3045L121.973 21.1241ZM123.245 21.5248C122.691 21.3495 122.204 21.1955 121.738 21.0339L119.186 28.3948C119.771 28.5973 120.36 28.7833 120.896 28.9528L123.245 21.5248ZM125.968 22.4482C125.003 22.0796 124.053 21.7805 123.245 21.5248L120.896 28.9528C121.736 29.2186 122.47 29.4518 123.188 29.726L125.968 22.4482ZM130.224 27.546C130.025 26.0804 129.368 24.8751 128.419 23.9718C127.587 23.179 126.655 22.7486 126.166 22.5301L122.99 29.644C123.15 29.7154 123.211 29.7487 123.227 29.7583C123.238 29.7649 123.159 29.7207 123.047 29.6133C122.925 29.4973 122.787 29.3301 122.676 29.1143C122.565 28.8991 122.52 28.7115 122.504 28.594L130.224 27.546ZM124.164 34.3125C125.64 34.1745 127.18 33.6316 128.389 32.52C129.659 31.3523 130.484 29.589 130.228 27.5782L122.5 28.5618C122.456 28.2178 122.499 27.8465 122.636 27.5002C122.769 27.164 122.959 26.9297 123.116 26.785C123.413 26.5123 123.593 26.5414 123.439 26.5559L124.164 34.3125ZM114.911 30.9701C117.292 33.1057 120.295 34.552 124.04 34.3222L123.563 26.5462C122.338 26.6214 121.302 26.2374 120.112 25.1699L114.911 30.9701ZM120.319 31.1727C120.529 30.7902 120.886 30.1514 121.15 29.4595L113.872 26.6805C113.833 26.7822 113.757 26.9371 113.486 27.432L120.319 31.1727Z" fill="#FFF965" mask="url(#path-2-outside-1_1391_825)"/>
</g>
<defs>
<filter id="filter0_d_1391_825" x="0.849841" y="0.10498" width="188.518" height="56.4478" filterUnits="userSpaceOnUse" color-interpolation-filters="sRGB">
<feFlood flood-opacity="0" result="BackgroundImageFix"/>
<feColorMatrix in="SourceAlpha" type="matrix" values="0 0 0 0 0 0 0 0 0 0 0 0 0 0 0 0 0 0 127 0" result="hardAlpha"/>
<feOffset dy="3.89528"/>
<feGaussianBlur stdDeviation="1.94764"/>
<feComposite in2="hardAlpha" operator="out"/>
<feColorMatrix type="matrix" values="0 0 0 0 0 0 0 0 0 0 0 0 0 0 0 0 0 0 0.25 0"/>
<feBlend mode="normal" in2="BackgroundImageFix" result="effect1_dropShadow_1391_825"/>
<feBlend mode="normal" in="SourceGraphic" in2="effect1_dropShadow_1391_825" result="shape"/>
</filter>
</defs>
</svg>
