<svg width="28" height="28" viewBox="0 0 28 28" fill="none" xmlns="http://www.w3.org/2000/svg">
<path d="M5.5 10.5L15.5 8H24.5V14L23.5 19.5L18 23L8.5 21L4 17.5L5.5 10.5Z" fill="#221D10"/>
<path d="M14 0C21.7322 0 28 6.2678 28 14C28 21.7322 21.7322 28 14 28C6.2678 28 0 21.7322 0 14C0 6.2678 6.2678 0 14 0ZM20.2188 8.4C19.6854 8.4098 18.8664 8.6898 14.9282 10.3068C12.1639 11.4608 9.40722 12.6331 6.6584 13.8236C5.9864 14.0882 5.6364 14.3458 5.6042 14.5978C5.5426 15.0822 6.2482 15.232 7.1358 15.5176C7.8596 15.75 8.834 16.0216 9.3408 16.0328C9.8 16.0426 10.3124 15.855 10.878 15.4728C14.742 12.8968 16.7342 11.5962 16.8602 11.5682C16.9484 11.5486 17.0702 11.5234 17.1542 11.5962C17.2368 11.669 17.2284 11.8062 17.2186 11.844C17.1486 12.1394 13.5212 15.3972 13.3126 15.6114L13.2118 15.7122C12.4418 16.4724 11.6648 16.9694 13.006 17.8416C14.2184 18.6298 14.924 19.1324 16.17 19.9416C16.968 20.4568 17.5938 21.0686 18.417 20.9944C18.7964 20.9594 19.187 20.608 19.3872 19.558C19.8562 17.08 20.7802 11.7068 20.993 9.492C21.0059 9.30829 20.9979 9.12371 20.9692 8.9418C20.9519 8.79493 20.8799 8.65997 20.7676 8.5638C20.5982 8.4266 20.335 8.3986 20.2188 8.4Z" fill="#FFC700"/>
</svg>
