<svg width="25" height="13" viewBox="0 0 25 13" fill="none" xmlns="http://www.w3.org/2000/svg">
<path d="M23.2647 0.291485L12.4989 10.6523L1.73306 0.291485C1.54072 0.105981 1.2825 0.00212646 1.01361 0.00212646C0.744727 0.00212646 0.48651 0.105981 0.294168 0.291485C0.201033 0.381577 0.127042 0.48911 0.0765298 0.607788C0.0260178 0.726466 0 0.853902 0 0.982632C0 1.11136 0.0260178 1.2388 0.0765298 1.35748C0.127042 1.47615 0.201033 1.58369 0.294168 1.67378L11.7471 12.6981C11.9483 12.8917 12.218 13 12.4989 13C12.7798 13 13.0495 12.8917 13.2507 12.6981L24.7036 1.67591C24.7974 1.58575 24.872 1.47795 24.9229 1.35888C24.9738 1.23981 25 1.11187 25 0.982632C25 0.85339 24.9738 0.725457 24.9229 0.606386C24.872 0.487314 24.7974 0.379517 24.7036 0.289357C24.5113 0.103853 24.2531 0 23.9842 0C23.7153 0 23.4571 0.103853 23.2647 0.289357V0.291485Z" fill="#FFC700"/>
</svg>
