<svg width="55" height="28" viewBox="0 0 55 28" fill="none" xmlns="http://www.w3.org/2000/svg">
<g filter="url(#filter0_di_160_35)">
<path d="M10.3335 7.07361L10.2255 7.15186L10.3309 7.23361L10.9411 7.70698L10.5228 9.39675L6.66195 9.84141L7.81768 5.19385L8.36849 5.13042L11.6787 4.74916L11.2715 6.3941L10.3335 7.07361ZM8.59858 7.84997L8.52903 7.85798L8.51276 7.92608L8.36796 8.53222L8.33478 8.67114L8.47667 8.6548L9.29127 8.56098L9.36083 8.55297L9.37709 8.48487L9.52189 7.87873L9.55507 7.73981L9.41318 7.75615L8.59858 7.84997ZM9.0574 6.02868L8.98875 6.03658L8.97187 6.10359L8.81893 6.71067L8.78357 6.851L8.92734 6.83444L9.74194 6.74062L9.81059 6.73272L9.82747 6.66571L9.98041 6.05863L10.0158 5.9183L9.872 5.93486L9.0574 6.02868Z" fill="#FFC700" stroke="black" stroke-width="0.2"/>
<path d="M14.1723 8.97629L12.7553 9.13949L13.6299 5.63799L13.6648 5.49789L13.5214 5.51441L12.4586 5.63682L12.7055 4.63078L16.5666 4.18608L16.3197 5.19212L15.1506 5.32677L15.0818 5.3347L15.065 5.40189L14.1723 8.97629Z" fill="#FFC700" stroke="black" stroke-width="0.2"/>
<path d="M21.0547 5.2362L19.6381 5.39934L19.7557 4.93259L19.7911 4.79226L19.6473 4.80882L18.8327 4.90264L18.7638 4.91057L18.7471 4.97785L18.1435 7.40529L18.1087 7.54527L18.252 7.52876L19.0666 7.43494L19.1361 7.42693L19.1524 7.35883L19.2809 6.82079L20.6974 6.65765L20.2981 8.27071L17.1491 8.63339L16.5712 8.1851L17.4561 4.64196L18.3649 3.97891L21.454 3.62313L21.0547 5.2362Z" fill="#FFC700" stroke="black" stroke-width="0.2"/>
<path d="M15.073 17.4443L14.965 17.5225L15.0704 17.6043L17.2015 19.2573L15.7473 25.131L2.52476 26.6539L6.45525 10.8479L19.678 9.32495L18.2349 15.1538L15.073 17.4443ZM9.24189 20.0473L9.17233 20.0553L9.15606 20.1234L8.67849 22.1227L8.64531 22.2616L8.7872 22.2453L11.4741 21.9358L11.5437 21.9278L11.5599 21.8597L12.0375 19.8604L12.0707 19.7215L11.9288 19.7378L9.24189 20.0473ZM10.7553 14.04L10.6867 14.0479L10.6698 14.1149L10.1653 16.1173L10.1299 16.2576L10.2737 16.2411L12.9607 15.9316L13.0293 15.9237L13.0462 15.8567L13.5507 13.8543L13.586 13.7139L13.4423 13.7305L10.7553 14.04Z" fill="white" stroke="black" stroke-width="0.2"/>
<path d="M25.8864 8.60852L23.443 18.4776L23.4084 18.6175L23.5515 18.601L25.791 18.3431L25.86 18.3351L25.8767 18.2677L28.3381 8.32615L32.605 7.83472L29.3375 20.9745L18.3518 22.2397L21.6193 9.09997L25.8864 8.60852Z" fill="white" stroke="black" stroke-width="0.2"/>
<path d="M39.3238 7.06115L36.8803 16.9303L36.8457 17.0701L36.9888 17.0536L42.04 16.4719L41.2513 19.6026L31.7892 20.6924L35.0566 7.55261L39.3238 7.06115Z" fill="white" stroke="black" stroke-width="0.2"/>
<path d="M49.8535 5.84826L47.4101 15.7174L47.3755 15.8572L47.5186 15.8407L51.8539 15.3414L51.0652 18.4721L42.3189 19.4795L45.5864 6.33972L49.8535 5.84826Z" fill="white" stroke="black" stroke-width="0.2"/>
<path d="M51.1168 21.0403L14.5668 25.2499L15.0233 23.492L51.5733 19.2824L51.1168 21.0403Z" fill="white"/>
<path d="M51.1607 3.17452L50.7618 4.78581L21.7582 8.12624L22.1571 6.51495L51.1607 3.17452Z" fill="white" stroke="black" stroke-width="0.2"/>
<path d="M51.9043 0.115678L51.5054 1.72697L22.5018 5.06741L22.9007 3.45612L51.9043 0.115678Z" fill="white" stroke="black" stroke-width="0.2"/>
</g>
<defs>
<filter id="filter0_di_160_35" x="2.39288" y="-0.000244141" width="49.9432" height="27.17" filterUnits="userSpaceOnUse" color-interpolation-filters="sRGB">
<feFlood flood-opacity="0" result="BackgroundImageFix"/>
<feColorMatrix in="SourceAlpha" type="matrix" values="0 0 0 0 0 0 0 0 0 0 0 0 0 0 0 0 0 0 127 0" result="hardAlpha"/>
<feOffset dx="0.3" dy="0.4"/>
<feComposite in2="hardAlpha" operator="out"/>
<feColorMatrix type="matrix" values="0 0 0 0 0 0 0 0 0 0 0 0 0 0 0 0 0 0 1 0"/>
<feBlend mode="normal" in2="BackgroundImageFix" result="effect1_dropShadow_160_35"/>
<feBlend mode="normal" in="SourceGraphic" in2="effect1_dropShadow_160_35" result="shape"/>
<feColorMatrix in="SourceAlpha" type="matrix" values="0 0 0 0 0 0 0 0 0 0 0 0 0 0 0 0 0 0 127 0" result="hardAlpha"/>
<feOffset/>
<feGaussianBlur stdDeviation="0.6"/>
<feComposite in2="hardAlpha" operator="arithmetic" k2="-1" k3="1"/>
<feColorMatrix type="matrix" values="0 0 0 0 0 0 0 0 0 0 0 0 0 0 0 0 0 0 1 0"/>
<feBlend mode="normal" in2="shape" result="effect2_innerShadow_160_35"/>
</filter>
</defs>
</svg>
