<svg width="74" height="70" viewBox="0 0 74 70" fill="none" xmlns="http://www.w3.org/2000/svg">
<rect y="6" width="63.8467" height="63.6285" rx="13.53" fill="#5960FF"/>
<path d="M14.165 46.0975C14.165 41.1505 14.165 38.6771 15.1443 36.642C15.5844 35.7273 16.1619 34.8908 16.8551 34.1638C18.3975 32.5464 20.6562 31.7481 25.1736 30.1516L34.0662 27.0088C40.5389 24.7212 43.7752 23.5774 46.1894 24.8554C46.7566 25.1556 47.2775 25.5419 47.7348 26.0015C49.6809 27.9574 49.6809 31.5014 49.6809 38.5895C49.6809 43.4973 49.6809 45.9512 48.5884 47.912C48.3236 48.3874 48.0147 48.8348 47.6661 49.248C46.2281 50.9526 43.9872 51.7446 39.5055 53.3285L28.9466 57.0602C23.2477 59.0743 20.3983 60.0814 18.2012 59.175C15.386 58.0137 14.165 55.3144 14.165 52.991C14.165 51.422 14.165 48.5314 14.165 46.0975Z" fill="url(#paint0_linear_1426_2219)"/>
<path fill-rule="evenodd" clip-rule="evenodd" d="M14.165 34.4285C14.165 30.4664 14.165 27.2181 14.8006 25.5274C15.3618 24.0342 16.2728 22.7094 17.4514 21.6722C18.7859 20.4978 20.5926 19.8513 24.206 18.5583L25.4516 18.1126C29.6476 16.6112 31.7457 15.8604 33.43 16.198C35.2528 16.5633 36.833 17.7306 37.7611 19.3972C38.6186 20.9373 38.6186 24.4447 38.6186 29.0457C38.6186 32.676 38.6186 34.4912 38.0835 36.0561C37.5017 37.7575 36.4715 39.2557 35.1098 40.3809C33.8571 41.4158 32.2017 42.0082 28.8909 43.1929C28.8909 43.1929 23.1896 45.2117 19.638 46.4981C16.0864 47.7844 14.165 50.3647 14.165 53.0486V34.4285Z" fill="white"/>
<g clip-path="url(#clip0_1426_2219)">
<path d="M73.2046 12.1023C73.2046 14.4959 72.4948 16.8357 71.165 18.8259C69.8351 20.8161 67.945 22.3673 65.7336 23.2833C63.5222 24.1993 61.0889 24.439 58.7412 23.972C56.3936 23.505 54.2372 22.3524 52.5447 20.6599C50.8521 18.9673 49.6995 16.8109 49.2325 14.4633C48.7656 12.1157 49.0052 9.68233 49.9212 7.47093C50.8372 5.25953 52.3884 3.36942 54.3786 2.0396C56.3688 0.709786 58.7087 0 61.1023 0C64.312 0 67.3903 1.27506 69.6599 3.54467C71.9295 5.81429 73.2046 8.89255 73.2046 12.1023Z" fill="#F7931A"/>
<path fill-rule="evenodd" clip-rule="evenodd" d="M57.3072 5.52581L60.0885 6.27065L60.7101 3.95361L62.1008 4.33098L61.5034 6.5523L62.6377 6.85706L63.2362 4.61154L64.651 4.99001L64.0415 7.24763C64.0415 7.24763 66.352 7.75923 66.8955 9.63838C67.439 11.5175 65.7006 12.5044 65.1637 12.5418C65.1637 12.5418 67.1881 13.6519 66.4928 15.8358C65.7975 18.0198 63.6631 18.4103 61.4175 17.9097L60.808 20.251L59.3932 19.8725L60.0148 17.5676L58.8926 17.2617L58.2709 19.5831L56.8671 19.2058L57.4898 16.8953L54.6348 16.1252L55.3543 14.5277C55.3543 14.5277 56.1597 14.7477 56.4644 14.8204C56.7692 14.893 56.965 14.5761 57.0508 14.2592C57.1366 13.9424 58.4294 8.6911 58.5515 8.25872C58.6736 7.82634 58.6241 7.48858 58.1114 7.35545C57.5987 7.22233 56.9012 7.01439 56.9012 7.01439L57.3072 5.52581ZM60.1127 12.4802L59.3426 15.5421C59.3426 15.5421 63.1614 16.9206 63.6499 14.981C64.1384 13.0413 60.1127 12.4802 60.1127 12.4802ZM60.467 11.0279L61.2228 8.22241C61.2228 8.22241 64.4926 8.80772 64.0899 10.3689C63.6873 11.9301 61.7597 11.3316 60.467 11.0279Z" fill="white"/>
</g>
<defs>
<linearGradient id="paint0_linear_1426_2219" x1="48.4291" y1="47.4693" x2="15.0426" y2="28.9593" gradientUnits="userSpaceOnUse">
<stop stop-color="white"/>
<stop offset="1" stop-color="white" stop-opacity="0.12"/>
</linearGradient>
<clipPath id="clip0_1426_2219">
<rect width="24.2045" height="24.2045" fill="white" transform="translate(49)"/>
</clipPath>
</defs>
</svg>
