<svg width="38" height="38" viewBox="0 0 38 38" fill="none" xmlns="http://www.w3.org/2000/svg">
<g clip-path="url(#clip0_1522_805)">
<path d="M12.2332 -0.411621H37.5577V24.9129C37.5577 28.1574 36.2689 31.2689 33.9747 33.5631C31.6805 35.8572 28.569 37.1461 25.3245 37.1461H0V11.8216C0 8.57712 1.28885 5.46556 3.58301 3.17139C5.87718 0.877228 8.98874 -0.411621 12.2332 -0.411621Z" fill="url(#paint0_linear_1522_805)"/>
<path d="M29.6754 14.3667L27.1645 15.5172L25.4018 16.3251L25.3232 16.3605L22.8995 17.4552C22.8995 17.4458 22.8956 17.4364 22.8924 17.4269C22.7494 16.8306 22.4735 16.2742 22.0853 15.7994L21.8613 15.3097L24.2795 14.2016L26.0682 13.382L28.6011 12.2212C28.7415 12.4402 28.8725 12.6642 28.9941 12.8931L29.6558 14.3368L29.6754 14.3667Z" fill="black"/>
<path d="M30.0837 21.0018C29.8976 21.7937 29.6276 22.5635 29.2782 23.2982L21.4248 21.9575L21.4987 21.5244C22.0716 21.0591 22.5064 20.446 22.7561 19.7515L30.0837 21.0018Z" fill="black"/>
<path d="M15.9277 22.2499L12.755 24.4968L10.4869 26.1032C9.94542 25.5116 9.46734 24.865 9.06055 24.1738L11.3168 22.5753L12.902 21.4523L14.5413 20.2915L15.9277 22.2499Z" fill="black"/>
<path d="M16.2306 12.3812L15.2498 14.5707L13.8132 13.927L11.9938 13.1121L9.43262 11.9639C9.89944 11.2716 10.4407 10.6325 11.0468 10.0581L13.8415 11.31L15.9783 12.2688L16.2306 12.3812Z" fill="black"/>
<path d="M27.3647 20.5371C26.9812 22.0267 26.2098 23.388 25.1291 24.4826C24.0485 25.5772 22.6971 26.3659 21.2126 26.7686C19.7281 27.1712 18.1634 27.1733 16.6778 26.7748C15.1922 26.3762 13.8387 25.5912 12.755 24.4996C12.1896 23.9285 11.7057 23.2821 11.3168 22.5789L9.06055 24.1774C10.2185 26.1507 11.9411 27.732 14.0063 28.7171C16.0714 29.7022 18.3843 30.0461 20.6466 29.7043C22.909 29.3626 25.0171 28.3508 26.6991 26.7997C28.3811 25.2485 29.5597 23.229 30.0831 21.0016L27.3647 20.5371Z" fill="black"/>
<path d="M13.8397 11.3111C14.9406 10.5177 16.2116 9.99241 17.5514 9.77721C18.8913 9.56202 20.2628 9.66283 21.5568 10.0716C22.8508 10.4804 24.0313 11.1858 25.0044 12.1317C25.9774 13.0775 26.716 14.2377 27.1613 15.5195L29.6722 14.369C29.6675 14.3572 29.6636 14.3454 29.6589 14.3344L28.9972 12.8907C28.873 12.6623 28.742 12.4383 28.6042 12.2188C27.5825 10.6148 26.1778 9.29024 24.5166 8.36445C22.8554 7.43866 20.99 6.94074 19.0884 6.91556C17.1869 6.89037 15.3089 7.33872 13.6238 8.2202C11.9387 9.10168 10.4994 10.3886 9.43555 11.9649L11.9968 13.1131C12.5182 12.4243 13.1393 11.817 13.8397 11.3111Z" fill="black"/>
<path d="M10.3907 16.7038C10.4868 16.21 10.6251 15.7254 10.8041 15.2554L8.28926 14.1284C7.29943 16.622 7.21324 19.3834 8.04563 21.9339L10.4316 20.2442C10.175 19.0794 10.1611 17.8742 10.3907 16.7038Z" fill="black"/>
<path d="M27.0362 15.1831L25.3049 16.0531L25.2295 16.0916L22.8545 17.2838" fill="black"/>
<path d="M14.4251 20.3528L12.8919 21.4389C12.5038 20.679 12.2637 19.8522 12.1846 19.0026L13.0396 18.3975L14.4251 20.3528Z" fill="black"/>
<path d="M15.5795 14.7654L14.5987 16.9549L12.5664 16.0417C12.8428 15.2792 13.255 14.5731 13.783 13.9575L15.5795 14.7654Z" fill="black"/>
<path d="M25.4571 20.2112C25.0868 21.5215 24.3304 22.6899 23.2865 23.5641C22.2425 24.4382 20.9594 24.9777 19.6044 25.112C18.2495 25.2464 16.8854 24.9694 15.6901 24.3173C14.4948 23.6652 13.5237 22.6681 12.9033 21.456C12.8996 21.451 12.8967 21.4454 12.8946 21.4395C12.287 20.2446 12.0473 18.8964 12.2058 17.5652C12.3642 16.2341 12.9138 14.9798 13.785 13.961L13.8141 13.928C14.6041 13.0176 15.6224 12.3343 16.7643 11.9483C17.9061 11.5624 19.1302 11.4878 20.3104 11.7322C21.4907 11.9766 22.5845 12.5312 23.4792 13.3389C24.3738 14.1465 25.0371 15.1781 25.4005 16.3273L25.3219 16.3619L22.8982 17.4558C22.8982 17.4464 22.8943 17.437 22.8912 17.4275C22.6652 16.477 22.1047 15.6395 21.3122 15.0681C20.5196 14.4967 19.5479 14.2297 18.5746 14.3157C17.6014 14.4017 16.6916 14.8351 16.0116 15.5367C15.3315 16.2382 14.9267 17.1611 14.871 18.1365C14.8153 19.112 15.1125 20.0749 15.7082 20.8493C16.304 21.6237 17.1585 22.1578 18.1157 22.3541C19.0728 22.5503 20.0686 22.3956 20.9211 21.9182C21.7735 21.4407 22.4257 20.6724 22.7583 19.7538L25.4571 20.2112Z" fill="black"/>
</g>
<defs>
<linearGradient id="paint0_linear_1522_805" x1="0.60042" y1="0.525161" x2="55.575" y2="54.4821" gradientUnits="userSpaceOnUse">
<stop stop-color="#3B916F"/>
<stop offset="1" stop-color="#096AA5"/>
</linearGradient>
<clipPath id="clip0_1522_805">
<rect width="37.3165" height="37.3165" fill="white"/>
</clipPath>
</defs>
</svg>
