<svg width="290" height="203" viewBox="0 0 290 203" fill="none" xmlns="http://www.w3.org/2000/svg">
<path d="M84.8395 65.03C84.3732 67.7714 83.4407 70.461 82.3786 73.0472C81.2905 75.6334 79.8658 78.0903 78.2856 80.3662L77.0421 82.0213C76.6017 82.5644 76.1614 83.0558 75.6951 83.5731C74.8402 84.6334 73.8299 85.5386 72.8714 86.4437C70.9026 88.2024 68.7784 89.7024 66.6542 90.8661C64.5041 92.0041 62.354 92.8834 60.2816 93.3489C58.2351 93.892 56.2663 94.0472 54.5825 94.0472C53.4686 94.0472 52.4842 93.9437 51.5775 93.7885C51.1112 93.711 50.6709 93.6334 50.2564 93.5299C49.0647 93.2972 48.2617 92.9092 47.6918 92.6765C47.1737 92.4696 46.8887 92.3403 46.8369 92.3144C46.8369 92.3144 47.1737 92.2627 47.7954 92.211C48.3912 92.1592 49.3497 92.1075 50.3859 91.8748C51.448 91.7196 52.7433 91.3575 54.1421 90.892C55.541 90.4006 57.0435 89.7799 58.5719 88.9006C60.1262 88.073 61.6546 86.9351 63.2089 85.6937C64.7373 84.4006 66.2138 82.9007 67.6386 81.2713C69.0116 79.5903 70.3845 77.8058 71.5503 75.8662C72.716 73.9007 73.8558 71.8834 74.7107 69.7369C75.6174 67.6162 76.3945 65.4438 76.9385 63.2197C77.0939 62.6766 77.1976 62.1076 77.3012 61.5645C77.4048 61.0214 77.5602 60.4783 77.6379 59.9093C77.7934 58.8231 77.9747 57.7369 78.0524 56.6507C78.2856 54.4783 78.2338 52.4094 78.1042 50.3921C78.0006 49.4094 77.9488 48.4266 77.7675 47.4956C77.6898 47.0301 77.612 46.5646 77.5343 46.099C77.4566 45.6335 77.3012 45.2197 77.2235 44.7801C77.1198 44.3404 77.0162 43.9008 76.9126 43.487C76.7831 43.0732 76.6536 42.6853 76.524 42.2715C76.3945 41.8577 76.265 41.4956 76.1614 41.1077C76.0318 40.7456 75.8764 40.3835 75.7469 40.0473C75.2029 38.6508 74.6071 37.4353 74.1149 36.4267C73.5968 35.418 73.1564 34.668 72.8455 34.1249C72.5865 33.6594 72.431 33.3491 72.4051 33.2974C72.4569 33.3491 72.7419 33.5043 73.1823 33.7887C73.6745 34.1508 74.5293 34.5905 75.3842 35.3663C76.265 36.1163 77.4048 37.0474 78.441 38.3146C78.9332 38.806 79.3736 39.4008 79.814 40.0215C79.8917 40.1508 79.9953 40.2801 80.0989 40.4094C80.3839 40.7973 80.6429 41.1853 80.9279 41.5991C81.1869 42.0387 81.446 42.4784 81.6791 42.918C82.7412 44.7284 83.5702 46.849 84.2696 49.1766C84.8913 51.5042 85.3835 54.0645 85.4094 56.7025C85.539 59.3662 85.3058 62.1076 84.7618 64.8231L84.8395 65.03Z" fill="#FFC804"/>
<path d="M133.125 7.56465C133.177 8.28879 133.099 9.06465 133.073 9.9181C133.073 10.7715 132.918 11.6508 132.814 12.5819C132.788 12.8664 132.762 13.125 132.711 13.4095C132.607 14.1077 132.452 14.806 132.296 15.5301C131.856 17.5991 131.104 19.7457 130.172 21.9956C129.136 24.1939 127.918 26.4956 126.312 28.6422C124.732 30.8146 122.919 32.9353 120.768 34.7973C118.67 36.7111 116.313 38.3921 113.774 39.8146C111.235 41.2111 108.567 42.4008 105.821 43.1508C104.448 43.5645 103.049 43.849 101.676 44.1077C100.977 44.2111 100.278 44.3145 99.6299 44.418C98.9305 44.4956 98.257 44.5214 97.5575 44.5732C94.8634 44.6766 92.2211 44.5214 89.786 44.0042C88.5685 43.7973 87.4028 43.4611 86.2889 43.1249C85.2008 42.7628 84.1646 42.349 83.1803 41.9352C82.2218 41.4439 81.3151 41.0559 80.4861 40.5387C80.2789 40.4094 80.0976 40.2801 79.8903 40.1766C79.2945 39.8146 78.6987 39.4525 78.2065 39.0646C77.533 38.5473 76.8853 38.0818 76.3413 37.6163C75.7973 37.1249 75.331 36.6335 74.8648 36.2197C74.6575 36.0128 74.4503 35.8318 74.2689 35.6249C74.1135 35.418 73.9322 35.237 73.7767 35.056C73.4918 34.6939 73.2586 34.4094 73.0255 34.1508C72.6887 33.7111 72.4815 33.4525 72.4297 33.4008C72.5074 33.4008 72.7924 33.556 73.3105 33.7887C73.8804 34.0215 74.7093 34.487 75.7973 34.8749C76.3154 35.0818 76.9112 35.3146 77.533 35.5473C78.2065 35.7542 78.88 35.987 79.6313 36.2197C81.1079 36.6594 82.7917 37.0732 84.605 37.3835C86.4184 37.6422 88.3872 37.8749 90.4337 37.849C92.4802 37.9008 94.6303 37.6421 96.8063 37.3059C98.9823 36.9697 101.184 36.2973 103.36 35.5473C105.536 34.7715 107.686 33.7887 109.733 32.6249C111.805 31.5129 113.748 30.1422 115.587 28.6939C116.52 27.9956 117.349 27.1939 118.23 26.4439C118.67 26.056 119.033 25.6422 119.447 25.2284C119.862 24.8405 120.25 24.4525 120.613 24.0129C122.193 22.3836 123.488 20.6508 124.706 18.9698C125.872 17.237 126.96 15.5301 127.789 13.875C128.229 13.0474 128.644 12.2457 128.98 11.4698C129.343 10.694 129.68 9.94396 129.939 9.21982C130.224 8.49569 130.509 7.79741 130.768 7.17672C130.975 6.53018 131.182 5.93535 131.364 5.39225C131.726 4.30604 131.959 3.42674 132.167 2.80605C132.27 2.4957 132.322 2.26295 132.4 2.10777C132.452 1.97846 132.477 1.90088 132.477 1.90088C132.477 1.90088 132.477 1.90088 132.477 1.9526C132.477 2.08191 132.555 2.39226 132.633 2.85777C132.711 3.47846 132.944 4.40949 132.996 5.57328C133.047 6.16811 133.073 6.84052 133.125 7.53879V7.56465Z" fill="#FFC804"/>
<path d="M189.988 28.7456C189.988 28.7456 189.755 29.0301 189.444 29.418C189.263 29.6508 189.03 29.9094 188.745 30.2198C188.46 30.556 188.123 30.918 187.734 31.2542C187.346 31.6163 186.879 32.0301 186.387 32.4697C185.895 32.9094 185.273 33.2715 184.652 33.737C183.382 34.5904 181.828 35.4697 180.015 36.1939C179.134 36.6077 178.149 36.8404 177.139 37.1766C176.129 37.4611 175.067 37.668 173.953 37.8749C171.751 38.1852 169.342 38.3921 166.907 38.237C164.472 38.1077 161.959 37.7456 159.498 37.0473C157.011 36.4266 154.576 35.4956 152.245 34.3835C149.913 33.2715 147.685 31.9008 145.639 30.4266C145.121 30.0387 144.628 29.6508 144.136 29.2887C143.644 28.9008 143.178 28.487 142.711 28.0732C141.753 27.2715 140.898 26.3663 140.069 25.5129C138.437 23.7284 136.961 21.8663 135.821 19.9784C135.225 19.0215 134.733 18.0646 134.241 17.1336C133.852 16.1508 133.36 15.2715 133.101 14.3405C132.997 14.0043 132.868 13.6681 132.764 13.3577C132.583 12.7888 132.427 12.2198 132.324 11.6767C132.116 10.8233 131.961 9.99568 131.883 9.21982C131.78 8.44396 131.728 7.71983 131.754 7.04741C131.754 6.71121 131.754 6.40086 131.754 6.09052C131.754 5.78018 131.805 5.49569 131.831 5.21121C131.883 4.07329 132.142 3.29743 132.272 2.72846C132.349 2.46984 132.401 2.26295 132.427 2.10777C132.479 1.97846 132.505 1.90088 132.505 1.90088C132.505 1.90088 132.505 1.90088 132.505 1.9526C132.531 2.05605 132.609 2.34053 132.738 2.75432C132.816 3.03881 132.893 3.37501 132.997 3.76294C133.127 4.17673 133.308 4.59053 133.463 5.05604C133.541 5.2888 133.619 5.54742 133.722 5.80604C133.826 6.06466 133.956 6.32328 134.085 6.60776C134.344 7.15086 134.577 7.74569 134.94 8.34051C135.251 8.93534 135.588 9.58189 136.028 10.2284C136.235 10.5388 136.417 10.9008 136.65 11.2112C136.857 11.5215 137.116 11.8577 137.349 12.1939C138.308 13.5388 139.447 14.8836 140.769 16.2284C142.038 17.5991 143.54 18.8922 145.095 20.1853C146.701 21.4267 148.385 22.6939 150.198 23.806C152.011 24.918 153.877 26.0301 155.845 26.9094C157.788 27.8663 159.783 28.668 161.803 29.3146C162.814 29.6767 163.824 29.9353 164.808 30.2456C165.793 30.4784 166.803 30.7629 167.788 30.918C169.756 31.3318 171.699 31.5129 173.564 31.6422C175.404 31.7197 177.191 31.6939 178.849 31.5129C180.507 31.3577 182.009 31.0991 183.356 30.7887C184.056 30.6077 184.678 30.4525 185.273 30.3232C185.869 30.1422 186.387 29.9611 186.879 29.8318C187.864 29.5215 188.615 29.1853 189.159 29.0042C189.625 28.8232 189.91 28.7456 189.988 28.7198V28.7456Z" fill="#FFC804"/>
<path d="M246.278 34.9012C246.278 34.9012 246.278 34.9012 246.278 34.9529C246.227 35.0564 246.097 35.2891 245.89 35.6512C245.605 36.1167 245.268 36.8409 244.724 37.6943C244.154 38.5219 243.507 39.6081 242.6 40.6943C241.719 41.8322 240.657 43.0219 239.414 44.2891C238.144 45.5305 236.693 46.8236 235.01 48.0132C234.751 48.2201 234.466 48.4012 234.207 48.5822C232.756 49.5908 231.15 50.5219 229.414 51.4012C228.352 51.8925 227.29 52.3839 226.15 52.746C225.58 52.927 225.01 53.1598 224.44 53.3408C223.871 53.496 223.275 53.6512 222.679 53.8063C220.27 54.3753 217.705 54.6598 215.141 54.6598C212.55 54.608 209.934 54.1943 207.499 53.3667C205.038 52.565 202.758 51.427 200.789 50.0046C198.82 48.5822 197.162 46.927 195.79 45.246C194.494 43.5391 193.432 41.8322 192.655 40.1512C192.448 39.7374 192.266 39.3495 192.085 38.9357C191.93 38.5219 191.774 38.134 191.645 37.746C191.36 36.9702 191.127 36.246 190.945 35.5478C190.531 34.1771 190.375 32.884 190.22 31.8754C190.065 30.8667 190.09 30.065 190.039 29.5219C190.039 28.9788 190.013 28.6943 190.013 28.6943C190.013 28.6943 190.168 28.9271 190.505 29.3667C190.79 29.8064 191.23 30.4788 191.774 31.3323C192.344 32.134 193.018 33.0909 193.821 34.1512C194.209 34.6943 194.65 35.2374 195.142 35.8064C195.375 36.0909 195.608 36.3753 195.841 36.6857C196.126 36.9702 196.359 37.2547 196.644 37.5391C197.681 38.7029 198.924 39.815 200.245 40.9271C201.592 41.9874 203.069 42.9443 204.649 43.7719C206.229 44.5995 207.939 45.1943 209.726 45.6598C211.514 46.0736 213.353 46.3839 215.27 46.3581C217.161 46.4098 219.104 46.2029 220.995 45.9184C222.912 45.5822 224.777 45.0908 226.616 44.5477C228.43 43.9529 230.217 43.3322 231.875 42.5822C233.533 41.884 235.113 41.1081 236.538 40.384C237.963 39.634 239.31 38.9098 240.476 38.2374C241.667 37.5909 242.678 36.9702 243.558 36.4788C244.931 35.6253 245.864 35.1081 246.175 34.9271C246.227 34.9271 246.252 34.8754 246.278 34.8754V34.9012Z" fill="#FFC804"/>
<path d="M259.749 83.2106C259.749 83.2106 259.49 83.2106 258.997 83.2623C258.505 83.2623 257.78 83.3658 256.847 83.3399C255.915 83.3399 254.801 83.2882 253.505 83.1072C252.858 83.0554 252.184 82.9261 251.459 82.7968C250.76 82.6675 250.008 82.4865 249.205 82.2796C247.625 81.8658 245.941 81.2192 244.231 80.4175C242.496 79.5382 240.76 78.452 239.076 77.0555C237.418 75.633 235.838 73.9003 234.595 71.8831C233.3 69.8658 232.393 67.5382 231.823 65.1848C231.305 62.8055 231.201 60.3745 231.434 58.0728C231.668 55.771 232.186 53.5986 232.911 51.6073C233.274 50.5469 233.714 49.5383 234.206 48.6073C234.595 47.7797 235.035 46.978 235.476 46.228C236.434 44.6245 237.47 43.2021 238.481 41.9607C239.491 40.7194 240.501 39.6849 241.434 38.7797C242.366 37.8745 243.247 37.1504 243.947 36.5814C245.112 35.7021 245.941 35.159 246.2 34.978C246.252 34.978 246.278 34.9263 246.304 34.9263C246.304 34.9263 246.304 34.9263 246.304 34.978C246.226 35.2108 245.889 36.1676 245.268 37.6159C244.931 38.4435 244.542 39.4263 244.076 40.59C243.636 41.728 243.118 42.9952 242.625 44.3918C242.133 45.7624 241.615 47.2624 241.149 48.7883C240.942 49.5642 240.708 50.34 240.501 51.1676C240.346 51.9693 240.087 52.771 239.983 53.6245C239.646 55.2797 239.491 56.9607 239.465 58.59C239.465 60.2452 239.543 61.8745 239.931 63.4262C240.268 64.9779 240.838 66.452 241.537 67.8744C242.289 69.271 243.169 70.59 244.206 71.8313C245.268 73.0468 246.433 74.1589 247.599 75.1934C248.817 76.202 250.008 77.1589 251.226 77.9348C251.796 78.3744 252.392 78.7365 252.961 79.0985C253.505 79.4865 254.075 79.8227 254.568 80.133C255.604 80.7796 256.536 81.2968 257.314 81.7882C258.091 82.2537 258.712 82.6158 259.127 82.8485C259.541 83.1072 259.774 83.2623 259.774 83.2623L259.749 83.2106Z" fill="#FFC804"/>
<path d="M268.065 132.53C268.065 132.53 267.029 132.53 265.164 132.375C264.283 132.245 263.143 132.09 261.9 131.78C261.278 131.625 260.604 131.418 259.905 131.211C259.206 130.952 258.506 130.694 257.729 130.383C257.315 130.202 256.926 129.995 256.486 129.788C256.149 129.607 255.786 129.452 255.449 129.271C254.698 128.806 253.869 128.34 253.092 127.797C251.538 126.659 249.958 125.34 248.559 123.685C247.859 122.883 247.186 121.978 246.59 121.047C246.305 120.582 246.02 120.09 245.709 119.599C245.476 119.082 245.217 118.564 244.958 118.047C243.999 115.952 243.352 113.702 242.963 111.401C242.652 109.073 242.626 106.745 242.911 104.495C243.145 102.245 243.74 100.099 244.517 98.1333C245.269 96.1419 246.253 94.3575 247.341 92.7799C248.377 91.2023 249.595 89.8575 250.735 88.7195C251.33 88.1506 251.926 87.6333 252.47 87.1678C253.066 86.7282 253.61 86.2885 254.154 85.9264C255.268 85.2282 256.227 84.6592 257.081 84.2454C257.91 83.8058 258.61 83.6247 259.05 83.4437C259.465 83.2885 259.698 83.2109 259.75 83.2109C259.724 83.2627 259.568 83.4696 259.335 83.8316C259.05 84.2196 258.584 84.8144 258.118 85.5385C257.625 86.2627 257.055 87.142 256.434 88.1506C256.149 88.6678 255.838 89.2109 255.501 89.7799C255.216 90.3747 254.879 90.9437 254.569 91.5902C253.973 92.8575 253.351 94.2281 252.833 95.7023C252.315 97.1764 251.874 98.7023 251.538 100.306C251.356 101.107 251.253 101.935 251.123 102.737C251.046 103.564 250.942 104.392 250.916 105.219C250.864 106.875 250.916 108.556 251.175 110.185C251.408 111.814 251.849 113.392 252.367 114.944C252.911 116.469 253.662 117.918 254.465 119.288C255.294 120.659 256.252 121.926 257.237 123.116C257.729 123.711 258.273 124.228 258.765 124.797C259.309 125.314 259.827 125.831 260.32 126.323C260.864 126.788 261.356 127.254 261.848 127.694C262.366 128.107 262.858 128.521 263.325 128.883C264.257 129.659 265.112 130.254 265.811 130.823C267.107 131.754 267.936 132.375 268.065 132.504V132.53Z" fill="#FFC804"/>
<path d="M268.065 132.53C268.065 132.53 267.029 132.789 265.215 133.099C264.335 133.28 263.272 133.487 262.055 133.746C260.863 134.004 259.516 134.289 258.091 134.651C256.667 135.013 255.164 135.453 253.662 135.97C252.159 136.513 250.605 137.108 249.154 137.884C248.403 138.246 247.729 138.685 247.004 139.099C246.331 139.565 245.657 140.03 245.035 140.547C243.818 141.582 242.678 142.72 241.797 144.013C240.865 145.28 240.139 146.703 239.595 148.228C239.051 149.754 238.689 151.358 238.455 152.961C238.196 154.59 238.17 156.22 238.145 157.797C238.145 158.599 238.145 159.375 238.248 160.151C238.248 160.901 238.352 161.677 238.43 162.375C238.455 163.099 238.585 163.797 238.663 164.47C238.74 165.142 238.844 165.763 238.948 166.384C239.103 167.599 239.336 168.659 239.466 169.565C239.621 170.47 239.751 171.168 239.854 171.659C239.906 172.021 239.958 172.28 239.958 172.358C239.958 172.383 239.958 172.409 239.958 172.409C239.958 172.409 239.777 172.228 239.414 171.866C239.103 171.504 238.533 170.987 237.963 170.263C237.393 169.539 236.668 168.659 235.969 167.547C235.606 167.004 235.243 166.409 234.881 165.763C234.518 165.116 234.155 164.418 233.818 163.694C233.093 162.22 232.497 160.539 231.979 158.702C231.513 156.84 231.124 154.797 231.098 152.625C231.047 150.453 231.254 148.151 231.901 145.823C232.497 143.496 233.611 141.246 235.01 139.203C236.461 137.185 238.274 135.427 240.243 134.082C242.186 132.685 244.336 131.728 246.382 131.082C248.429 130.384 250.501 130.073 252.392 129.866C253.817 129.763 255.19 129.737 256.459 129.815C256.9 129.815 257.288 129.866 257.729 129.892C258.532 129.996 259.309 130.047 260.034 130.177C260.76 130.332 261.433 130.435 262.081 130.591C263.35 130.875 264.464 131.211 265.345 131.496C266.925 132.091 267.884 132.504 268.039 132.556L268.065 132.53Z" fill="#FFC804"/>
<path d="M68.415 125.755C68.0524 128.574 67.3529 131.367 66.1613 133.902C65.0733 136.462 63.5449 138.789 61.8352 140.755C61.3948 141.246 60.9803 141.738 60.5399 142.203C60.0736 142.643 59.6332 143.083 59.1669 143.496C58.9338 143.729 58.7007 143.936 58.4416 144.143C57.7681 144.738 57.0686 145.229 56.3692 145.746C54.4781 147.091 52.5871 148.151 50.7737 148.979C49.893 149.419 49.0122 149.755 48.1832 150.039C47.3543 150.324 46.5771 150.66 45.8 150.841C44.2716 151.229 42.9504 151.591 41.8365 151.772C40.7485 151.979 39.8418 152.057 39.2719 152.134C38.6761 152.212 38.3652 152.238 38.3652 152.238C38.3652 152.238 38.417 152.186 38.5466 152.083C38.6761 151.979 38.8574 151.85 39.1165 151.695C39.6087 151.358 40.3081 150.841 41.2148 150.246C41.3961 150.143 41.5775 150.014 41.7588 149.884C42.51 149.341 43.3908 148.669 44.3752 147.996C44.971 147.557 45.5927 147.065 46.2403 146.548C46.888 146.057 47.5615 145.514 48.2091 144.919C49.5562 143.781 50.9292 142.462 52.2503 141.039C52.872 140.289 53.5974 139.617 54.1673 138.789C54.4781 138.402 54.7631 137.988 55.0999 137.6C55.3848 137.186 55.6698 136.772 55.9288 136.333C56.5246 135.505 56.9391 134.574 57.4831 133.695C57.6904 133.229 57.8976 132.764 58.1048 132.298C58.338 131.833 58.5193 131.367 58.6747 130.876C59.426 128.936 59.8923 126.893 60.1254 124.798C60.4104 122.703 60.4104 120.557 60.2031 118.436C59.97 116.315 59.6591 114.221 59.0633 112.203C58.4934 110.212 57.8717 108.246 57.0686 106.462C56.2915 104.677 55.4366 102.996 54.5299 101.496C53.6492 99.9706 52.7166 98.6775 51.8358 97.5137C51.3695 96.9448 50.9292 96.4275 50.5406 95.9361C50.1261 95.4706 49.7375 95.031 49.3489 94.643C48.9604 94.281 48.6236 93.9706 48.3387 93.6603C48.0278 93.3499 47.7428 93.143 47.5097 92.962C47.1211 92.6258 46.8621 92.4189 46.8362 92.3672C46.8362 92.3672 47.147 92.4189 47.7428 92.5224C48.3387 92.6258 49.1935 92.8327 50.2815 93.2465C50.696 93.4017 51.1364 93.6086 51.6027 93.8155C51.7322 93.893 51.8617 93.9448 52.0172 93.9965C52.6648 94.3068 53.2865 94.6948 53.9859 95.0827C55.333 95.962 56.8096 97.0482 58.2603 98.4448C59.7369 99.7896 61.1616 101.471 62.4828 103.359C63.8298 105.221 64.9956 107.393 66.0059 109.746C66.239 110.341 66.4721 110.936 66.7312 111.557C66.9125 112.177 67.1198 112.824 67.3011 113.445C67.6638 114.712 68.0005 116.031 68.1819 117.376C68.6482 120.091 68.6741 122.91 68.3632 125.729L68.415 125.755Z" fill="#FFC804"/>
<path d="M82.8182 163.28C82.7146 164.857 82.4296 166.254 82.0929 167.418C81.782 168.633 81.3934 169.616 81.0567 170.418C80.7199 171.219 80.3831 171.84 80.1759 172.254C79.9945 172.616 79.865 172.823 79.8391 172.875C79.8391 172.875 79.6578 171.84 79.3987 170.211C79.2433 169.383 79.1397 168.4 78.8806 167.288C78.777 166.745 78.6734 166.15 78.518 165.556C78.3625 164.961 78.2589 164.34 78.0258 163.719C77.9222 163.409 77.8444 163.099 77.7408 162.763C77.6113 162.452 77.5077 162.142 77.3781 161.832C77.1709 161.185 76.8601 160.59 76.5751 159.969C75.9534 158.754 75.1762 157.668 74.2955 156.711C73.3888 155.754 72.3267 154.978 71.1091 154.306C69.8916 153.659 68.5186 153.116 66.9902 152.754C65.4878 152.34 63.8816 152.133 62.2496 151.952C60.5917 151.823 58.9338 151.719 57.2759 151.694C55.618 151.694 53.9859 151.694 52.4316 151.745C50.8255 151.797 49.3489 151.875 47.976 151.926C45.1782 152.03 42.795 152.185 41.0853 152.211C39.3496 152.288 38.3652 152.263 38.3652 152.263C38.3652 152.263 38.417 152.211 38.5466 152.107C38.8574 151.849 39.5569 151.332 40.5672 150.633C40.9298 150.401 41.3443 150.142 41.7588 149.883C42.1992 149.625 42.6914 149.314 43.2095 149.03C44.2716 148.461 45.4632 147.84 46.8362 147.245C48.2091 146.651 49.7116 146.107 51.3436 145.59C53.0016 145.099 54.7631 144.659 56.6542 144.349C57.2241 144.245 57.794 144.168 58.3898 144.116C58.7784 144.064 59.1669 144.038 59.5555 144.013C60.5399 143.909 61.5761 143.909 62.6123 143.909C64.6847 143.909 66.8348 144.194 69.0108 144.711C71.1609 145.28 73.337 146.107 75.2798 147.426C77.2486 148.694 78.9324 150.401 80.15 152.288C81.3675 154.176 82.1188 156.194 82.5073 158.056C82.8441 159.944 82.9477 161.702 82.7923 163.254L82.8182 163.28Z" fill="#FFC804"/>
<path d="M126.883 189.297C126.805 190.073 126.753 190.823 126.598 191.495C126.546 191.857 126.468 192.219 126.391 192.556C126.183 193.461 125.898 194.237 125.665 194.883C125.38 195.788 124.94 196.461 124.733 196.926C124.525 197.34 124.396 197.573 124.396 197.625C124.396 197.625 124.344 197.366 124.292 196.849C124.215 196.332 124.163 195.607 124.033 194.702C123.904 193.797 123.722 192.711 123.411 191.521C123.308 190.926 123.101 190.306 122.919 189.685C122.738 189.038 122.505 188.392 122.246 187.719C121.754 186.375 121.054 185.03 120.251 183.685C119.422 182.366 118.464 181.021 117.35 179.78C116.21 178.538 114.966 177.349 113.568 176.263C112.169 175.202 110.692 174.194 109.112 173.392C107.506 172.538 105.874 171.84 104.19 171.245C102.506 170.702 100.796 170.263 99.1126 169.978C97.4288 169.745 95.7449 169.538 94.1647 169.564C93.3617 169.513 92.6104 169.642 91.8074 169.642C91.0561 169.72 90.3049 169.797 89.5796 169.901C88.1548 170.107 86.8336 170.418 85.6679 170.754C85.098 170.935 84.554 171.116 84.0359 171.245C83.5178 171.426 83.0774 171.607 82.637 171.763C81.7822 172.073 81.0827 172.435 80.6423 172.616C80.2279 172.797 79.9688 172.875 79.917 172.901C79.917 172.849 80.0983 172.642 80.3315 172.254C80.461 172.047 80.6423 171.788 80.8496 171.478C80.9532 171.323 81.0568 171.168 81.1863 170.987C81.3159 170.832 81.4972 170.651 81.6267 170.47C81.9635 170.107 82.3262 169.694 82.7406 169.254C83.1551 168.84 83.6473 168.426 84.1654 167.961C85.2275 167.082 86.5228 166.202 88.0771 165.401C88.8542 164.987 89.6832 164.676 90.5639 164.288C91.4447 164.004 92.3773 163.642 93.3617 163.435C95.3305 162.918 97.4547 162.737 99.6825 162.685C101.884 162.685 104.164 162.995 106.444 163.539C108.697 164.107 110.925 164.987 113.049 166.073C115.148 167.211 117.117 168.582 118.852 170.159L120.122 171.375C120.51 171.788 120.873 172.254 121.261 172.694C122.013 173.547 122.686 174.504 123.308 175.435C124.525 177.323 125.38 179.314 126.028 181.254C126.598 183.219 126.935 185.107 126.986 186.84C127.012 187.719 127.038 188.547 126.935 189.323L126.883 189.297Z" fill="#FFC804"/>
<path d="M174.367 202.409C174.367 202.409 174.185 202.228 173.849 201.892C173.512 201.555 173.071 201.038 172.45 200.443C171.854 199.823 171.103 199.15 170.274 198.374C169.833 198.012 169.367 197.624 168.901 197.211C168.409 196.823 167.89 196.435 167.346 196.021C166.233 195.245 165.067 194.418 163.746 193.668C162.45 192.892 161.052 192.219 159.575 191.573C158.124 190.9 156.544 190.409 154.964 189.943C153.384 189.478 151.752 189.168 150.12 188.986C148.462 188.754 146.83 188.702 145.224 188.754C144.421 188.754 143.617 188.857 142.814 188.909C142.037 189.038 141.234 189.116 140.483 189.297C138.955 189.607 137.504 190.047 136.105 190.538C135.406 190.797 134.732 191.055 134.11 191.366C133.774 191.521 133.463 191.65 133.152 191.805C132.841 191.961 132.53 192.116 132.245 192.297C131.623 192.581 131.079 192.943 130.561 193.254C130.017 193.564 129.499 193.9 129.033 194.211C128.049 194.831 127.297 195.452 126.598 195.943C125.898 196.486 125.354 196.926 124.992 197.211C124.655 197.443 124.474 197.624 124.422 197.65C124.422 197.65 124.474 197.418 124.603 196.952C124.759 196.512 124.914 195.814 125.251 195.012C125.536 194.34 125.898 193.486 126.417 192.607C126.52 192.426 126.624 192.271 126.727 192.09C127.038 191.547 127.401 190.978 127.841 190.383C128.256 189.788 128.722 189.193 129.266 188.624C129.784 188.004 130.38 187.409 131.028 186.84C131.649 186.219 132.401 185.702 133.126 185.133C134.654 184.047 136.39 183.038 138.359 182.34C140.276 181.564 142.4 181.021 144.576 180.788C146.752 180.504 148.98 180.53 151.182 180.788C153.358 181.099 155.534 181.564 157.528 182.34C158.539 182.702 159.523 183.142 160.456 183.607C160.922 183.866 161.362 184.099 161.829 184.331C162.269 184.59 162.684 184.874 163.124 185.133C164.834 186.245 166.362 187.461 167.631 188.78C168.953 190.073 170.015 191.443 170.895 192.762C171.206 193.228 171.465 193.668 171.698 194.107C171.828 194.314 171.932 194.521 172.035 194.702C172.346 195.349 172.657 195.943 172.916 196.538C173.382 197.728 173.719 198.762 173.926 199.642C174.185 200.495 174.211 201.219 174.289 201.685C174.341 202.15 174.393 202.409 174.393 202.409H174.367Z" fill="#FFC804"/>
<path d="M198.303 177.529C198.303 177.529 197.552 177.736 196.386 177.995C195.816 178.15 195.117 178.176 194.34 178.435C193.588 178.667 192.733 178.822 191.879 179.107C191.464 179.262 191.024 179.417 190.583 179.572C190.376 179.65 190.143 179.728 189.91 179.779C189.703 179.883 189.495 179.986 189.288 180.09C188.874 180.297 188.433 180.504 188.019 180.685C187.604 180.943 187.216 181.202 186.801 181.435C186.387 181.641 185.998 181.952 185.61 182.262C185.247 182.572 184.832 182.805 184.496 183.167C184.133 183.504 183.77 183.84 183.434 184.176C183.097 184.538 182.786 184.926 182.449 185.288C182.112 185.65 181.827 186.09 181.517 186.503C181.206 186.891 180.921 187.357 180.636 187.797C180.04 188.65 179.6 189.607 179.03 190.512C178.641 191.469 178.071 192.374 177.734 193.331C177.527 193.797 177.346 194.262 177.113 194.702C176.931 195.167 176.802 195.607 176.621 196.047C176.258 196.926 175.999 197.728 175.714 198.452C175.558 198.84 175.429 199.176 175.325 199.512C175.222 199.874 175.118 200.184 175.04 200.495C174.652 201.659 174.367 202.357 174.367 202.357C174.367 202.357 173.952 201.736 173.382 200.624C173.253 200.366 173.097 200.055 172.942 199.719C172.813 199.383 172.683 198.969 172.553 198.555C172.269 197.728 172.009 196.719 171.88 195.633C171.802 195.141 171.75 194.598 171.673 194.055C171.673 194.029 171.673 193.978 171.673 193.952C171.673 193.357 171.673 192.762 171.673 192.116C171.647 190.848 171.906 189.503 172.139 188.107C172.528 186.762 172.89 185.314 173.616 183.969C174.211 182.547 175.144 181.254 176.102 179.986L177.76 178.228C178.33 177.659 179.03 177.219 179.651 176.754C180.273 176.236 181.024 175.9 181.698 175.564C182.397 175.202 183.097 174.866 183.848 174.71C184.573 174.504 185.273 174.271 185.998 174.141C186.723 174.064 187.423 173.986 188.071 173.96C188.407 173.96 188.718 173.935 189.055 173.935C189.366 173.96 189.703 173.986 190.013 174.012C190.635 174.09 191.205 174.167 191.775 174.271C192.889 174.504 193.821 174.917 194.676 175.202C195.505 175.486 196.153 175.978 196.697 176.288C197.759 176.986 198.303 177.452 198.303 177.452V177.529Z" fill="#FFC804"/>
<path d="M259.749 83.2113C259.749 83.2113 259.438 83.3147 259.049 83.4699C258.583 83.6509 257.909 83.832 257.08 84.2716C256.225 84.6595 255.241 85.2285 254.153 85.9527C253.609 86.3147 253.065 86.7544 252.469 87.194C251.925 87.6595 251.329 88.1768 250.734 88.7457C249.594 89.9095 248.376 91.2285 247.34 92.8061C246.278 94.3837 245.294 96.1681 244.516 98.1595C243.739 100.125 243.143 102.272 242.91 104.522C242.625 106.772 242.651 109.099 242.962 111.427C243.351 113.728 243.998 116.004 244.957 118.073C245.216 118.59 245.475 119.108 245.708 119.625C246.019 120.116 246.304 120.582 246.589 121.073C247.211 122.004 247.858 122.909 248.558 123.711C249.956 125.366 251.537 126.685 253.091 127.823C253.868 128.366 254.671 128.832 255.448 129.297C255.811 129.478 256.148 129.659 256.485 129.815C255.215 129.763 253.842 129.763 252.417 129.866C250.526 130.073 248.454 130.384 246.407 131.082C244.335 131.728 242.211 132.685 240.268 134.082C238.299 135.427 236.486 137.185 235.035 139.202C233.636 141.246 232.522 143.496 231.927 145.823C231.279 148.125 231.072 150.452 231.124 152.625C231.124 154.797 231.538 156.84 232.004 158.702C232.522 160.539 233.118 162.22 233.844 163.694C232.082 162.09 229.906 160.513 227.341 159.246C226.564 158.832 225.735 158.496 224.855 158.159C224 157.823 223.093 157.513 222.186 157.28C220.347 156.763 218.352 156.504 216.332 156.427C214.311 156.401 212.239 156.608 210.218 157.228C208.224 157.823 206.332 158.728 204.726 159.944C203.146 161.159 201.825 162.556 200.867 164.03C200.374 164.754 200.012 165.504 199.649 166.228C199.364 166.978 199.053 167.677 198.846 168.349C198.665 169.047 198.483 169.694 198.328 170.34C198.224 170.987 198.146 171.556 198.095 172.125C197.991 173.263 197.991 174.271 198.017 175.047C198.172 176.599 198.328 177.504 198.328 177.504C198.328 177.504 197.784 177.039 196.722 176.34C196.178 176.004 195.53 175.539 194.701 175.254C193.872 174.97 192.914 174.556 191.8 174.323C191.256 174.22 190.66 174.168 190.038 174.064C189.727 174.013 189.417 174.013 189.08 173.987C188.743 173.987 188.432 173.987 188.095 174.013C187.422 174.039 186.722 174.116 186.023 174.194C185.324 174.323 184.624 174.556 183.873 174.763C183.122 174.918 182.422 175.28 181.723 175.616C181.023 175.978 180.272 176.289 179.676 176.806C179.055 177.297 178.355 177.737 177.785 178.28L176.127 180.039C175.169 181.306 174.21 182.599 173.64 184.021C172.915 185.366 172.552 186.814 172.164 188.159C171.931 189.556 171.646 190.875 171.697 192.168C171.697 192.814 171.697 193.409 171.697 194.004C171.697 194.03 171.697 194.082 171.697 194.107C171.438 193.668 171.179 193.228 170.894 192.763C170.014 191.47 168.952 190.073 167.63 188.78C166.335 187.461 164.833 186.22 163.123 185.133C162.683 184.875 162.268 184.59 161.828 184.332C161.361 184.099 160.895 183.84 160.455 183.608C159.522 183.142 158.538 182.702 157.527 182.34C155.533 181.539 153.357 181.073 151.181 180.789C148.979 180.53 146.751 180.504 144.575 180.789C142.425 181.047 140.301 181.564 138.358 182.34C136.415 183.064 134.679 184.073 133.125 185.133C132.374 185.702 131.648 186.22 131.027 186.84C130.353 187.409 129.783 188.004 129.265 188.625C128.721 189.194 128.255 189.814 127.84 190.383C127.4 190.952 127.037 191.521 126.726 192.09C126.623 192.271 126.519 192.426 126.416 192.607C126.493 192.271 126.571 191.909 126.623 191.547C126.804 190.875 126.83 190.151 126.908 189.349C127.011 188.573 126.985 187.745 126.96 186.866C126.908 185.133 126.571 183.245 126.001 181.28C125.353 179.34 124.499 177.349 123.281 175.461C122.659 174.53 122.012 173.599 121.235 172.72C120.846 172.28 120.483 171.84 120.095 171.401L118.825 170.185C117.09 168.608 115.095 167.237 113.023 166.099C110.898 165.013 108.671 164.133 106.417 163.564C104.137 163.021 101.858 162.737 99.6557 162.711C97.4279 162.737 95.3037 162.944 93.3349 163.461C92.3505 163.668 91.4179 164.004 90.5372 164.314C89.6564 164.677 88.8274 165.013 88.0503 165.427C86.496 166.228 85.2007 167.108 84.1386 167.987C83.6205 168.452 83.1283 168.866 82.7139 169.28C82.3253 169.72 81.9367 170.133 81.6 170.495C81.4445 170.677 81.2891 170.832 81.1596 171.013C81.0559 171.194 80.9264 171.349 80.8228 171.504C80.6156 171.814 80.4342 172.073 80.3047 172.28C80.0716 172.668 79.9161 172.901 79.8902 172.927C79.8902 172.875 80.0197 172.668 80.227 172.306C80.4342 171.892 80.771 171.271 81.1078 170.47C81.4186 169.668 81.8331 168.659 82.144 167.47C82.4807 166.28 82.7398 164.909 82.8693 163.332C83.0247 161.78 82.9211 159.996 82.5843 158.133C82.1958 156.246 81.4704 154.228 80.227 152.366C79.0354 150.478 77.3256 148.771 75.3568 147.504C73.414 146.211 71.238 145.358 69.0878 144.789C66.9118 144.271 64.7617 144.013 62.6893 143.987C61.6531 143.987 60.6428 143.987 59.6325 144.09C59.2439 144.09 58.8554 144.142 58.4668 144.194C58.7258 143.987 58.959 143.78 59.1921 143.547C59.6584 143.134 60.0988 142.694 60.5651 142.254C61.0055 141.789 61.42 141.297 61.8603 140.806C63.5701 138.84 65.0985 136.513 66.1865 133.952C67.3781 131.418 68.0775 128.599 68.4402 125.806C68.7511 122.987 68.7252 120.142 68.2589 117.453C68.0775 116.108 67.7408 114.789 67.3781 113.522C67.1968 112.901 66.9895 112.254 66.8082 111.634C66.5492 111.039 66.316 110.418 66.0829 109.823C65.0985 107.47 63.9068 105.297 62.5598 103.435C61.2127 101.547 59.8139 99.8664 58.3373 98.5216C56.8866 97.125 55.41 96.0388 54.0629 95.1595C53.3635 94.7716 52.7159 94.3578 52.0942 94.0733C51.9646 94.0216 51.8092 93.944 51.6797 93.8923C52.5605 94.0475 53.5708 94.1509 54.6847 94.1509C56.3685 94.1509 58.3114 93.9957 60.3838 93.4526C62.4562 92.9871 64.6063 92.0819 66.7564 90.9699C68.8806 89.7802 71.0048 88.3061 72.9736 86.5475C73.9321 85.6423 74.9165 84.7113 75.7972 83.6768C76.2376 83.1596 76.7039 82.6682 77.1443 82.1251L78.3877 80.4699C79.9679 78.1941 81.3668 75.7372 82.4807 73.151C83.5428 70.5389 84.4754 67.8751 84.9417 65.1337C85.4857 62.3924 85.7188 59.651 85.5893 57.0131C85.5375 54.3493 85.0453 51.8148 84.4495 49.4872C83.7501 47.1597 82.9211 45.039 81.859 43.2286C81.5999 42.789 81.3409 42.3235 81.1078 41.9097C80.8228 41.4959 80.5378 41.108 80.2788 40.72C80.1752 40.5907 80.0975 40.4614 79.9938 40.3321C80.1752 40.4355 80.3824 40.5649 80.5897 40.6942C81.4186 41.2114 82.3512 41.5993 83.2838 42.0907C84.2682 42.5045 85.3044 42.9183 86.3924 43.2804C87.5063 43.5907 88.672 43.9528 89.8895 44.1597C92.3246 44.6769 94.9669 44.8321 97.661 44.7286C98.3346 44.6769 99.034 44.6511 99.7334 44.5735C100.407 44.47 101.106 44.3666 101.78 44.2631C103.153 44.0304 104.552 43.7459 105.925 43.3062C108.671 42.5562 111.339 41.3407 113.878 39.97C116.416 38.5476 118.774 36.8666 120.872 34.9528C123.022 33.0907 124.835 30.9701 126.416 28.7977C128.022 26.6511 129.239 24.3494 130.275 22.1511C131.234 19.9011 131.959 17.7287 132.4 15.6856C132.555 14.9615 132.71 14.2374 132.814 13.5649C132.918 13.8753 133.021 14.2115 133.151 14.5477C133.436 15.5046 133.902 16.3839 134.291 17.3408C134.757 18.2718 135.275 19.2287 135.871 20.1856C137.037 22.0994 138.487 23.9356 140.119 25.7201C140.974 26.5735 141.829 27.4787 142.762 28.2804C143.228 28.6942 143.694 29.108 144.186 29.4959C144.679 29.8839 145.197 30.2718 145.689 30.6339C147.735 32.108 149.963 33.4787 152.295 34.5907C154.626 35.6769 157.061 36.6338 159.548 37.2545C162.009 37.9528 164.522 38.3149 166.957 38.4442C169.392 38.6252 171.801 38.3924 174.003 38.0821C175.117 37.8752 176.179 37.6683 177.189 37.3838C178.2 37.0476 179.184 36.8149 180.065 36.4011C181.852 35.6769 183.407 34.8235 184.702 33.9442C185.324 33.4787 185.945 33.0907 186.437 32.677C186.93 32.2373 187.396 31.8235 187.784 31.4614C188.199 31.0994 188.536 30.7632 188.795 30.427C189.054 30.1166 189.287 29.8321 189.494 29.6252C189.805 29.2373 189.986 29.0045 190.038 28.9528C190.038 28.9528 190.038 29.2373 190.064 29.7804C190.116 30.3235 190.064 31.1252 190.245 32.1338C190.401 33.1166 190.582 34.4097 190.971 35.8063C191.126 36.5045 191.385 37.2287 191.67 38.0045C191.8 38.3925 191.955 38.7804 192.111 39.1942C192.292 39.5821 192.473 39.9959 192.681 40.4097C193.432 42.0907 194.494 43.7976 195.815 45.5045C197.188 47.1855 198.846 48.8407 200.815 50.2631C202.783 51.6855 205.063 52.8234 207.524 53.6252C209.959 54.4527 212.576 54.8665 215.166 54.9183C217.731 54.9183 220.295 54.6596 222.704 54.0648C223.3 53.9096 223.896 53.7545 224.466 53.5993C225.062 53.4183 225.632 53.1855 226.176 53.0045C227.316 52.6424 228.378 52.1252 229.44 51.6597C231.175 50.8062 232.781 49.8493 234.232 48.8407C233.74 49.7976 233.325 50.7803 232.937 51.8407C232.186 53.8321 231.668 56.0045 231.46 58.3062C231.227 60.6079 231.331 63.0389 231.849 65.4182C232.393 67.7975 233.325 70.0993 234.621 72.1165C235.864 74.1337 237.444 75.8665 239.102 77.2889C240.786 78.6854 242.548 79.7716 244.257 80.6509C245.993 81.4527 247.651 82.0992 249.231 82.513C250.008 82.7199 250.785 82.9009 251.485 83.0302C252.21 83.1596 252.884 83.2889 253.531 83.3406C254.827 83.5216 255.941 83.5475 256.873 83.5733C257.806 83.5992 258.531 83.5216 259.023 83.4958C259.515 83.444 259.774 83.444 259.774 83.444L259.749 83.2113Z" fill="black"/>
<path d="M239.983 172.408C239.983 172.408 239.776 172.305 239.387 172.124C239.025 171.917 238.481 171.658 237.781 171.322C236.408 170.624 234.517 169.693 232.238 168.762C231.098 168.296 229.906 167.805 228.611 167.365C227.316 166.9 225.994 166.486 224.596 166.072C223.223 165.684 221.772 165.4 220.373 165.115C218.948 164.856 217.524 164.727 216.125 164.727C214.752 164.675 213.405 164.779 212.161 165.012C210.918 165.27 209.726 165.632 208.612 166.124C207.55 166.667 206.488 167.288 205.581 168.089C205.089 168.451 204.701 168.891 204.234 169.305C203.82 169.744 203.405 170.184 203.043 170.598C202.68 171.063 202.317 171.503 201.981 171.917C201.67 172.356 201.359 172.796 201.074 173.21C200.504 174.038 200.038 174.788 199.597 175.434C198.82 176.779 198.302 177.529 198.302 177.529C198.302 177.529 198.147 176.624 197.991 175.072C197.991 174.296 197.965 173.287 198.069 172.15C198.121 171.581 198.224 171.012 198.302 170.365C198.432 169.719 198.639 169.072 198.82 168.374C199.053 167.675 199.338 166.977 199.623 166.253C199.986 165.555 200.374 164.805 200.841 164.055C201.799 162.581 203.094 161.184 204.701 159.969C206.281 158.753 208.198 157.848 210.192 157.253C212.187 156.632 214.285 156.425 216.306 156.451C218.327 156.529 220.321 156.762 222.161 157.305C223.093 157.538 224 157.848 224.829 158.184C225.71 158.52 226.538 158.857 227.316 159.27C229.88 160.538 232.056 162.115 233.818 163.719C234.232 164.081 234.621 164.469 234.983 164.831C235.968 165.813 236.745 166.796 237.419 167.701C238.066 168.606 238.584 169.434 238.947 170.158C239.336 170.856 239.569 171.451 239.724 171.839C239.854 172.124 239.905 172.305 239.957 172.382C239.957 172.408 239.957 172.434 239.957 172.434L239.983 172.408Z" fill="#FFC804"/>
<path d="M289.929 36.8666L251.408 59.0561L287.338 32.9097L289.929 36.8666Z" fill="#FFC804"/>
<path d="M289.619 49.1246L253.844 63.0901L287.624 44.8057L289.619 49.1246Z" fill="#FFC804"/>
<path d="M0.544922 130.281L49.0391 118.72L1.86608 134.806L0.544922 130.281Z" fill="#FFC804"/>
<path d="M6.60645 140.237L46.8628 125.65L8.4457 144.581L6.60645 140.237Z" fill="#FFC804"/>
<path d="M220.168 198.84L210.35 177.529L224.261 196.434L220.168 198.84Z" fill="#FFC804"/>
<path d="M220.296 188.986L214.286 176.702L224.13 186.193L220.296 188.986Z" fill="#FFC804"/>
<path d="M90.6934 0.271484L107.558 21.5042L87.248 3.5301L90.6934 0.271484Z" fill="#FFC804"/>
<path d="M104.476 0.685547L111.107 16.5131L100.383 3.11657L104.476 0.685547Z" fill="#FFC804"/>
<path d="M96.8857 187.617L109.139 181.953L99.6317 191.496L96.8857 187.617Z" fill="#FFC804"/>
<path d="M104.786 190.073L111.107 184.642L108.775 192.633L104.786 190.073Z" fill="#FFC804"/>
<path d="M212.085 29.1595L203.614 34.9009L208.588 25.9526L212.085 29.1595Z" fill="#FFC804"/>
<path d="M210.894 17.5221L201.646 31.229L206.619 15.479L210.894 17.5221Z" fill="#FFC804"/>
</svg>
