<svg width="1440" height="54" viewBox="0 0 1440 54" fill="none" xmlns="http://www.w3.org/2000/svg">
<path d="M29.6689 44.5518C26.5572 41.4989 23.2676 38.5887 20.3571 35.4131C19.2036 34.1538 18.1788 32.6941 17.0722 31.2922C17.1798 31.1028 17.2898 30.9133 17.3951 30.6769C18.6257 27.9164 18.476 24.5785 17.9145 21.7278C17.8817 21.56 17.7694 21.4066 17.6244 21.2641C17.9894 18.7417 17.87 16.1346 18.1367 13.6266C18.5532 9.69695 19.2223 5.78169 19.2621 1.83576C19.2738 0.560143 16.5551 0.215532 16.265 1.52904C15.5023 4.98421 14.9267 8.46463 14.3652 11.9415C14.0915 13.6375 13.7195 15.4201 13.4949 17.2081C12.2291 17.3434 11.0055 17.8558 9.91751 18.4224C9.37003 17.8757 8.88338 17.3182 8.43416 16.6524C7.83053 15.7593 5.97753 15.7882 5.36454 16.6524C4.16429 18.3394 3.16525 16.8094 1.21865 16.6434C-0.00030899 16.5387 -0.957233 16.84 -1.79249 17.3506C-2.34933 17.0674 -2.94594 16.8292 -3.58701 16.5099C-4.32634 16.1436 -5.54528 16.3601 -5.93834 16.9772C-6.49752 17.8576 -6.83443 18.7219 -7.03798 19.597C-10.5849 13.5076 -13.313 7.16376 -16.0036 0.836198C-16.6212 -0.618041 -19.5271 -0.0262407 -19.0264 1.46769C-16.9511 7.67617 -14.3447 13.7602 -11.3687 19.7521C-10.1614 22.1843 -9.10159 25.2696 -7.08714 27.5014C-7.52466 31.561 -7.64397 35.6206 -8.37161 39.6965C-9.14603 44.0448 -10.1919 48.532 -9.70287 52.9217C-9.59291 53.9141 -7.61122 54.2569 -7.28835 53.1689C-5.61783 47.5144 -2.98336 40.6239 -2.27445 34.1069C-1.54915 34.8177 -0.613287 35.3085 0.544846 35.6369C2.71371 36.2521 4.01925 33.9138 5.72018 35.2868C6.37763 35.8173 7.61294 35.8173 8.26805 35.2868C8.80383 34.8538 9.31153 34.271 9.92687 33.9048C10.2848 33.8254 10.7107 33.7352 11.0218 33.6792C11.3634 33.8019 11.7775 33.8308 12.2618 33.6937C12.676 33.5764 13.048 33.4862 13.4013 33.405C14.8518 34.9964 16.5153 36.5083 17.8677 37.9066C20.7197 40.8548 23.7964 43.8427 27.5001 46.2009C29.0442 47.1824 30.8668 45.7263 29.6689 44.5518Z" fill="url(#paint0_linear_86_347)"/>
<path d="M130.003 44.5518C126.891 41.4989 123.602 38.5887 120.691 35.4131C119.538 34.1538 118.513 32.6941 117.406 31.2922C117.516 31.1028 117.624 30.9133 117.729 30.6769C118.96 27.9164 118.81 24.5785 118.248 21.7278C118.216 21.56 118.101 21.4066 117.958 21.2641C118.323 18.7417 118.204 16.1346 118.471 13.6266C118.887 9.69695 119.556 5.78169 119.596 1.83576C119.608 0.560143 116.889 0.215532 116.599 1.52904C115.836 4.98421 115.261 8.46463 114.699 11.9415C114.425 13.6375 114.053 15.4201 113.829 17.2081C112.563 17.3434 111.339 17.8558 110.251 18.4224C109.704 17.8757 109.217 17.3182 108.768 16.6524C108.165 15.7593 106.312 15.7882 105.699 16.6524C104.498 18.3394 103.499 16.8094 101.553 16.6434C100.334 16.5387 99.3768 16.84 98.5415 17.3506C97.9847 17.0674 97.388 16.8292 96.747 16.5099C96.0076 16.1436 94.7887 16.3601 94.3956 16.9772C93.8364 17.8576 93.4996 18.7219 93.296 19.597C89.7491 13.5076 87.021 7.16376 84.3304 0.836198C83.7128 -0.618041 80.8069 -0.0262407 81.3076 1.46769C83.3828 7.67617 85.9892 13.7602 88.9653 19.7521C90.1725 22.1843 91.2324 25.2696 93.2468 27.5014C92.8093 31.561 92.6877 35.6206 91.9624 39.6965C91.188 44.0448 90.1421 48.532 90.6311 52.9217C90.7411 53.9141 92.7228 54.2569 93.0456 53.1689C94.7162 47.5144 97.3506 40.6239 98.0595 34.1069C98.7848 34.8177 99.723 35.3085 100.879 35.6369C103.048 36.2521 104.353 33.9138 106.052 35.2868C106.709 35.8173 107.945 35.8173 108.6 35.2868C109.135 34.8538 109.643 34.271 110.256 33.9048C110.614 33.8254 111.04 33.7352 111.351 33.6792C111.693 33.8019 112.107 33.8308 112.591 33.6937C113.005 33.5764 113.377 33.4862 113.731 33.405C115.181 34.9964 116.845 36.5083 118.197 37.9066C121.049 40.8548 124.126 43.8427 127.829 46.2009C129.378 47.1824 131.201 45.7263 130.003 44.5518Z" fill="url(#paint1_linear_86_347)"/>
<path d="M58.4561 27.9271C56.8253 24.5296 51.4745 24.8688 47.4363 24.9915C37.3851 25.2964 27.2965 26.3068 17.491 28.057C16.7704 28.001 16.0521 27.9433 15.3315 27.8982C13.785 27.799 13.4831 29.6736 14.9688 29.9334C21.6603 31.1044 28.4265 31.9343 35.2841 32.2338C42.4177 32.546 49.6145 30.7652 56.4767 29.5419C56.6265 29.5148 56.7318 29.4625 56.8534 29.4192C57.8595 29.4192 58.8608 28.7733 58.4561 27.9271ZM37.7735 29.1179C35.1507 29.2514 32.5257 29.1936 29.9029 29.0529C32.7128 28.7805 35.5181 28.4936 38.3163 28.2951C40.6255 28.1309 43.1875 27.9343 45.7587 27.891C43.1079 28.4232 40.4548 28.9807 37.7735 29.1179Z" fill="url(#paint2_linear_86_347)"/>
<path d="M95.9678 27.9271C94.3371 24.5296 88.9862 24.8688 84.948 24.9915C74.8968 25.2964 64.8082 26.3068 55.0027 28.057C54.2821 28.001 53.5615 27.9433 52.8432 27.8982C51.2967 27.799 50.9949 29.6736 52.4805 29.9334C59.172 31.1044 65.9383 31.9343 72.7982 32.2338C79.9318 32.546 87.1286 30.7652 93.9908 29.5419C94.1405 29.5148 94.2458 29.4625 94.3675 29.4192C95.3712 29.4192 96.3749 28.7733 95.9678 27.9271ZM75.2852 29.1179C72.6624 29.2514 70.0373 29.1936 67.4146 29.0529C70.2245 28.7805 73.0298 28.4936 75.828 28.2951C78.1373 28.1309 80.6992 27.9343 83.2681 27.891C80.6196 28.4232 77.9664 28.9807 75.2852 29.1179Z" fill="url(#paint3_linear_86_347)"/>
<path d="M230.337 44.5518C227.225 41.4989 223.936 38.5887 221.027 35.4131C219.874 34.1538 218.849 32.6941 217.742 31.2922C217.852 31.1028 217.96 30.9133 218.065 30.6769C219.296 27.9164 219.146 24.5785 218.585 21.7278C218.552 21.56 218.437 21.4066 218.295 21.2641C218.662 18.7417 218.54 16.1346 218.807 13.6266C219.223 9.69695 219.893 5.78169 219.932 1.83576C219.944 0.560143 217.225 0.215532 216.935 1.52904C216.173 4.98421 215.597 8.46463 215.035 11.9415C214.762 13.6375 214.39 15.4201 214.165 17.2081C212.899 17.3434 211.676 17.8558 210.588 18.4224C210.04 17.8757 209.554 17.3182 209.104 16.6524C208.501 15.7593 206.648 15.7882 206.035 16.6524C204.835 18.3394 203.836 16.8094 201.889 16.6434C200.67 16.5387 199.713 16.84 198.878 17.3506C198.321 17.0674 197.724 16.8292 197.083 16.5099C196.344 16.1436 195.125 16.3601 194.732 16.9772C194.173 17.8576 193.836 18.7219 193.632 19.597C190.085 13.5076 187.357 7.16376 184.667 0.836198C184.049 -0.618041 181.143 -0.0262407 181.644 1.46769C183.719 7.67617 186.326 13.7602 189.302 19.7521C190.509 22.1843 191.569 25.2696 193.583 27.5014C193.146 31.561 193.026 35.6206 192.299 39.6965C191.524 44.0448 190.476 48.532 190.967 52.9217C191.077 53.9141 193.059 54.2569 193.382 53.1689C195.052 47.5144 197.687 40.6239 198.396 34.1069C199.121 34.8177 200.057 35.3085 201.215 35.6369C203.384 36.2521 204.69 33.9138 206.39 35.2868C207.048 35.8173 208.281 35.8173 208.938 35.2868C209.474 34.8538 209.982 34.271 210.595 33.9048C210.953 33.8254 211.379 33.7352 211.69 33.6792C212.029 33.8019 212.446 33.8308 212.93 33.6937C213.344 33.5764 213.716 33.4862 214.069 33.405C215.52 34.9964 217.183 36.5083 218.536 37.9066C221.388 40.8548 224.464 43.8427 228.168 46.2009C229.712 47.1824 231.535 45.7263 230.337 44.5518Z" fill="url(#paint4_linear_86_347)"/>
<path d="M158.79 27.9271C157.159 24.5296 151.809 24.8688 147.77 24.9915C137.719 25.2964 127.63 26.3068 117.825 28.057C117.104 28.001 116.386 27.9433 115.665 27.8982C114.119 27.799 113.817 29.6736 115.303 29.9334C121.994 31.1044 128.761 31.9343 135.62 32.2338C142.754 32.546 149.951 30.7652 156.813 29.5419C156.963 29.5148 157.068 29.4625 157.19 29.4192C158.193 29.4192 159.195 28.7733 158.79 27.9271ZM138.107 29.1179C135.485 29.2514 132.86 29.1936 130.237 29.0529C133.047 28.7805 135.852 28.4936 138.65 28.2951C140.96 28.1309 143.521 27.9343 146.09 27.891C143.442 28.4232 140.789 28.9807 138.107 29.1179Z" fill="url(#paint5_linear_86_347)"/>
<path d="M196.302 27.9271C194.671 24.5296 189.32 24.8688 185.282 24.9915C175.231 25.2964 165.142 26.3068 155.337 28.057C154.616 28.001 153.898 27.9433 153.177 27.8982C151.631 27.799 151.329 29.6736 152.815 29.9334C159.506 31.1044 166.272 31.9343 173.132 32.2338C180.266 32.546 187.463 30.7652 194.325 29.5419C194.475 29.5148 194.58 29.4625 194.701 29.4192C195.705 29.4192 196.707 28.7733 196.302 27.9271ZM175.619 29.1179C172.996 29.2514 170.371 29.1936 167.749 29.0529C170.558 28.7805 173.364 28.4936 176.162 28.2951C178.471 28.1309 181.033 27.9343 183.602 27.891C180.954 28.4232 178.3 28.9807 175.619 29.1179Z" fill="url(#paint6_linear_86_347)"/>
<path d="M330.671 44.5518C327.559 41.4989 324.27 38.5887 321.361 35.4131C320.208 34.1538 319.183 32.6941 318.076 31.2922C318.186 31.1028 318.294 30.9133 318.399 30.6769C319.63 27.9164 319.48 24.5785 318.919 21.7278C318.886 21.56 318.771 21.4066 318.629 21.2641C318.996 18.7417 318.874 16.1346 319.141 13.6266C319.558 9.69695 320.227 5.78169 320.266 1.83576C320.278 0.560143 317.559 0.215532 317.269 1.52904C316.507 4.98421 315.931 8.46463 315.37 11.9415C315.096 13.6375 314.724 15.4201 314.499 17.2081C313.233 17.3434 312.01 17.8558 310.922 18.4224C310.374 17.8757 309.888 17.3182 309.439 16.6524C308.835 15.7593 306.982 15.7882 306.369 16.6524C305.169 18.3394 304.17 16.8094 302.223 16.6434C301.004 16.5387 300.047 16.84 299.212 17.3506C298.655 17.0674 298.058 16.8292 297.417 16.5099C296.678 16.1436 295.459 16.3601 295.066 16.9772C294.507 17.8576 294.17 18.7219 293.966 19.597C290.419 13.5076 287.691 7.16376 285.001 0.836198C284.383 -0.618041 281.477 -0.0262407 281.978 1.46769C284.053 7.67617 286.66 13.7602 289.636 19.7521C290.843 22.1843 291.903 25.2696 293.917 27.5014C293.48 31.561 293.36 35.6206 292.633 39.6965C291.858 44.0448 290.81 48.532 291.301 52.9217C291.411 53.9141 293.393 54.2569 293.716 53.1689C295.387 47.5144 298.021 40.6239 298.73 34.1069C299.455 34.8177 300.391 35.3085 301.549 35.6369C303.718 36.2521 305.024 33.9138 306.722 35.2868C307.38 35.8173 308.615 35.8173 309.27 35.2868C309.806 34.8538 310.314 34.271 310.926 33.9048C311.284 33.8254 311.71 33.7352 312.021 33.6792C312.361 33.8019 312.777 33.8308 313.262 33.6937C313.676 33.5764 314.048 33.4862 314.401 33.405C315.852 34.9964 317.515 36.5083 318.867 37.9066C321.719 40.8548 324.796 43.8427 328.5 46.2009C330.046 47.1824 331.869 45.7263 330.671 44.5518Z" fill="url(#paint7_linear_86_347)"/>
<path d="M259.124 27.9271C257.493 24.5296 252.142 24.8688 248.104 24.9915C238.053 25.2964 227.964 26.3068 218.159 28.057C217.438 28.001 216.72 27.9433 215.999 27.8982C214.453 27.799 214.151 29.6736 215.637 29.9334C222.328 31.1044 229.094 31.9343 235.952 32.2338C243.086 32.546 250.282 30.7652 257.145 29.5419C257.294 29.5148 257.4 29.4625 257.521 29.4192C258.527 29.4192 259.529 28.7733 259.124 27.9271ZM238.441 29.1179C235.819 29.2514 233.193 29.1936 230.571 29.0529C233.381 28.7805 236.186 28.4936 238.984 28.2951C241.293 28.1309 243.855 27.9343 246.424 27.891C243.776 28.4232 241.12 28.9807 238.441 29.1179Z" fill="url(#paint8_linear_86_347)"/>
<path d="M296.636 27.9271C295.005 24.5296 289.654 24.8688 285.616 24.9915C275.565 25.2964 265.476 26.3068 255.671 28.057C254.95 28.001 254.229 27.9433 253.511 27.8982C251.965 27.799 251.663 29.6736 253.149 29.9334C259.84 31.1044 266.606 31.9343 273.466 32.2338C280.6 32.546 287.797 30.7652 294.659 29.5419C294.809 29.5148 294.914 29.4625 295.036 29.4192C296.039 29.4192 297.041 28.7733 296.636 27.9271ZM275.953 29.1179C273.33 29.2514 270.705 29.1936 268.083 29.0529C270.893 28.7805 273.698 28.4936 276.496 28.2951C278.805 28.1309 281.367 27.9343 283.939 27.891C281.288 28.4232 278.635 28.9807 275.953 29.1179Z" fill="url(#paint9_linear_86_347)"/>
<path d="M431.005 44.5518C427.895 41.4989 424.606 38.5887 421.695 35.4131C420.542 34.1538 419.517 32.6941 418.41 31.2922C418.52 31.1028 418.628 30.9133 418.733 30.6769C419.964 27.9164 419.814 24.5785 419.253 21.7278C419.22 21.56 419.105 21.4066 418.962 21.2641C419.33 18.7417 419.208 16.1346 419.475 13.6266C419.891 9.69695 420.56 5.78169 420.6 1.83576C420.612 0.560143 417.893 0.215532 417.603 1.52904C416.838 4.98421 416.265 8.46463 415.703 11.9415C415.43 13.6375 415.058 15.4201 414.833 17.2081C413.567 17.3434 412.344 17.8558 411.256 18.4224C410.708 17.8757 410.222 17.3182 409.772 16.6524C409.169 15.7593 407.316 15.7882 406.703 16.6524C405.502 18.3394 404.503 16.8094 402.557 16.6434C401.338 16.5387 400.381 16.84 399.546 17.3506C398.989 17.0674 398.392 16.8292 397.751 16.5099C397.012 16.1436 395.793 16.3601 395.4 16.9772C394.841 17.8576 394.504 18.7219 394.3 19.597C390.753 13.5076 388.025 7.16376 385.335 0.836198C384.717 -0.618041 381.811 -0.0262407 382.312 1.46769C384.387 7.67617 386.993 13.7602 389.967 19.7521C391.174 22.1843 392.234 25.2696 394.249 27.5014C393.811 31.561 393.689 35.6206 392.964 39.6965C392.19 44.0448 391.142 48.532 391.633 52.9217C391.743 53.9141 393.725 54.2569 394.047 53.1689C395.718 47.5144 398.352 40.6239 399.061 34.1069C399.787 34.8177 400.725 35.3085 401.881 35.6369C404.049 36.2521 405.355 33.9138 407.054 35.2868C407.711 35.8173 408.946 35.8173 409.601 35.2868C410.137 34.8538 410.645 34.271 411.258 33.9048C411.616 33.8254 412.042 33.7352 412.353 33.6792C412.695 33.8019 413.109 33.8308 413.593 33.6937C414.007 33.5764 414.379 33.4862 414.732 33.405C416.183 34.9964 417.846 36.5083 419.199 37.9066C422.051 40.8548 425.127 43.8427 428.831 46.2009C430.38 47.1824 432.203 45.7263 431.005 44.5518Z" fill="url(#paint10_linear_86_347)"/>
<path d="M359.456 27.9271C357.825 24.5296 352.474 24.8688 348.436 24.9915C338.385 25.2964 328.296 26.3068 318.49 28.057C317.77 28.001 317.052 27.9433 316.331 27.8982C314.784 27.799 314.483 29.6736 315.968 29.9334C322.66 31.1044 329.426 31.9343 336.286 32.2338C343.419 32.546 350.616 30.7652 357.479 29.5419C357.628 29.5148 357.734 29.4625 357.855 29.4192C358.861 29.4192 359.863 28.7733 359.456 27.9271ZM338.775 29.1179C336.153 29.2514 333.527 29.1936 330.905 29.0529C333.715 28.7805 336.52 28.4936 339.318 28.2951C341.627 28.1309 344.189 27.9343 346.758 27.891C344.11 28.4232 341.454 28.9807 338.775 29.1179Z" fill="url(#paint11_linear_86_347)"/>
<path d="M396.97 27.9271C395.339 24.5296 389.988 24.8688 385.95 24.9915C375.899 25.2964 365.81 26.3068 356.005 28.057C355.284 28.001 354.566 27.9433 353.845 27.8982C352.299 27.799 351.997 29.6736 353.482 29.9334C360.174 31.1044 366.94 31.9343 373.8 32.2338C380.934 32.546 388.13 30.7652 394.993 29.5419C395.142 29.5148 395.248 29.4625 395.369 29.4192C396.373 29.4192 397.374 28.7733 396.97 27.9271ZM376.287 29.1179C373.664 29.2514 371.039 29.1936 368.416 29.0529C371.226 28.7805 374.032 28.4936 376.83 28.2951C379.139 28.1309 381.701 27.9343 384.27 27.891C381.621 28.4232 378.966 28.9807 376.287 29.1179Z" fill="url(#paint12_linear_86_347)"/>
<path d="M531.339 44.5518C528.229 41.4989 524.937 38.5887 522.029 35.4131C520.876 34.1538 519.851 32.6941 518.744 31.2922C518.854 31.1028 518.962 30.9133 519.067 30.6769C520.298 27.9164 520.148 24.5785 519.587 21.7278C519.554 21.56 519.439 21.4066 519.297 21.2641C519.664 18.7417 519.542 16.1346 519.809 13.6266C520.225 9.69695 520.895 5.78169 520.934 1.83576C520.946 0.560143 518.227 0.215532 517.937 1.52904C517.174 4.98421 516.599 8.46463 516.037 11.9415C515.764 13.6375 515.392 15.4201 515.167 17.2081C513.901 17.3434 512.678 17.8558 511.59 18.4224C511.042 17.8757 510.556 17.3182 510.106 16.6524C509.503 15.7593 507.65 15.7882 507.037 16.6524C505.837 18.3394 504.837 16.8094 502.891 16.6434C501.672 16.5387 500.715 16.84 499.88 17.3506C499.323 17.0674 498.726 16.8292 498.085 16.5099C497.346 16.1436 496.127 16.3601 495.734 16.9772C495.175 17.8576 494.838 18.7219 494.634 19.597C491.087 13.5076 488.359 7.16376 485.669 0.836198C485.051 -0.618041 482.145 -0.0262407 482.646 1.46769C484.721 7.67617 487.327 13.7602 490.301 19.7521C491.508 22.1843 492.568 25.2696 494.583 27.5014C494.145 31.561 494.024 35.6206 493.298 39.6965C492.524 44.0448 491.478 48.532 491.967 52.9217C492.077 53.9141 494.059 54.2569 494.382 53.1689C496.052 47.5144 498.687 40.6239 499.395 34.1069C500.121 34.8177 501.057 35.3085 502.215 35.6369C504.384 36.2521 505.689 33.9138 507.39 35.2868C508.045 35.8173 509.283 35.8173 509.938 35.2868C510.474 34.8538 510.981 34.271 511.594 33.9048C511.952 33.8254 512.378 33.7352 512.689 33.6792C513.031 33.8019 513.445 33.8308 513.929 33.6937C514.343 33.5764 514.715 33.4862 515.069 33.405C516.519 34.9964 518.183 36.5083 519.535 37.9066C522.387 40.8548 525.464 43.8427 529.168 46.2009C530.712 47.1824 532.537 45.7263 531.339 44.5518Z" fill="url(#paint13_linear_86_347)"/>
<path d="M459.79 27.9271C458.159 24.5296 452.808 24.8688 448.77 24.9915C438.719 25.2964 428.63 26.3068 418.824 28.057C418.104 28.001 417.383 27.9433 416.665 27.8982C415.118 27.799 414.817 29.6736 416.302 29.9334C422.994 31.1044 429.76 31.9343 436.62 32.2338C443.754 32.546 450.95 30.7652 457.813 29.5419C457.962 29.5148 458.068 29.4625 458.189 29.4192C459.193 29.4192 460.197 28.7733 459.79 27.9271ZM439.109 29.1179C436.487 29.2514 433.861 29.1936 431.239 29.0529C434.049 28.7805 436.854 28.4936 439.652 28.2951C441.961 28.1309 444.523 27.9343 447.095 27.891C444.444 28.4232 441.788 28.9807 439.109 29.1179Z" fill="url(#paint14_linear_86_347)"/>
<path d="M497.304 27.9271C495.673 24.5296 490.322 24.8688 486.284 24.9915C476.233 25.2964 466.144 26.3068 456.339 28.057C455.618 28.001 454.9 27.9433 454.179 27.8982C452.633 27.799 452.331 29.6736 453.816 29.9334C460.508 31.1044 467.274 31.9343 474.134 32.2338C481.268 32.546 488.464 30.7652 495.327 29.5419C495.476 29.5148 495.582 29.4625 495.703 29.4192C496.707 29.4192 497.708 28.7733 497.304 27.9271ZM476.621 29.1179C473.998 29.2514 471.373 29.1936 468.75 29.0529C471.56 28.7805 474.366 28.4936 477.164 28.2951C479.473 28.1309 482.035 27.9343 484.606 27.891C481.956 28.4232 479.3 28.9807 476.621 29.1179Z" fill="url(#paint15_linear_86_347)"/>
<path d="M631.673 44.5518C628.561 41.4989 625.271 38.5887 622.361 35.4131C621.207 34.1538 620.183 32.6941 619.076 31.2922C619.186 31.1028 619.294 30.9133 619.399 30.6769C620.629 27.9164 620.48 24.5785 619.918 21.7278C619.886 21.56 619.771 21.4066 619.628 21.2641C619.993 18.7417 619.874 16.1346 620.141 13.6266C620.557 9.69695 621.226 5.78169 621.266 1.83576C621.278 0.560143 618.559 0.215532 618.269 1.52904C617.506 4.98421 616.93 8.46463 616.369 11.9415C616.095 13.6375 615.723 15.4201 615.499 17.2081C614.233 17.3434 613.009 17.8558 611.921 18.4224C611.374 17.8757 610.887 17.3182 610.438 16.6524C609.834 15.7593 607.981 15.7882 607.368 16.6524C606.168 18.3394 605.169 16.8094 603.222 16.6434C602.003 16.5387 601.047 16.84 600.211 17.3506C599.654 17.0674 599.058 16.8292 598.417 16.5099C597.677 16.1436 596.458 16.3601 596.065 16.9772C595.506 17.8576 595.169 18.7219 594.966 19.597C591.419 13.5076 588.691 7.16376 586 0.836198C585.383 -0.618041 582.477 -0.0262407 582.977 1.46769C585.053 7.67617 587.659 13.7602 590.633 19.7521C591.84 22.1843 592.9 25.2696 594.914 27.5014C594.477 31.561 594.355 35.6206 593.63 39.6965C592.855 44.0448 591.81 48.532 592.299 52.9217C592.408 53.9141 594.39 54.2569 594.713 53.1689C596.386 47.5144 599.018 40.6239 599.727 34.1069C600.452 34.8177 601.388 35.3085 602.546 35.6369C604.715 36.2521 606.021 33.9138 607.719 35.2868C608.377 35.8173 609.612 35.8173 610.267 35.2868C610.803 34.8538 611.311 34.271 611.924 33.9048C612.282 33.8254 612.707 33.7352 613.019 33.6792C613.36 33.8019 613.774 33.8308 614.259 33.6937C614.673 33.5764 615.045 33.4862 615.398 33.405C616.849 34.9964 618.512 36.5083 619.864 37.9066C622.716 40.8548 625.793 43.8427 629.497 46.2009C631.046 47.1824 632.871 45.7263 631.673 44.5518Z" fill="url(#paint16_linear_86_347)"/>
<path d="M560.124 27.9271C558.493 24.5296 553.142 24.8688 549.104 24.9915C539.053 25.2964 528.964 26.3068 519.159 28.057C518.438 28.001 517.72 27.9433 516.999 27.8982C515.452 27.799 515.151 29.6736 516.636 29.9334C523.328 31.1044 530.094 31.9343 536.952 32.2338C544.085 32.546 551.282 30.7652 558.144 29.5419C558.294 29.5148 558.399 29.4625 558.521 29.4192C559.527 29.4192 560.531 28.7733 560.124 27.9271ZM539.443 29.1179C536.821 29.2514 534.196 29.1936 531.573 29.0529C534.383 28.7805 537.188 28.4936 539.986 28.2951C542.295 28.1309 544.857 27.9343 547.429 27.891C544.775 28.4232 542.122 28.9807 539.443 29.1179Z" fill="url(#paint17_linear_86_347)"/>
<path d="M597.635 27.9271C596.005 24.5296 590.654 24.8688 586.616 24.9915C576.564 25.2964 566.476 26.3068 556.67 28.057C555.95 28.001 555.231 27.9433 554.511 27.8982C552.964 27.799 552.662 29.6736 554.148 29.9334C560.84 31.1044 567.606 31.9343 574.463 32.2338C581.597 32.546 588.794 30.7652 595.656 29.5419C595.806 29.5148 595.911 29.4625 596.033 29.4192C597.039 29.4192 598.042 28.7733 597.635 27.9271ZM576.955 29.1179C574.332 29.2514 571.707 29.1936 569.084 29.0529C571.894 28.7805 574.7 28.4936 577.498 28.2951C579.807 28.1309 582.369 27.9343 584.94 27.891C582.29 28.4232 579.634 28.9807 576.955 29.1179Z" fill="url(#paint18_linear_86_347)"/>
<path d="M732.007 44.5518C728.895 41.4989 725.605 38.5887 722.697 35.4131C721.544 34.1538 720.519 32.6941 719.412 31.2922C719.522 31.1028 719.63 30.9133 719.735 30.6769C720.966 27.9164 720.816 24.5785 720.255 21.7278C720.222 21.56 720.107 21.4066 719.964 21.2641C720.329 18.7417 720.21 16.1346 720.477 13.6266C720.893 9.69695 721.562 5.78169 721.602 1.83576C721.614 0.560143 718.895 0.215532 718.605 1.52904C717.842 4.98421 717.267 8.46463 716.705 11.9415C716.432 13.6375 716.06 15.4201 715.835 17.2081C714.569 17.3434 713.346 17.8558 712.258 18.4224C711.71 17.8757 711.223 17.3182 710.774 16.6524C710.171 15.7593 708.318 15.7882 707.705 16.6524C706.504 18.3394 705.505 16.8094 703.559 16.6434C702.34 16.5387 701.383 16.84 700.548 17.3506C699.991 17.0674 699.394 16.8292 698.753 16.5099C698.014 16.1436 696.795 16.3601 696.402 16.9772C695.843 17.8576 695.506 18.7219 695.302 19.597C691.755 13.5076 689.027 7.16376 686.337 0.836198C685.719 -0.618041 682.813 -0.0262407 683.314 1.46769C685.389 7.67617 687.995 13.7602 690.971 19.7521C692.179 22.1843 693.238 25.2696 695.253 27.5014C694.815 31.561 694.696 35.6206 693.969 39.6965C693.194 44.0448 692.148 48.532 692.637 52.9217C692.747 53.9141 694.729 54.2569 695.052 53.1689C696.722 47.5144 699.357 40.6239 700.066 34.1069C700.791 34.8177 701.727 35.3085 702.885 35.6369C705.054 36.2521 706.359 33.9138 708.06 35.2868C708.715 35.8173 709.953 35.8173 710.608 35.2868C711.144 34.8538 711.652 34.271 712.265 33.9048C712.623 33.8254 713.048 33.7352 713.36 33.6792C713.701 33.8019 714.115 33.8308 714.6 33.6937C715.014 33.5764 715.386 33.4862 715.739 33.405C717.19 34.9964 718.853 36.5083 720.205 37.9066C723.057 40.8548 726.134 43.8427 729.838 46.2009C731.38 47.1824 733.205 45.7263 732.007 44.5518Z" fill="url(#paint19_linear_86_347)"/>
<path d="M660.457 27.9271C658.827 24.5296 653.476 24.8688 649.438 24.9915C639.386 25.2964 629.298 26.3068 619.492 28.057C618.772 28.001 618.053 27.9433 617.333 27.8982C615.786 27.799 615.484 29.6736 616.97 29.9334C623.662 31.1044 630.428 31.9343 637.285 32.2338C644.419 32.546 651.616 30.7652 658.478 29.5419C658.628 29.5148 658.733 29.4625 658.855 29.4192C659.861 29.4192 660.865 28.7733 660.457 27.9271ZM639.775 29.1179C637.152 29.2514 634.527 29.1936 631.904 29.0529C634.714 28.7805 637.519 28.4936 640.318 28.2951C642.627 28.1309 645.189 27.9343 647.76 27.891C645.109 28.4232 642.456 28.9807 639.775 29.1179Z" fill="url(#paint20_linear_86_347)"/>
<path d="M697.969 27.9271C696.339 24.5296 690.988 24.8688 686.949 24.9915C676.898 25.2964 666.81 26.3068 657.004 28.057C656.284 28.001 655.565 27.9433 654.845 27.8982C653.298 27.799 652.996 29.6736 654.482 29.9334C661.173 31.1044 667.94 31.9343 674.8 32.2338C681.933 32.546 689.13 30.7652 695.992 29.5419C696.142 29.5148 696.247 29.4625 696.369 29.4192C697.373 29.4192 698.376 28.7733 697.969 27.9271ZM677.289 29.1179C674.666 29.2514 672.041 29.1936 669.418 29.0529C672.228 28.7805 675.034 28.4936 677.832 28.2951C680.141 28.1309 682.703 27.9343 685.274 27.891C682.621 28.4232 679.968 28.9807 677.289 29.1179Z" fill="url(#paint21_linear_86_347)"/>
<path d="M824.2 44.5518C821.089 41.4989 817.799 38.5887 814.891 35.4131C813.737 34.1538 812.713 32.6941 811.606 31.2922C811.716 31.1028 811.823 30.9133 811.929 30.6769C813.159 27.9164 813.01 24.5785 812.448 21.7278C812.415 21.56 812.301 21.4066 812.158 21.2641C812.525 18.7417 812.404 16.1346 812.67 13.6266C813.087 9.69695 813.756 5.78169 813.796 1.83576C813.807 0.560143 811.089 0.215532 810.799 1.52904C810.036 4.98421 809.46 8.46463 808.899 11.9415C808.625 13.6375 808.253 15.4201 808.029 17.2081C806.763 17.3434 805.539 17.8558 804.451 18.4224C803.904 17.8757 803.417 17.3182 802.968 16.6524C802.364 15.7593 800.511 15.7882 799.898 16.6524C798.698 18.3394 797.699 16.8094 795.752 16.6434C794.533 16.5387 793.576 16.84 792.741 17.3506C792.184 17.0674 791.588 16.8292 790.947 16.5099C790.207 16.1436 788.988 16.3601 788.595 16.9772C788.036 17.8576 787.699 18.7219 787.496 19.597C783.949 13.5076 781.221 7.16376 778.53 0.836198C777.912 -0.618041 775.007 -0.0262407 775.507 1.46769C777.583 7.67617 780.189 13.7602 783.163 19.7521C784.37 22.1843 785.43 25.2696 787.444 27.5014C787.007 31.561 786.885 35.6206 786.16 39.6965C785.385 44.0448 784.339 48.532 784.828 52.9217C784.938 53.9141 786.92 54.2569 787.243 53.1689C788.916 47.5144 791.548 40.6239 792.257 34.1069C792.982 34.8177 793.918 35.3085 795.076 35.6369C797.245 36.2521 798.551 33.9138 800.252 35.2868C800.907 35.8173 802.142 35.8173 802.799 35.2868C803.335 34.8538 803.843 34.271 804.458 33.9048C804.816 33.8254 805.242 33.7352 805.553 33.6792C805.895 33.8019 806.309 33.8308 806.793 33.6937C807.207 33.5764 807.579 33.4862 807.933 33.405C809.383 34.9964 811.047 36.5083 812.399 37.9066C815.251 40.8548 818.328 43.8427 822.031 46.2009C823.573 47.1824 825.398 45.7263 824.2 44.5518Z" fill="url(#paint22_linear_86_347)"/>
<path d="M752.651 27.9271C751.023 24.5296 745.67 24.8688 741.631 24.9915C731.583 25.2946 721.492 26.3068 711.688 28.057C710.968 28.001 710.247 27.9433 709.529 27.8982C707.982 27.799 707.681 29.6736 709.166 29.9334C715.858 31.1044 722.624 31.9343 729.481 32.2338C736.615 32.546 743.812 30.7652 750.674 29.5419C750.824 29.5148 750.929 29.4625 751.051 29.4192C752.055 29.4192 753.058 28.7733 752.651 27.9271ZM731.969 29.1179C729.346 29.2514 726.721 29.1936 724.098 29.0529C726.908 28.7805 729.713 28.4936 732.511 28.2951C734.821 28.1309 737.383 27.9343 739.954 27.891C737.303 28.4232 734.65 28.9807 731.969 29.1179Z" fill="url(#paint23_linear_86_347)"/>
<path d="M790.163 27.9271C788.532 24.5296 783.181 24.8688 779.143 24.9915C769.094 25.2946 759.006 26.3068 749.2 28.057C748.48 28.001 747.761 27.9433 747.041 27.8982C745.494 27.799 745.192 29.6736 746.678 29.9334C753.369 31.1044 760.136 31.9343 766.993 32.2338C774.127 32.546 781.324 30.7652 788.186 29.5419C788.336 29.5148 788.441 29.4625 788.563 29.4192C789.566 29.4192 790.57 28.7733 790.163 27.9271ZM769.483 29.1179C766.86 29.2514 764.235 29.1936 761.612 29.0529C764.422 28.7805 767.227 28.4936 770.025 28.2951C772.335 28.1309 774.897 27.9343 777.468 27.891C774.815 28.4232 772.162 28.9807 769.483 29.1179Z" fill="url(#paint24_linear_86_347)"/>
<path d="M924.532 44.5518C921.42 41.4989 918.133 38.5887 915.222 35.4131C914.069 34.1538 913.044 32.6941 911.938 31.2922C912.045 31.1028 912.155 30.9133 912.26 30.6769C913.491 27.9164 913.341 24.5785 912.78 21.7278C912.747 21.56 912.632 21.4066 912.49 21.2641C912.857 18.7417 912.735 16.1346 913.002 13.6266C913.419 9.69695 914.088 5.78169 914.128 1.83576C914.139 0.560143 911.421 0.215532 911.13 1.52904C910.368 4.98421 909.792 8.46463 909.231 11.9415C908.957 13.6375 908.585 15.4201 908.36 17.2081C907.094 17.3434 905.871 17.8558 904.783 18.4224C904.235 17.8757 903.749 17.3182 903.3 16.6524C902.696 15.7593 900.843 15.7882 900.23 16.6524C899.03 18.3394 898.031 16.8094 896.084 16.6434C894.865 16.5387 893.908 16.84 893.073 17.3506C892.516 17.0674 891.919 16.8292 891.278 16.5099C890.539 16.1436 889.32 16.3601 888.927 16.9772C888.368 17.8576 888.031 18.7219 887.827 19.597C884.28 13.5076 881.552 7.16376 878.862 0.836198C878.244 -0.618041 875.338 -0.0262407 875.839 1.46769C877.914 7.67617 880.521 13.7602 883.494 19.7521C884.702 22.1843 885.761 25.2696 887.776 27.5014C887.338 31.561 887.217 35.6206 886.491 39.6965C885.717 44.0448 884.671 48.532 885.16 52.9217C885.27 53.9141 887.252 54.2569 887.575 53.1689C889.245 47.5144 891.88 40.6239 892.589 34.1069C893.314 34.8177 894.25 35.3085 895.408 35.6369C897.577 36.2521 898.882 33.9138 900.583 35.2868C901.241 35.8173 902.476 35.8173 903.131 35.2868C903.667 34.8538 904.175 34.271 904.79 33.9048C905.148 33.8254 905.574 33.7352 905.885 33.6792C906.226 33.8019 906.641 33.8308 907.125 33.6937C907.539 33.5764 907.911 33.4862 908.264 33.405C909.715 34.9964 911.378 36.5083 912.731 37.9066C915.583 40.8548 918.659 43.8427 922.363 46.2009C923.907 47.1824 925.732 45.7263 924.532 44.5518Z" fill="url(#paint25_linear_86_347)"/>
<path d="M852.985 27.9271C851.354 24.5296 846.004 24.8688 841.965 24.9915C831.917 25.2946 821.826 26.3068 812.022 28.057C811.302 28.001 810.584 27.9433 809.863 27.8982C808.316 27.799 808.015 29.6736 809.5 29.9334C816.192 31.1044 822.958 31.9343 829.816 32.2338C836.949 32.546 844.146 30.7652 851.008 29.5419C851.158 29.5148 851.263 29.4625 851.385 29.4192C852.389 29.4192 853.392 28.7733 852.985 27.9271ZM832.303 29.1179C829.68 29.2514 827.055 29.1936 824.432 29.0529C827.242 28.7805 830.047 28.4936 832.845 28.2951C835.155 28.1309 837.717 27.9343 840.286 27.891C837.637 28.4232 834.984 28.9807 832.303 29.1179Z" fill="url(#paint26_linear_86_347)"/>
<path d="M890.497 27.9271C888.868 24.5296 883.515 24.8688 879.477 24.9915C869.428 25.2946 859.337 26.3068 849.534 28.057C848.813 28.001 848.095 27.9433 847.375 27.8982C845.828 27.799 845.526 29.6736 847.012 29.9334C853.703 31.1044 860.47 31.9343 867.327 32.2338C874.461 32.546 881.658 30.7652 888.52 29.5419C888.669 29.5148 888.775 29.4625 888.896 29.4192C889.9 29.4192 890.904 28.7733 890.497 27.9271ZM869.817 29.1179C867.194 29.2514 864.569 29.1936 861.946 29.0529C864.756 28.7805 867.561 28.4936 870.359 28.2951C872.669 28.1309 875.23 27.9343 877.802 27.891C875.149 28.4232 872.495 28.9807 869.817 29.1179Z" fill="url(#paint27_linear_86_347)"/>
<path d="M1024.87 44.5518C1021.75 41.4989 1018.46 38.5887 1015.55 35.4131C1014.4 34.1538 1013.38 32.6941 1012.27 31.2922C1012.38 31.1028 1012.49 30.9133 1012.59 30.6769C1013.82 27.9164 1013.67 24.5785 1013.11 21.7278C1013.08 21.56 1012.97 21.4066 1012.82 21.2641C1013.19 18.7417 1013.07 16.1346 1013.33 13.6266C1013.75 9.69695 1014.42 5.78169 1014.46 1.83576C1014.47 0.560143 1011.75 0.215532 1011.46 1.52904C1010.7 4.98421 1010.12 8.46463 1009.56 11.9415C1009.29 13.6375 1008.92 15.4201 1008.69 17.2081C1007.43 17.3434 1006.2 17.8558 1005.11 18.4224C1004.57 17.8757 1004.08 17.3182 1003.63 16.6524C1003.03 15.7593 1001.17 15.7882 1000.56 16.6524C999.361 18.3394 998.362 16.8094 996.416 16.6434C995.197 16.5387 994.24 16.84 993.404 17.3506C992.848 17.0674 992.251 16.8292 991.61 16.5099C990.871 16.1436 989.652 16.3601 989.259 16.9772C988.699 17.8576 988.362 18.7219 988.159 19.597C984.612 13.5076 981.884 7.16376 979.193 0.836198C978.576 -0.618041 975.67 -0.0262407 976.17 1.46769C978.246 7.67617 980.852 13.7602 983.828 19.7521C985.035 22.1843 986.095 25.2696 988.11 27.5014C987.672 31.561 987.553 35.6206 986.825 39.6965C986.051 44.0448 985.005 48.532 985.494 52.9217C985.604 53.9141 987.586 54.2569 987.909 53.1689C989.579 47.5144 992.214 40.6239 992.922 34.1069C993.648 34.8177 994.584 35.3085 995.742 35.6369C997.911 36.2521 999.216 33.9138 1000.92 35.2868C1001.57 35.8173 1002.81 35.8173 1003.46 35.2868C1004 34.8538 1004.51 34.271 1005.12 33.9048C1005.48 33.8254 1005.91 33.7352 1006.22 33.6792C1006.56 33.8019 1006.97 33.8308 1007.46 33.6937C1007.87 33.5764 1008.24 33.4862 1008.6 33.405C1010.05 34.9964 1011.71 36.5083 1013.06 37.9066C1015.92 40.8548 1018.99 43.8427 1022.7 46.2009C1024.24 47.1824 1026.06 45.7263 1024.87 44.5518Z" fill="url(#paint28_linear_86_347)"/>
<path d="M953.319 27.9271C951.688 24.5296 946.337 24.8688 942.299 24.9915C932.248 25.2964 922.159 26.3068 912.354 28.057C911.633 28.001 910.915 27.9433 910.194 27.8982C908.648 27.799 908.346 29.6736 909.832 29.9334C916.523 31.1044 923.289 31.9343 930.149 32.2338C937.283 32.546 944.48 30.7652 951.342 29.5419C951.492 29.5148 951.597 29.4625 951.719 29.4192C952.722 29.4192 953.726 28.7733 953.319 27.9271ZM932.636 29.1179C930.014 29.2514 927.389 29.1936 924.766 29.0529C927.576 28.7805 930.381 28.4936 933.179 28.2951C935.488 28.1309 938.05 27.9343 940.622 27.891C937.971 28.4232 935.318 28.9807 932.636 29.1179Z" fill="url(#paint29_linear_86_347)"/>
<path d="M990.831 27.9271C989.2 24.5296 983.849 24.8688 979.811 24.9915C969.76 25.2964 959.671 26.3068 949.866 28.057C949.145 28.001 948.425 27.9433 947.706 27.8982C946.16 27.799 945.858 29.6736 947.344 29.9334C954.035 31.1044 960.801 31.9343 967.661 32.2338C974.795 32.546 981.992 30.7652 988.854 29.5419C989.004 29.5148 989.109 29.4625 989.231 29.4192C990.234 29.4192 991.238 28.7733 990.831 27.9271ZM970.148 29.1179C967.526 29.2514 964.9 29.1936 962.278 29.0529C965.088 28.7805 967.893 28.4936 970.691 28.2951C973 28.1309 975.562 27.9343 978.131 27.891C975.483 28.4232 972.83 28.9807 970.148 29.1179Z" fill="url(#paint30_linear_86_347)"/>
<path d="M1125.2 44.5518C1122.09 41.4989 1118.8 38.5887 1115.89 35.4131C1114.73 34.1538 1113.71 32.6941 1112.6 31.2922C1112.71 31.1028 1112.82 30.9133 1112.93 30.6769C1114.16 27.9164 1114.01 24.5785 1113.45 21.7278C1113.41 21.56 1113.3 21.4066 1113.16 21.2641C1113.52 18.7417 1113.4 16.1346 1113.67 13.6266C1114.08 9.69695 1114.75 5.78169 1114.79 1.83576C1114.8 0.560143 1112.09 0.215532 1111.8 1.52904C1111.03 4.98421 1110.46 8.46463 1109.9 11.9415C1109.62 13.6375 1109.25 15.4201 1109.03 17.2081C1107.76 17.3434 1106.54 17.8558 1105.45 18.4224C1104.9 17.8757 1104.41 17.3182 1103.97 16.6524C1103.36 15.7593 1101.51 15.7882 1100.9 16.6524C1099.7 18.3394 1098.7 16.8094 1096.75 16.6434C1095.53 16.5387 1094.57 16.84 1093.74 17.3506C1093.18 17.0674 1092.58 16.8292 1091.94 16.5099C1091.2 16.1436 1089.99 16.3601 1089.59 16.9772C1089.03 17.8576 1088.7 18.7219 1088.49 19.597C1084.95 13.5076 1082.22 7.16376 1079.53 0.836198C1078.91 -0.618041 1076 -0.0262407 1076.5 1.46769C1078.58 7.67617 1081.19 13.7602 1084.16 19.7521C1085.37 22.1843 1086.43 25.2696 1088.44 27.5014C1088.01 31.561 1087.88 35.6206 1087.16 39.6965C1086.38 44.0448 1085.34 48.532 1085.83 52.9217C1085.94 53.9141 1087.92 54.2569 1088.24 53.1689C1089.91 47.5144 1092.55 40.6239 1093.26 34.1069C1093.98 34.8177 1094.92 35.3085 1096.08 35.6369C1098.24 36.2521 1099.55 33.9138 1101.25 35.2868C1101.91 35.8173 1103.14 35.8173 1103.8 35.2868C1104.33 34.8538 1104.84 34.271 1105.45 33.9048C1105.81 33.8254 1106.24 33.7352 1106.55 33.6792C1106.89 33.8019 1107.3 33.8308 1107.79 33.6937C1108.2 33.5764 1108.57 33.4862 1108.93 33.405C1110.38 34.9964 1112.04 36.5083 1113.39 37.9066C1116.25 40.8548 1119.32 43.8427 1123.03 46.2009C1124.58 47.1824 1126.4 45.7263 1125.2 44.5518Z" fill="url(#paint31_linear_86_347)"/>
<path d="M1053.65 27.9271C1052.02 24.5296 1046.67 24.8688 1042.63 24.9915C1032.58 25.2964 1022.49 26.3068 1012.69 28.057C1011.97 28.001 1011.25 27.9433 1010.53 27.8982C1008.98 27.799 1008.68 29.6736 1010.17 29.9334C1016.86 31.1044 1023.62 31.9343 1030.48 32.2338C1037.61 32.546 1044.81 30.7652 1051.67 29.5419C1051.82 29.5148 1051.93 29.4625 1052.05 29.4192C1053.06 29.4192 1054.06 28.7733 1053.65 27.9271ZM1032.97 29.1179C1030.35 29.2514 1027.72 29.1936 1025.1 29.0529C1027.91 28.7805 1030.71 28.4936 1033.51 28.2951C1035.82 28.1309 1038.38 27.9343 1040.96 27.891C1038.3 28.4232 1035.65 28.9807 1032.97 29.1179Z" fill="url(#paint32_linear_86_347)"/>
<path d="M1091.16 27.9271C1089.53 24.5296 1084.18 24.8688 1080.14 24.9915C1070.09 25.2964 1060.01 26.3068 1050.2 28.057C1049.48 28.001 1048.76 27.9433 1048.04 27.8982C1046.49 27.799 1046.19 29.6736 1047.68 29.9334C1054.37 31.1044 1061.14 31.9343 1068 32.2338C1075.13 32.546 1082.33 30.7652 1089.19 29.5419C1089.34 29.5148 1089.44 29.4625 1089.56 29.4192C1090.57 29.4192 1091.57 28.7733 1091.16 27.9271ZM1070.48 29.1179C1067.86 29.2514 1065.23 29.1936 1062.61 29.0529C1065.42 28.7805 1068.23 28.4936 1071.02 28.2951C1073.33 28.1309 1075.9 27.9343 1078.47 27.891C1075.82 28.4232 1073.16 28.9807 1070.48 29.1179Z" fill="url(#paint33_linear_86_347)"/>
<path d="M1225.53 44.5518C1222.42 41.4989 1219.13 38.5887 1216.22 35.4131C1215.07 34.1538 1214.05 32.6941 1212.94 31.2922C1213.05 31.1028 1213.16 30.9133 1213.26 30.6769C1214.49 27.9164 1214.34 24.5785 1213.78 21.7278C1213.75 21.56 1213.63 21.4066 1213.49 21.2641C1213.86 18.7417 1213.74 16.1346 1214 13.6266C1214.42 9.69695 1215.09 5.78169 1215.13 1.83576C1215.14 0.560143 1212.42 0.215532 1212.13 1.52904C1211.37 4.98421 1210.79 8.46463 1210.23 11.9415C1209.96 13.6375 1209.59 15.4201 1209.36 17.2081C1208.1 17.3434 1206.87 17.8558 1205.78 18.4224C1205.24 17.8757 1204.75 17.3182 1204.3 16.6524C1203.7 15.7593 1201.84 15.7882 1201.23 16.6524C1200.03 18.3394 1199.03 16.8094 1197.09 16.6434C1195.87 16.5387 1194.91 16.84 1194.07 17.3506C1193.52 17.0674 1192.92 16.8292 1192.28 16.5099C1191.54 16.1436 1190.32 16.3601 1189.93 16.9772C1189.37 17.8576 1189.03 18.7219 1188.83 19.597C1185.28 13.5076 1182.55 7.16376 1179.86 0.836198C1179.25 -0.618041 1176.34 -0.0262407 1176.84 1.46769C1178.92 7.67617 1181.52 13.7602 1184.5 19.7521C1185.71 22.1843 1186.77 25.2696 1188.78 27.5014C1188.34 31.561 1188.22 35.6206 1187.5 39.6965C1186.72 44.0448 1185.67 48.532 1186.16 52.9217C1186.27 53.9141 1188.26 54.2569 1188.58 53.1689C1190.25 47.5144 1192.88 40.6239 1193.59 34.1069C1194.32 34.8177 1195.25 35.3085 1196.41 35.6369C1198.58 36.2521 1199.89 33.9138 1201.59 35.2868C1202.24 35.8173 1203.48 35.8173 1204.14 35.2868C1204.67 34.8538 1205.18 34.271 1205.79 33.9048C1206.15 33.8254 1206.58 33.7352 1206.89 33.6792C1207.23 33.8019 1207.64 33.8308 1208.13 33.6937C1208.54 33.5764 1208.91 33.4862 1209.27 33.405C1210.72 34.9964 1212.38 36.5083 1213.73 37.9066C1216.58 40.8548 1219.66 43.8427 1223.36 46.2009C1224.91 47.1824 1226.73 45.7263 1225.53 44.5518Z" fill="url(#paint34_linear_86_347)"/>
<path d="M1153.99 27.9271C1152.36 24.5296 1147.01 24.8688 1142.97 24.9915C1132.92 25.2964 1122.83 26.3068 1113.02 28.057C1112.3 28.001 1111.58 27.9433 1110.86 27.8982C1109.32 27.799 1109.01 29.6736 1110.5 29.9334C1117.19 31.1044 1123.96 31.9343 1130.82 32.2338C1137.95 32.546 1145.15 30.7652 1152.01 29.5419C1152.16 29.5148 1152.26 29.4625 1152.39 29.4192C1153.39 29.4192 1154.39 28.7733 1153.99 27.9271ZM1133.3 29.1179C1130.68 29.2514 1128.06 29.1936 1125.43 29.0529C1128.24 28.7805 1131.05 28.4936 1133.85 28.2951C1136.16 28.1309 1138.72 27.9343 1141.29 27.891C1138.64 28.4232 1135.99 28.9807 1133.3 29.1179Z" fill="url(#paint35_linear_86_347)"/>
<path d="M1191.5 27.9271C1189.87 24.5296 1184.52 24.8688 1180.48 24.9915C1170.43 25.2964 1160.34 26.3068 1150.53 28.057C1149.81 28.001 1149.09 27.9433 1148.37 27.8982C1146.83 27.799 1146.53 29.6736 1148.01 29.9334C1154.7 31.1044 1161.47 31.9343 1168.33 32.2338C1175.46 32.546 1182.66 30.7652 1189.52 29.5419C1189.67 29.5148 1189.78 29.4625 1189.9 29.4192C1190.9 29.4192 1191.9 28.7733 1191.5 27.9271ZM1170.82 29.1179C1168.19 29.2514 1165.57 29.1936 1162.95 29.0529C1165.76 28.7805 1168.56 28.4936 1171.36 28.2951C1173.67 28.1309 1176.23 27.9343 1178.8 27.891C1176.15 28.4232 1173.5 28.9807 1170.82 29.1179Z" fill="url(#paint36_linear_86_347)"/>
<path d="M1325.87 44.5518C1322.76 41.4989 1319.47 38.5887 1316.56 35.4131C1315.4 34.1538 1314.38 32.6941 1313.27 31.2922C1313.38 31.1028 1313.49 30.9133 1313.6 30.6769C1314.83 27.9164 1314.68 24.5785 1314.12 21.7278C1314.08 21.56 1313.97 21.4066 1313.83 21.2641C1314.19 18.7417 1314.07 16.1346 1314.34 13.6266C1314.75 9.69695 1315.42 5.78169 1315.46 1.83576C1315.48 0.560143 1312.76 0.215532 1312.47 1.52904C1311.7 4.98421 1311.13 8.46463 1310.57 11.9415C1310.29 13.6375 1309.92 15.4201 1309.7 17.2081C1308.43 17.3434 1307.21 17.8558 1306.12 18.4224C1305.57 17.8757 1305.08 17.3182 1304.64 16.6524C1304.03 15.7593 1302.18 15.7882 1301.57 16.6524C1300.37 18.3394 1299.37 16.8094 1297.42 16.6434C1296.2 16.5387 1295.24 16.84 1294.41 17.3506C1293.85 17.0674 1293.26 16.8292 1292.61 16.5099C1291.87 16.1436 1290.66 16.3601 1290.26 16.9772C1289.7 17.8576 1289.37 18.7219 1289.16 19.597C1285.62 13.5076 1282.89 7.16376 1280.2 0.836198C1279.58 -0.618041 1276.67 -0.0262407 1277.17 1.46769C1279.25 7.67617 1281.86 13.7602 1284.83 19.7521C1286.04 22.1843 1287.1 25.2696 1289.11 27.5014C1288.68 31.561 1288.56 35.6206 1287.83 39.6965C1287.06 44.0448 1286.01 48.532 1286.5 52.9217C1286.61 53.9141 1288.59 54.2569 1288.91 53.1689C1290.58 47.5144 1293.22 40.6239 1293.93 34.1069C1294.65 34.8177 1295.59 35.3085 1296.75 35.6369C1298.91 36.2521 1300.22 33.9138 1301.92 35.2868C1302.58 35.8173 1303.81 35.8173 1304.47 35.2868C1305 34.8538 1305.51 34.271 1306.12 33.9048C1306.48 33.8254 1306.91 33.7352 1307.22 33.6792C1307.56 33.8019 1307.97 33.8308 1308.46 33.6937C1308.87 33.5764 1309.24 33.4862 1309.6 33.405C1311.05 34.9964 1312.71 36.5083 1314.06 37.9066C1316.92 40.8548 1319.99 43.8427 1323.7 46.2009C1325.24 47.1824 1327.07 45.7263 1325.87 44.5518Z" fill="url(#paint37_linear_86_347)"/>
<path d="M1254.32 27.9271C1252.69 24.5296 1247.34 24.8688 1243.3 24.9915C1233.25 25.2964 1223.16 26.3068 1213.36 28.057C1212.64 28.001 1211.92 27.9433 1211.2 27.8982C1209.65 27.799 1209.35 29.6736 1210.83 29.9334C1217.52 31.1044 1224.29 31.9343 1231.15 32.2338C1238.28 32.546 1245.48 30.7652 1252.34 29.5419C1252.49 29.5148 1252.6 29.4625 1252.72 29.4192C1253.72 29.4192 1254.73 28.7733 1254.32 27.9271ZM1233.64 29.1179C1231.02 29.2514 1228.39 29.1936 1225.77 29.0529C1228.58 28.7805 1231.38 28.4936 1234.18 28.2951C1236.49 28.1309 1239.05 27.9343 1241.62 27.891C1238.97 28.4232 1236.32 28.9807 1233.64 29.1179Z" fill="url(#paint38_linear_86_347)"/>
<path d="M1291.83 27.9271C1290.2 24.5296 1284.85 24.8688 1280.81 24.9915C1270.76 25.2964 1260.67 26.3068 1250.87 28.057C1250.15 28.001 1249.43 27.9433 1248.71 27.8982C1247.16 27.799 1246.86 29.6736 1248.35 29.9334C1255.04 31.1044 1261.8 31.9343 1268.66 32.2338C1275.8 32.546 1282.99 30.7652 1289.86 29.5419C1290.01 29.5148 1290.11 29.4625 1290.23 29.4192C1291.24 29.4192 1292.24 28.7733 1291.83 27.9271ZM1271.15 29.1179C1268.53 29.2514 1265.9 29.1936 1263.28 29.0529C1266.09 28.7805 1268.89 28.4936 1271.69 28.2951C1274 28.1309 1276.56 27.9343 1279.14 27.891C1276.48 28.4232 1273.83 28.9807 1271.15 29.1179Z" fill="url(#paint39_linear_86_347)"/>
<path d="M1426.2 44.5518C1423.09 41.4989 1419.8 38.5887 1416.89 35.4131C1415.74 34.1538 1414.71 32.6941 1413.61 31.2922C1413.72 31.1028 1413.82 30.9133 1413.93 30.6769C1415.16 27.9164 1415.01 24.5785 1414.45 21.7278C1414.42 21.56 1414.3 21.4066 1414.16 21.2641C1414.53 18.7417 1414.4 16.1346 1414.67 13.6266C1415.09 9.69695 1415.76 5.78169 1415.8 1.83576C1415.81 0.560143 1413.09 0.215532 1412.8 1.52904C1412.03 4.98421 1411.46 8.46463 1410.9 11.9415C1410.63 13.6375 1410.25 15.4201 1410.03 17.2081C1408.76 17.3434 1407.54 17.8558 1406.45 18.4224C1405.91 17.8757 1405.42 17.3182 1404.97 16.6524C1404.37 15.7593 1402.51 15.7882 1401.9 16.6524C1400.7 18.3394 1399.7 16.8094 1397.75 16.6434C1396.53 16.5387 1395.58 16.84 1394.74 17.3506C1394.19 17.0674 1393.59 16.8292 1392.95 16.5099C1392.21 16.1436 1390.99 16.3601 1390.6 16.9772C1390.04 17.8576 1389.7 18.7219 1389.5 19.597C1385.95 13.5076 1383.22 7.16376 1380.53 0.836198C1379.91 -0.618041 1377.01 -0.0262407 1377.51 1.46769C1379.58 7.67617 1382.19 13.7602 1385.16 19.7521C1386.37 22.1843 1387.43 25.2696 1389.45 27.5014C1389.01 31.561 1388.89 35.6206 1388.16 39.6965C1387.39 44.0448 1386.34 48.532 1386.83 52.9217C1386.94 53.9141 1388.92 54.2569 1389.24 53.1689C1390.91 47.5144 1393.55 40.6239 1394.26 34.1069C1394.98 34.8177 1395.92 35.3085 1397.08 35.6369C1399.25 36.2521 1400.55 33.9138 1402.25 35.2868C1402.91 35.8173 1404.14 35.8173 1404.8 35.2868C1405.33 34.8538 1405.84 34.271 1406.45 33.9048C1406.81 33.8254 1407.24 33.7352 1407.55 33.6792C1407.89 33.8019 1408.31 33.8308 1408.79 33.6937C1409.2 33.5764 1409.58 33.4862 1409.93 33.405C1411.38 34.9964 1413.04 36.5083 1414.4 37.9066C1417.25 40.8548 1420.32 43.8427 1424.03 46.2009C1425.58 47.1824 1427.4 45.7263 1426.2 44.5518Z" fill="url(#paint40_linear_86_347)"/>
<path d="M1354.65 27.9271C1353.02 24.5296 1347.67 24.8688 1343.63 24.9915C1333.58 25.2964 1323.49 26.3068 1313.69 28.057C1312.97 28.001 1312.25 27.9433 1311.53 27.8982C1309.98 27.799 1309.68 29.6736 1311.17 29.9334C1317.86 31.1044 1324.62 31.9343 1331.48 32.2338C1338.62 32.546 1345.81 30.7652 1352.68 29.5419C1352.83 29.5148 1352.93 29.4625 1353.05 29.4192C1354.06 29.4192 1355.06 28.7733 1354.65 27.9271ZM1333.97 29.1179C1331.35 29.2514 1328.72 29.1936 1326.1 29.0529C1328.91 28.7805 1331.72 28.4936 1334.52 28.2951C1336.82 28.1309 1339.39 27.9343 1341.96 27.891C1339.31 28.4232 1336.65 28.9807 1333.97 29.1179Z" fill="url(#paint41_linear_86_347)"/>
<path d="M1392.17 27.9271C1390.54 24.5296 1385.19 24.8688 1381.15 24.9915C1371.1 25.2964 1361.01 26.3068 1351.2 28.057C1350.48 28.001 1349.76 27.9433 1349.04 27.8982C1347.5 27.799 1347.19 29.6736 1348.68 29.9334C1355.37 31.1044 1362.14 31.9343 1369 32.2338C1376.13 32.546 1383.33 30.7652 1390.19 29.5419C1390.34 29.5148 1390.44 29.4625 1390.57 29.4192C1391.57 29.4192 1392.57 28.7733 1392.17 27.9271ZM1371.48 29.1179C1368.86 29.2514 1366.24 29.1936 1363.61 29.0529C1366.42 28.7805 1369.23 28.4936 1372.03 28.2951C1374.34 28.1309 1376.9 27.9343 1379.47 27.891C1376.82 28.4232 1374.16 28.9807 1371.48 29.1179Z" fill="url(#paint42_linear_86_347)"/>
<path d="M1454.99 27.9271C1453.36 24.5296 1448 24.8688 1443.97 24.9915C1433.92 25.2964 1423.83 26.3068 1414.02 28.057C1413.3 28.001 1412.58 27.9433 1411.86 27.8982C1410.32 27.799 1410.01 29.6736 1411.5 29.9334C1418.19 31.1044 1424.96 31.9343 1431.82 32.2338C1438.95 32.546 1446.15 30.7652 1453.01 29.5419C1453.16 29.5148 1453.26 29.4625 1453.39 29.4192C1454.39 29.4192 1455.39 28.7733 1454.99 27.9271ZM1434.31 29.1179C1431.68 29.2514 1429.06 29.1936 1426.44 29.0529C1429.25 28.7805 1432.05 28.4936 1434.85 28.2951C1437.16 28.1309 1439.72 27.9343 1442.29 27.891C1439.64 28.4232 1436.99 28.9807 1434.31 29.1179Z" fill="url(#paint43_linear_86_347)"/>
<defs>
<linearGradient id="paint0_linear_86_347" x1="5.48612" y1="0" x2="5.48612" y2="53.8409" gradientUnits="userSpaceOnUse">
<stop stop-color="#D7D9DB"/>
<stop offset="0.33" stop-color="#EFF1F3"/>
<stop offset="0.625" stop-color="#97999B"/>
<stop offset="1" stop-color="#5A5C5E"/>
</linearGradient>
<linearGradient id="paint1_linear_86_347" x1="105.82" y1="0" x2="105.82" y2="53.8409" gradientUnits="userSpaceOnUse">
<stop stop-color="#D7D9DB"/>
<stop offset="0.33" stop-color="#EFF1F3"/>
<stop offset="0.625" stop-color="#97999B"/>
<stop offset="1" stop-color="#5A5C5E"/>
</linearGradient>
<linearGradient id="paint2_linear_86_347" x1="36.2738" y1="24.9204" x2="36.2738" y2="32.2699" gradientUnits="userSpaceOnUse">
<stop stop-color="#D7D9DB"/>
<stop offset="0.33" stop-color="#EFF1F3"/>
<stop offset="0.625" stop-color="#97999B"/>
<stop offset="1" stop-color="#5A5C5E"/>
</linearGradient>
<linearGradient id="paint3_linear_86_347" x1="73.786" y1="24.9204" x2="73.786" y2="32.2699" gradientUnits="userSpaceOnUse">
<stop stop-color="#D7D9DB"/>
<stop offset="0.33" stop-color="#EFF1F3"/>
<stop offset="0.625" stop-color="#97999B"/>
<stop offset="1" stop-color="#5A5C5E"/>
</linearGradient>
<linearGradient id="paint4_linear_86_347" x1="206.155" y1="0" x2="206.155" y2="53.8409" gradientUnits="userSpaceOnUse">
<stop stop-color="#D7D9DB"/>
<stop offset="0.33" stop-color="#EFF1F3"/>
<stop offset="0.625" stop-color="#97999B"/>
<stop offset="1" stop-color="#5A5C5E"/>
</linearGradient>
<linearGradient id="paint5_linear_86_347" x1="136.608" y1="24.9204" x2="136.608" y2="32.2699" gradientUnits="userSpaceOnUse">
<stop stop-color="#D7D9DB"/>
<stop offset="0.33" stop-color="#EFF1F3"/>
<stop offset="0.625" stop-color="#97999B"/>
<stop offset="1" stop-color="#5A5C5E"/>
</linearGradient>
<linearGradient id="paint6_linear_86_347" x1="174.12" y1="24.9204" x2="174.12" y2="32.2699" gradientUnits="userSpaceOnUse">
<stop stop-color="#D7D9DB"/>
<stop offset="0.33" stop-color="#EFF1F3"/>
<stop offset="0.625" stop-color="#97999B"/>
<stop offset="1" stop-color="#5A5C5E"/>
</linearGradient>
<linearGradient id="paint7_linear_86_347" x1="306.489" y1="0" x2="306.489" y2="53.8409" gradientUnits="userSpaceOnUse">
<stop stop-color="#D7D9DB"/>
<stop offset="0.33" stop-color="#EFF1F3"/>
<stop offset="0.625" stop-color="#97999B"/>
<stop offset="1" stop-color="#5A5C5E"/>
</linearGradient>
<linearGradient id="paint8_linear_86_347" x1="236.942" y1="24.9204" x2="236.942" y2="32.2699" gradientUnits="userSpaceOnUse">
<stop stop-color="#D7D9DB"/>
<stop offset="0.33" stop-color="#EFF1F3"/>
<stop offset="0.625" stop-color="#97999B"/>
<stop offset="1" stop-color="#5A5C5E"/>
</linearGradient>
<linearGradient id="paint9_linear_86_347" x1="274.454" y1="24.9204" x2="274.454" y2="32.2699" gradientUnits="userSpaceOnUse">
<stop stop-color="#D7D9DB"/>
<stop offset="0.33" stop-color="#EFF1F3"/>
<stop offset="0.625" stop-color="#97999B"/>
<stop offset="1" stop-color="#5A5C5E"/>
</linearGradient>
<linearGradient id="paint10_linear_86_347" x1="406.823" y1="0" x2="406.823" y2="53.8409" gradientUnits="userSpaceOnUse">
<stop stop-color="#D7D9DB"/>
<stop offset="0.33" stop-color="#EFF1F3"/>
<stop offset="0.625" stop-color="#97999B"/>
<stop offset="1" stop-color="#5A5C5E"/>
</linearGradient>
<linearGradient id="paint11_linear_86_347" x1="337.274" y1="24.9204" x2="337.274" y2="32.2699" gradientUnits="userSpaceOnUse">
<stop stop-color="#D7D9DB"/>
<stop offset="0.33" stop-color="#EFF1F3"/>
<stop offset="0.625" stop-color="#97999B"/>
<stop offset="1" stop-color="#5A5C5E"/>
</linearGradient>
<linearGradient id="paint12_linear_86_347" x1="374.787" y1="24.9204" x2="374.787" y2="32.2699" gradientUnits="userSpaceOnUse">
<stop stop-color="#D7D9DB"/>
<stop offset="0.33" stop-color="#EFF1F3"/>
<stop offset="0.625" stop-color="#97999B"/>
<stop offset="1" stop-color="#5A5C5E"/>
</linearGradient>
<linearGradient id="paint13_linear_86_347" x1="507.157" y1="0" x2="507.157" y2="53.8409" gradientUnits="userSpaceOnUse">
<stop stop-color="#D7D9DB"/>
<stop offset="0.33" stop-color="#EFF1F3"/>
<stop offset="0.625" stop-color="#97999B"/>
<stop offset="1" stop-color="#5A5C5E"/>
</linearGradient>
<linearGradient id="paint14_linear_86_347" x1="437.608" y1="24.9204" x2="437.608" y2="32.2699" gradientUnits="userSpaceOnUse">
<stop stop-color="#D7D9DB"/>
<stop offset="0.33" stop-color="#EFF1F3"/>
<stop offset="0.625" stop-color="#97999B"/>
<stop offset="1" stop-color="#5A5C5E"/>
</linearGradient>
<linearGradient id="paint15_linear_86_347" x1="475.121" y1="24.9204" x2="475.121" y2="32.2699" gradientUnits="userSpaceOnUse">
<stop stop-color="#D7D9DB"/>
<stop offset="0.33" stop-color="#EFF1F3"/>
<stop offset="0.625" stop-color="#97999B"/>
<stop offset="1" stop-color="#5A5C5E"/>
</linearGradient>
<linearGradient id="paint16_linear_86_347" x1="607.49" y1="0" x2="607.49" y2="53.8409" gradientUnits="userSpaceOnUse">
<stop stop-color="#D7D9DB"/>
<stop offset="0.33" stop-color="#EFF1F3"/>
<stop offset="0.625" stop-color="#97999B"/>
<stop offset="1" stop-color="#5A5C5E"/>
</linearGradient>
<linearGradient id="paint17_linear_86_347" x1="537.942" y1="24.9204" x2="537.942" y2="32.2699" gradientUnits="userSpaceOnUse">
<stop stop-color="#D7D9DB"/>
<stop offset="0.33" stop-color="#EFF1F3"/>
<stop offset="0.625" stop-color="#97999B"/>
<stop offset="1" stop-color="#5A5C5E"/>
</linearGradient>
<linearGradient id="paint18_linear_86_347" x1="575.453" y1="24.9204" x2="575.453" y2="32.2699" gradientUnits="userSpaceOnUse">
<stop stop-color="#D7D9DB"/>
<stop offset="0.33" stop-color="#EFF1F3"/>
<stop offset="0.625" stop-color="#97999B"/>
<stop offset="1" stop-color="#5A5C5E"/>
</linearGradient>
<linearGradient id="paint19_linear_86_347" x1="707.825" y1="0" x2="707.825" y2="53.8409" gradientUnits="userSpaceOnUse">
<stop stop-color="#D7D9DB"/>
<stop offset="0.33" stop-color="#EFF1F3"/>
<stop offset="0.625" stop-color="#97999B"/>
<stop offset="1" stop-color="#5A5C5E"/>
</linearGradient>
<linearGradient id="paint20_linear_86_347" x1="638.276" y1="24.9204" x2="638.276" y2="32.2699" gradientUnits="userSpaceOnUse">
<stop stop-color="#D7D9DB"/>
<stop offset="0.33" stop-color="#EFF1F3"/>
<stop offset="0.625" stop-color="#97999B"/>
<stop offset="1" stop-color="#5A5C5E"/>
</linearGradient>
<linearGradient id="paint21_linear_86_347" x1="675.787" y1="24.9204" x2="675.787" y2="32.2699" gradientUnits="userSpaceOnUse">
<stop stop-color="#D7D9DB"/>
<stop offset="0.33" stop-color="#EFF1F3"/>
<stop offset="0.625" stop-color="#97999B"/>
<stop offset="1" stop-color="#5A5C5E"/>
</linearGradient>
<linearGradient id="paint22_linear_86_347" x1="800.018" y1="0" x2="800.018" y2="53.8409" gradientUnits="userSpaceOnUse">
<stop stop-color="#D7D9DB"/>
<stop offset="0.33" stop-color="#EFF1F3"/>
<stop offset="0.625" stop-color="#97999B"/>
<stop offset="1" stop-color="#5A5C5E"/>
</linearGradient>
<linearGradient id="paint23_linear_86_347" x1="730.47" y1="24.9204" x2="730.47" y2="32.2699" gradientUnits="userSpaceOnUse">
<stop stop-color="#D7D9DB"/>
<stop offset="0.33" stop-color="#EFF1F3"/>
<stop offset="0.625" stop-color="#97999B"/>
<stop offset="1" stop-color="#5A5C5E"/>
</linearGradient>
<linearGradient id="paint24_linear_86_347" x1="767.982" y1="24.9204" x2="767.982" y2="32.2699" gradientUnits="userSpaceOnUse">
<stop stop-color="#D7D9DB"/>
<stop offset="0.33" stop-color="#EFF1F3"/>
<stop offset="0.625" stop-color="#97999B"/>
<stop offset="1" stop-color="#5A5C5E"/>
</linearGradient>
<linearGradient id="paint25_linear_86_347" x1="900.351" y1="0" x2="900.351" y2="53.8409" gradientUnits="userSpaceOnUse">
<stop stop-color="#D7D9DB"/>
<stop offset="0.33" stop-color="#EFF1F3"/>
<stop offset="0.625" stop-color="#97999B"/>
<stop offset="1" stop-color="#5A5C5E"/>
</linearGradient>
<linearGradient id="paint26_linear_86_347" x1="830.804" y1="24.9204" x2="830.804" y2="32.2699" gradientUnits="userSpaceOnUse">
<stop stop-color="#D7D9DB"/>
<stop offset="0.33" stop-color="#EFF1F3"/>
<stop offset="0.625" stop-color="#97999B"/>
<stop offset="1" stop-color="#5A5C5E"/>
</linearGradient>
<linearGradient id="paint27_linear_86_347" x1="868.316" y1="24.9204" x2="868.316" y2="32.2699" gradientUnits="userSpaceOnUse">
<stop stop-color="#D7D9DB"/>
<stop offset="0.33" stop-color="#EFF1F3"/>
<stop offset="0.625" stop-color="#97999B"/>
<stop offset="1" stop-color="#5A5C5E"/>
</linearGradient>
<linearGradient id="paint28_linear_86_347" x1="1000.68" y1="0" x2="1000.68" y2="53.8409" gradientUnits="userSpaceOnUse">
<stop stop-color="#D7D9DB"/>
<stop offset="0.33" stop-color="#EFF1F3"/>
<stop offset="0.625" stop-color="#97999B"/>
<stop offset="1" stop-color="#5A5C5E"/>
</linearGradient>
<linearGradient id="paint29_linear_86_347" x1="931.137" y1="24.9204" x2="931.137" y2="32.2699" gradientUnits="userSpaceOnUse">
<stop stop-color="#D7D9DB"/>
<stop offset="0.33" stop-color="#EFF1F3"/>
<stop offset="0.625" stop-color="#97999B"/>
<stop offset="1" stop-color="#5A5C5E"/>
</linearGradient>
<linearGradient id="paint30_linear_86_347" x1="968.649" y1="24.9204" x2="968.649" y2="32.2699" gradientUnits="userSpaceOnUse">
<stop stop-color="#D7D9DB"/>
<stop offset="0.33" stop-color="#EFF1F3"/>
<stop offset="0.625" stop-color="#97999B"/>
<stop offset="1" stop-color="#5A5C5E"/>
</linearGradient>
<linearGradient id="paint31_linear_86_347" x1="1101.02" y1="0" x2="1101.02" y2="53.8409" gradientUnits="userSpaceOnUse">
<stop stop-color="#D7D9DB"/>
<stop offset="0.33" stop-color="#EFF1F3"/>
<stop offset="0.625" stop-color="#97999B"/>
<stop offset="1" stop-color="#5A5C5E"/>
</linearGradient>
<linearGradient id="paint32_linear_86_347" x1="1031.47" y1="24.9204" x2="1031.47" y2="32.2699" gradientUnits="userSpaceOnUse">
<stop stop-color="#D7D9DB"/>
<stop offset="0.33" stop-color="#EFF1F3"/>
<stop offset="0.625" stop-color="#97999B"/>
<stop offset="1" stop-color="#5A5C5E"/>
</linearGradient>
<linearGradient id="paint33_linear_86_347" x1="1068.98" y1="24.9204" x2="1068.98" y2="32.2699" gradientUnits="userSpaceOnUse">
<stop stop-color="#D7D9DB"/>
<stop offset="0.33" stop-color="#EFF1F3"/>
<stop offset="0.625" stop-color="#97999B"/>
<stop offset="1" stop-color="#5A5C5E"/>
</linearGradient>
<linearGradient id="paint34_linear_86_347" x1="1201.35" y1="0" x2="1201.35" y2="53.8409" gradientUnits="userSpaceOnUse">
<stop stop-color="#D7D9DB"/>
<stop offset="0.33" stop-color="#EFF1F3"/>
<stop offset="0.625" stop-color="#97999B"/>
<stop offset="1" stop-color="#5A5C5E"/>
</linearGradient>
<linearGradient id="paint35_linear_86_347" x1="1131.8" y1="24.9204" x2="1131.8" y2="32.2699" gradientUnits="userSpaceOnUse">
<stop stop-color="#D7D9DB"/>
<stop offset="0.33" stop-color="#EFF1F3"/>
<stop offset="0.625" stop-color="#97999B"/>
<stop offset="1" stop-color="#5A5C5E"/>
</linearGradient>
<linearGradient id="paint36_linear_86_347" x1="1169.32" y1="24.9204" x2="1169.32" y2="32.2699" gradientUnits="userSpaceOnUse">
<stop stop-color="#D7D9DB"/>
<stop offset="0.33" stop-color="#EFF1F3"/>
<stop offset="0.625" stop-color="#97999B"/>
<stop offset="1" stop-color="#5A5C5E"/>
</linearGradient>
<linearGradient id="paint37_linear_86_347" x1="1301.69" y1="0" x2="1301.69" y2="53.8409" gradientUnits="userSpaceOnUse">
<stop stop-color="#D7D9DB"/>
<stop offset="0.33" stop-color="#EFF1F3"/>
<stop offset="0.625" stop-color="#97999B"/>
<stop offset="1" stop-color="#5A5C5E"/>
</linearGradient>
<linearGradient id="paint38_linear_86_347" x1="1232.14" y1="24.9204" x2="1232.14" y2="32.2699" gradientUnits="userSpaceOnUse">
<stop stop-color="#D7D9DB"/>
<stop offset="0.33" stop-color="#EFF1F3"/>
<stop offset="0.625" stop-color="#97999B"/>
<stop offset="1" stop-color="#5A5C5E"/>
</linearGradient>
<linearGradient id="paint39_linear_86_347" x1="1269.65" y1="24.9204" x2="1269.65" y2="32.2699" gradientUnits="userSpaceOnUse">
<stop stop-color="#D7D9DB"/>
<stop offset="0.33" stop-color="#EFF1F3"/>
<stop offset="0.625" stop-color="#97999B"/>
<stop offset="1" stop-color="#5A5C5E"/>
</linearGradient>
<linearGradient id="paint40_linear_86_347" x1="1402.02" y1="0" x2="1402.02" y2="53.8409" gradientUnits="userSpaceOnUse">
<stop stop-color="#D7D9DB"/>
<stop offset="0.33" stop-color="#EFF1F3"/>
<stop offset="0.625" stop-color="#97999B"/>
<stop offset="1" stop-color="#5A5C5E"/>
</linearGradient>
<linearGradient id="paint41_linear_86_347" x1="1332.47" y1="24.9204" x2="1332.47" y2="32.2699" gradientUnits="userSpaceOnUse">
<stop stop-color="#D7D9DB"/>
<stop offset="0.33" stop-color="#EFF1F3"/>
<stop offset="0.625" stop-color="#97999B"/>
<stop offset="1" stop-color="#5A5C5E"/>
</linearGradient>
<linearGradient id="paint42_linear_86_347" x1="1369.98" y1="24.9204" x2="1369.98" y2="32.2699" gradientUnits="userSpaceOnUse">
<stop stop-color="#D7D9DB"/>
<stop offset="0.33" stop-color="#EFF1F3"/>
<stop offset="0.625" stop-color="#97999B"/>
<stop offset="1" stop-color="#5A5C5E"/>
</linearGradient>
<linearGradient id="paint43_linear_86_347" x1="1432.8" y1="24.9204" x2="1432.8" y2="32.2699" gradientUnits="userSpaceOnUse">
<stop stop-color="#D7D9DB"/>
<stop offset="0.33" stop-color="#EFF1F3"/>
<stop offset="0.625" stop-color="#97999B"/>
<stop offset="1" stop-color="#5A5C5E"/>
</linearGradient>
</defs>
</svg>
