<svg width="415" height="256" viewBox="0 0 415 256" fill="none" xmlns="http://www.w3.org/2000/svg">
<mask id="mask0_69_43" style="mask-type:alpha" maskUnits="userSpaceOnUse" x="0" y="0" width="414" height="256">
<rect width="414" height="256" fill="#D9D9D9"/>
</mask>
<g mask="url(#mask0_69_43)">
<path d="M414 241.5L234.488 249.947L139.948 243.292C123.055 242.103 106.392 238.704 90.3824 233.184L81.6147 230.161C74.5578 227.727 67.7773 224.556 61.3858 220.7L50.2141 213.959C33.277 203.741 21.0906 187.214 16.3339 168.014V168.014C13.1676 155.233 13.4399 141.841 17.1231 129.199L18.6241 124.048C22.0181 112.399 27.6229 101.512 35.1326 91.9817L39.6052 86.3058C50.2709 72.7705 64.8784 62.8834 81.4079 58.0116V58.0116C95.8637 53.7509 108.89 45.6416 119.093 34.5507L149.5 1.5003" stroke="#959595" stroke-width="5"/>
<circle cx="16" cy="133" r="7" fill="#AAAAAA"/>
<circle cx="16" cy="165" r="7" fill="#AAAAAA"/>
<circle cx="32" cy="199" r="7" fill="#AAAAAA"/>
<circle cx="67" cy="224" r="7" fill="#AAAAAA"/>
<circle cx="107" cy="239" r="7" fill="#AAAAAA"/>
</g>
</svg>
