<svg width="326" height="326" viewBox="0 0 326 326" fill="none" xmlns="http://www.w3.org/2000/svg">
<path d="M0.998586 266.001L43.1385 264.001L56.0962 262.027C103.251 254.845 147.113 233.512 181.876 200.851V200.851C217.103 167.753 241.292 124.617 251.157 77.2978L264.078 15.317C265.024 10.7794 266.336 6.32574 268 1.99955V1.99955" stroke="#959595" stroke-width="5"/>
<circle cx="19" cy="265" r="7" fill="#AAAAAA"/>
<circle cx="59" cy="261" r="7" fill="#AAAAAA"/>
<circle cx="95" cy="253" r="7" fill="#AAAAAA"/>
<circle cx="134" cy="236" r="7" fill="#AAAAAA"/>
<circle cx="168" cy="213" r="7" fill="#AAAAAA"/>
<circle cx="193" cy="191" r="7" fill="#AAAAAA"/>
<circle cx="216" cy="161" r="7" fill="#AAAAAA"/>
<circle cx="236" cy="125" r="7" fill="#AAAAAA"/>
<circle cx="248" cy="92" r="7" fill="#AAAAAA"/>
<circle cx="257" cy="52" r="7" fill="#AAAAAA"/>
<circle cx="263" cy="20" r="7" fill="#AAAAAA"/>
</svg>
