<svg width="417" height="360" viewBox="0 0 417 360" fill="none" xmlns="http://www.w3.org/2000/svg">
<mask id="mask0_69_110" style="mask-type:alpha" maskUnits="userSpaceOnUse" x="0" y="0" width="417" height="352">
<rect width="417" height="352" fill="#D9D9D9"/>
</mask>
<g mask="url(#mask0_69_110)">
<path d="M8.49957 231L9.99958 227L31.7824 169.694C49.2392 123.769 79.544 83.8382 119.079 54.6688L128.709 47.5635C150.858 31.2212 176.158 19.6534 203.008 13.5918L213.578 11.2058C244.516 4.22121 276.822 6.43335 306.52 17.57L312.693 19.8849C338.966 29.7374 361.704 47.2013 378.001 70.0439V70.0439C399.471 100.139 408.269 137.459 402.504 173.975L401.674 179.23C399.239 194.654 394.473 209.618 387.54 223.609L380.332 238.157C373.826 251.286 365.096 263.19 354.527 273.339V273.339C325.01 301.685 310.977 342.527 316.839 383.028L323.71 430.5L324.5 433.5" stroke="#959595" stroke-width="5"/>
<circle cx="47" cy="138" r="7" fill="#AAAAAA"/>
<circle cx="62" cy="113" r="7" fill="#AAAAAA"/>
<circle cx="82" cy="88" r="7" fill="#AAAAAA"/>
<circle cx="104" cy="67" r="7" fill="#AAAAAA"/>
<circle cx="131" cy="46" r="7" fill="#AAAAAA"/>
<circle cx="162" cy="28" r="7" fill="#AAAAAA"/>
<circle cx="201" cy="14" r="7" fill="#AAAAAA"/>
<circle cx="236" cy="7" r="7" fill="#AAAAAA"/>
<circle cx="271" cy="9" r="7" fill="#AAAAAA"/>
<circle cx="306" cy="18" r="7" fill="#AAAAAA"/>
<circle cx="342" cy="35" r="7" fill="#AAAAAA"/>
<circle cx="370" cy="60" r="7" fill="#AAAAAA"/>
<circle cx="392" cy="95" r="7" fill="#AAAAAA"/>
<circle cx="402" cy="127" r="7" fill="#AAAAAA"/>
<circle cx="402" cy="178" r="7" fill="#AAAAAA"/>
<circle cx="392" cy="215" r="7" fill="#AAAAAA"/>
<circle cx="373" cy="252" r="7" fill="#AAAAAA"/>
<circle cx="341" cy="289" r="7" fill="#AAAAAA"/>
<circle cx="320" cy="329" r="7" fill="#AAAAAA"/>
</g>
</svg>
