<svg width="13" height="14" viewBox="0 0 13 14" fill="none" xmlns="http://www.w3.org/2000/svg">
<path d="M11.5 1.25H10.25V1C10.25 0.801088 10.171 0.610322 10.0303 0.46967C9.88968 0.329018 9.69891 0.25 9.5 0.25C9.30109 0.25 9.11032 0.329018 8.96967 0.46967C8.82902 0.610322 8.75 0.801088 8.75 1V1.25H4.25V1C4.25 0.801088 4.17098 0.610322 4.03033 0.46967C3.88968 0.329018 3.69891 0.25 3.5 0.25C3.30109 0.25 3.11032 0.329018 2.96967 0.46967C2.82902 0.610322 2.75 0.801088 2.75 1V1.25H1.5C1.16848 1.25 0.850537 1.3817 0.616117 1.61612C0.381696 1.85054 0.25 2.16848 0.25 2.5V12.5C0.25 12.8315 0.381696 13.1495 0.616117 13.3839C0.850537 13.6183 1.16848 13.75 1.5 13.75H11.5C11.8315 13.75 12.1495 13.6183 12.3839 13.3839C12.6183 13.1495 12.75 12.8315 12.75 12.5V2.5C12.75 2.16848 12.6183 1.85054 12.3839 1.61612C12.1495 1.3817 11.8315 1.25 11.5 1.25ZM2.75 2.75C2.75 2.94891 2.82902 3.13968 2.96967 3.28033C3.11032 3.42098 3.30109 3.5 3.5 3.5C3.69891 3.5 3.88968 3.42098 4.03033 3.28033C4.17098 3.13968 4.25 2.94891 4.25 2.75H8.75C8.75 2.94891 8.82902 3.13968 8.96967 3.28033C9.11032 3.42098 9.30109 3.5 9.5 3.5C9.69891 3.5 9.88968 3.42098 10.0303 3.28033C10.171 3.13968 10.25 2.94891 10.25 2.75H11.25V4.25H1.75V2.75H2.75ZM1.75 12.25V5.75H11.25V12.25H1.75Z" fill="#9B9CA1"/>
</svg>
