<svg width="15" height="21" viewBox="0 0 15 21" fill="none" xmlns="http://www.w3.org/2000/svg">
<path d="M14.0046 5.24882C14.0046 5.29941 14.0032 5.34968 14.0004 5.39984C13.9979 5.44604 13.9943 5.49191 13.9892 5.53768C13.9399 5.6841 13.772 5.82387 13.5042 5.95345C12.5258 6.427 10.2158 6.76356 7.50228 6.77824C4.04631 6.75959 1.2447 6.21874 1.01533 5.53768C1.0104 5.49191 1.00665 5.44604 1.00429 5.39984C1.00139 5.34968 1 5.29941 1 5.24882C1 3.65744 1.5878 2.03359 4.34889 1.34331C4.6772 1.26121 5.03627 1.1924 5.42868 1.13838C5.65387 1.1074 5.89011 1.08125 6.13781 1.06024C6.25046 1.05081 6.36537 1.04234 6.48284 1.03494C6.73858 1.01897 7.0059 1.00815 7.28523 1.00289C7.35683 1.00161 7.42918 1.00064 7.50228 1C7.73873 1.00204 7.96682 1.00782 8.18687 1.01736C8.30724 1.02251 8.42525 1.02883 8.5409 1.03623C8.79943 1.05263 9.04617 1.07449 9.28155 1.1014C9.28166 1.1014 9.28177 1.1014 9.28198 1.1015C9.39185 1.11394 9.49914 1.12755 9.60407 1.14223C9.60407 1.14223 9.60418 1.14223 9.60429 1.14223C9.67331 1.15199 9.74116 1.16206 9.80805 1.17257V1.17268C9.80805 1.17268 9.80826 1.17268 9.80869 1.17278C13.2999 1.72479 14.0046 3.50631 14.0046 5.24882Z" fill="#698718"/>
<path opacity="0.61" d="M8.70279 4.69874C8.70279 4.69874 9.35857 2.37154 8.18701 1.01758C8.30738 1.02272 8.42539 1.02905 8.54104 1.03644C8.97279 1.30526 10.1111 2.2218 10.1236 4.41878C10.1391 7.13056 8.70279 4.69874 8.70279 4.69874Z" fill="#97B52A"/>
<path opacity="0.61" d="M7.50204 1V4.24964L5.99063 5.06167C5.99063 5.06167 5.59404 2.83222 7.28499 1.00289C7.35659 1.00161 7.42894 1.00064 7.50204 1Z" fill="#97B52A"/>
<path opacity="0.61" d="M4.88122 4.43973C4.88701 7.15151 3.54719 4.95421 3.54719 4.95421C3.54719 4.95421 2.90408 2.29602 6.13796 1.05996C6.25061 1.05053 6.36552 1.04206 6.48299 1.03467C6.0639 1.28891 4.8765 2.20642 4.88122 4.43973Z" fill="#97B52A"/>
<path opacity="0.61" d="M2.53944 5.0191L1.48395 5.36959C1.48395 5.36959 1.09244 2.46809 4.34884 1.34361C4.67714 1.26151 5.03621 1.19269 5.42862 1.13867C4.7496 1.34093 2.18563 2.2907 2.53944 5.0191Z" fill="#97B52A"/>
<path opacity="0.61" d="M12.5182 4.66868L11.1355 4.75089C11.65 1.93193 9.32536 1.11625 9.28174 1.10156C9.3916 1.114 9.49889 1.12761 9.60383 1.14229C9.60383 1.14229 9.60394 1.14229 9.60404 1.14229C10.2096 1.34166 11.109 1.73224 11.699 2.4164C12.6591 3.52973 12.5182 4.66868 12.5182 4.66868Z" fill="#97B52A"/>
<path opacity="0.61" d="M14.0046 5.24899C14.0046 5.29959 14.0032 5.34986 14.0004 5.40002C13.998 5.44622 13.9943 5.49209 13.9893 5.53786C13.94 5.68427 13.772 5.82404 13.5043 5.95363C13.5045 5.77227 12.9786 5.52353 13.0223 5.27622C13.6547 1.69624 9.80811 1.17285 9.80811 1.17285C13.2999 1.72475 14.0046 3.50638 14.0046 5.24899Z" fill="#97B52A"/>
<path d="M2.48619 4.69891C2.48619 4.69891 2.23206 2.08659 5.44321 1.13672" stroke="white" stroke-width="0.5" stroke-miterlimit="10"/>
<path d="M4.88139 4.37295C4.88139 4.37295 4.8025 1.95271 6.56495 1.03027" stroke="white" stroke-width="0.5" stroke-miterlimit="10"/>
<path d="M9.56152 1.13672C12.7724 2.0867 12.5183 4.69891 12.5183 4.69891" stroke="white" stroke-width="0.5" stroke-miterlimit="10"/>
<path d="M8.43896 1.03027C10.2014 1.95271 10.1225 4.37295 10.1225 4.37295" stroke="white" stroke-width="0.5" stroke-miterlimit="10"/>
<path d="M7.50195 4.11538V1.01172" stroke="white" stroke-width="0.5" stroke-miterlimit="10"/>
<path d="M14.0046 5.44728C14.0046 5.47783 13.9996 5.50795 13.9897 5.53785C13.8354 6.00872 12.4857 6.41259 10.5567 6.62321C9.64609 6.72257 8.60629 6.77895 7.50228 6.77895C4.05971 6.77895 1.24192 6.23102 1.0149 5.53785C1.00504 5.50795 1 5.47783 1 5.44728C1 5.43142 1.00139 5.41577 1.00418 5.40001C1.097 4.85562 2.78613 4.39419 5.1426 4.20608H5.14324C5.17497 4.20351 5.2067 4.20104 5.23864 4.19868C5.28451 4.19515 5.33071 4.19172 5.37712 4.1885C5.40445 4.18646 5.43178 4.18464 5.45922 4.18282C5.48388 4.18111 5.50874 4.1795 5.5335 4.17789C5.55162 4.17671 5.56962 4.17553 5.58774 4.17435C5.64444 4.17082 5.70146 4.16739 5.75881 4.16417C5.78378 4.16267 5.80875 4.16138 5.83384 4.15988C5.96085 4.15313 6.08936 4.14691 6.21927 4.14166C6.24521 4.14059 6.27115 4.13952 6.2972 4.13855C6.32324 4.13759 6.34929 4.13662 6.37544 4.13566C6.40159 4.13469 6.42786 4.13384 6.45401 4.13298C6.48027 4.13212 6.50664 4.13126 6.533 4.13041C6.55208 4.12987 6.57105 4.12923 6.59013 4.12869C6.61114 4.12816 6.63215 4.12751 6.65316 4.12698C6.66602 4.12666 6.67888 4.12633 6.69175 4.12601C6.71822 4.12526 6.74491 4.12462 6.77149 4.12408C6.78414 4.12376 6.79668 4.12344 6.80933 4.12323C6.83259 4.12269 6.85595 4.12226 6.87932 4.12172C6.89743 4.1214 6.91565 4.12108 6.93388 4.12076C6.96003 4.12022 6.9864 4.1198 7.01266 4.11947C7.03088 4.11915 7.04899 4.11894 7.06721 4.11872C7.08308 4.1184 7.09905 4.11819 7.11491 4.11808C7.14053 4.11776 7.16615 4.11744 7.19187 4.11722C7.24053 4.11679 7.2892 4.11637 7.33807 4.11615C7.36197 4.11604 7.38588 4.11594 7.40989 4.11583C7.44065 4.11572 7.47141 4.11572 7.50228 4.11572C11.016 4.11572 13.8788 4.68659 14.0005 5.40001C14.0032 5.41577 14.0046 5.43142 14.0046 5.44728Z" fill="url(#paint0_linear_655_3759)"/>
<path d="M13.9895 5.53737C13.8352 6.00823 12.4856 6.4121 10.5566 6.62272C12.2072 4.5607 7.94874 4.14675 5.14307 4.20559C5.17479 4.20302 5.20652 4.20055 5.23846 4.1982C5.28434 4.19466 5.33053 4.19123 5.37694 4.18801C5.40428 4.18598 5.43161 4.18415 5.45905 4.18233C5.4837 4.18062 5.50857 4.17901 5.53333 4.1774C5.55144 4.17622 5.56945 4.17504 5.58756 4.17386C5.64426 4.17033 5.70129 4.1669 5.75863 4.16368C5.78361 4.16218 5.80858 4.1609 5.83366 4.15939C5.96068 4.15264 6.08919 4.14643 6.2191 4.14117C6.24504 4.1401 6.27098 4.13903 6.29702 4.13806C6.32307 4.1371 6.34911 4.13614 6.37527 4.13517C6.40142 4.13421 6.42768 4.13335 6.45383 4.13249C6.48009 4.13163 6.50646 4.13078 6.53283 4.12992C6.55191 4.12938 6.57088 4.12874 6.58996 4.1282C6.61097 4.12767 6.63198 4.12702 6.65298 4.12649C6.66585 4.12617 6.67871 4.12585 6.69157 4.12552C6.71805 4.12477 6.74473 4.12413 6.77132 4.12359C6.78396 4.12327 6.7965 4.12295 6.80915 4.12274C6.83241 4.1222 6.85578 4.12177 6.87914 4.12124C6.89726 4.12092 6.91548 4.12059 6.9337 4.12027C6.95985 4.11974 6.98622 4.11931 7.01248 4.11899C7.0307 4.11866 7.04882 4.11845 7.06704 4.11824C7.0829 4.11791 7.09887 4.1177 7.11474 4.11759C7.14035 4.11727 7.16597 4.11695 7.1917 4.11673C7.24036 4.11631 7.28902 4.11588 7.3379 4.11566C7.3618 4.11556 7.3857 4.11545 7.40971 4.11534C7.44047 4.11523 7.47124 4.11523 7.5021 4.11523C11.0158 4.11523 13.8787 4.6861 14.0003 5.39953C14.003 5.41528 14.0044 5.43093 14.0044 5.4468C14.0044 5.47734 13.9806 5.50714 13.9895 5.53737Z" fill="#485908"/>
<path opacity="0.64" d="M14.0046 5.44728C14.0046 5.47783 13.9996 5.50795 13.9897 5.53785C13.9028 5.80282 13.4375 6.04656 12.7035 6.24656C11.5172 6.56983 9.62894 6.77895 7.50228 6.77895C4.05971 6.77895 1.24192 6.23102 1.0149 5.53785C1.00504 5.50795 1 5.47783 1 5.44728C1 5.43142 1.00139 5.41577 1.00418 5.40001C1.097 4.85562 2.78613 4.39419 5.1426 4.20608C5.87414 4.14777 6.66999 4.11572 7.50228 4.11572C11.016 4.11572 13.8788 4.68659 14.0005 5.40001C14.0032 5.41577 14.0046 5.43142 14.0046 5.44728Z" fill="#485908"/>
<path d="M1.01465 5.53809L6.36904 14.527" stroke="#49443C" stroke-width="0.5" stroke-miterlimit="10"/>
<path d="M2.62744 4.57031L6.67186 14.5275" stroke="#49443C" stroke-width="0.5" stroke-miterlimit="10"/>
<path d="M4.40674 4.27637L6.95517 14.5272" stroke="#49443C" stroke-width="0.5" stroke-miterlimit="10"/>
<path d="M6.14697 4.15625L7.23686 14.5272" stroke="#49443C" stroke-width="0.5" stroke-miterlimit="10"/>
<path d="M13.9896 5.53809L8.63525 14.527" stroke="#49443C" stroke-width="0.5" stroke-miterlimit="10"/>
<path d="M12.3764 4.56982L8.33203 14.527" stroke="#49443C" stroke-width="0.5" stroke-miterlimit="10"/>
<path d="M10.5973 4.27637L8.04883 14.5272" stroke="#49443C" stroke-width="0.5" stroke-miterlimit="10"/>
<path d="M8.85698 4.15625L7.76709 14.5272" stroke="#49443C" stroke-width="0.5" stroke-miterlimit="10"/>
<path d="M7.50244 4.11572V14.5268" stroke="#49443C" stroke-width="0.5" stroke-miterlimit="10"/>
<path d="M4.31852 16.263L4.02912 16.681L3.729 16.2951L3.91317 15.8777L4.46858 15.7271L4.31852 16.263Z" fill="black"/>
<path d="M4.31852 15.8986C4.31852 15.8986 3.85406 16.0344 3.729 16.2952L4.31852 14.4194V15.8986Z" fill="black"/>
<path d="M10.6857 16.263L10.9751 16.681L11.2752 16.2951L11.0911 15.8777L10.5356 15.7271L10.6857 16.263Z" fill="black"/>
<path d="M10.6856 14.4194H4.31885V20.7862H10.6856V14.4194Z" fill="#FFCA11"/>
<path d="M5.41734 14.4194H4.91357L4.91357 20.186H5.41734L5.41734 14.4194Z" fill="#CBA007"/>
<path d="M6.5858 14.4199H6.08203V20.1865H6.5858V14.4199Z" fill="#CBA007"/>
<path d="M7.75377 14.4194H7.25V20.186H7.75377V14.4194Z" fill="#CBA007"/>
<path d="M8.92223 14.4199H8.41846V20.1865H8.92223V14.4199Z" fill="#CBA007"/>
<path d="M10.0907 14.4194H9.58691V20.186H10.0907V14.4194Z" fill="#CBA007"/>
<path d="M10.0857 20.0894H4.90869V20.1858H10.0857V20.0894Z" fill="#806509"/>
<path d="M5.00488 20.1648V14.9878H4.90842V20.1648H5.00488Z" fill="#806509"/>
<path d="M10.0854 20.1648V14.9878H9.98898V20.1648H10.0854Z" fill="#806509"/>
<path d="M4.92969 20.2504C4.92969 20.2357 4.94175 20.2236 4.95648 20.2236H10.0246C10.0393 20.2236 10.0513 20.2357 10.0513 20.2504C10.0513 20.2652 10.0393 20.2772 10.0246 20.2772H4.95648C4.94175 20.2772 4.92969 20.2652 4.92969 20.2504Z" fill="#FFC700"/>
<path d="M10.6856 14.4194H4.31885V15.8986H10.6856V14.4194Z" fill="#A98509"/>
<path d="M10.6856 15.8984H4.31885V16.0592H10.6856V15.8984Z" fill="#806509"/>
<path opacity="0.68" d="M4.59737 14.5806H5.64071C5.71174 14.5806 5.76934 14.6381 5.76934 14.7092C5.76934 14.7802 5.71174 14.8378 5.64071 14.8378H4.60138C4.53081 14.8378 4.46894 14.7801 4.46875 14.7096C4.46865 14.674 4.48313 14.6417 4.50648 14.6183C4.52985 14.595 4.562 14.5806 4.59737 14.5806Z" fill="#FFC700"/>
<path opacity="0.68" d="M6.45919 14.5806H8.54565C8.61669 14.5806 8.67428 14.6381 8.67428 14.7092C8.67428 14.7802 8.61669 14.8378 8.54565 14.8378H6.45919C6.38816 14.8378 6.33057 14.7802 6.33057 14.7092C6.33057 14.6381 6.38816 14.5806 6.45919 14.5806Z" fill="#FFC700"/>
<path opacity="0.68" d="M10.5354 14.7088C10.5355 14.7443 10.5211 14.7766 10.4977 14.8001C10.4744 14.8233 10.4422 14.8378 10.4068 14.8378H9.36349C9.29245 14.8378 9.23486 14.7802 9.23486 14.7092C9.23486 14.6382 9.29245 14.5806 9.36349 14.5806H10.4028C10.4734 14.5806 10.5352 14.6382 10.5354 14.7088Z" fill="#FFC700"/>
<path opacity="0.28" d="M14.0046 5.24882C14.0046 5.29941 14.0032 5.34968 14.0004 5.39984C13.9979 5.44604 13.9943 5.49191 13.9892 5.53768C13.9399 5.6841 13.772 5.82387 13.5042 5.95345C12.5258 6.427 10.2158 6.76356 7.50228 6.77824C4.04631 6.75959 1.2447 6.21874 1.01533 5.53768C1.0104 5.49191 1.00665 5.44604 1.00429 5.39984C1.00139 5.34968 1 5.29941 1 5.24882C1 3.65744 1.5878 2.03359 4.34889 1.34331C4.6772 1.26121 5.03627 1.1924 5.42868 1.13838C5.65387 1.1074 5.89011 1.08125 6.13781 1.06024C6.25046 1.05081 6.36537 1.04234 6.48284 1.03494C6.73858 1.01897 7.0059 1.00815 7.28523 1.00289C7.35683 1.00161 7.42918 1.00064 7.50228 1C7.73873 1.00204 7.96682 1.00782 8.18687 1.01736C8.30724 1.02251 8.42525 1.02883 8.5409 1.03623C8.79943 1.05263 9.04617 1.07449 9.28155 1.1014C9.28166 1.1014 9.28177 1.1014 9.28198 1.1015C9.39185 1.11394 9.49914 1.12755 9.60407 1.14223C9.60407 1.14223 9.60418 1.14223 9.60429 1.14223C9.67331 1.15199 9.74116 1.16206 9.80805 1.17257V1.17268C9.80805 1.17268 9.80826 1.17268 9.80869 1.17278C13.2999 1.72479 14.0046 3.50631 14.0046 5.24882Z" fill="#343F0B"/>
<path d="M6.23023 14.3652H5.86963V20.8392H6.23023V14.3652Z" fill="#2D3530"/>
<path d="M9.13874 14.3652H8.771V20.8392H9.13874V14.3652Z" fill="#2D3530"/>
<path d="M6.15696 16.7825C6.16256 16.7825 6.16768 16.7876 6.16768 16.7932V16.8468C6.16768 16.8524 6.16256 16.8575 6.15696 16.8575H5.94259C5.93698 16.8575 5.93187 16.8524 5.93187 16.8468V16.7932C5.93187 16.7876 5.93698 16.7825 5.94259 16.7825H6.15696ZM6.15696 16.6646H5.94259C5.87184 16.6646 5.81396 16.7224 5.81396 16.7932V16.8468C5.81396 16.9175 5.87184 16.9754 5.94259 16.9754H6.15696C6.2277 16.9754 6.28558 16.9175 6.28558 16.8468V16.7932C6.28558 16.7224 6.2277 16.6646 6.15696 16.6646Z" fill="#1C211E"/>
<path d="M9.06174 16.7883C9.06735 16.7883 9.07246 16.7934 9.07246 16.799V16.8526C9.07246 16.8582 9.06735 16.8633 9.06174 16.8633H8.84737C8.84177 16.8633 8.83665 16.8582 8.83665 16.8526V16.799C8.83665 16.7934 8.84177 16.7883 8.84737 16.7883H9.06174ZM9.06174 16.6704H8.84737C8.77663 16.6704 8.71875 16.7283 8.71875 16.799V16.8526C8.71875 16.9234 8.77663 16.9812 8.84737 16.9812H9.06174C9.13248 16.9812 9.19036 16.9234 9.19036 16.8526V16.799C9.19036 16.7283 9.13248 16.6704 9.06174 16.6704Z" fill="#1C211E"/>
<path d="M10.6855 15.8986C10.6855 15.8986 11.15 16.0344 11.2751 16.2952L10.6855 14.4194V15.8986Z" fill="black"/>
<path d="M5.28711 20.7863V20.186" stroke="#806509" stroke-width="0.5" stroke-miterlimit="10"/>
<path d="M9.71729 20.7863V20.186" stroke="#806509" stroke-width="0.5" stroke-miterlimit="10"/>
<path d="M7.16986 19.95C7.15512 19.95 7.14307 19.938 7.14307 19.9232V16.1396C7.14307 16.1249 7.15512 16.1128 7.16986 16.1128C7.1846 16.1128 7.19666 16.1249 7.19666 16.1396V19.9232C7.19666 19.938 7.1846 19.95 7.16986 19.95Z" fill="#FFC700"/>
<path d="M8.35248 19.95C8.33774 19.95 8.32568 19.938 8.32568 19.9232V16.1396C8.32568 16.1249 8.33774 16.1128 8.35248 16.1128C8.36722 16.1128 8.37928 16.1249 8.37928 16.1396V19.9232C8.37928 19.938 8.36722 19.95 8.35248 19.95Z" fill="#FFC700"/>
<path d="M9.52045 19.95C9.50571 19.95 9.49365 19.938 9.49365 19.9232V16.1396C9.49365 16.1249 9.50571 16.1128 9.52045 16.1128C9.53519 16.1128 9.54724 16.1249 9.54724 16.1396V19.9232C9.54724 19.938 9.53519 19.95 9.52045 19.95Z" fill="#FFC700"/>
<path d="M4.85102 19.95C4.83628 19.95 4.82422 19.938 4.82422 19.9232V16.1396C4.82422 16.1249 4.83628 16.1128 4.85102 16.1128C4.86575 16.1128 4.87781 16.1249 4.87781 16.1396V19.9232C4.87781 19.938 4.86575 19.95 4.85102 19.95Z" fill="#FFC700"/>
<path d="M10.6103 19.95C10.5956 19.95 10.5835 19.938 10.5835 19.9232V16.1396C10.5835 16.1249 10.5956 16.1128 10.6103 16.1128C10.625 16.1128 10.6371 16.1249 10.6371 16.1396V19.9232C10.6371 19.938 10.625 19.95 10.6103 19.95Z" fill="#FFC700"/>
<path d="M4.91908 19.854H4.31885" stroke="#806509" stroke-width="0.5" stroke-miterlimit="10"/>
<path d="M10.0854 19.8535H10.6857" stroke="#806509" stroke-width="0.5" stroke-miterlimit="10"/>
<defs>
<linearGradient id="paint0_linear_655_3759" x1="7.50228" y1="4.11572" x2="7.50228" y2="6.77895" gradientUnits="userSpaceOnUse">
<stop stop-color="#536200"/>
<stop offset="1" stop-color="#45AA00"/>
</linearGradient>
</defs>
</svg>
