<svg width="322" height="181" viewBox="0 0 322 181" fill="none" xmlns="http://www.w3.org/2000/svg">
<mask id="mask0_74_3569" style="mask-type:alpha" maskUnits="userSpaceOnUse" x="0" y="0" width="321" height="180">
<rect width="321" height="180" fill="#D9D9D9"/>
</mask>
<g mask="url(#mask0_74_3569)">
<path d="M286.776 69.6823C277.138 69.6527 269.3 77.4417 269.269 87.0785C269.24 96.7156 277.029 104.554 286.666 104.585C296.303 104.614 304.141 96.8251 304.172 87.1884C304.203 77.5506 296.412 69.7129 286.776 69.6823ZM286.688 97.6795C280.868 97.6615 276.166 92.9208 276.184 87.1016C276.202 81.2815 280.935 76.5709 286.754 76.5899C292.582 76.6079 297.285 81.3479 297.267 87.168C297.247 92.9866 292.516 97.6975 286.688 97.6795Z" fill="#A6A6A6"/>
<path d="M293.767 74.25C284.13 74.2194 276.292 82.0095 276.261 91.6462C276.231 101.283 284.02 109.122 293.657 109.152C303.294 109.182 311.133 101.393 311.162 91.7558C311.194 82.1183 303.404 74.2797 293.767 74.25ZM293.679 102.246C287.859 102.228 283.157 97.4872 283.175 91.6681C283.193 85.848 287.925 81.1374 293.745 81.1564C299.573 81.1744 304.276 85.9144 304.258 91.7345C304.239 97.5534 299.507 102.264 293.679 102.246Z" fill="#666666"/>
<path d="M287.804 1.08598L34.6341 0.294672C16.0813 0.237114 0.99652 15.2273 0.937723 33.7808L0.589842 144.974C0.532284 163.527 15.5225 178.604 34.0754 178.662L287.245 179.453C305.79 179.512 320.875 164.528 320.933 145.975L321.282 34.7821C321.34 16.2286 306.349 1.14446 287.804 1.08598ZM302.112 90.3193C302.093 96.2787 297.244 101.098 291.278 101.079C290.393 101.077 289.525 100.966 288.702 100.76C283.98 99.5894 280.494 95.3267 280.51 90.2517C280.529 84.285 285.378 79.4655 291.344 79.4845C293.804 79.4926 296.075 80.3216 297.887 81.7242C300.465 83.6955 302.123 86.8116 302.112 90.3193Z" fill="#858585"/>
<g filter="url(#filter0_d_74_3569)">
<path d="M288.515 11.8198C286.398 11.3242 284.196 11.0619 281.945 11.0543L62.8392 10.3693C45.4115 10.3144 31.2413 25.6189 31.1822 44.5598L30.8925 137.209C30.8501 150.874 38.1761 162.699 48.8056 168.241C52.0207 169.911 55.5401 171.016 59.2482 171.416C60.2646 171.528 61.2965 171.586 62.3362 171.588L281.441 172.273C298.869 172.328 313.047 157.024 313.106 138.09L313.396 45.4412C313.447 28.9529 302.775 15.1464 288.515 11.8198ZM302.112 90.3192C302.093 96.2786 297.244 101.098 291.278 101.079C290.393 101.077 289.525 100.965 288.702 100.76C283.98 99.5893 280.494 95.3266 280.51 90.2516C280.529 84.2849 285.378 79.4654 291.344 79.4844C293.804 79.4925 296.075 80.3214 297.887 81.724C300.465 83.6954 302.123 86.8114 302.112 90.3192Z" fill="#A6A6A6"/>
</g>
<path d="M304.313 41.8289C304.32 56.7814 302.051 70.0127 297.887 81.7244C296.076 80.3221 293.804 79.4919 291.344 79.4848C285.377 79.4658 280.528 84.285 280.51 90.2519C280.494 95.3269 283.98 99.5897 288.702 100.761C260.027 146.646 196.239 162.875 134.905 168.51C133.966 168.592 133.027 168.683 132.088 168.757C106.35 170.989 81.138 171.406 59.2482 171.416C51.0926 171.414 43.4033 171.359 36.3109 171.322C20.2958 171.241 7.36023 156.193 7.41875 137.64L7.72167 40.6466C7.77923 22.0938 20.808 7.09646 36.8238 7.14637L275.412 8.14819C280.137 8.16296 284.587 9.488 288.515 11.8211C289.653 12.4923 290.744 13.2557 291.79 14.0976C292.037 14.2925 292.285 14.5023 292.532 14.7128C299.683 20.8405 304.309 30.7093 304.313 41.8289Z" fill="#4D4D4D"/>
<path d="M291.791 14.0952C287.94 12.3146 283.69 11.2375 279.214 11.0452C278.755 11.02 278.291 11.0107 277.825 11.0096L44.5432 10.2812C25.9904 10.2237 10.9056 25.2139 10.8471 43.7591L10.5629 134.53C10.5053 153.083 25.4956 168.167 44.0491 168.226L277.331 168.955C295.596 169.013 310.494 154.487 311.017 136.339C311.025 136.137 311.026 135.928 311.026 135.726L311.311 44.6997C311.354 31.1345 303.351 19.4239 291.791 14.0952ZM291.278 101.079C290.393 101.077 289.525 100.965 288.702 100.76C283.98 99.5892 280.494 95.3265 280.51 90.2515C280.529 84.2848 285.378 79.4653 291.344 79.4843C293.804 79.4924 296.075 80.3213 297.887 81.7239C300.465 83.6952 302.123 86.8123 302.112 90.3191C302.094 96.2788 297.245 101.097 291.278 101.079Z" fill="#666666"/>
<path d="M292.533 14.7108C291.402 14.1482 290.239 13.6564 289.046 13.2257C236.628 13.8216 112.812 12.6746 70.0233 48.2896C30.6807 81.0283 30.9658 161.078 113.156 168.442C114.28 168.547 115.421 168.635 116.577 168.708L277.33 169.211C295.681 169.268 310.634 154.603 311.017 136.338C311.025 136.137 311.026 135.928 311.026 135.726L311.31 44.9549C311.351 31.6863 303.69 20.1929 292.533 14.7108ZM291.345 79.484C293.805 79.4921 296.076 80.3211 297.888 81.7236C300.466 83.695 302.124 86.812 302.113 90.3188C302.094 96.2782 297.245 101.098 291.279 101.079C290.394 101.076 289.526 100.965 288.703 100.76C283.981 99.5889 280.495 95.3262 280.511 90.2512C280.528 84.2852 285.378 79.466 291.345 79.484Z" fill="#757575"/>
</g>
<defs>
<filter id="filter0_d_74_3569" x="26.8926" y="10.3691" width="290.503" height="169.904" filterUnits="userSpaceOnUse" color-interpolation-filters="sRGB">
<feFlood flood-opacity="0" result="BackgroundImageFix"/>
<feColorMatrix in="SourceAlpha" type="matrix" values="0 0 0 0 0 0 0 0 0 0 0 0 0 0 0 0 0 0 127 0" result="hardAlpha"/>
<feOffset dy="4"/>
<feGaussianBlur stdDeviation="2"/>
<feComposite in2="hardAlpha" operator="out"/>
<feColorMatrix type="matrix" values="0 0 0 0 0 0 0 0 0 0 0 0 0 0 0 0 0 0 0.25 0"/>
<feBlend mode="normal" in2="BackgroundImageFix" result="effect1_dropShadow_74_3569"/>
<feBlend mode="normal" in="SourceGraphic" in2="effect1_dropShadow_74_3569" result="shape"/>
</filter>
</defs>
</svg>
