<svg width="322" height="179" viewBox="0 0 322 179" fill="none" xmlns="http://www.w3.org/2000/svg">
<mask id="mask0_74_3598" style="mask-type:alpha" maskUnits="userSpaceOnUse" x="0" y="0" width="322" height="179">
<rect width="322" height="179" fill="#D9D9D9"/>
</mask>
<g mask="url(#mask0_74_3598)">
<path d="M286.492 69.4387C276.855 69.409 269.016 77.1981 268.986 86.8349C268.956 96.4719 276.745 104.31 286.382 104.341C296.019 104.371 303.857 96.5815 303.888 86.9447C303.919 77.307 296.129 69.4693 286.492 69.4387ZM286.405 97.4358C280.584 97.4178 275.882 92.6771 275.9 86.858C275.918 81.0379 280.651 76.3273 286.471 76.3462C292.298 76.3642 297.001 81.1043 296.983 86.9244C296.964 92.7429 292.232 97.4538 286.405 97.4358Z" fill="#A6A6A6"/>
<path d="M293.483 74.0064C283.847 73.9758 276.008 81.7658 275.977 91.4026C275.948 101.04 283.737 108.878 293.374 108.909C303.011 108.938 310.849 101.149 310.879 91.5121C310.911 81.8747 303.12 74.036 293.483 74.0064ZM293.395 102.002C287.575 101.984 282.873 97.2436 282.891 91.4245C282.909 85.6044 287.642 80.8938 293.462 80.9127C299.289 80.9307 303.992 85.6708 303.974 91.4909C303.956 97.3097 299.224 102.021 293.395 102.002Z" fill="#666666"/>
<path d="M287.52 0.842327L34.3504 0.0510199C15.7976 -0.00653789 0.712829 14.9837 0.654032 33.5372L0.306151 144.731C0.248593 163.283 15.2389 178.361 33.7917 178.418L286.961 179.21C305.507 179.268 320.592 164.284 320.649 145.731L320.998 34.5384C321.057 15.9849 306.065 0.900808 287.52 0.842327ZM301.829 90.0757C301.81 96.0351 296.961 100.855 290.994 100.836C290.109 100.833 289.241 100.722 288.418 100.517C283.697 99.3458 280.21 95.0831 280.226 90.008C280.245 84.0414 285.094 79.2219 291.06 79.2409C293.52 79.249 295.791 80.0779 297.603 81.4805C300.181 83.4518 301.84 86.5679 301.829 90.0757Z" fill="#858585"/>
<path d="M288.231 11.5761C286.114 11.0805 283.912 10.8183 281.661 10.8107L62.5555 10.1257C45.1278 10.0708 30.9576 25.3753 30.8985 44.3161L30.6088 136.965C30.5665 150.63 37.8925 162.455 48.5219 167.997C51.737 169.668 55.2564 170.773 58.9645 171.172C59.9809 171.284 61.0129 171.342 62.0525 171.345L281.157 172.029C298.585 172.084 312.763 156.78 312.823 137.847L313.112 45.1976C313.163 28.7093 302.491 14.9027 288.231 11.5761ZM301.829 90.0756C301.81 96.0349 296.961 100.854 290.994 100.835C290.11 100.833 289.241 100.722 288.419 100.517C283.697 99.3457 280.21 95.083 280.226 90.0079C280.245 84.0413 285.094 79.2218 291.061 79.2408C293.52 79.2488 295.791 80.0778 297.603 81.4804C300.181 83.4517 301.84 86.5678 301.829 90.0756Z" fill="#A6A6A6"/>
<path d="M304.029 41.5853C304.037 56.5377 301.768 69.769 297.603 81.4807C295.792 80.0784 293.521 79.2482 291.06 79.2411C285.094 79.2221 280.244 84.0413 280.226 90.0082C280.21 95.0833 283.697 99.346 288.418 100.517C259.743 146.403 195.955 162.631 134.621 168.266C133.682 168.349 132.743 168.439 131.804 168.513C106.067 170.745 80.8543 171.163 58.9645 171.173C50.8089 171.17 43.1196 171.115 36.0272 171.078C20.0121 170.997 7.07654 155.949 7.13506 137.397L7.43798 40.403C7.49554 21.8501 20.5243 6.85281 36.5401 6.90272L275.128 7.90454C279.854 7.9193 284.304 9.24435 288.231 11.5774C289.37 12.2486 290.461 13.0121 291.506 13.8539C291.753 14.0489 292.002 14.2587 292.249 14.4691C299.4 20.5969 304.025 30.4656 304.029 41.5853Z" fill="#4D4D4D"/>
<path d="M291.507 13.8516C287.656 12.0709 283.407 10.9939 278.93 10.8015C278.472 10.7764 278.007 10.767 277.541 10.7659L44.2593 10.0376C25.7065 9.98002 10.6217 24.9702 10.5632 43.5155L10.2789 134.286C10.2214 152.839 25.2116 167.924 43.7651 167.982L277.047 168.712C295.312 168.769 310.21 154.243 310.733 136.095C310.741 135.894 310.742 135.685 310.742 135.483L311.027 44.456C311.07 30.8909 303.067 19.1802 291.507 13.8516ZM290.994 100.835C290.109 100.833 289.241 100.722 288.418 100.516C283.696 99.3456 280.21 95.0828 280.226 90.0078C280.245 84.0412 285.094 79.2217 291.06 79.2406C293.52 79.2487 295.791 80.0777 297.603 81.4803C300.181 83.4516 301.839 86.5687 301.828 90.0755C301.81 96.0351 296.961 100.853 290.994 100.835Z" fill="#666666"/>
<path d="M292.249 14.4671C291.119 13.9045 289.956 13.4128 288.763 12.982C236.344 13.578 112.528 12.4309 69.7398 48.046C30.3972 80.7847 30.6823 160.834 112.872 168.198C113.997 168.303 115.137 168.391 116.293 168.464L277.047 168.967C295.398 169.024 310.35 154.359 310.733 136.095C310.742 135.893 310.742 135.684 310.743 135.482L311.026 44.7112C311.068 31.4426 303.407 19.9493 292.249 14.4671ZM291.062 79.2404C293.522 79.2484 295.792 80.0774 297.605 81.48C300.182 83.4513 301.841 86.5684 301.83 90.0752C301.811 96.0345 296.962 100.854 290.995 100.835C290.111 100.833 289.242 100.721 288.42 100.516C283.698 99.3453 280.212 95.0825 280.227 90.0075C280.245 84.0415 285.095 79.2223 291.062 79.2404Z" fill="#757575"/>
</g>
</svg>
